<svg xmlns="http://www.w3.org/2000/svg" width="196" height="216" viewBox="0 0 196 216" fill="none">
  <g clip-path="url(#clip0_101_3261)">
    <path d="M78.4594 45.8417C108.795 45.8417 133.387 35.5797 133.387 22.9208C133.387 10.262 108.795 0 78.4594 0C48.1238 0 23.532 10.262 23.532 22.9208C23.532 35.5797 48.1238 45.8417 78.4594 45.8417Z" fill="#8DA576"/>
    <path d="M11.7371 92.117C7.93345 73.0824 4.1257 54.0519 0.317946 35.0173C-0.074393 33.0597 -0.359355 30.7346 1.06545 29.3387C1.85839 28.5623 2.99824 28.2856 4.0844 28.0584C10.9276 26.6295 17.9278 25.9356 24.9155 26.0017C25.5474 26.0059 26.2164 26.0306 26.7451 26.3734C27.5421 26.8938 27.7569 27.9593 27.823 28.9092C28.2194 34.7777 25.6465 40.3696 23.7055 45.9201C21.4795 52.2843 20.0381 58.8921 18.5968 65.4793C16.5071 75.0523 14.4215 84.6213 12.3318 94.1943C11.2084 93.4014 10.7376 91.799 11.2539 90.5229" fill="#3C4A30"/>
    <path d="M116.351 194.687C116.021 198.011 115.451 201.278 114.555 204.433C113.749 207.266 112.593 210.095 110.673 211.648C109.173 212.862 107.373 213.156 105.634 213.366C92.6952 214.923 79.4382 212.8 66.4704 212.491C56.2861 212.251 46.0977 212.272 35.9176 212.561C28.3351 212.776 20.7403 213.197 13.1578 212.714C11.0639 212.581 6.84734 213.37 4.95999 212.024C2.75876 210.455 2.85788 204.846 2.90744 202.054C3.01068 195.843 3.18001 189.628 3.46084 183.425C5.67033 134.82 7.42966 85.2242 16.7797 37.9866C17.5726 33.9807 18.4812 29.8219 20.5957 26.8277C24.0855 21.8842 31.2302 24.1474 35.8019 24.2754C42.2611 24.453 48.7119 25.1262 55.1752 25.2418C62.2869 25.3699 69.3985 25.0477 76.5102 25.0229C82.4944 25.0023 88.2432 23.6147 92.4928 30.6726C94.979 34.8025 96.1932 40.0351 97.3206 45.1396C100.042 57.4549 102.566 69.8487 104.899 82.3085C105.787 87.0538 106.646 91.8114 107.323 96.6227C108.211 102.929 108.368 109.413 109.702 115.505C111.139 122.079 111.837 129.17 112.684 135.923C114.179 147.858 115.257 159.884 116.12 171.931C116.661 179.476 117.099 187.236 116.355 194.691L116.351 194.687Z" fill="#4F5E40"/>
    <path d="M167.946 174.198H155.833C153.479 174.198 151.571 176.107 151.571 178.46V184.713C151.571 187.067 153.479 188.975 155.833 188.975H167.946C170.3 188.975 172.208 187.067 172.208 184.713V178.46C172.208 176.107 170.3 174.198 167.946 174.198Z" fill="#3C4A30"/>
    <path d="M135.237 36.4049C144.707 36.2397 154.201 37.9825 162.994 41.497C167.355 43.244 171.613 45.4659 174.979 48.745C178.126 51.8094 180.373 55.6708 182.322 59.6066C193.7 82.6059 195.855 109.008 196 134.667C196.025 139.412 195.327 145.219 190.953 147.065C188.186 148.23 184.853 147.16 182.669 145.103C180.484 143.047 179.249 140.176 178.361 137.306C175.962 129.563 175.66 121.348 175.218 113.254C174.777 105.159 174.141 96.92 171.146 89.3871C168.152 81.8501 162.412 75.0028 154.664 72.6116C149.696 71.0752 143.377 71.9714 140.738 76.4523C135.993 63.0881 134.283 48.6583 135.778 34.5547" fill="#3C4A30"/>
    <path d="M3.399 196.07C3.85742 199.453 4.63797 202.777 5.87693 205.986C6.98787 208.869 8.582 211.747 11.2375 213.329C13.3107 214.564 15.7928 214.861 18.1964 215.076C36.0581 216.658 54.3659 214.498 72.2689 214.188C86.3311 213.94 100.393 213.965 114.456 214.258C124.929 214.477 135.411 214.907 145.884 214.411C148.779 214.275 154.594 215.08 157.204 213.709C160.244 212.111 160.103 206.407 160.037 203.562C159.893 197.243 159.661 190.916 159.269 184.606C156.217 135.15 153.793 84.6873 140.879 36.6196C139.784 32.5435 138.529 28.3103 135.609 25.2666C130.789 20.2364 120.923 22.5409 114.613 22.6689C105.692 22.8506 96.788 23.5321 87.8674 23.6518C78.0466 23.784 68.2299 23.4536 58.409 23.4288C50.1493 23.4082 42.2075 21.9957 36.3431 29.1776C32.9111 33.3777 31.2344 38.7011 29.6774 43.8965C25.9234 56.4266 22.4336 69.0392 19.2123 81.7179C17.9857 86.5458 16.7963 91.386 15.863 96.2799C14.6405 102.698 14.4217 109.293 12.5797 115.492C10.5933 122.178 9.63099 129.397 8.46224 136.27C6.3973 148.411 4.91054 160.648 3.71701 172.91C2.9695 180.587 2.36653 188.484 3.39074 196.07H3.399Z" fill="#4F5E40"/>
    <path d="M87.7971 46.4612H78.6205C74.5401 46.4612 71.2322 49.769 71.2322 53.8495V161.73C71.2322 165.811 74.5401 169.119 78.6205 169.119H87.7971C91.8776 169.119 95.1855 165.811 95.1855 161.73V53.8495C95.1855 49.769 91.8776 46.4612 87.7971 46.4612Z" fill="#BAB25E"/>
    <path d="M84.6709 60.0898H78.856C78.2949 60.0898 77.8401 60.5446 77.8401 61.1057C77.8401 61.6668 78.2949 62.1217 78.856 62.1217H84.6709C85.232 62.1217 85.6869 61.6668 85.6869 61.1057C85.6869 60.5446 85.232 60.0898 84.6709 60.0898Z" fill="#3C4A30"/>
    <path d="M84.2661 76.0228H78.4513C77.8902 76.0228 77.4353 76.4777 77.4353 77.0388C77.4353 77.5999 77.8902 78.0547 78.4513 78.0547H84.2661C84.8272 78.0547 85.2821 77.5999 85.2821 77.0388C85.2821 76.4777 84.8272 76.0228 84.2661 76.0228Z" fill="#3C4A30"/>
    <path d="M84.8401 106.935H79.0252C78.4641 106.935 78.0093 107.39 78.0093 107.951C78.0093 108.512 78.4641 108.967 79.0252 108.967H84.8401C85.4012 108.967 85.8561 108.512 85.8561 107.951C85.8561 107.39 85.4012 106.935 84.8401 106.935Z" fill="#3C4A30"/>
    <path d="M84.4273 91.6544H78.6124C78.0513 91.6544 77.5964 92.1093 77.5964 92.6704C77.5964 93.2315 78.0513 93.6863 78.6124 93.6863H84.4273C84.9883 93.6863 85.4432 93.2315 85.4432 92.6704C85.4432 92.1093 84.9883 91.6544 84.4273 91.6544Z" fill="#3C4A30"/>
    <path d="M84.6873 123.281H78.8724C78.3113 123.281 77.8564 123.736 77.8564 124.297C77.8564 124.858 78.3113 125.313 78.8724 125.313H84.6873C85.2484 125.313 85.7032 124.858 85.7032 124.297C85.7032 123.736 85.2484 123.281 84.6873 123.281Z" fill="#3C4A30"/>
    <path d="M85.1045 140.04H79.2896C78.7285 140.04 78.2737 140.495 78.2737 141.056C78.2737 141.617 78.7285 142.072 79.2896 142.072H85.1045C85.6656 142.072 86.1205 141.617 86.1205 141.056C86.1205 140.495 85.6656 140.04 85.1045 140.04Z" fill="#3C4A30"/>
    <path d="M85.2654 154.024H79.4505C78.8894 154.024 78.4346 154.479 78.4346 155.04C78.4346 155.601 78.8894 156.056 79.4505 156.056H85.2654C85.8265 156.056 86.2813 155.601 86.2813 155.04C86.2813 154.479 85.8265 154.024 85.2654 154.024Z" fill="#3C4A30"/>
    <path d="M2.88257 199.015L2.88257 208.191C2.88257 212.272 6.19045 215.58 10.2709 215.58H153.256C157.336 215.58 160.644 212.272 160.644 208.191V199.015C160.644 194.934 157.336 191.626 153.256 191.626H10.2709C6.19045 191.626 2.88257 194.934 2.88257 199.015Z" fill="#8DA576"/>
    <path d="M20.2283 30.5157V39.6923C20.2283 43.7728 23.5362 47.0806 27.6166 47.0806L128.477 47.0806C132.557 47.0806 135.865 43.7728 135.865 39.6923V30.5157C135.865 26.4352 132.557 23.1273 128.477 23.1273L27.6166 23.1273C23.5362 23.1273 20.2283 26.4352 20.2283 30.5157Z" fill="#4F5E40"/>
  </g>
  <defs>
    <clipPath id="clip0_101_3261">
      <rect width="196" height="215.646" fill="white"/>
    </clipPath>
  </defs>
</svg>
