<svg xmlns="http://www.w3.org/2000/svg" width="188" height="237" viewBox="0 0 188 237" fill="none">
  <g clip-path="url(#clip0_101_3446)">
    <path d="M102.837 217.376C149.871 217.376 188 179.274 188 132.273C188 85.2725 149.871 47.1709 102.837 47.1709C55.8022 47.1709 17.6733 85.2725 17.6733 132.273C17.6733 179.274 55.8022 217.376 102.837 217.376Z" fill="#BAB25E"/>
    <path d="M124.081 142.813C125.868 143.945 127.747 145.182 128.615 147.113C129.27 148.567 129.255 150.218 129.202 151.812C128.268 180.398 118.978 208.661 102.774 232.234C102.032 233.318 101.227 234.425 100.066 235.037C98.881 235.658 97.4837 235.677 96.149 235.639C86.7052 235.383 77.3192 233.149 68.7763 229.114C77.1071 223.13 84.5707 215.96 90.9453 207.934C94.0964 203.962 96.6549 200.765 98.7846 196.128C100.033 193.412 101.28 190.697 102.528 187.981C103.449 185.973 104.268 182.622 105.737 181C92.1113 196.176 78.0323 210.442 61.3658 222.292C60.2383 223.091 59.053 223.91 57.6846 224.117C55.9067 224.381 54.1576 223.568 52.5676 222.725C44.0778 218.228 35.7229 212.166 29.4928 204.79C31.2997 203.432 34.1328 202.734 36.1999 201.718C38.6668 200.505 41.0856 199.2 43.4707 197.832C48.1781 195.131 52.7459 192.194 57.3136 189.262C58.9085 188.236 60.513 187.201 61.8862 185.896C63.4618 184.394 64.7097 182.54 65.418 180.48C60.619 184.086 55.7477 187.731 50.1825 189.994C48.1444 190.822 46.034 191.453 43.9284 192.079C39.9726 193.258 36.012 194.423 31.9887 195.348C29.9409 195.82 27.8787 196.229 25.802 196.537C24.8046 196.686 23.8072 196.821 22.805 196.918C21.586 197.033 21.48 197.009 20.8247 196.012C16.6521 189.71 12.6384 183.027 10.3979 175.761C9.89201 174.124 9.48728 172.458 9.23672 170.763C12.6673 169.579 17.8518 170.417 21.6053 170.027C25.8839 169.579 30.1336 168.842 34.3159 167.821C42.6756 165.785 50.7656 162.626 58.2773 158.423C45.345 162.41 31.5599 162.352 18.0253 162.26C13.4672 162.231 8.90426 162.198 4.36062 161.856C2.27912 156.709 0.814355 151.316 0.00488281 145.827C7.81533 145.827 15.5487 147.763 23.3543 147.479C28.6014 147.286 33.1692 145.394 38.3247 144.927C44.309 144.388 50.2596 143.482 56.1331 142.221C67.7067 139.741 78.9911 135.885 89.6492 130.742C95.4889 127.926 99.2038 127.059 104.721 130.55C111.177 134.637 117.629 138.73 124.085 142.818L124.081 142.813Z" fill="#6E7F59"/>
    <path d="M115.6 124.632C110.238 122.798 104.48 121.431 99.3097 124.584C98.7604 124.897 98.2063 125.244 97.845 125.764C97.4836 126.284 97.3631 127.016 97.7149 127.541C97.9317 127.858 98.2786 128.056 98.6159 128.239C102.119 130.15 105.651 131.999 108.99 134.161C113.36 137.031 117.706 139.924 122.187 142.592C123.623 143.545 124.914 144.715 126.417 145.548C133.308 149.361 135.11 141.258 131.886 136.593C128.325 131.754 125.791 129.028 129.304 123.299C138.41 106.702 150.263 90.9333 156.137 72.8054C162.376 53.5364 166.351 33.6463 170.307 13.8139C170.982 10.4291 171.555 6.56277 169.445 3.83275C167.951 1.902 165.47 1.0594 163.089 0.529768C148.673 -2.64322 149.034 9.13872 149.637 19.5292C150.008 38.3793 147.907 57.4172 141.214 75.1454C139.504 79.811 138.506 84.5874 136.608 89.1374C134.551 94.063 132.007 98.7623 129.467 103.452C125.632 110.535 121.763 117.665 116.641 123.877" fill="#3C4A30"/>
    <path d="M61.3511 186.927C72.6981 179.661 82.1468 169.858 91.4798 160.146C83.1924 165.963 74.9097 171.779 66.6223 177.591C65.8321 178.144 64.9985 178.751 64.642 179.647C64.0397 181.139 64.8925 183.099 63.8421 184.322" fill="#4F5E40"/>
    <path d="M57.839 223.895C60.6721 223.351 63.115 221.627 65.394 219.855C76.452 211.261 85.838 200.519 92.8776 188.414C82.2388 199.888 71.4217 211.511 58.0751 219.677C63.0234 212.527 69.8895 206.937 75.5028 200.297C81.7136 192.955 86.3199 184.418 90.878 175.949C86.821 180.682 82.7592 185.42 78.7022 190.153C76.77 192.406 74.8331 194.669 72.5637 196.58C70.6267 198.213 68.4729 199.57 66.324 200.904C59.8145 204.944 53.223 208.844 46.5594 212.614C44.7477 213.639 42.8541 214.675 40.7822 214.829C43.9382 218.68 48.1783 221.632 52.8858 223.259C55.478 224.155 58.581 224.574 60.7637 222.922" fill="#4F5E40"/>
    <path d="M39.3271 175.8C45.0271 174.095 50.414 171.418 56.1622 169.877C47.7495 173.335 39.3367 176.796 30.9288 180.253C27.5946 181.626 24.1977 183.012 20.6032 183.301C22.6992 186.108 26.7176 186.45 30.2205 186.402C36.918 186.311 43.6106 185.699 50.2164 184.577C52.375 184.211 54.524 183.788 56.6585 183.311C58.793 182.834 60.7974 182.117 62.9126 182.049C58.0558 185.868 52.7557 189.108 46.9496 191.246C41.2351 193.355 35.2412 194.606 29.2424 195.618C27.3585 195.935 25.4649 196.229 23.5761 196.518C22.6751 196.653 21.6633 196.764 20.9357 196.219C20.3286 195.762 20.213 195.112 19.8998 194.486C19.4517 193.586 18.7434 192.743 18.1845 191.901L14.6671 186.599C14.2431 185.959 13.8143 185.319 13.4384 184.645C11.8869 181.895 11.1931 178.761 10.5186 175.679C11.5352 176.238 12.282 176.546 13.3903 176.777C14.5852 177.023 15.7849 177.254 16.9943 177.427C19.4131 177.774 21.856 177.952 24.294 177.962C29.1798 177.976 34.0655 177.307 38.7634 175.963C38.9513 175.91 39.1392 175.853 39.3271 175.8Z" fill="#4F5E40"/>
    <path d="M120.602 192.035C114.362 207.327 104.591 221.16 92.2607 232.157C91.3645 231.585 91.1911 230.275 90.319 229.673C88.8012 228.628 86.8691 230.467 85.0285 230.429C84.7153 230.424 84.3828 230.352 84.166 230.126C83.9444 229.899 83.8721 229.567 83.6986 229.297C82.7494 227.843 79.7091 229.35 79.0297 227.752C78.731 227.049 79.208 226.269 79.6657 225.657C87.3654 215.378 96.2744 206.066 104.509 196.21C106.277 194.096 108.021 191.939 109.346 189.522C110.353 187.678 111.105 185.709 111.784 183.72C112.555 181.452 113.24 179.151 113.823 176.83C109.881 181.337 107.487 186.946 104.316 192.026C101.088 197.202 97.0549 201.819 93.0365 206.412C91.3019 208.396 89.5673 210.385 87.8327 212.368C85.944 214.53 84.0504 216.697 81.9881 218.695C78.4322 222.143 74.4042 225.065 70.6893 228.339C70.405 228.59 70.1014 228.898 70.1303 229.278C70.1592 229.601 70.4339 229.846 70.6941 230.039C73.9464 232.485 78.1383 233.202 82.1568 233.852C84.2383 234.189 86.4884 234.815 88.5988 234.849C90.7092 234.883 92.6076 235.018 94.6988 235.648C95.8648 236 97.0742 236.404 98.2691 236.163C100.086 235.802 101.266 234.098 102.254 232.538C102.784 231.7 103.314 230.867 103.839 230.029C106.648 225.585 109.476 221.112 111.563 216.268C112.083 215.065 112.459 213.794 112.984 212.595C113.326 211.82 113.876 211.247 114.338 210.553C115.735 208.43 116.482 205.623 117.321 203.24C118.612 199.566 119.711 195.82 120.607 192.031L120.602 192.035Z" fill="#4F5E40"/>
    <path d="M4.03271 161.61C17.3649 163.575 30.9332 162.376 44.3522 161.172C34.2819 160.123 24.2117 159.073 14.1415 158.023C13.1778 157.922 12.1563 157.836 11.2939 158.274C9.85803 159.006 9.21719 161.042 7.62234 161.278" fill="#4F5E40"/>
  </g>
  <defs>
    <clipPath id="clip0_101_3446">
      <rect width="188" height="236.24" fill="white"/>
    </clipPath>
  </defs>
</svg>