<svg width="312" height="143" viewBox="0 0 312 143" fill="none" xmlns="http://www.w3.org/2000/svg">
<g clip-path="url(#clip0_183_793)">
<path d="M11.3979 39.3896H82.1212V132.451C82.1212 138.274 77.3941 143 71.5705 143H21.9487C16.125 143 11.3979 138.274 11.3979 132.451V39.3896Z" fill="#384B2D"/>
<path d="M27.677 52.8166C27.677 51.2775 26.4291 50.0298 24.8898 50.0298C23.3504 50.0298 22.1025 51.2775 22.1025 52.8166V129.568C22.1025 131.107 23.3504 132.355 24.8898 132.355C26.4291 132.355 27.677 131.107 27.677 129.568V52.8166Z" fill="#fffce2"/>
<path d="M49.5471 52.8166C49.5471 51.2775 48.2992 50.0298 46.7599 50.0298C45.2205 50.0298 43.9727 51.2775 43.9727 52.8166V129.568C43.9727 131.107 45.2205 132.355 46.7599 132.355C48.2992 132.355 49.5471 131.107 49.5471 129.568V52.8166Z" fill="#fffce2"/>
<path d="M71.2258 52.8166C71.2258 51.2775 69.9779 50.0298 68.4386 50.0298C66.8992 50.0298 65.6514 51.2775 65.6514 52.8166V129.568C65.6514 131.107 66.8992 132.355 68.4386 132.355C69.9779 132.355 71.2258 131.107 71.2258 129.568V52.8166Z" fill="#fffce2"/>
<path d="M83.4754 32.7968L20.6448 0.316692C19.2631 -0.397552 17.5644 0.142504 16.8506 1.52294C16.1368 2.90338 16.6781 4.60146 18.0598 5.3157L80.8904 37.7958C82.2721 38.5101 83.9708 37.97 84.6846 36.5896C85.3984 35.2092 84.8571 33.5111 83.4754 32.7968Z" fill="#384B2D"/>
<path d="M68.6633 16.4273L41.6241 2.44944C40.218 1.72256 38.4888 2.27301 37.7618 3.67892L37.7599 3.68261C37.0329 5.08852 37.5834 6.81749 38.9895 7.54437L66.0287 21.5222C67.4348 22.2491 69.164 21.6986 69.891 20.2927L69.8929 20.289C70.6199 18.8831 70.0694 17.1542 68.6633 16.4273Z" fill="#384B2D"/>
<path d="M16.7524 11.9199H4.35738C1.95086 11.9199 0 13.8705 0 16.2767V28.6699C0 31.0761 1.95086 33.0267 4.35738 33.0267H16.7524C19.1589 33.0267 21.1098 31.0761 21.1098 28.6699V16.2767C21.1098 13.8705 19.1589 11.9199 16.7524 11.9199Z" fill="#891A04"/>
<path opacity="0.2" d="M7.05616 15.2538L6.52122 15.6412C6.17376 15.8927 6.09606 16.3783 6.34767 16.7257L14.0756 27.3959C14.3272 27.7433 14.8128 27.821 15.1603 27.5694L15.6952 27.1821C16.0427 26.9305 16.1204 26.445 15.8688 26.0976L8.14088 15.4274C7.88926 15.08 7.40362 15.0023 7.05616 15.2538Z" fill="#FBF1BD"/>
<path opacity="0.2" d="M4.90988 15.3589H4.24942C3.82043 15.3589 3.47266 15.7066 3.47266 16.1355V29.3096C3.47266 29.7385 3.82043 30.0863 4.24942 30.0863H4.90988C5.33888 30.0863 5.68665 29.7385 5.68665 29.3096V16.1355C5.68665 15.7066 5.33888 15.3589 4.90988 15.3589Z" fill="#FBF1BD"/>
<path opacity="0.2" d="M14.2561 14.8936H13.5956C13.1666 14.8936 12.8188 15.2413 12.8188 15.6702V28.8443C12.8188 29.2732 13.1666 29.6209 13.5956 29.6209H14.2561C14.6851 29.6209 15.0328 29.2732 15.0328 28.8443V15.6702C15.0328 15.2413 14.6851 14.8936 14.2561 14.8936Z" fill="#FBF1BD"/>
<path d="M23.835 15.2715H11.4399C9.03338 15.2715 7.08252 17.2221 7.08252 19.6282V32.0215C7.08252 34.4276 9.03338 36.3782 11.4399 36.3782H23.835C26.2415 36.3782 28.1923 34.4276 28.1923 32.0215V19.6282C28.1923 17.2221 26.2415 15.2715 23.835 15.2715Z" fill="#B23D29"/>
<path opacity="0.5" d="M23.1701 26.6641L16.0546 26.8012C14.9788 26.8012 14.1064 25.7712 14.1064 24.5003V22.0914C14.1064 20.8205 14.9788 19.7905 16.0546 19.7905H23.8763C24.9521 19.7905 25.8244 20.8205 25.8244 22.0914V27.8395C25.8244 28.2382 25.4589 28.4874 25.164 28.288C24.1795 27.6194 23.9344 27.2705 23.1701 26.6641Z" fill="#FBF1BD"/>
<path opacity="0.5" d="M18.7587 30.0863H11.8633C11.1821 30.5431 10.5549 31.2492 10.0356 31.6811C9.69088 31.9677 9.4458 31.9261 9.4458 31.4194V25.4679C9.4458 24.2219 10.2766 23.2085 11.3026 23.2085H18.7587C19.7847 23.2085 20.6155 24.2177 20.6155 25.4679V27.831C20.6155 29.077 19.7847 30.0904 18.7587 30.0904V30.0863Z" fill="#FBF1BD"/>
</g>
<mask id="path-14-outside-1_183_793" maskUnits="userSpaceOnUse" x="98" y="52" width="165" height="88" fill="black">
<rect fill="white" x="98" y="52" width="165" height="88"/>
<path d="M111.97 55.23C119.973 55.23 123.975 58.8583 123.975 66.115C123.975 73.3717 119.973 77 111.97 77H101.12V55.23H111.97ZM111.375 68.95C112.122 68.9267 112.635 68.7283 112.915 68.355C113.195 67.9817 113.335 67.235 113.335 66.115C113.335 64.995 113.195 64.2483 112.915 63.875C112.635 63.5017 112.122 63.3033 111.375 63.28V68.95ZM125.866 77V55.23H136.121V77H125.866ZM159.481 64.89V76.37C157.241 77.1633 154.348 77.56 150.801 77.56C142.284 77.56 138.026 73.7683 138.026 66.185C138.026 62.4517 139.123 59.605 141.316 57.645C143.533 55.6617 146.764 54.67 151.011 54.67C153.834 54.67 156.576 54.9617 159.236 55.545V63.84C156.459 63.35 154.289 63.105 152.726 63.105C151.466 63.105 150.568 63.3383 150.031 63.805C149.518 64.2717 149.261 65.0533 149.261 66.15C149.261 67.2 149.506 67.9583 149.996 68.425C150.509 68.8917 151.361 69.125 152.551 69.125H153.356L151.431 67.83V64.89H159.481ZM161.721 77V55.23H171.976V77H161.721ZM193.585 55.23V63.28H188.79V77H178.535V63.28H173.74V55.23H193.585ZM206.359 77L206.219 74.76H203.594L203.454 77H192.114L199.044 55.23H210.769L217.734 77H206.359ZM204.014 68.355H205.869L205.029 61.74H204.819L204.014 68.355ZM229.124 68.95H236.229V77H218.869V55.23H229.124V68.95ZM111.095 107.56C107.945 107.56 104.69 107.14 101.33 106.3V99.405H108.365C108.762 99.405 108.96 99.2533 108.96 98.95C108.96 98.6467 108.762 98.4717 108.365 98.425C105.822 98.2617 103.873 97.5967 102.52 96.43C101.19 95.2633 100.537 93.6767 100.56 91.67C100.583 87.0733 103.663 84.74 109.8 84.67C112.927 84.6467 116.252 85.0783 119.775 85.965V92.825H113.265C112.868 92.825 112.67 92.9883 112.67 93.315C112.67 93.595 112.88 93.7583 113.3 93.805C116.077 94.0383 118.06 94.6917 119.25 95.765C120.463 96.8383 121.07 98.46 121.07 100.63C121.07 105.25 117.745 107.56 111.095 107.56ZM142.986 95.52L147.536 107H135.356L134.271 99.02C134.201 98.5533 133.956 98.32 133.536 98.32H133.011V107H122.756V85.23H133.011V93.245H133.431C133.874 93.245 134.131 93 134.201 92.51L135.251 85.23H147.116L142.986 95.52ZM161.054 107L160.074 100.875C160.004 100.408 159.759 100.175 159.339 100.175H158.919V107H148.664V85.23H160.949C164.496 85.23 167.132 85.86 168.859 87.12C170.609 88.3567 171.484 90.34 171.484 93.07C171.484 94.3067 171.274 95.4033 170.854 96.36C170.434 97.3167 169.862 98.0167 169.139 98.46L172.884 107H161.054ZM159.269 94.645C160.319 94.645 160.844 94.12 160.844 93.07C160.844 92.02 160.319 91.495 159.269 91.495H158.919V94.645H159.269ZM187.116 107L186.976 104.76H184.351L184.211 107H172.871L179.801 85.23H191.526L198.491 107H187.116ZM184.771 98.355H186.626L185.786 91.74H185.576L184.771 98.355ZM209.881 98.95H216.986V107H199.626V85.23H209.881V98.95ZM229.582 85.23C237.586 85.23 241.587 88.8583 241.587 96.115C241.587 103.372 237.586 107 229.582 107H218.732V85.23H229.582ZM228.987 98.95C229.734 98.9267 230.247 98.7283 230.527 98.355C230.807 97.9817 230.947 97.235 230.947 96.115C230.947 94.995 230.807 94.2483 230.527 93.875C230.247 93.5017 229.734 93.3033 228.987 93.28V98.95ZM260.523 91.88H253.383V93.105H259.788V99.125H253.383V100.35H260.523V107H243.478V85.23H260.523V91.88ZM111.97 115.23C119.973 115.23 123.975 118.858 123.975 126.115C123.975 133.372 119.973 137 111.97 137H101.12V115.23H111.97ZM111.375 128.95C112.122 128.927 112.635 128.728 112.915 128.355C113.195 127.982 113.335 127.235 113.335 126.115C113.335 124.995 113.195 124.248 112.915 123.875C112.635 123.502 112.122 123.303 111.375 123.28V128.95ZM137.419 137L137.279 134.76H134.654L134.514 137H123.174L130.104 115.23H141.829L148.794 137H137.419ZM135.074 128.355H136.929L136.089 121.74H135.879L135.074 128.355ZM169.461 124.89V136.37C167.221 137.163 164.328 137.56 160.781 137.56C152.265 137.56 148.006 133.768 148.006 126.185C148.006 122.452 149.103 119.605 151.296 117.645C153.513 115.662 156.745 114.67 160.991 114.67C163.815 114.67 166.556 114.962 169.216 115.545V123.84C166.44 123.35 164.27 123.105 162.706 123.105C161.446 123.105 160.548 123.338 160.011 123.805C159.498 124.272 159.241 125.053 159.241 126.15C159.241 127.2 159.486 127.958 159.976 128.425C160.49 128.892 161.341 129.125 162.531 129.125H163.336L161.411 127.83V124.89H169.461Z"/>
</mask>
<path d="M111.97 55.23C119.973 55.23 123.975 58.8583 123.975 66.115C123.975 73.3717 119.973 77 111.97 77H101.12V55.23H111.97ZM111.375 68.95C112.122 68.9267 112.635 68.7283 112.915 68.355C113.195 67.9817 113.335 67.235 113.335 66.115C113.335 64.995 113.195 64.2483 112.915 63.875C112.635 63.5017 112.122 63.3033 111.375 63.28V68.95ZM125.866 77V55.23H136.121V77H125.866ZM159.481 64.89V76.37C157.241 77.1633 154.348 77.56 150.801 77.56C142.284 77.56 138.026 73.7683 138.026 66.185C138.026 62.4517 139.123 59.605 141.316 57.645C143.533 55.6617 146.764 54.67 151.011 54.67C153.834 54.67 156.576 54.9617 159.236 55.545V63.84C156.459 63.35 154.289 63.105 152.726 63.105C151.466 63.105 150.568 63.3383 150.031 63.805C149.518 64.2717 149.261 65.0533 149.261 66.15C149.261 67.2 149.506 67.9583 149.996 68.425C150.509 68.8917 151.361 69.125 152.551 69.125H153.356L151.431 67.83V64.89H159.481ZM161.721 77V55.23H171.976V77H161.721ZM193.585 55.23V63.28H188.79V77H178.535V63.28H173.74V55.23H193.585ZM206.359 77L206.219 74.76H203.594L203.454 77H192.114L199.044 55.23H210.769L217.734 77H206.359ZM204.014 68.355H205.869L205.029 61.74H204.819L204.014 68.355ZM229.124 68.95H236.229V77H218.869V55.23H229.124V68.95ZM111.095 107.56C107.945 107.56 104.69 107.14 101.33 106.3V99.405H108.365C108.762 99.405 108.96 99.2533 108.96 98.95C108.96 98.6467 108.762 98.4717 108.365 98.425C105.822 98.2617 103.873 97.5967 102.52 96.43C101.19 95.2633 100.537 93.6767 100.56 91.67C100.583 87.0733 103.663 84.74 109.8 84.67C112.927 84.6467 116.252 85.0783 119.775 85.965V92.825H113.265C112.868 92.825 112.67 92.9883 112.67 93.315C112.67 93.595 112.88 93.7583 113.3 93.805C116.077 94.0383 118.06 94.6917 119.25 95.765C120.463 96.8383 121.07 98.46 121.07 100.63C121.07 105.25 117.745 107.56 111.095 107.56ZM142.986 95.52L147.536 107H135.356L134.271 99.02C134.201 98.5533 133.956 98.32 133.536 98.32H133.011V107H122.756V85.23H133.011V93.245H133.431C133.874 93.245 134.131 93 134.201 92.51L135.251 85.23H147.116L142.986 95.52ZM161.054 107L160.074 100.875C160.004 100.408 159.759 100.175 159.339 100.175H158.919V107H148.664V85.23H160.949C164.496 85.23 167.132 85.86 168.859 87.12C170.609 88.3567 171.484 90.34 171.484 93.07C171.484 94.3067 171.274 95.4033 170.854 96.36C170.434 97.3167 169.862 98.0167 169.139 98.46L172.884 107H161.054ZM159.269 94.645C160.319 94.645 160.844 94.12 160.844 93.07C160.844 92.02 160.319 91.495 159.269 91.495H158.919V94.645H159.269ZM187.116 107L186.976 104.76H184.351L184.211 107H172.871L179.801 85.23H191.526L198.491 107H187.116ZM184.771 98.355H186.626L185.786 91.74H185.576L184.771 98.355ZM209.881 98.95H216.986V107H199.626V85.23H209.881V98.95ZM229.582 85.23C237.586 85.23 241.587 88.8583 241.587 96.115C241.587 103.372 237.586 107 229.582 107H218.732V85.23H229.582ZM228.987 98.95C229.734 98.9267 230.247 98.7283 230.527 98.355C230.807 97.9817 230.947 97.235 230.947 96.115C230.947 94.995 230.807 94.2483 230.527 93.875C230.247 93.5017 229.734 93.3033 228.987 93.28V98.95ZM260.523 91.88H253.383V93.105H259.788V99.125H253.383V100.35H260.523V107H243.478V85.23H260.523V91.88ZM111.97 115.23C119.973 115.23 123.975 118.858 123.975 126.115C123.975 133.372 119.973 137 111.97 137H101.12V115.23H111.97ZM111.375 128.95C112.122 128.927 112.635 128.728 112.915 128.355C113.195 127.982 113.335 127.235 113.335 126.115C113.335 124.995 113.195 124.248 112.915 123.875C112.635 123.502 112.122 123.303 111.375 123.28V128.95ZM137.419 137L137.279 134.76H134.654L134.514 137H123.174L130.104 115.23H141.829L148.794 137H137.419ZM135.074 128.355H136.929L136.089 121.74H135.879L135.074 128.355ZM169.461 124.89V136.37C167.221 137.163 164.328 137.56 160.781 137.56C152.265 137.56 148.006 133.768 148.006 126.185C148.006 122.452 149.103 119.605 151.296 117.645C153.513 115.662 156.745 114.67 160.991 114.67C163.815 114.67 166.556 114.962 169.216 115.545V123.84C166.44 123.35 164.27 123.105 162.706 123.105C161.446 123.105 160.548 123.338 160.011 123.805C159.498 124.272 159.241 125.053 159.241 126.15C159.241 127.2 159.486 127.958 159.976 128.425C160.49 128.892 161.341 129.125 162.531 129.125H163.336L161.411 127.83V124.89H169.461Z" fill="#6E7F59"/>
<path d="M101.12 77H99.12V79H101.12V77ZM101.12 55.23V53.23H99.12V55.23H101.12ZM111.375 68.95H109.375V71.0135L111.437 70.949L111.375 68.95ZM111.375 63.28L111.437 61.281L109.375 61.2165V63.28H111.375ZM111.97 57.23C115.709 57.23 118.14 58.0818 119.63 59.4329C121.083 60.7503 121.975 62.8482 121.975 66.115H125.975C125.975 62.1251 124.866 58.7806 122.317 56.4696C119.806 54.1924 116.234 53.23 111.97 53.23V57.23ZM121.975 66.115C121.975 69.3818 121.083 71.4797 119.63 72.7971C118.14 74.1482 115.709 75 111.97 75V79C116.234 79 119.806 78.0376 122.317 75.7604C124.866 73.4494 125.975 70.1049 125.975 66.115H121.975ZM111.97 75H101.12V79H111.97V75ZM103.12 77V55.23H99.12V77H103.12ZM101.12 57.23H111.97V53.23H101.12V57.23ZM111.437 70.949C112.428 70.9181 113.697 70.6455 114.515 69.555L111.315 67.155C111.372 67.0789 111.435 67.0207 111.492 66.9796C111.547 66.9396 111.588 66.9225 111.599 66.9182C111.61 66.9141 111.594 66.9212 111.545 66.9299C111.495 66.9387 111.419 66.9476 111.313 66.951L111.437 70.949ZM114.515 69.555C114.92 69.0156 115.101 68.3909 115.196 67.8836C115.296 67.3463 115.335 66.7464 115.335 66.115H111.335C111.335 66.6036 111.304 66.937 111.264 67.1464C111.245 67.2482 111.229 67.2955 111.226 67.3028C111.223 67.3121 111.244 67.2495 111.315 67.155L114.515 69.555ZM115.335 66.115C115.335 65.4836 115.296 64.8837 115.196 64.3464C115.101 63.8391 114.92 63.2144 114.515 62.675L111.315 65.075C111.244 64.9805 111.223 64.9179 111.226 64.9272C111.229 64.9345 111.245 64.9818 111.264 65.0836C111.304 65.293 111.335 65.6264 111.335 66.115H115.335ZM114.515 62.675C113.697 61.5845 112.428 61.3119 111.437 61.281L111.313 65.279C111.419 65.2824 111.495 65.2913 111.545 65.3001C111.594 65.3088 111.61 65.3159 111.599 65.3118C111.588 65.3075 111.547 65.2904 111.492 65.2504C111.435 65.2093 111.372 65.1511 111.315 65.075L114.515 62.675ZM109.375 63.28V68.95H113.375V63.28H109.375ZM125.866 77H123.866V79H125.866V77ZM125.866 55.23V53.23H123.866V55.23H125.866ZM136.121 55.23H138.121V53.23H136.121V55.23ZM136.121 77V79H138.121V77H136.121ZM127.866 77V55.23H123.866V77H127.866ZM125.866 57.23H136.121V53.23H125.866V57.23ZM134.121 55.23V77H138.121V55.23H134.121ZM136.121 75H125.866V79H136.121V75ZM159.481 64.89H161.481V62.89H159.481V64.89ZM159.481 76.37L160.149 78.2553L161.481 77.7834V76.37H159.481ZM141.316 57.645L142.649 59.1363L142.649 59.1355L141.316 57.645ZM159.236 55.545H161.236V53.9361L159.664 53.5914L159.236 55.545ZM159.236 63.84L158.888 65.8096L161.236 66.2238V63.84H159.236ZM150.031 63.805L148.719 62.2958L148.702 62.3103L148.686 62.3251L150.031 63.805ZM149.996 68.425L148.617 69.8733L148.633 69.8893L148.651 69.9049L149.996 68.425ZM153.356 69.125V71.125H159.912L154.472 67.4656L153.356 69.125ZM151.431 67.83H149.431V68.895L150.315 69.4894L151.431 67.83ZM151.431 64.89V62.89H149.431V64.89H151.431ZM157.481 64.89V76.37H161.481V64.89H157.481ZM158.813 74.4847C156.866 75.1745 154.221 75.56 150.801 75.56V79.56C154.474 79.56 157.616 79.1522 160.149 78.2553L158.813 74.4847ZM150.801 75.56C146.797 75.56 144.168 74.6638 142.55 73.2226C140.975 71.8207 140.026 69.6044 140.026 66.185H136.026C136.026 70.3489 137.206 73.8201 139.89 76.2099C142.529 78.5604 146.288 79.56 150.801 79.56V75.56ZM140.026 66.185C140.026 62.8571 140.988 60.6198 142.649 59.1363L139.983 56.1537C137.257 58.5902 136.026 62.0463 136.026 66.185H140.026ZM142.649 59.1355C144.369 57.5969 147.048 56.67 151.011 56.67V52.67C146.481 52.67 142.696 53.7265 139.982 56.1545L142.649 59.1355ZM151.011 56.67C153.695 56.67 156.293 56.9472 158.807 57.4986L159.664 53.5914C156.858 52.9761 153.973 52.67 151.011 52.67V56.67ZM157.236 55.545V63.84H161.236V55.545H157.236ZM159.583 61.8704C156.768 61.3735 154.463 61.105 152.726 61.105V65.105C154.115 65.105 156.151 65.3265 158.888 65.8096L159.583 61.8704ZM152.726 61.105C151.319 61.105 149.811 61.346 148.719 62.2958L151.343 65.3142C151.318 65.3359 151.372 65.2775 151.61 65.2158C151.848 65.1538 152.209 65.105 152.726 65.105V61.105ZM148.686 62.3251C147.565 63.3433 147.261 64.8111 147.261 66.15H151.261C151.261 65.7476 151.309 65.5003 151.354 65.3652C151.394 65.2416 151.419 65.2458 151.376 65.2849L148.686 62.3251ZM147.261 66.15C147.261 67.4508 147.557 68.8644 148.617 69.8733L151.375 66.9767C151.454 67.0522 151.261 66.9492 151.261 66.15H147.261ZM148.651 69.9049C149.718 70.8755 151.191 71.125 152.551 71.125V67.125C152.077 67.125 151.754 67.0775 151.548 67.0211C151.345 66.9656 151.31 66.9167 151.341 66.9451L148.651 69.9049ZM152.551 71.125H153.356V67.125H152.551V71.125ZM154.472 67.4656L152.547 66.1706L150.315 69.4894L152.24 70.7844L154.472 67.4656ZM153.431 67.83V64.89H149.431V67.83H153.431ZM151.431 66.89H159.481V62.89H151.431V66.89ZM161.721 77H159.721V79H161.721V77ZM161.721 55.23V53.23H159.721V55.23H161.721ZM171.976 55.23H173.976V53.23H171.976V55.23ZM171.976 77V79H173.976V77H171.976ZM163.721 77V55.23H159.721V77H163.721ZM161.721 57.23H171.976V53.23H161.721V57.23ZM169.976 55.23V77H173.976V55.23H169.976ZM171.976 75H161.721V79H171.976V75ZM193.585 55.23H195.585V53.23H193.585V55.23ZM193.585 63.28V65.28H195.585V63.28H193.585ZM188.79 63.28V61.28H186.79V63.28H188.79ZM188.79 77V79H190.79V77H188.79ZM178.535 77H176.535V79H178.535V77ZM178.535 63.28H180.535V61.28H178.535V63.28ZM173.74 63.28H171.74V65.28H173.74V63.28ZM173.74 55.23V53.23H171.74V55.23H173.74ZM191.585 55.23V63.28H195.585V55.23H191.585ZM193.585 61.28H188.79V65.28H193.585V61.28ZM186.79 63.28V77H190.79V63.28H186.79ZM188.79 75H178.535V79H188.79V75ZM180.535 77V63.28H176.535V77H180.535ZM178.535 61.28H173.74V65.28H178.535V61.28ZM175.74 63.28V55.23H171.74V63.28H175.74ZM173.74 57.23H193.585V53.23H173.74V57.23ZM206.359 77L204.363 77.1248L204.48 79H206.359V77ZM206.219 74.76L208.215 74.6352L208.098 72.76H206.219V74.76ZM203.594 74.76V72.76H201.715L201.598 74.6352L203.594 74.76ZM203.454 77V79H205.333L205.45 77.1248L203.454 77ZM192.114 77L190.208 76.3933L189.379 79H192.114V77ZM199.044 55.23V53.23H197.582L197.138 54.6233L199.044 55.23ZM210.769 55.23L212.674 54.6206L212.229 53.23H210.769V55.23ZM217.734 77V79H220.474L219.639 76.3906L217.734 77ZM204.014 68.355L202.029 68.1134L201.756 70.355H204.014V68.355ZM205.869 68.355V70.355H208.139L207.853 68.1031L205.869 68.355ZM205.029 61.74L207.013 61.4881L206.791 59.74H205.029V61.74ZM204.819 61.74V59.74H203.048L202.834 61.4984L204.819 61.74ZM208.355 76.8752L208.215 74.6352L204.223 74.8848L204.363 77.1248L208.355 76.8752ZM206.219 72.76H203.594V76.76H206.219V72.76ZM201.598 74.6352L201.458 76.8752L205.45 77.1248L205.59 74.8848L201.598 74.6352ZM203.454 75H192.114V79H203.454V75ZM194.02 77.6067L200.95 55.8367L197.138 54.6233L190.208 76.3933L194.02 77.6067ZM199.044 57.23H210.769V53.23H199.044V57.23ZM208.864 55.8394L215.829 77.6094L219.639 76.3906L212.674 54.6206L208.864 55.8394ZM217.734 75H206.359V79H217.734V75ZM204.014 70.355H205.869V66.355H204.014V70.355ZM207.853 68.1031L207.013 61.4881L203.045 61.9919L203.885 68.6069L207.853 68.1031ZM205.029 59.74H204.819V63.74H205.029V59.74ZM202.834 61.4984L202.029 68.1134L206 68.5966L206.805 61.9816L202.834 61.4984ZM229.124 68.95H227.124V70.95H229.124V68.95ZM236.229 68.95H238.229V66.95H236.229V68.95ZM236.229 77V79H238.229V77H236.229ZM218.869 77H216.869V79H218.869V77ZM218.869 55.23V53.23H216.869V55.23H218.869ZM229.124 55.23H231.124V53.23H229.124V55.23ZM229.124 70.95H236.229V66.95H229.124V70.95ZM234.229 68.95V77H238.229V68.95H234.229ZM236.229 75H218.869V79H236.229V75ZM220.869 77V55.23H216.869V77H220.869ZM218.869 57.23H229.124V53.23H218.869V57.23ZM227.124 55.23V68.95H231.124V55.23H227.124ZM101.33 106.3H99.33V107.862L100.845 108.24L101.33 106.3ZM101.33 99.405V97.405H99.33V99.405H101.33ZM108.365 98.425L108.599 96.4387L108.546 96.4325L108.493 96.4291L108.365 98.425ZM102.52 96.43L101.201 97.9335L101.208 97.9392L101.214 97.9448L102.52 96.43ZM100.56 91.67L102.56 91.6933L102.56 91.6802L100.56 91.67ZM109.8 84.67L109.785 82.67L109.777 82.6701L109.8 84.67ZM119.775 85.965H121.775V84.406L120.263 84.0255L119.775 85.965ZM119.775 92.825V94.825H121.775V92.825H119.775ZM113.3 93.805L113.079 95.7928L113.106 95.7957L113.133 95.798L113.3 93.805ZM119.25 95.765L117.91 97.2501L117.918 97.2566L117.925 97.263L119.25 95.765ZM111.095 105.56C108.124 105.56 105.032 105.164 101.815 104.36L100.845 108.24C104.348 109.116 107.766 109.56 111.095 109.56V105.56ZM103.33 106.3V99.405H99.33V106.3H103.33ZM101.33 101.405H108.365V97.405H101.33V101.405ZM108.365 101.405C108.762 101.405 109.426 101.339 110.026 100.88C110.728 100.343 110.96 99.5752 110.96 98.95H106.96C106.96 98.8104 106.983 98.5946 107.089 98.3499C107.201 98.0934 107.378 97.8697 107.596 97.7025C107.998 97.3952 108.365 97.405 108.365 97.405V101.405ZM110.96 98.95C110.96 98.3178 110.729 97.6164 110.134 97.0916C109.611 96.6295 109.008 96.4868 108.599 96.4387L108.131 100.411C108.119 100.41 107.813 100.378 107.488 100.091C107.092 99.7411 106.96 99.2788 106.96 98.95H110.96ZM108.493 96.4291C106.205 96.2821 104.735 95.699 103.826 94.9152L101.214 97.9448C103.012 99.4943 105.439 100.241 108.237 100.421L108.493 96.4291ZM103.839 94.9265C103.01 94.1992 102.542 93.2036 102.56 91.6933L98.5601 91.6467C98.531 94.1497 99.3703 96.3275 101.201 97.9335L103.839 94.9265ZM102.56 91.6802C102.569 89.8718 103.148 88.784 104.095 88.0667C105.146 87.2709 106.949 86.7026 109.823 86.6699L109.777 82.6701C106.514 82.7073 103.709 83.3407 101.68 84.8783C99.5467 86.4943 98.5742 88.8715 98.56 91.6598L102.56 91.6802ZM109.815 86.6699C112.747 86.6481 115.902 87.0527 119.287 87.9045L120.263 84.0255C116.601 83.1039 113.106 82.6453 109.785 82.6701L109.815 86.6699ZM117.775 85.965V92.825H121.775V85.965H117.775ZM119.775 90.825H113.265V94.825H119.775V90.825ZM113.265 90.825C112.843 90.825 112.154 90.904 111.547 91.4036C110.866 91.9645 110.67 92.73 110.67 93.315H114.67C114.67 93.5734 114.573 94.0939 114.09 94.4914C113.682 94.8276 113.291 94.825 113.265 94.825V90.825ZM110.67 93.315C110.67 94.0346 110.979 94.7431 111.6 95.2262C112.12 95.6312 112.699 95.7505 113.079 95.7928L113.521 91.8172C113.522 91.8174 113.535 91.8188 113.557 91.8233C113.578 91.8277 113.613 91.836 113.657 91.8508C113.742 91.8791 113.891 91.9408 114.055 92.0688C114.229 92.2035 114.398 92.396 114.517 92.647C114.634 92.8947 114.67 93.1308 114.67 93.315H110.67ZM113.133 95.798C115.762 96.0189 117.209 96.6173 117.91 97.2501L120.59 94.2799C118.911 92.766 116.392 92.0578 113.467 91.812L113.133 95.798ZM117.925 97.263C118.576 97.8394 119.07 98.8283 119.07 100.63H123.07C123.07 98.0917 122.35 95.8372 120.575 94.267L117.925 97.263ZM119.07 100.63C119.07 102.392 118.477 103.461 117.435 104.185C116.261 105.001 114.25 105.56 111.095 105.56V109.56C114.59 109.56 117.567 108.964 119.717 107.47C122 105.884 123.07 103.488 123.07 100.63H119.07ZM142.986 95.52L141.13 94.775L140.833 95.5153L141.126 96.2569L142.986 95.52ZM147.536 107V109H150.48L149.395 106.263L147.536 107ZM135.356 107L133.374 107.269L133.609 109H135.356V107ZM134.271 99.02L136.253 98.7505L136.251 98.7369L136.249 98.7233L134.271 99.02ZM133.011 98.32V96.32H131.011V98.32H133.011ZM133.011 107V109H135.011V107H133.011ZM122.756 107H120.756V109H122.756V107ZM122.756 85.23V83.23H120.756V85.23H122.756ZM133.011 85.23H135.011V83.23H133.011V85.23ZM133.011 93.245H131.011V95.245H133.011V93.245ZM134.201 92.51L132.221 92.2245L132.221 92.2272L134.201 92.51ZM135.251 85.23V83.23H133.519L133.271 84.9445L135.251 85.23ZM147.116 85.23L148.972 85.975L150.074 83.23H147.116V85.23ZM141.126 96.2569L145.676 107.737L149.395 106.263L144.845 94.7831L141.126 96.2569ZM147.536 105H135.356V109H147.536V105ZM137.338 106.731L136.253 98.7505L132.289 99.2894L133.374 107.269L137.338 106.731ZM136.249 98.7233C136.173 98.2206 135.964 97.5708 135.414 97.0467C134.835 96.4952 134.129 96.32 133.536 96.32V100.32C133.362 100.32 132.989 100.261 132.655 99.9433C132.35 99.6526 132.298 99.3527 132.293 99.3167L136.249 98.7233ZM133.536 96.32H133.011V100.32H133.536V96.32ZM131.011 98.32V107H135.011V98.32H131.011ZM133.011 105H122.756V109H133.011V105ZM124.756 107V85.23H120.756V107H124.756ZM122.756 87.23H133.011V83.23H122.756V87.23ZM131.011 85.23V93.245H135.011V85.23H131.011ZM133.011 95.245H133.431V91.245H133.011V95.245ZM133.431 95.245C134.032 95.245 134.749 95.0688 135.337 94.508C135.896 93.9737 136.107 93.3096 136.181 92.7928L132.221 92.2272C132.225 92.2004 132.272 91.9038 132.575 91.6145C132.906 91.2987 133.273 91.245 133.431 91.245V95.245ZM136.18 92.7955L137.23 85.5155L133.271 84.9445L132.221 92.2245L136.18 92.7955ZM135.251 87.23H147.116V83.23H135.251V87.23ZM145.26 84.485L141.13 94.775L144.842 96.265L148.972 85.975L145.26 84.485ZM161.054 107L159.079 107.316L159.349 109H161.054V107ZM160.074 100.875L158.096 101.172L158.098 101.181L158.099 101.191L160.074 100.875ZM158.919 100.175V98.175H156.919V100.175H158.919ZM158.919 107V109H160.919V107H158.919ZM148.664 107H146.664V109H148.664V107ZM148.664 85.23V83.23H146.664V85.23H148.664ZM168.859 87.12L167.68 88.7356L167.692 88.7446L167.705 88.7533L168.859 87.12ZM169.139 98.46L168.094 96.7548L166.607 97.6661L167.307 99.2632L169.139 98.46ZM172.884 107V109H175.945L174.716 106.197L172.884 107ZM158.919 91.495V89.495H156.919V91.495H158.919ZM158.919 94.645H156.919V96.645H158.919V94.645ZM163.029 106.684L162.049 100.559L158.099 101.191L159.079 107.316L163.029 106.684ZM162.052 100.578C161.976 100.076 161.767 99.4258 161.217 98.9017C160.638 98.3502 159.932 98.175 159.339 98.175V102.175C159.166 102.175 158.792 102.116 158.458 101.798C158.153 101.508 158.101 101.208 158.096 101.172L162.052 100.578ZM159.339 98.175H158.919V102.175H159.339V98.175ZM156.919 100.175V107H160.919V100.175H156.919ZM158.919 105H148.664V109H158.919V105ZM150.664 107V85.23H146.664V107H150.664ZM148.664 87.23H160.949V83.23H148.664V87.23ZM160.949 87.23C164.326 87.23 166.456 87.8421 167.68 88.7356L170.038 85.5044C167.809 83.8779 164.665 83.23 160.949 83.23V87.23ZM167.705 88.7533C168.781 89.5138 169.484 90.7912 169.484 93.07H173.484C173.484 89.8888 172.437 87.1996 170.013 85.4867L167.705 88.7533ZM169.484 93.07C169.484 94.08 169.313 94.895 169.023 95.556L172.685 97.164C173.235 95.9117 173.484 94.5333 173.484 93.07H169.484ZM169.023 95.556C168.728 96.2266 168.396 96.5696 168.094 96.7548L170.184 100.165C171.329 99.4637 172.14 98.4068 172.685 97.164L169.023 95.556ZM167.307 99.2632L171.052 107.803L174.716 106.197L170.971 97.6568L167.307 99.2632ZM172.884 105H161.054V109H172.884V105ZM159.269 96.645C160.102 96.645 161.095 96.4353 161.864 95.6655C162.634 94.8956 162.844 93.9033 162.844 93.07H158.844C158.844 93.2867 158.791 93.0819 159.036 92.837C159.281 92.5922 159.486 92.645 159.269 92.645V96.645ZM162.844 93.07C162.844 92.2367 162.634 91.2444 161.864 90.4745C161.095 89.7047 160.102 89.495 159.269 89.495V93.495C159.486 93.495 159.281 93.5478 159.036 93.303C158.791 93.0581 158.844 92.8533 158.844 93.07H162.844ZM159.269 89.495H158.919V93.495H159.269V89.495ZM156.919 91.495V94.645H160.919V91.495H156.919ZM158.919 96.645H159.269V92.645H158.919V96.645ZM187.116 107L185.12 107.125L185.237 109H187.116V107ZM186.976 104.76L188.972 104.635L188.855 102.76H186.976V104.76ZM184.351 104.76V102.76H182.472L182.355 104.635L184.351 104.76ZM184.211 107V109H186.09L186.207 107.125L184.211 107ZM172.871 107L170.965 106.393L170.136 109H172.871V107ZM179.801 85.23V83.23H178.339L177.895 84.6233L179.801 85.23ZM191.526 85.23L193.431 84.6206L192.986 83.23H191.526V85.23ZM198.491 107V109H201.231L200.396 106.391L198.491 107ZM184.771 98.355L182.786 98.1134L182.513 100.355H184.771V98.355ZM186.626 98.355V100.355H188.896L188.61 98.1031L186.626 98.355ZM185.786 91.74L187.77 91.4881L187.548 89.74H185.786V91.74ZM185.576 91.74V89.74H183.805L183.591 91.4984L185.576 91.74ZM189.112 106.875L188.972 104.635L184.98 104.885L185.12 107.125L189.112 106.875ZM186.976 102.76H184.351V106.76H186.976V102.76ZM182.355 104.635L182.215 106.875L186.207 107.125L186.347 104.885L182.355 104.635ZM184.211 105H172.871V109H184.211V105ZM174.777 107.607L181.707 85.8367L177.895 84.6233L170.965 106.393L174.777 107.607ZM179.801 87.23H191.526V83.23H179.801V87.23ZM189.621 85.8394L196.586 107.609L200.396 106.391L193.431 84.6206L189.621 85.8394ZM198.491 105H187.116V109H198.491V105ZM184.771 100.355H186.626V96.355H184.771V100.355ZM188.61 98.1031L187.77 91.4881L183.802 91.9919L184.642 98.6069L188.61 98.1031ZM185.786 89.74H185.576V93.74H185.786V89.74ZM183.591 91.4984L182.786 98.1134L186.756 98.5966L187.561 91.9816L183.591 91.4984ZM209.881 98.95H207.881V100.95H209.881V98.95ZM216.986 98.95H218.986V96.95H216.986V98.95ZM216.986 107V109H218.986V107H216.986ZM199.626 107H197.626V109H199.626V107ZM199.626 85.23V83.23H197.626V85.23H199.626ZM209.881 85.23H211.881V83.23H209.881V85.23ZM209.881 100.95H216.986V96.95H209.881V100.95ZM214.986 98.95V107H218.986V98.95H214.986ZM216.986 105H199.626V109H216.986V105ZM201.626 107V85.23H197.626V107H201.626ZM199.626 87.23H209.881V83.23H199.626V87.23ZM207.881 85.23V98.95H211.881V85.23H207.881ZM218.732 107H216.732V109H218.732V107ZM218.732 85.23V83.23H216.732V85.23H218.732ZM228.987 98.95H226.987V101.013L229.05 100.949L228.987 98.95ZM228.987 93.28L229.05 91.281L226.987 91.2165V93.28H228.987ZM229.582 87.23C233.321 87.23 235.753 88.0818 237.243 89.4329C238.696 90.7503 239.587 92.8482 239.587 96.115H243.587C243.587 92.1251 242.478 88.7806 239.929 86.4696C237.418 84.1924 233.846 83.23 229.582 83.23V87.23ZM239.587 96.115C239.587 99.3818 238.696 101.48 237.243 102.797C235.753 104.148 233.321 105 229.582 105V109C233.846 109 237.418 108.038 239.929 105.76C242.478 103.449 243.587 100.105 243.587 96.115H239.587ZM229.582 105H218.732V109H229.582V105ZM220.732 107V85.23H216.732V107H220.732ZM218.732 87.23H229.582V83.23H218.732V87.23ZM229.05 100.949C230.04 100.918 231.309 100.645 232.127 99.555L228.927 97.155C228.984 97.0789 229.047 97.0207 229.104 96.9796C229.16 96.9396 229.2 96.9225 229.212 96.9182C229.222 96.9141 229.207 96.9212 229.157 96.9299C229.107 96.9387 229.032 96.9476 228.925 96.951L229.05 100.949ZM232.127 99.555C232.532 99.0156 232.713 98.3909 232.808 97.8836C232.909 97.3463 232.947 96.7464 232.947 96.115H228.947C228.947 96.6036 228.916 96.937 228.877 97.1464C228.857 97.2482 228.841 97.2955 228.838 97.3028C228.835 97.3121 228.856 97.2495 228.927 97.155L232.127 99.555ZM232.947 96.115C232.947 95.4836 232.909 94.8837 232.808 94.3464C232.713 93.8391 232.532 93.2144 232.127 92.675L228.927 95.075C228.856 94.9805 228.835 94.9179 228.838 94.9272C228.841 94.9345 228.857 94.9818 228.877 95.0836C228.916 95.293 228.947 95.6264 228.947 96.115H232.947ZM232.127 92.675C231.309 91.5845 230.04 91.3119 229.05 91.281L228.925 95.279C229.032 95.2824 229.107 95.2913 229.157 95.3001C229.207 95.3088 229.222 95.3159 229.212 95.3118C229.2 95.3075 229.16 95.2904 229.104 95.2504C229.047 95.2093 228.984 95.1511 228.927 95.075L232.127 92.675ZM226.987 93.28V98.95H230.987V93.28H226.987ZM260.523 91.88V93.88H262.523V91.88H260.523ZM253.383 91.88V89.88H251.383V91.88H253.383ZM253.383 93.105H251.383V95.105H253.383V93.105ZM259.788 93.105H261.788V91.105H259.788V93.105ZM259.788 99.125V101.125H261.788V99.125H259.788ZM253.383 99.125V97.125H251.383V99.125H253.383ZM253.383 100.35H251.383V102.35H253.383V100.35ZM260.523 100.35H262.523V98.35H260.523V100.35ZM260.523 107V109H262.523V107H260.523ZM243.478 107H241.478V109H243.478V107ZM243.478 85.23V83.23H241.478V85.23H243.478ZM260.523 85.23H262.523V83.23H260.523V85.23ZM260.523 89.88H253.383V93.88H260.523V89.88ZM251.383 91.88V93.105H255.383V91.88H251.383ZM253.383 95.105H259.788V91.105H253.383V95.105ZM257.788 93.105V99.125H261.788V93.105H257.788ZM259.788 97.125H253.383V101.125H259.788V97.125ZM251.383 99.125V100.35H255.383V99.125H251.383ZM253.383 102.35H260.523V98.35H253.383V102.35ZM258.523 100.35V107H262.523V100.35H258.523ZM260.523 105H243.478V109H260.523V105ZM245.478 107V85.23H241.478V107H245.478ZM243.478 87.23H260.523V83.23H243.478V87.23ZM258.523 85.23V91.88H262.523V85.23H258.523ZM101.12 137H99.12V139H101.12V137ZM101.12 115.23V113.23H99.12V115.23H101.12ZM111.375 128.95H109.375V131.013L111.437 130.949L111.375 128.95ZM111.375 123.28L111.437 121.281L109.375 121.217V123.28H111.375ZM111.97 117.23C115.709 117.23 118.14 118.082 119.63 119.433C121.083 120.75 121.975 122.848 121.975 126.115H125.975C125.975 122.125 124.866 118.781 122.317 116.47C119.806 114.192 116.234 113.23 111.97 113.23V117.23ZM121.975 126.115C121.975 129.382 121.083 131.48 119.63 132.797C118.14 134.148 115.709 135 111.97 135V139C116.234 139 119.806 138.038 122.317 135.76C124.866 133.449 125.975 130.105 125.975 126.115H121.975ZM111.97 135H101.12V139H111.97V135ZM103.12 137V115.23H99.12V137H103.12ZM101.12 117.23H111.97V113.23H101.12V117.23ZM111.437 130.949C112.428 130.918 113.697 130.645 114.515 129.555L111.315 127.155C111.372 127.079 111.435 127.021 111.492 126.98C111.547 126.94 111.588 126.923 111.599 126.918C111.61 126.914 111.594 126.921 111.545 126.93C111.495 126.939 111.419 126.948 111.313 126.951L111.437 130.949ZM114.515 129.555C114.92 129.016 115.101 128.391 115.196 127.884C115.296 127.346 115.335 126.746 115.335 126.115H111.335C111.335 126.604 111.304 126.937 111.264 127.146C111.245 127.248 111.229 127.295 111.226 127.303C111.223 127.312 111.244 127.25 111.315 127.155L114.515 129.555ZM115.335 126.115C115.335 125.484 115.296 124.884 115.196 124.346C115.101 123.839 114.92 123.214 114.515 122.675L111.315 125.075C111.244 124.98 111.223 124.918 111.226 124.927C111.229 124.935 111.245 124.982 111.264 125.084C111.304 125.293 111.335 125.626 111.335 126.115H115.335ZM114.515 122.675C113.697 121.585 112.428 121.312 111.437 121.281L111.313 125.279C111.419 125.282 111.495 125.291 111.545 125.3C111.594 125.309 111.61 125.316 111.599 125.312C111.588 125.307 111.547 125.29 111.492 125.25C111.435 125.209 111.372 125.151 111.315 125.075L114.515 122.675ZM109.375 123.28V128.95H113.375V123.28H109.375ZM137.419 137L135.423 137.125L135.54 139H137.419V137ZM137.279 134.76L139.275 134.635L139.158 132.76H137.279V134.76ZM134.654 134.76V132.76H132.775L132.658 134.635L134.654 134.76ZM134.514 137V139H136.393L136.51 137.125L134.514 137ZM123.174 137L121.268 136.393L120.438 139H123.174V137ZM130.104 115.23V113.23H128.642L128.198 114.623L130.104 115.23ZM141.829 115.23L143.734 114.621L143.289 113.23H141.829V115.23ZM148.794 137V139H151.534L150.699 136.391L148.794 137ZM135.074 128.355L133.088 128.113L132.816 130.355H135.074V128.355ZM136.929 128.355V130.355H139.199L138.913 128.103L136.929 128.355ZM136.089 121.74L138.073 121.488L137.851 119.74H136.089V121.74ZM135.879 121.74V119.74H134.107L133.893 121.498L135.879 121.74ZM139.415 136.875L139.275 134.635L135.283 134.885L135.423 137.125L139.415 136.875ZM137.279 132.76H134.654V136.76H137.279V132.76ZM132.658 134.635L132.518 136.875L136.51 137.125L136.65 134.885L132.658 134.635ZM134.514 135H123.174V139H134.514V135ZM125.08 137.607L132.01 115.837L128.198 114.623L121.268 136.393L125.08 137.607ZM130.104 117.23H141.829V113.23H130.104V117.23ZM139.924 115.839L146.889 137.609L150.699 136.391L143.734 114.621L139.924 115.839ZM148.794 135H137.419V139H148.794V135ZM135.074 130.355H136.929V126.355H135.074V130.355ZM138.913 128.103L138.073 121.488L134.105 121.992L134.945 128.607L138.913 128.103ZM136.089 119.74H135.879V123.74H136.089V119.74ZM133.893 121.498L133.088 128.113L137.059 128.597L137.864 121.982L133.893 121.498ZM169.461 124.89H171.461V122.89H169.461V124.89ZM169.461 136.37L170.129 138.255L171.461 137.783V136.37H169.461ZM151.296 117.645L152.629 119.136L152.63 119.135L151.296 117.645ZM169.216 115.545H171.216V113.936L169.645 113.591L169.216 115.545ZM169.216 123.84L168.869 125.81L171.216 126.224V123.84H169.216ZM160.011 123.805L158.699 122.296L158.682 122.31L158.666 122.325L160.011 123.805ZM159.976 128.425L158.597 129.873L158.614 129.889L158.631 129.905L159.976 128.425ZM163.336 129.125V131.125H169.892L164.453 127.466L163.336 129.125ZM161.411 127.83H159.411V128.895L160.295 129.489L161.411 127.83ZM161.411 124.89V122.89H159.411V124.89H161.411ZM167.461 124.89V136.37H171.461V124.89H167.461ZM168.794 134.485C166.846 135.175 164.201 135.56 160.781 135.56V139.56C164.455 139.56 167.597 139.152 170.129 138.255L168.794 134.485ZM160.781 135.56C156.778 135.56 154.149 134.664 152.53 133.223C150.956 131.821 150.006 129.604 150.006 126.185H146.006C146.006 130.349 147.186 133.82 149.87 136.21C152.51 138.56 156.268 139.56 160.781 139.56V135.56ZM150.006 126.185C150.006 122.857 150.969 120.62 152.629 119.136L149.964 116.154C147.237 118.59 146.006 122.046 146.006 126.185H150.006ZM152.63 119.135C154.35 117.597 157.028 116.67 160.991 116.67V112.67C156.461 112.67 152.676 113.726 149.963 116.155L152.63 119.135ZM160.991 116.67C163.676 116.67 166.274 116.947 168.788 117.499L169.645 113.591C166.839 112.976 163.953 112.67 160.991 112.67V116.67ZM167.216 115.545V123.84H171.216V115.545H167.216ZM169.564 121.87C166.748 121.374 164.444 121.105 162.706 121.105V125.105C164.096 125.105 166.131 125.326 168.869 125.81L169.564 121.87ZM162.706 121.105C161.3 121.105 159.791 121.346 158.699 122.296L161.324 125.314C161.299 125.336 161.353 125.278 161.59 125.216C161.829 125.154 162.19 125.105 162.706 125.105V121.105ZM158.666 122.325C157.546 123.343 157.241 124.811 157.241 126.15H161.241C161.241 125.748 161.29 125.5 161.334 125.365C161.375 125.242 161.4 125.246 161.357 125.285L158.666 122.325ZM157.241 126.15C157.241 127.451 157.538 128.864 158.597 129.873L161.356 126.977C161.435 127.052 161.241 126.949 161.241 126.15H157.241ZM158.631 129.905C159.699 130.875 161.172 131.125 162.531 131.125V127.125C162.057 127.125 161.734 127.077 161.529 127.021C161.326 126.966 161.29 126.917 161.322 126.945L158.631 129.905ZM162.531 131.125H163.336V127.125H162.531V131.125ZM164.453 127.466L162.528 126.171L160.295 129.489L162.22 130.784L164.453 127.466ZM163.411 127.83V124.89H159.411V127.83H163.411ZM161.411 126.89H169.461V122.89H161.411V126.89Z" fill="#fffce2" mask="url(#path-14-outside-1_183_793)"/>
<defs>
<clipPath id="clip0_183_793">
<rect width="85" height="143" fill="white"/>
</clipPath>
</defs>
</svg>
