<svg xmlns="http://www.w3.org/2000/svg" width="235" height="225" viewBox="0 0 235 225" fill="none">
  <g clip-path="url(#clip0_101_3216)">
    <path d="M51.0662 36.5751C53.0384 35.2181 55.0434 33.839 57.2957 33.0369C59.6579 32.1907 62.1958 32.0094 64.7007 31.8776C107.78 29.6469 150.194 41.454 193.009 46.734C191.009 45.278 188.922 43.7067 187.961 41.4266C186.999 39.1464 187.713 35.9708 190.042 35.1357C192.366 34.306 194.739 36.0862 196.563 37.7454C199.37 40.2947 202.177 42.8496 204.984 45.3989C207.792 47.9482 210.439 50.9975 213.516 53.0963C219.339 57.0741 225.096 61.1619 230.545 65.6836C231.836 66.755 233.193 68.0022 233.402 69.6614C231.902 69.6944 230.402 69.7274 228.902 69.7603C226.485 69.8098 224.063 69.8647 221.657 70.101C218.048 70.4581 214.493 71.2218 210.895 71.6888C207.297 72.1558 203.65 71.7053 200.101 72.3701C192.366 73.8096 184.654 75.3974 176.836 76.304C165.515 77.6171 154.078 77.5072 142.69 78.0182C121.079 78.9907 99.6329 82.2048 78.0935 84.2157C54.0491 86.4628 28.571 86.9463 7.19087 75.7051C4.13107 74.0953 0.747168 70.7163 2.54349 67.7604C3.08734 66.8649 4.01022 66.288 4.90014 65.7386C20.4134 56.2006 36.0584 46.8988 51.0553 36.5696L51.0662 36.5751Z" fill="#3C4A30"/>
    <path d="M231.111 68.492L4.62708 66.7129C2.7431 66.6981 1.20382 68.2136 1.18903 70.0979L0.0137358 219.762C-0.0010613 221.646 1.51422 223.186 3.39821 223.2L229.882 224.98C231.766 224.994 233.305 223.479 233.32 221.595L234.495 71.9306C234.51 70.0463 232.995 68.5068 231.111 68.492Z" fill="#4F5E40"/>
    <path d="M204.445 1.35438L31.8111 -0.00173309C28.662 -0.0264705 26.0891 2.50673 26.0643 5.65632L25.0654 132.866C25.0407 136.016 27.5734 138.589 30.7225 138.614L203.357 139.97C206.506 139.994 209.079 137.461 209.103 134.312L210.102 7.10201C210.127 3.95242 207.594 1.37912 204.445 1.35438Z" fill="#F3EFEA"/>
    <path d="M130.786 108.934C124.479 111.654 117.591 113.412 110.68 112.962C105.275 112.61 100.094 110.78 95.7162 107.561C91.5852 104.522 88.3551 100.314 86.0754 95.6821C83.7956 91.0505 82.3344 85.4903 81.9059 80.1719C81.4774 74.8535 81.9608 69.0351 83.51 63.6782C85.0591 58.3213 87.5696 53.437 91.1622 49.3108C94.7549 45.1846 99.7318 41.7342 105.121 39.8387C108.181 38.7618 111.378 38.097 114.608 37.8058C116.426 37.641 118.25 37.5916 120.074 37.6355C122.068 37.685 124.062 37.5311 126.056 37.5861C132.324 37.7619 138.784 38.9816 144.129 42.41C148.156 44.9923 151.254 48.8712 152.918 53.2666C154.583 57.662 155.006 62.453 154.555 67.244C154.127 71.7602 152.792 76.6007 150.869 80.7103C149.062 84.5783 146.81 88.0726 143.613 90.8472C142.904 91.4626 142.41 91.8472 141.536 92.3856C141.179 92.6054 140.811 92.8141 140.438 93.0064C140.256 93.0998 140.069 93.1878 139.883 93.2702C139.833 93.2921 139.537 93.4185 139.745 93.3306C139.641 93.3746 139.542 93.413 139.438 93.4515C138.702 93.7317 137.933 93.9405 137.153 94.0503C137.405 94.0119 137.092 94.0558 137.032 94.0613C136.938 94.0723 136.845 94.0778 136.746 94.0888C136.548 94.1053 136.35 94.1108 136.147 94.1108C135.757 94.1108 135.367 94.0888 134.983 94.0394C135.224 94.0668 134.675 93.9844 134.576 93.9679C134.384 93.9295 134.197 93.8855 134.01 93.8361C133.664 93.7427 133.115 93.5504 132.923 93.468C132.307 93.2097 131.401 92.6768 130.747 92.1878C130.566 92.0504 130.764 92.2098 130.588 92.0614C130.495 91.99 130.407 91.9131 130.313 91.8362C130.121 91.6713 129.929 91.501 129.747 91.3307C129.363 90.9681 129 90.589 128.66 90.1934C127.907 89.3308 127.281 88.4517 126.638 87.4078C126.292 86.8474 125.968 86.276 125.66 85.6936C125.496 85.3859 125.336 85.0728 125.183 84.7596C125.15 84.6937 125.122 84.6277 125.089 84.5673C124.963 84.331 125.1 84.3365 125.062 84.5673C125.089 84.3695 125.073 84.1607 125.084 83.9629C125.172 82.2542 125.468 80.5675 125.842 78.9027C126.611 75.4798 127.731 72.1558 128.676 68.7769C129.412 66.1396 130.269 63.1892 129.753 60.4366C129.275 57.8763 127.166 56.6456 124.716 56.4258C122.815 56.2555 120.865 56.5797 119.013 56.9697C117.734 57.239 116.47 57.5796 115.218 57.9532C113.965 58.3268 112.833 58.9477 111.702 59.596C107.983 61.7278 104.549 64.4749 101.869 67.8319C98.1992 72.4195 95.068 79.2214 97.3642 85.1222C98.2926 87.5122 100.094 89.3363 102.489 90.2593C105.445 91.3966 108.823 91.012 111.801 90.1549C116.487 88.8034 120.782 86.2266 124.716 83.397C125.567 82.7817 124.749 81.3532 123.886 81.974C119.887 84.853 115.498 87.5232 110.68 88.7539C107.906 89.4627 104.725 89.6714 102.226 88.3418C100.171 87.254 98.9463 85.353 98.4793 83.0509C97.941 80.3972 98.5178 77.4468 99.556 74.8645C100.913 71.48 103.182 68.4802 105.807 65.9803C107.395 64.4694 109.131 63.1343 110.977 61.9585C111.993 61.3102 113.037 60.7168 114.108 60.1619C115.333 59.5301 116.701 59.2169 118.03 58.8872C119.997 58.3982 122.029 57.9807 124.067 58.0356C124.732 58.0521 125.276 58.1125 125.919 58.2994C126.243 58.3928 126.347 58.4312 126.561 58.5466C126.671 58.607 126.781 58.6675 126.891 58.7334C126.951 58.7719 127.012 58.8158 127.072 58.8543C127.215 58.9587 126.99 58.7773 127.133 58.9037C127.803 59.4806 128.127 60.3047 128.215 61.1234C128.358 62.3816 128.193 63.6013 127.962 64.7935C127.33 68.0846 126.21 71.2712 125.292 74.4909C124.798 76.2216 124.342 77.9687 123.996 79.7379C123.826 80.606 123.694 81.4795 123.589 82.3531C123.491 83.1718 123.232 84.3201 123.54 85.1002C124.029 86.3529 124.798 87.5781 125.529 88.7045C126.182 89.7154 126.907 90.6879 127.72 91.5834C129.039 93.0339 130.615 94.2646 132.434 95.0118C135.669 96.3414 139.196 95.6876 142.135 93.935C145.618 91.8527 148.31 88.5561 150.386 85.1222C152.842 81.0565 154.555 76.5072 155.517 71.8591C156.478 67.211 156.714 61.997 155.753 57.1456C154.803 52.3766 152.616 47.8603 149.194 44.377C145.145 40.2618 139.696 37.8773 134.093 36.7784C130.379 36.0477 126.572 35.8224 122.793 35.9213C119.013 36.0202 115.355 35.9323 111.647 36.5037C105.522 37.4487 99.6604 39.8222 94.7603 43.6352C90.3107 47.1021 86.7895 51.6733 84.3834 56.761C81.9773 61.8486 80.5985 67.4912 80.2249 73.1558C79.8514 78.8203 80.4667 84.4684 82.0762 89.8528C83.6858 95.2371 86.1578 100.017 89.712 104.149C93.2662 108.28 97.7377 111.352 102.836 113.066C108.719 115.044 115.08 115.022 121.112 113.758C124.732 113 128.237 111.791 131.632 110.33C132.604 109.912 131.764 108.489 130.802 108.907L130.786 108.934Z" fill="black"/>
    <path d="M234.275 123.241C234.742 109.127 235.643 95.0064 234.275 80.9686C234.137 79.5675 233.945 78.0951 233.077 76.9908C231.77 75.3315 229.265 75.0513 227.276 75.76C225.288 76.4743 223.695 77.9632 222.162 79.4192C212.428 88.6715 202.512 97.6271 192.613 106.715C179.973 118.313 167.602 130.23 155.511 142.449C154.616 143.35 153.715 144.273 153.111 145.41C152.232 147.07 152.072 149.053 152.243 150.954C152.913 158.575 158.291 164.783 163.444 170.299C173.419 180.986 183.626 191.441 194.052 201.655C198.639 206.149 203.281 210.611 208.396 214.451C211.966 217.132 215.949 219.143 220.239 220.39C223.239 221.264 228.529 222.835 231.385 220.682C232.407 219.912 232.759 218.555 232.962 217.292C233.638 212.984 233.297 208.594 233.121 204.243C232.967 200.375 233.643 196.606 233.742 192.743C233.846 188.672 233.956 184.595 234.061 180.524C234.22 174.475 234.066 168.448 234.192 162.421C234.33 155.795 232.61 149.575 233.786 142.955C234.896 136.719 234.066 129.648 234.275 123.241Z" fill="#557043"/>
    <path d="M2.64774 118.104C2.41152 104.011 1.75781 89.9242 3.2575 75.9029C3.40582 74.5073 3.60907 73.0294 4.44406 71.9251C5.70204 70.2603 8.07517 69.9691 9.94291 70.6669C11.8106 71.3701 13.2938 72.8536 14.7221 74.2986C23.7861 83.4849 33.0205 92.3801 42.2438 101.402C54.0161 112.918 65.5356 124.752 76.7805 136.889C77.61 137.784 78.4505 138.702 79.0053 139.834C79.8073 141.482 79.9337 143.466 79.7469 145.361C79.0053 152.971 73.8306 159.196 68.8866 164.728C59.3061 175.447 49.517 185.936 39.5191 196.183C35.1244 200.688 30.6693 205.171 25.7857 209.028C22.3744 211.72 18.5785 213.748 14.5134 215.017C11.6678 215.902 6.64689 217.495 3.97713 215.363C3.02128 214.599 2.70816 213.248 2.53787 211.99C1.96107 207.693 2.3511 203.309 2.57632 198.963C2.77958 195.1 2.19728 191.342 2.15333 187.485C2.10939 183.42 2.07093 179.354 2.02699 175.288C1.96656 169.25 2.19728 163.228 2.16432 157.212C2.13136 150.603 3.84529 144.378 2.82352 137.779C1.86219 131.554 2.75211 124.494 2.64224 118.104H2.64774Z" fill="#557043"/>
  </g>
  <defs>
    <clipPath id="clip0_101_3216">
      <rect width="235" height="225" fill="white"/>
    </clipPath>
  </defs>
</svg>
