<svg xmlns="http://www.w3.org/2000/svg" width="189" height="238" viewBox="0 0 189 238" fill="none">
  <g clip-path="url(#clip0_101_3082)">
    <path d="M18.4365 225.42C19.0279 227.576 18.677 229.929 17.4776 231.867C16.9697 232.684 16.3048 233.463 16.1511 234.392C15.9974 235.322 16.6556 236.448 17.6914 236.433C18.383 236.424 18.9276 235.93 19.499 235.576C20.782 234.774 22.3991 234.598 23.8926 234.198C25.3861 233.799 26.9498 232.99 27.334 231.621C27.7349 230.186 26.6725 228.751 25.473 227.749C23.6086 226.189 21.096 225.081 18.5835 225.396" fill="#3C4A30"/>
    <path d="M107.576 117.511C105.147 119.376 102.424 123.077 99.7508 124.394C96.7237 125.887 97.0812 124.963 96.0254 122.199C95.6979 121.342 94.3113 121.526 93.3925 121.878C93.0417 120.603 93.309 119.267 93.3491 117.956C93.3892 116.645 93.1185 115.192 91.9959 114.359C84.485 108.79 82.4134 119.334 81.391 123.625C80.6994 126.523 79.3897 129.59 76.5397 131.05C75.6242 131.519 74.5851 131.801 73.7732 132.403C72.1026 133.645 71.8587 135.822 71.4377 137.739C70.0077 144.243 65.2966 149.694 60.7326 154.875C59.4095 156.374 57.9995 157.936 56.0316 158.651C55.0325 159.014 53.9433 159.132 52.941 159.489C51.3172 160.068 50.0475 161.225 48.7712 162.303C43.412 166.842 37.184 170.539 30.4549 173.182C28.7643 173.846 26.96 174.497 25.814 175.805C25.0121 176.716 24.6179 177.855 24.0833 178.915C21.4838 184.053 15.7337 187.133 11.1095 190.924C7.9755 193.495 5.27249 196.496 3.12412 199.793C1.26643 202.646 -0.21037 205.865 0.0368762 209.168C0.284123 212.472 2.66638 215.818 6.23475 216.539C8.5435 217.005 10.9458 216.354 13.3047 216.493C16.021 216.654 18.5102 217.847 20.9392 218.964C22.8972 219.866 24.8751 220.733 26.8665 221.568C32.5732 223.957 39.583 225.992 44.8253 222.849C48.5707 220.605 50.2881 216.26 54.0603 214.059C56.2521 212.778 59.0854 212.248 60.6557 210.361C63.4423 207.006 60.4085 201.864 62.49 198.11C63.3955 196.478 65.1663 195.342 66.0684 193.707C67.4249 191.254 66.5496 188.311 66.897 185.589C67.4517 181.24 71.2339 177.634 75.6576 175.88C80.0813 174.127 85.0697 173.949 89.891 174.203C92.3133 174.33 95.4941 174.1 96.0989 171.971C96.8339 169.37 92.7978 167.856 91.5816 165.406C90.4824 163.193 91.9525 160.583 93.9204 158.935C95.8884 157.288 98.3608 156.159 100.128 154.333C104.195 150.133 103.844 143.008 108.946 139.873C110.172 139.123 111.652 138.659 112.611 137.636C113.8 136.37 113.907 134.562 113.954 132.9C114.094 128.097 114.208 123.152 112.324 118.662C111.919 117.696 111.244 116.633 110.115 116.494C109.17 116.376 108.311 116.96 107.582 117.517L107.576 117.511Z" fill="#3C4A30"/>
    <path d="M117.068 98.0828C118.565 99.2426 120.686 99.3758 122.591 99.8361C126.931 100.887 130.586 104.015 132 107.879C133.413 111.743 132.537 116.23 129.748 119.422C128.077 121.332 125.711 122.907 125.027 125.266C124.338 127.625 127.108 130.695 129.34 129.336C129.641 130.465 129.941 131.592 130.242 132.721C143.647 125.856 153.854 114.032 157.981 100.587C158.682 98.2978 159.23 95.9329 160.483 93.8435C161.736 91.7541 163.868 89.9312 166.47 89.6405C168.134 89.4528 169.812 89.9009 171.486 89.8585C173.159 89.8161 175.064 89.0137 175.325 87.5118C175.418 86.9697 175.281 86.4126 175.338 85.8645C175.655 82.8546 180.6 82.7789 183.069 80.741C184.406 79.6387 184.94 77.9703 185.418 76.3896C186.411 73.1072 187.403 69.8247 188.392 66.5423C188.629 65.761 188.806 64.7829 188.125 64.2561C187.837 64.032 187.456 63.9472 187.089 63.8685C183.895 63.1841 180.32 62.5452 177.5 64.0683C176.22 64.7587 175.251 65.8276 174.078 66.6604C171.061 68.8073 166.888 69.2282 163.119 68.5771C159.35 67.9261 155.876 66.3242 152.461 64.7405C150.242 63.711 147.92 62.5997 146.584 60.695C144.118 57.1824 145.909 52.5888 145.555 48.4373C145.201 44.2949 142.461 40.3796 138.471 38.3265C138.689 43.008 139.594 47.6621 141.158 52.1286C139.811 53.4155 137.352 52.3708 136.203 50.9355C135.053 49.5002 134.322 47.653 132.594 46.8264C131.488 46.2995 130.068 46.251 129.226 45.4153C128.712 44.9035 128.525 44.198 128.361 43.5227C127.015 37.945 126.092 32.2825 125.611 26.5897C125.397 24.0794 125.26 21.5116 124.248 19.1648C122.23 14.4864 117.118 11.5128 111.973 9.64751C109.965 8.91774 107.86 8.28487 106.189 7.04335C104.365 5.6898 103.219 3.73365 101.602 2.17419C99.9845 0.614724 97.4686 -0.566231 95.3035 0.284662C94.6286 1.94708 96.6232 3.39148 98.1 4.55124C101.425 7.16145 103.122 11.3705 102.444 15.31C102.33 15.9702 102.156 16.6485 102.35 17.2934C102.774 18.7045 104.619 19.2132 106.092 19.8067C110.88 21.7326 113.493 26.3686 115.635 30.7018C122.551 44.6946 128.525 60.0955 125.057 75.0996C124.612 77.0255 124.004 79.5207 122.611 81.0953C121.482 82.3701 119.353 83.118 117.706 83.7479C114.084 85.1317 109.924 86.0432 107.255 88.8502C106.834 89.2923 106.456 89.7889 106.323 90.3612C106.189 90.9335 106.353 91.5876 106.857 91.9479C107.248 92.2265 107.773 92.2901 108.267 92.3446C110.479 92.5838 112.494 92.3143 113.984 94.0191C115.127 95.3303 115.741 96.8807 117.065 98.0798L117.068 98.0828Z" fill="#3C4A30"/>
    <path d="M138.913 30.8713C137.793 31.7646 137.162 33.1394 137.249 34.4899C137.272 34.823 137.339 35.1652 137.543 35.4407C137.863 35.8737 138.455 36.0706 139.013 36.1917C139.457 36.2886 139.908 36.3582 140.363 36.4006C140.653 36.4279 140.967 36.44 141.221 36.3007C141.602 36.0918 141.696 35.6375 141.749 35.2378C141.843 34.5596 141.916 33.8086 141.475 33.2544C141.068 32.7366 140.313 32.5277 139.878 32.0281C139.571 31.6768 139.427 31.1863 138.999 30.9622" fill="#3C4A30"/>
    <path d="M18.8342 226.038C19.4256 228.194 19.0747 230.547 17.8753 232.484C17.3674 233.302 16.7025 234.08 16.5488 235.01C16.3951 235.94 17.0533 237.066 18.0891 237.051C18.7807 237.042 19.3253 236.548 19.8967 236.194C21.1797 235.391 22.7968 235.216 24.2903 234.816C25.7838 234.416 27.3475 233.608 27.7317 232.239C28.1327 230.804 27.0702 229.369 25.8707 228.366C24.0063 226.807 21.4937 225.699 18.9812 226.013" fill="#4F5E40"/>
    <path d="M108.281 118.528C104.963 120.681 100.78 124.7 100.141 125.015C97.1144 126.507 97.4719 125.581 96.4194 122.819C96.092 121.962 94.7054 122.147 93.7866 122.498C93.4357 121.223 93.703 119.888 93.7431 118.577C93.7832 117.266 93.5126 115.812 92.39 114.98C84.879 109.411 82.8075 119.955 81.7851 124.245C81.0935 127.143 79.7837 130.211 76.9337 131.67C76.0182 132.14 74.9791 132.421 74.1672 133.024C72.4966 134.265 72.2527 136.443 71.8317 138.359C70.4017 144.864 65.6907 150.314 61.1266 155.495C59.8035 156.994 58.3935 158.557 56.4256 159.271C55.4266 159.635 54.3374 159.753 53.335 160.11C51.7112 160.689 50.4416 161.845 49.1652 162.923C43.806 167.462 37.5781 171.16 30.8489 173.803C29.1583 174.466 27.3541 175.117 26.208 176.425C25.4062 177.337 25.0119 178.476 24.4773 179.535C21.8779 184.674 16.1277 187.754 11.5036 191.545C8.36954 194.116 5.66653 197.116 3.51816 200.414C1.66047 203.266 0.183673 206.485 0.430919 209.789C0.678166 213.093 3.06042 216.439 6.62879 217.159C8.93754 217.626 11.3398 216.975 13.6987 217.114C16.4151 217.274 18.9043 218.467 21.3333 219.585C23.2912 220.487 25.2692 221.353 27.2605 222.189C32.9672 224.578 39.977 226.613 45.2193 223.47C48.9648 221.226 50.6821 216.881 54.4543 214.679C56.6461 213.398 59.4794 212.869 61.0498 210.982C63.8363 207.627 60.8025 202.485 62.8841 198.73C63.7895 197.098 65.5604 195.963 66.4625 194.328C67.819 191.875 66.9436 188.931 67.2911 186.209C67.8457 181.861 71.6279 178.254 76.0516 176.501C80.4753 174.748 85.4637 174.569 90.285 174.824C92.7074 174.951 95.8882 174.721 96.4929 172.592C97.228 169.991 93.1918 168.477 91.9756 166.027C90.8764 163.813 92.3465 161.203 94.3145 159.556C96.2824 157.909 98.7549 156.779 100.522 154.953C104.589 150.753 104.238 143.628 109.34 140.494C111.568 139.129 112.023 138.856 113.085 136.791C113.189 136.591 115.431 131.81 113.6 132.306C115.16 131.882 116.096 130.402 116.423 128.954C116.75 127.507 116.627 126.005 116.897 124.548C117.168 123.092 117.826 121.623 117.455 120.185C116.951 120.285 116.406 119.876 116.416 119.407C115.16 118.907 113.75 118.898 112.434 119.119C112.744 116.363 110.756 116.933 108.291 118.535L108.281 118.528Z" fill="#4F5E40"/>
    <path d="M117.462 98.7006C118.959 99.8603 121.081 99.9936 122.985 100.454C127.325 101.505 130.981 104.633 132.394 108.496C133.807 112.36 132.932 116.848 130.142 120.04C128.471 121.95 126.106 123.525 125.421 125.884C124.733 128.243 127.502 131.313 129.734 129.953C130.035 131.083 130.336 132.209 130.636 133.339C144.041 126.474 154.248 114.65 158.375 101.205C159.076 98.9156 159.624 96.5506 160.877 94.4612C162.13 92.3719 164.262 90.549 166.865 90.2583C168.529 90.0705 170.206 90.5187 171.88 90.4763C173.554 90.4339 175.458 89.6314 175.719 88.1295C175.812 87.5875 175.675 87.0303 175.732 86.4822C176.05 83.4723 180.995 83.3966 183.464 81.3587C184.8 80.2565 185.335 78.588 185.812 77.0073C186.805 73.7249 187.797 70.4424 188.786 67.16C189.023 66.3787 189.2 65.4007 188.519 64.8738C188.231 64.6497 187.851 64.5649 187.483 64.4862C184.289 63.8018 180.714 63.1629 177.894 64.6861C176.614 65.3764 175.645 66.4454 174.473 67.2781C171.455 69.425 167.282 69.8459 163.514 69.1949C159.745 68.5438 156.27 66.942 152.855 65.3583C150.637 64.3287 148.315 63.2174 146.978 61.3128C144.512 57.8002 146.303 53.2066 145.949 49.0551C145.595 44.9126 142.855 40.9973 138.866 38.9443C139.083 43.6257 139.988 48.2799 141.552 52.7463C140.206 54.0332 137.746 52.9885 136.597 51.5532C135.448 50.1179 134.716 48.2708 132.989 47.4441C131.883 46.9172 130.463 46.8688 129.621 46.033C129.106 45.5213 128.919 44.8157 128.755 44.1405C127.409 38.5627 126.487 32.9002 126.006 27.2074C125.792 24.6971 125.655 22.1293 124.642 19.7825C122.624 15.1041 117.512 12.1306 112.367 10.2652C110.359 9.53548 108.254 8.90261 106.583 7.66109C104.759 6.30754 103.613 4.35139 101.996 2.79193C100.379 1.23246 97.8629 0.0515062 95.6978 0.902399C95.0229 2.56482 97.0175 4.00922 98.4943 5.16897C101.819 7.77919 103.516 11.9882 102.838 15.9278C102.724 16.5879 102.551 17.2662 102.744 17.9112C103.169 19.3223 105.013 19.831 106.486 20.4245C111.274 22.3503 113.887 26.9863 116.029 31.3195C122.945 45.3123 128.919 60.7132 125.451 75.7174C125.007 77.6432 124.398 80.1384 123.005 81.713C121.876 82.9878 119.748 83.7357 118.1 84.3656C114.478 85.7494 110.319 86.6609 107.649 89.4679C107.228 89.91 106.851 90.4066 106.717 90.9789C106.583 91.5513 106.747 92.2053 107.252 92.5657C107.642 92.8442 108.167 92.9078 108.662 92.9623C110.873 93.2016 112.888 92.9321 114.378 94.6369C115.521 95.948 116.136 97.4984 117.459 98.6975L117.462 98.7006Z" fill="#4F5E40"/>
    <path d="M139.307 31.4891C138.188 32.3824 137.556 33.7571 137.643 35.1076C137.666 35.4407 137.733 35.7829 137.937 36.0585C138.258 36.4915 138.849 36.6883 139.407 36.8094C139.851 36.9063 140.303 36.976 140.757 37.0184C141.048 37.0456 141.362 37.0577 141.616 36.9184C141.996 36.7095 142.09 36.2553 142.143 35.8556C142.237 35.1773 142.311 34.4263 141.87 33.8722C141.462 33.3544 140.707 33.1454 140.272 32.6458C139.965 32.2945 139.821 31.804 139.394 31.5799" fill="#4F5E40"/>
  </g>
  <defs>
    <clipPath id="clip0_101_3082">
      <rect width="189" height="237.051" fill="white"/>
    </clipPath>
  </defs>
</svg>