<svg xmlns="http://www.w3.org/2000/svg" width="237" height="219" viewBox="0 0 237 219" fill="none">
  <g clip-path="url(#clip0_101_3122)">
    <path d="M28.612 219C44.4139 219 57.2239 206.229 57.2239 190.475C57.2239 174.722 44.4139 161.951 28.612 161.951C12.81 161.951 0 174.722 0 190.475C0 206.229 12.81 219 28.612 219Z" fill="#384B2D"/>
    <path d="M208.382 219C224.184 219 236.994 206.229 236.994 190.475C236.994 174.722 224.184 161.951 208.382 161.951C192.58 161.951 179.77 174.722 179.77 190.475C179.77 206.229 192.58 219 208.382 219Z" fill="#384B2D"/>
    <path d="M28.6118 209.488C39.1442 209.488 47.6824 200.976 47.6824 190.475C47.6824 179.975 39.1442 171.463 28.6118 171.463C18.0794 171.463 9.54126 179.975 9.54126 190.475C9.54126 200.976 18.0794 209.488 28.6118 209.488Z" fill="#BCB24F"/>
    <path d="M208.382 209.488C218.914 209.488 227.452 200.976 227.452 190.475C227.452 179.975 218.914 171.463 208.382 171.463C197.849 171.463 189.311 179.975 189.311 190.475C189.311 200.976 197.849 209.488 208.382 209.488Z" fill="#BCB24F"/>
    <path d="M28.6119 197.511C31.9848 197.511 34.7191 194.785 34.7191 191.422C34.7191 188.06 31.9848 185.334 28.6119 185.334C25.2389 185.334 22.5046 188.06 22.5046 191.422C22.5046 194.785 25.2389 197.511 28.6119 197.511Z" fill="#384B2D"/>
    <path d="M208.382 197.511C211.755 197.511 214.489 194.785 214.489 191.422C214.489 188.06 211.755 185.334 208.382 185.334C205.009 185.334 202.275 188.06 202.275 191.422C202.275 194.785 205.009 197.511 208.382 197.511Z" fill="#384B2D"/>
    <path d="M22.6143 159.687C44.0535 158.697 64.214 161.945 64.147 204.704L175.934 204.225C173.578 174.595 183.819 157.702 214.495 160.051C223.294 160.725 222.332 149.355 215.81 148.954C169.595 146.107 164.444 171.469 162.167 191.428C152.644 191.428 77.9263 190.475 77.9263 190.475C75.1558 165.49 62.5213 145.251 23.9721 147.303C18.3764 147.601 18.4799 159.881 22.6204 159.693L22.6143 159.687Z" fill="#557043"/>
    <path d="M185.364 30.2399L182.847 30.6944C181.693 30.903 180.926 32.0055 181.135 33.1568L195.386 111.566C195.595 112.717 196.701 113.481 197.855 113.272L200.372 112.818C201.527 112.609 202.293 111.507 202.084 110.356L187.834 31.9468C187.624 30.7955 186.519 30.0313 185.364 30.2399Z" fill="#BCB24F"/>
    <path d="M202.314 110.888L195.364 112.143C192.938 112.581 191.328 114.897 191.768 117.315L197.968 151.427C198.407 153.845 200.73 155.45 203.155 155.012L210.105 153.757C212.531 153.319 214.14 151.003 213.701 148.585L207.501 114.473C207.062 112.055 204.739 110.45 202.314 110.888Z" fill="#557043"/>
    <path d="M181.516 0.079017L175.848 1.10284C173.171 1.5864 171.394 4.14186 171.879 6.81063L176.201 30.5895C176.686 33.2583 179.249 35.0297 181.926 34.5462L187.594 33.5224C190.271 33.0388 192.048 30.4834 191.563 27.8146L187.241 4.0357C186.756 1.36693 184.193 -0.404537 181.516 0.079017Z" fill="#384B2D"/>
    <path d="M176.823 12.6688C176.823 12.6688 154.568 12.2196 149.216 15.4551C143.407 18.9638 133.659 24.8884 133.488 29.0223C133.33 32.9013 137.233 35.3476 142.561 31.584C145.124 29.775 150.001 26.1996 153.977 23.4619C156.541 21.6954 178.528 22.0657 178.528 22.0657L176.817 12.6627L176.823 12.6688Z" fill="#384B2D"/>
    <path d="M144.497 107.045H82.0121C76.9712 107.045 72.8848 111.119 72.8848 116.144V131.247C72.8848 136.273 76.9712 140.346 82.0121 140.346H144.497C149.538 140.346 153.624 136.273 153.624 131.247V116.144C153.624 111.119 149.538 107.045 144.497 107.045Z" stroke="#557043" stroke-width="14" stroke-miterlimit="10"/>
    <path d="M105.71 96.9496L115.179 116.18C115.52 116.879 115.008 117.692 114.235 117.686L98.1782 117.607C97.4415 117.607 96.93 118.341 97.1979 119.027L108.962 149.41C109.047 149.604 109.193 149.756 109.382 149.853L122.644 154.114C123.49 154.387 124.269 153.55 123.934 152.724L114.375 129.256C114.089 128.558 114.618 127.799 115.373 127.817L132.203 128.309C132.989 128.333 133.518 127.514 133.177 126.81L113.687 86.806C113.334 86.0776 112.317 86.0108 111.866 86.6907L105.777 95.9176C105.57 96.2272 105.546 96.6218 105.71 96.9496Z" fill="#BAB25E"/>
    <path d="M160.62 112.623H165.467C166.66 112.623 167.635 113.588 167.635 114.784V132.534C167.635 133.772 166.63 134.774 165.388 134.774H160.438V112.805C160.438 112.708 160.517 112.629 160.614 112.629L160.62 112.623Z" fill="#557043"/>
  </g>
  <defs>
    <clipPath id="clip0_101_3122">
      <rect width="237" height="219" fill="white"/>
    </clipPath>
  </defs>
</svg>