<svg width="123" height="207" viewBox="0 0 123 207" fill="none" xmlns="http://www.w3.org/2000/svg">
<g id="Skraldespand" clip-path="url(#clip0_101_3138)">
<g id="Layer_1-2">
<path id="Vector" d="M16.4937 57.0181H118.834V191.73C118.834 200.158 111.994 207 103.567 207H31.7612C23.334 207 16.4937 200.158 16.4937 191.73V57.0181Z" fill="#5D6B4A"/>
<path id="Vector_2" d="M40.0504 76.4549C40.0504 74.227 38.2447 72.4208 36.0172 72.4208C33.7896 72.4208 31.9839 74.227 31.9839 76.4549V187.557C31.9839 189.785 33.7896 191.591 36.0172 191.591C38.2447 191.591 40.0504 189.785 40.0504 187.557V76.4549Z" fill="#F3EFEA"/>
<path id="Vector_3" d="M71.6974 76.4549C71.6974 74.227 69.8917 72.4208 67.6641 72.4208C65.4366 72.4208 63.6309 74.227 63.6309 76.4549V187.557C63.6309 189.785 65.4366 191.591 67.6641 191.591C69.8917 191.591 71.6974 189.785 71.6974 187.557V76.4549Z" fill="#F3EFEA"/>
<path id="Vector_4" d="M103.068 76.4549C103.068 74.227 101.262 72.4208 99.0347 72.4208C96.8072 72.4208 95.0015 74.227 95.0015 76.4549V187.557C95.0015 189.785 96.8072 191.591 99.0347 191.591C101.262 191.591 103.068 189.785 103.068 187.557V76.4549Z" fill="#F3EFEA"/>
<path id="Vector_5" d="M120.794 47.4749L29.8745 0.458206C27.8752 -0.575701 25.417 0.206059 24.3841 2.20432C23.3511 4.20257 24.1346 6.66063 26.1339 7.69453L117.053 54.7112C119.053 55.7452 121.511 54.9634 122.544 52.9651C123.577 50.9669 122.793 48.5088 120.794 47.4749Z" fill="#5D6B4A"/>
<path id="Vector_6" d="M99.3598 23.7791L60.2325 3.54544C58.1978 2.49324 55.6955 3.29005 54.6435 5.32518L54.6408 5.33052C53.5888 7.36564 54.3854 9.86842 56.4201 10.9206L95.5474 31.1543C97.5821 32.2065 100.084 31.4097 101.136 29.3745L101.139 29.3692C102.191 27.3341 101.395 24.8313 99.3598 23.7791Z" fill="#5D6B4A"/>
<path id="Vector_7" d="M24.2418 17.2545H6.30538C2.82301 17.2545 0 20.0781 0 23.5611V41.501C0 44.9841 2.82301 47.8076 6.30538 47.8076H24.2418C27.7241 47.8076 30.5471 44.9841 30.5471 41.501V23.5611C30.5471 20.0781 27.7241 17.2545 24.2418 17.2545Z" fill="#891A04"/>
<path id="Vector_8" opacity="0.2" d="M10.2108 22.0808L9.43676 22.6414C8.93397 23.0056 8.82153 23.7085 9.18562 24.2114L20.3683 39.657C20.7324 40.1599 21.4352 40.2724 21.938 39.9082L22.7121 39.3476C23.2149 38.9834 23.3273 38.2805 22.9632 37.7776L11.7805 22.332C11.4164 21.8291 10.7136 21.7166 10.2108 22.0808Z" fill="#FBF1BD"/>
<path id="Vector_9" opacity="0.2" d="M7.10466 22.2325H6.14893C5.52815 22.2325 5.0249 22.7358 5.0249 23.3567V42.4269C5.0249 43.0478 5.52815 43.5511 6.14893 43.5511H7.10466C7.72544 43.5511 8.22868 43.0478 8.22868 42.4269V23.3567C8.22868 22.7358 7.72544 22.2325 7.10466 22.2325Z" fill="#FBF1BD"/>
<path id="Vector_10" opacity="0.2" d="M20.6291 21.5591H19.6733C19.0526 21.5591 18.5493 22.0625 18.5493 22.6834V41.7535C18.5493 42.3744 19.0526 42.8778 19.6733 42.8778H20.6291C21.2499 42.8778 21.7531 42.3744 21.7531 41.7535V22.6834C21.7531 22.0625 21.2499 21.5591 20.6291 21.5591Z" fill="#FBF1BD"/>
<path id="Vector_11" d="M34.4903 22.1062H16.5539C13.0716 22.1062 10.2485 24.9298 10.2485 28.4128V46.3527C10.2485 49.8358 13.0716 52.6593 16.5539 52.6593H34.4903C37.9727 52.6593 40.7957 49.8358 40.7957 46.3527V28.4128C40.7957 24.9298 37.9727 22.1062 34.4903 22.1062Z" fill="#B23D29"/>
<path id="Vector_12" opacity="0.5" d="M33.5288 38.5972L23.2322 38.7956C21.6754 38.7956 20.4131 37.3046 20.4131 35.4649V31.978C20.4131 30.1383 21.6754 28.6473 23.2322 28.6473H34.5506C36.1074 28.6473 37.3697 30.1383 37.3697 31.978V40.2986C37.3697 40.8758 36.8407 41.2365 36.414 40.9479C34.9894 39.98 34.6348 39.475 33.5288 38.5972Z" fill="#FBF1BD"/>
<path id="Vector_13" opacity="0.5" d="M27.1448 43.5511H17.1668C16.181 44.2125 15.2734 45.2345 14.522 45.8597C14.0231 46.2746 13.6685 46.2145 13.6685 45.481V36.8658C13.6685 35.0621 14.8706 33.5952 16.3553 33.5952H27.1448C28.6295 33.5952 29.8316 35.0561 29.8316 36.8658V40.2866C29.8316 42.0902 28.6295 43.5571 27.1448 43.5571V43.5511Z" fill="#FBF1BD"/>
</g>
</g>
<defs>
<clipPath id="clip0_101_3138">
<rect width="123" height="207" fill="white"/>
</clipPath>
</defs>
</svg>
