<svg xmlns="http://www.w3.org/2000/svg" width="232" height="181" viewBox="0 0 232 181" fill="none">
  <g clip-path="url(#clip0_101_3155)">
    <path d="M223.089 0H8.68489C3.97923 0 0.164551 3.75366 0.164551 8.38403V143.228C0.164551 147.859 3.97923 151.612 8.68489 151.612H223.089C227.795 151.612 231.61 147.859 231.61 143.228V8.38403C231.61 3.75366 227.795 0 223.089 0Z" fill="#557043"/>
    <path d="M208.439 14.4161H22.3477C17.6421 14.4161 13.8274 18.1698 13.8274 22.8002V125.897C13.8274 130.527 17.6421 134.281 22.3477 134.281H208.439C213.144 134.281 216.959 130.527 216.959 125.897V22.8002C216.959 18.1698 213.144 14.4161 208.439 14.4161Z" fill="#F3EFEA"/>
    <path d="M222.925 158.982H8.52034C3.81468 158.982 0 162.735 0 167.365C0 171.994 3.81468 175.747 8.52034 175.747H222.925C227.63 175.747 231.445 171.994 231.445 167.365C231.445 162.735 227.63 158.982 222.925 158.982Z" fill="#557043"/>
    <path d="M30.2886 180.768C37.8343 180.768 43.9514 174.749 43.9514 167.324C43.9514 159.899 37.8343 153.88 30.2886 153.88C22.7428 153.88 16.6257 159.899 16.6257 167.324C16.6257 174.749 22.7428 180.768 30.2886 180.768Z" fill="#384B2D"/>
    <path d="M115.064 113.709C136.883 113.709 154.571 96.3043 154.571 74.8342C154.571 53.3642 136.883 35.9593 115.064 35.9593C93.245 35.9593 75.5571 53.3642 75.5571 74.8342C75.5571 96.3043 93.245 113.709 115.064 113.709Z" fill="#384B2D"/>
    <path d="M115.064 105.61C132.337 105.61 146.34 91.8314 146.34 74.8343C146.34 57.8372 132.337 44.0583 115.064 44.0583C97.7905 44.0583 83.7876 57.8372 83.7876 74.8343C83.7876 91.8314 97.7905 105.61 115.064 105.61Z" fill="white"/>
    <path d="M104.858 58.6364V88.2267C104.858 89.043 105.754 89.5549 106.475 89.1499L132.816 74.3451" fill="#384B2D"/>
    <path d="M104.858 86.8207V59.1158C104.858 58.3513 105.754 57.8718 106.475 58.2508L132.816 72.1097" fill="#384B2D"/>
    <path d="M123.518 82.5866L133.899 73.3279C134.185 73.072 133.932 72.4435 133.441 72.1908L115.525 63.0131" fill="#384B2D"/>
    <path d="M134.139 73.131L105.656 89.8253L113.069 102.072L141.552 85.3772L134.139 73.131Z" fill="white"/>
  </g>
  <defs>
    <clipPath id="clip0_101_3155">
      <rect width="231.61" height="180.768" fill="white"/>
    </clipPath>
  </defs>
</svg>