<svg xmlns="http://www.w3.org/2000/svg" width="132" height="231" viewBox="0 0 132 231" fill="none">
  <g clip-path="url(#clip0_101_3439)">
    <path d="M49.5543 75.573L54.9446 217.5L58.312 219.079V230.233L35.7471 230.141V219.193L37.4292 218.132L44.0125 75.573H49.5543Z" fill="#6E7F59"/>
    <path d="M47.1087 77.3108C50.5947 77.3108 53.4206 74.4816 53.4206 70.9917C53.4206 67.5018 50.5947 64.6726 47.1087 64.6726C43.6228 64.6726 40.7969 67.5018 40.7969 70.9917C40.7969 74.4816 43.6228 77.3108 47.1087 77.3108Z" fill="#3C4A30"/>
    <path d="M52.9722 70.4135C55.0425 69.81 56.4311 67.8827 57.441 65.9775C57.7376 65.4214 58.0374 64.8275 58.5708 64.4894C59.0379 64.1924 59.6122 64.1355 60.1645 64.0913C82.4359 62.2208 104.846 63.036 127.159 64.3061C128.317 64.3725 129.519 64.4515 130.526 65.0265C131.533 65.6015 132.268 66.8306 131.896 67.927C105.903 71.5573 79.6587 73.3898 53.414 73.4088C53.3824 72.2682 53.354 71.1307 53.3225 69.9901" fill="#4F5E40"/>
    <path d="M41.6709 68.2966C40.1528 66.7611 37.8017 66.4578 35.6462 66.4736C35.015 66.4799 34.3522 66.4957 33.8 66.1892C33.3171 65.9207 32.992 65.4404 32.6891 64.976C20.4409 46.2588 10.4839 26.1452 0.971959 5.89886C0.479634 4.84674 -0.0253149 3.75037 -6.74038e-05 2.58766C0.02518 1.42495 0.7542 0.195892 1.89665 0C17.4649 21.1531 31.5719 43.3837 44.0883 66.4767C43.1036 67.0454 42.1158 67.6173 41.1312 68.186" fill="#4F5E40"/>
    <path d="M44.8334 78.4482C44.2842 80.5367 45.2216 82.7168 46.3356 84.5683C46.6607 85.1085 47.0141 85.6741 47.0299 86.3028C47.0457 86.8558 46.7964 87.3803 46.5534 87.8763C36.6974 107.958 24.4713 126.777 11.9075 145.282C11.2543 146.243 10.5663 147.235 9.55637 147.803C8.54647 148.372 7.11368 148.372 6.36572 147.487C16.6288 123.304 28.5582 99.832 42.0404 77.2887C43.0313 77.8479 44.0255 78.4072 45.0164 78.9696" fill="#4F5E40"/>
  </g>
  <defs>
    <clipPath id="clip0_101_3439">
      <rect width="132" height="230.233" fill="white"/>
    </clipPath>
  </defs>
</svg>