<svg width="267" height="114" viewBox="0 0 267 114" fill="none" xmlns="http://www.w3.org/2000/svg">
<g clip-path="url(#clip0_101_3178)">
<path d="M79.7688 85.0529L79.5448 89.6217L195.083 89.7717L196.474 85.0529L202.558 68.9411L215.521 61.7361L230.264 61.4476L237.721 65.4049L246.516 73.7348L248.838 80.0227L252.97 85.1568L260.357 84.3492L263.451 77.0691L257.344 64.6781L246.073 54.2887L242.849 52.2639L237.231 46.1492L228.684 41.3151L212.178 37.277L197.848 35.5118L185.652 33.8158L176.809 32.0852L169.146 22.2785L161.483 15.3561L152.641 10.1644L142.454 6.03977L129.757 3.00546H118.987H108.653H95.9147L90.3854 4.18804L83.0817 6.1263L75.4184 7.85689L68.9341 10.7412L62.7446 13.3775L57.1445 15.3561L52.4286 18.2405L46.5338 21.7016L40.639 25.1628L35.3336 29.7778L31.2073 33.2389L27.0809 37.277L22.365 41.3151L18.274 46.7953L14.1123 52.8523L10.8937 58.9094L7.53955 64.6781L5.27005 71.312L3.5016 77.0807L1.0022 83.8646V87.1758L4.09108 89.1948L8.38251 89.7717H11.5657H15.5919L18.61 87.1758L19.9894 85.0241L13.8352 85.4048L9.68527 80.4611L11.3004 71.4851L15.7864 64.0262L22.8779 56.602L30.494 51.5602L38.1396 48.5259L44.9186 47.2106L51.8097 47.0606L58.9306 48.0182L64.3774 49.6738L69.6474 52.1601L75.8605 56.3135L81.4606 61.1015L85.2804 66.3567L88.275 71.5947L90.2498 76.971L89.4009 82.1686L87.155 84.2453L81.6021 85.5894L79.7688 85.0529Z" fill="#4F5E40"/>
<path d="M134.956 114C207.882 114 267 112.58 267 110.827C267 109.075 207.882 107.654 134.956 107.654C62.0302 107.654 2.91211 109.075 2.91211 110.827C2.91211 112.58 62.0302 114 134.956 114Z" fill="#8DA576"/>
<path d="M126.155 44.6493C125.654 44.6839 125.141 44.8743 124.852 45.2723C124.564 45.6704 124.599 46.3049 125.017 46.5818C125.241 46.726 125.519 46.7491 125.784 46.7722C128.336 46.9568 130.93 47.1414 133.435 46.6222C134.013 46.5068 134.667 46.2645 134.826 45.7108C134.874 45.5377 134.862 45.3358 134.744 45.1916C134.585 44.9954 134.296 44.9724 134.037 44.9608C131.396 44.8685 128.761 44.7762 126.12 44.6839" fill="#3C4A30"/>
<path d="M120.219 8.43376V84.003H175.041C174.634 75.6616 176.302 54.7906 173.001 47.1299C165.951 25.209 144.606 6.45512 120.219 8.43376Z" fill="#3C4A30" stroke="#323F00" stroke-miterlimit="10"/>
<path d="M98.7972 83.8646H120.219V8.43376C94.3584 7.80498 66.529 13.0429 45.9443 29.2009C23.9625 48.6874 58.7596 33.5274 73.1017 44.6493C84.7381 49.8757 93.7572 60.1555 96.6397 72.4658C97.3176 75.1193 94.7357 85.3702 98.7972 83.8646Z" fill="#3C4A30" stroke="#323F00" stroke-miterlimit="10"/>
<path d="M125.212 12.6853C126.733 12.5814 128.248 12.8872 129.721 13.2621C139.884 15.8753 148.72 22.0882 156.319 29.1951C157.622 30.4123 158.901 31.6699 159.944 33.112C160.304 33.6139 161.1 34.4561 160.817 35.1195C160.504 35.8464 159.467 35.7483 158.83 35.7541C154.769 35.8175 150.701 35.881 146.64 35.9444C145.131 35.9675 143.621 35.9906 142.112 35.9617C140.698 35.9329 139.289 35.8579 137.88 35.7829L132.262 35.4887L128.466 35.2868C127.782 35.2522 125.619 35.4772 125.241 34.9118C125.011 34.5715 125.159 33.6312 125.141 33.2332C125.118 32.639 125.094 32.0391 125.076 31.4449C125.035 30.2046 125 28.9586 124.976 27.7183C124.882 22.7515 124.929 17.779 125.118 12.8122" fill="#BAB25E"/>
<path d="M125.212 12.9045C127.057 12.8122 128.849 13.239 130.612 13.7294C132.103 14.1505 133.571 14.6466 135.015 15.2177C137.88 16.3483 140.627 17.7559 143.25 19.348C148.532 22.5612 153.519 26.5358 157.81 30.9488C158.388 31.543 158.948 32.1602 159.449 32.8178C159.838 33.3255 160.652 34.11 160.652 34.7792C160.652 35.6156 159.543 35.5406 158.966 35.5406C158.046 35.5406 157.126 35.5695 156.213 35.581C152.593 35.6387 148.98 35.7022 145.36 35.7483C141.741 35.7945 138.31 35.5926 134.785 35.408L129.338 35.1195C128.242 35.0618 127.045 35.2234 125.972 35.0157C125.518 34.9292 125.377 34.8253 125.33 34.3581C125.3 34.0754 125.347 33.7812 125.353 33.4985C125.377 32.6736 125.3 31.8372 125.277 31.0122C125.212 29.0048 125.171 26.9973 125.153 24.9898C125.118 20.9287 125.182 16.8618 125.336 12.8064C125.347 12.5295 124.905 12.5295 124.894 12.8064C124.746 16.7233 124.681 20.6402 124.705 24.5629C124.717 26.5704 124.758 28.5779 124.817 30.5854C124.846 31.468 124.911 32.3506 124.911 33.2332C124.911 33.7177 124.805 34.2542 124.929 34.733C125.159 35.6156 126.45 35.5233 127.175 35.5233C128.725 35.5176 130.27 35.6041 131.82 35.6849C135.669 35.8868 139.524 36.1867 143.38 36.1983C147.235 36.2098 151.261 36.0944 155.199 36.0367C156.118 36.0252 157.038 36.0079 157.958 35.9964C158.618 35.9848 159.349 36.054 160.003 35.9271C161.123 35.7137 161.294 34.7446 160.758 33.8677C159.084 31.1449 156.425 28.9355 154.032 26.8415C151.638 24.7475 148.974 22.6362 146.25 20.7787C143.156 18.6731 139.884 16.8156 136.43 15.3446C134.767 14.6351 133.064 14.012 131.325 13.4986C129.344 12.9102 127.305 12.3795 125.218 12.4834C124.935 12.5007 124.935 12.9333 125.218 12.916L125.212 12.9045Z" fill="#323F00"/>
<path d="M83.4649 16.0599C84.0072 15.9388 84.5495 15.8234 85.0977 15.708C94.5648 13.7063 104.232 12.2353 113.906 12.7199C115.161 12.7833 114.79 14.6697 114.849 15.5004C114.984 17.3752 115.096 19.2557 115.197 21.1363C115.391 24.8975 115.509 28.6586 115.556 32.4198C115.562 33.1005 115.556 33.8331 115.167 34.3984C114.548 35.2868 113.281 35.4022 112.184 35.431C105.223 35.5925 98.255 35.6791 91.2873 35.6906C79.48 35.7079 67.6668 35.506 55.8594 35.3099C53.1242 35.2637 50.389 35.2176 47.6479 35.1714C48.2197 35.183 50.3772 32.5179 50.896 32.0564C52.0632 31.018 53.2716 30.0258 54.5213 29.074C57.0148 27.1819 59.6616 25.4743 62.4204 23.9803C65.1791 22.4862 68.0617 21.1825 71.0268 20.1383C73.9919 19.0942 76.957 17.7271 80.0871 16.8848C81.2072 16.5849 82.339 16.3137 83.4708 16.0657L83.4649 16.0599Z" fill="#BAB25E"/>
<path d="M83.5237 16.2676C91.3344 14.5428 99.2806 13.1641 107.298 12.8929C109.213 12.8295 111.129 12.8237 113.039 12.8929C113.982 12.9275 114.519 12.9506 114.619 13.9659C114.666 14.4735 114.607 14.9869 114.625 15.4946C114.784 19.348 115.096 23.1957 115.214 27.055C115.273 28.9875 115.403 30.9488 115.326 32.8755C115.285 33.937 114.872 34.7215 113.788 35.0272C112.945 35.2637 112.013 35.2118 111.141 35.2349C107.074 35.3272 103 35.3906 98.9269 35.431C90.91 35.506 82.893 35.4714 74.876 35.3791C65.798 35.2753 56.7141 35.1022 47.6361 34.9522V35.3849C48.1725 35.3272 48.6441 34.7561 48.9919 34.4042C49.5696 33.8216 50.106 33.1986 50.6601 32.5986C51.4618 31.7276 52.4344 30.9892 53.3599 30.2508C54.5448 29.299 55.765 28.3933 57.0147 27.5338C59.5082 25.8205 62.1373 24.2918 64.8607 22.9592C67.5841 21.6267 70.6023 20.5652 73.5143 19.4346C76.8095 18.1539 80.0576 17.0464 83.5178 16.2734C83.7949 16.2099 83.677 15.7946 83.3999 15.858C80.3582 16.5387 77.4462 17.4386 74.5459 18.5693C71.8284 19.6307 69.0519 20.5595 66.3934 21.7593C61.0232 24.1822 56.0067 27.3665 51.5561 31.1795C50.8311 31.8025 50.2062 32.4486 49.5696 33.1524C49.2277 33.5274 48.8799 33.9081 48.5144 34.2658C48.3081 34.4619 47.9426 34.9234 47.6361 34.958C47.359 34.9868 47.3472 35.3849 47.6361 35.3906C64.731 35.6791 81.826 36.031 98.9269 35.8694C103.242 35.8291 107.557 35.7656 111.878 35.6618C113.151 35.6329 114.784 35.5868 115.468 34.3234C115.821 33.6658 115.78 32.864 115.768 32.1487C115.757 31.1161 115.739 30.0777 115.709 29.0451C115.609 24.9032 115.421 20.7671 115.144 16.6368C115.102 16.0022 115.055 15.3734 115.067 14.7331C115.079 14.2255 115.096 13.6544 114.878 13.1814C114.725 12.8468 114.472 12.6218 114.106 12.5353C113.204 12.3218 112.09 12.4372 111.17 12.4257C101.815 12.3045 92.5015 13.8505 83.3999 15.8638C83.1229 15.9272 83.2408 16.3426 83.5178 16.2791L83.5237 16.2676Z" fill="#323F00"/>
<path d="M21.8461 57.0173C16.6528 63.5474 11.4595 70.0775 6.26613 76.6076C5.57643 77.4729 6.80845 78.7074 7.51583 77.8306C11.1411 73.3368 14.7606 68.843 18.3859 64.3493L16.9947 63.2994C12.2612 70.8851 8.50026 79.0362 5.81222 87.5277C5.47033 88.6006 7.15035 89.0333 7.51583 87.9892C11.4595 76.7345 16.0103 65.6991 20.5611 54.6752C20.9442 53.7522 19.4352 53.1754 18.9459 54.0061C14.9197 60.8592 11.766 68.1912 9.57312 75.8C9.29606 76.7576 10.6637 77.2941 11.1883 76.4692C15.1614 70.2275 19.1404 63.9858 23.1135 57.7442C23.6382 56.9192 22.4002 55.9559 21.7223 56.6943C17.3071 61.5226 13.5521 66.8644 9.8207 72.2062L11.3475 73.0772C14.1711 67.4989 17.4663 62.1572 21.1918 57.1096L19.5766 56.4404C19.0284 58.9556 17.7198 61.3149 16.6705 63.657C15.5505 66.1491 14.4363 68.6411 13.3163 71.1332C12.8624 72.1427 14.1829 72.933 14.8431 72.0042C18.9813 66.1895 23.0251 60.3112 26.9569 54.3637C27.5228 53.51 26.2849 52.6735 25.5658 53.3138C22.5358 56.0078 19.7535 58.9498 17.2423 62.111C16.5585 62.9705 17.761 64.205 18.492 63.334C20.5964 60.8304 22.86 58.4595 25.2769 56.2385L24.0272 55.0156C21.3451 58.0787 18.8398 61.2803 16.5172 64.6088C15.8747 65.5318 17.4073 66.3971 18.044 65.4799C20.284 62.2725 22.695 59.1921 25.2769 56.2385C26.0138 55.4021 24.8643 54.2426 24.0272 55.0156C21.6103 57.2365 19.3467 59.6017 17.2423 62.111L18.492 63.334C21.0032 60.1728 23.7914 57.2307 26.8155 54.5368L25.4243 53.4869C21.4924 59.4344 17.4486 65.3184 13.3104 71.1274L14.8372 71.9985C15.9926 69.4199 17.1539 66.8355 18.3092 64.257C19.3821 61.8745 20.7202 59.4517 21.2802 56.8904C21.4983 55.904 20.2486 55.4309 19.6651 56.2212C15.9395 61.2688 12.6443 66.6048 9.8207 72.1888C9.31375 73.1926 10.7049 73.9829 11.3475 73.0599C14.9964 67.8451 18.657 62.6187 22.972 57.8999L21.5809 56.85C17.6078 63.0917 13.6288 69.3334 9.65565 75.575L11.2708 76.2442C13.4224 68.7738 16.5113 61.5918 20.4609 54.8656L18.8457 54.1964C14.2949 65.2261 9.74407 76.2557 5.80044 87.5104L7.50404 87.9719C10.1508 79.6189 13.8469 71.6235 18.5038 64.1589C19.0107 63.3455 17.7492 62.3245 17.1126 63.109C13.4873 67.6028 9.86786 72.0965 6.24255 76.5903L7.49225 77.8133C12.6856 71.2832 17.8789 64.7531 23.0723 58.223C23.762 57.3519 22.5181 56.1232 21.8226 57L21.8461 57.0173Z" fill="#4F5E40"/>
<path d="M10.7405 85.1164C11.8782 85.1164 11.8782 83.3858 10.7405 83.3858C9.60278 83.3858 9.60278 85.1164 10.7405 85.1164Z" fill="#4F5E40"/>
<path d="M8.42962 78.1998C8.93068 80.9226 9.43174 83.6511 9.9328 86.374C10.0153 86.8354 10.593 87.095 11.0233 86.9797C11.5303 86.8412 11.713 86.3797 11.6423 85.9125C11.2886 83.6396 11.0233 81.3552 10.8347 79.0593L9.18416 79.4977C9.89743 80.5765 10.3042 81.7937 10.3513 83.0801C10.3926 84.1934 12.161 84.1934 12.1198 83.0801C12.0667 81.4937 11.5951 79.9534 10.7109 78.6209C10.2688 77.9517 8.98963 78.1479 9.06037 79.0593C9.26079 81.5052 9.55553 83.9454 9.92691 86.374L11.6305 85.9125C11.1294 83.1897 10.6284 80.4611 10.1273 77.7383C10.0448 77.2768 9.46711 77.0172 9.03679 77.1326C8.54162 77.2653 8.3353 77.7383 8.41783 78.1998H8.42962Z" fill="#4F5E40"/>
<path d="M1.40877 82.1167C0.919501 83.207 0.223912 84.2972 0.218018 85.526C0.218018 86.5989 0.772131 87.5392 1.6092 88.1968C3.5368 89.7082 6.31326 89.8178 8.6653 90.0717C11.1883 90.3486 13.9294 90.6774 16.4111 89.9736C18.6511 89.339 20.3429 87.5796 20.225 85.2029C20.172 84.0953 18.4035 84.0896 18.4566 85.2029C18.6688 89.5525 11.9251 88.6872 9.21941 88.4045C7.31538 88.2026 5.11661 88.1449 3.38354 87.2681C2.77047 86.9566 2.11026 86.4893 1.99825 85.774C1.85088 84.8222 2.55826 83.83 2.93553 82.9935C3.38943 81.984 1.86857 81.1014 1.40877 82.1225V82.1167Z" fill="#4F5E40"/>
<path d="M3.6311 77.5825C3.48373 77.9979 3.33046 78.4132 3.1654 78.817C3.11825 78.9266 3.07698 79.0362 3.02982 79.1401C3.08288 79.0074 2.98267 79.2439 2.97677 79.2554C2.88835 79.4573 2.79403 79.6592 2.69971 79.8554C2.32245 80.6399 1.90391 81.4014 1.45001 82.1398L3.06519 82.3474C3.07698 82.3936 3.07698 82.4455 3.06519 82.4917C3.07109 82.4513 3.08288 82.4109 3.10056 82.3705C3.12414 82.3128 3.11825 82.3186 3.08877 82.3821C3.11235 82.3301 3.14183 82.2782 3.1654 82.2205C3.24793 82.0532 3.33046 81.8802 3.41299 81.7129C3.60162 81.3322 3.78436 80.9514 3.973 80.5707C4.33847 79.8265 4.70395 79.0766 5.06943 78.3325C5.26986 77.9229 5.19912 77.3806 4.75111 77.1499C4.35616 76.948 3.75489 77.023 3.54267 77.4614C3.13593 78.2921 2.72919 79.1228 2.32245 79.9535C2.12202 80.363 1.9216 80.7726 1.72117 81.1764C1.4618 81.7071 1.22601 82.1917 1.36159 82.7974C1.53254 83.5473 2.5995 83.6165 2.97677 83.0051C3.94352 81.436 4.73343 79.7573 5.34059 78.0267C5.48797 77.5998 5.16964 77.0634 4.72164 76.9595C4.23237 76.8499 3.79615 77.1037 3.6311 77.5652V77.5825Z" fill="#4F5E40"/>
<path d="M69.1227 70.1006C68.6806 69.4776 68.2326 68.8546 67.7905 68.2258C66.7707 66.7894 65.1496 65.9299 63.7172 64.9088C60.1272 62.3591 55.5411 61.6438 51.1317 61.2226L50.9962 61.2111C48.8387 61.0092 46.6988 60.865 44.5649 61.2457C42.7022 61.5803 40.8689 62.0764 39.1063 62.7456C35.5989 64.0839 32.3567 66.1606 29.9517 69.0219C27.4405 72.01 25.9137 75.6962 24.6345 79.3939C23.7916 81.8283 22.8484 84.5337 20.5789 85.7163C19.7359 86.1605 18.7751 86.3393 17.8319 86.4201C16.6883 86.5239 15.5093 86.4893 14.4247 86.1086C11.8546 85.2029 10.2747 82.4282 10.0566 79.6881C9.83853 76.948 10.7581 74.2482 11.8899 71.7504C16.6942 61.1303 25.8253 52.5293 36.7484 48.6989C47.6715 44.8685 60.2451 45.9415 70.2369 51.814C72.4062 53.0889 74.4458 54.5714 76.45 56.1001C78.4307 57.6115 80.3877 59.1805 82.0501 61.038C84.2489 63.5013 85.8758 66.4144 87.491 69.3045C88.9234 71.8658 90.3736 74.5021 90.8393 77.4037C91.134 79.2324 90.9925 81.211 89.9904 82.7685C89.4245 83.6454 88.6169 84.3492 87.7445 84.9087C85.5575 86.3105 82.6867 86.8931 80.3583 85.7452C79.3385 85.2433 78.6547 84.5164 78.018 83.6223C77.4286 82.8032 76.6799 82.0994 76.1081 81.2456C74.9115 79.4689 74.1098 77.4672 72.9956 75.6443C72.5241 74.8655 71.9935 74.1213 71.463 73.3772C70.6849 72.2811 69.9009 71.1851 69.1227 70.0891V70.1006Z" fill="#6E7F59"/>
<path d="M177.104 32.5121C172.005 23.0746 164.076 15.1369 154.568 9.91053C143.863 4.03228 131.561 2.07671 119.423 1.88058C112.32 1.7652 105.228 2.21516 98.1487 2.75164C97.0228 2.83817 97.011 4.56877 98.1487 4.48224C110.357 3.55925 122.813 2.82664 134.932 4.99565C140.756 6.03977 146.469 7.75883 151.75 10.4009C156.507 12.7776 160.899 15.8292 164.772 19.4346C169.122 23.4842 172.777 28.1971 175.583 33.3889C176.114 34.3754 177.64 33.4985 177.11 32.5179L177.104 32.5121Z" fill="#4F5E40"/>
<path d="M1.88627 85.7913C1.36164 82.0994 2.29302 78.4017 3.61935 74.9693C4.94569 71.537 6.5255 68.4796 8.13478 65.3184C11.0999 59.4921 14.3774 53.7407 18.5804 48.6758C20.9619 45.8031 23.6382 43.1668 26.6268 40.8939C27.5229 40.2132 26.2673 38.9961 25.3771 39.671C19.8891 43.8475 15.5269 49.2354 11.9016 55.004C10.0624 57.9288 8.40005 60.9515 6.83203 64.0204C5.19916 67.2163 3.57219 70.4352 2.22228 73.7579C0.601204 77.7498 -0.424495 81.9552 0.188566 86.2586C0.341831 87.3546 2.05133 86.8874 1.89217 85.7971L1.88627 85.7913Z" fill="#4F5E40"/>
<path d="M3.23033 83.3166C3.13012 79.5208 4.27961 75.8173 6.49607 72.7023C7.15039 71.785 5.61774 70.9198 4.96931 71.8312C2.5878 75.177 1.35578 79.2439 1.46189 83.3166C1.49136 84.4299 3.25981 84.4299 3.23033 83.3166Z" fill="#4F5E40"/>
<path d="M4.62158 70.5044V74.7732C4.62158 75.2232 5.02832 75.6616 5.50581 75.6385C5.98329 75.6154 6.39003 75.2578 6.39003 74.7732V70.5044C6.39003 70.0545 5.98329 69.616 5.50581 69.6391C5.02832 69.6622 4.62158 70.0198 4.62158 70.5044Z" fill="#4F5E40"/>
<path d="M263.027 83.1666C264.371 77.6691 262.938 71.9235 260.168 67.0663C257.397 62.2091 253.2 57.9634 249.115 53.9599C245.03 49.9565 240.591 45.9242 235.433 43.1091C230.275 40.294 225.1 38.7826 219.6 37.7616C213.298 36.5905 206.879 36.1694 200.489 35.7829C199.351 35.7137 199.357 37.4443 200.489 37.5135C211.235 38.1596 222.471 38.8403 232.327 43.4783C237.42 45.8781 241.758 49.3681 245.802 53.1927C249.846 57.0173 253.943 60.9169 257.091 65.4741C260.545 70.4698 262.809 76.6596 261.329 82.7109C261.064 83.7954 262.768 84.2569 263.033 83.1723L263.027 83.1666Z" fill="#4F5E40"/>
<path d="M236.748 47.6375C237.561 47.9548 238.239 48.6009 238.911 49.1258C239.707 49.7488 240.503 50.3661 241.298 50.9891C242.855 52.2005 244.405 53.4119 245.961 54.6291C248.744 56.7981 251.685 58.9325 253.742 61.8111L255.134 60.7612C250.925 56.6712 246.362 52.9446 241.505 49.6046C240.573 48.9643 239.689 50.4641 240.615 51.0987C245.342 54.3522 249.775 57.998 253.884 61.9841C254.574 62.6533 255.865 61.7649 255.275 60.9342C253.059 57.8365 249.982 55.5578 246.987 53.2215C245.319 51.9178 243.651 50.6199 241.982 49.3162C240.497 48.1567 239.005 46.6626 237.219 45.9646C236.164 45.555 235.704 47.2279 236.748 47.6317V47.6375Z" fill="#4F5E40"/>
<path d="M242.118 71.7677C241.269 70.9659 240.456 70.0198 239.554 69.2815C238.528 68.445 237.326 67.672 236.241 66.899C232.651 64.3493 228.065 63.6339 223.655 63.2128L223.52 63.2013C221.362 62.9994 219.223 62.8552 217.089 63.2359C215.226 63.5705 213.393 64.0666 211.63 64.7358C208.123 66.0741 204.88 68.1508 202.475 71.012C199.964 74.0002 198.437 77.6864 197.158 81.3841C196.315 83.8184 195.372 86.5239 193.103 87.7065C192.26 88.1507 191.299 88.3295 190.356 88.4103C189.212 88.5141 188.033 88.4795 186.948 88.0988C184.378 87.1931 182.798 84.4184 182.58 81.6783C182.362 78.9382 183.282 76.2384 184.414 73.7406C189.218 63.1205 198.349 54.5195 209.272 50.6891C220.195 46.8587 232.769 47.9317 242.761 53.8042C244.93 55.079 246.969 56.5616 248.974 58.0903C250.954 59.6017 252.911 61.1707 254.574 63.0282C256.773 65.4915 258.399 68.4046 260.015 71.2947C261.447 73.856 262.897 76.4923 263.363 79.3939C263.658 81.2226 263.516 83.2012 262.514 84.7587C261.948 85.6356 261.141 86.3393 260.268 86.8989C258.081 88.3007 255.21 88.8833 252.882 87.7354C251.131 86.8701 250.088 85.2664 249.239 83.605C248.26 81.6898 247.282 79.7804 246.386 77.8017C245.861 76.648 245.331 75.4827 244.594 74.4444C243.892 73.4522 243.008 72.5927 242.124 71.7562L242.118 71.7677Z" fill="#6E7F59"/>
<path d="M19.8831 47.3433C25.2062 40.4555 31.2425 33.8389 39.0413 29.5932C40.0375 29.0509 39.1474 27.5568 38.1512 28.0991C30.0753 32.4948 23.868 39.3479 18.3564 46.4722C17.6726 47.3606 19.2052 48.2259 19.8831 47.3433Z" fill="#4F5E40"/>
<path d="M18.8104 48.1394C24.2867 41.6901 30.2877 35.6619 36.8014 30.2163C43.3152 24.7706 50.33 19.9192 57.7929 15.8177C65.5387 11.5604 73.7502 8.15117 82.2918 5.75718C90.8334 3.36319 100.324 1.88065 109.544 1.74797C114.153 1.67875 118.775 1.9268 123.343 2.50944C125.613 2.79787 127.865 3.17283 130.105 3.64009C132.345 4.10735 134.372 4.60345 136.353 5.49759C137.332 5.94178 138.263 6.4725 139.136 7.09551L139.584 5.48029C128.808 5.75142 118.02 5.57259 107.262 4.9438V6.6744C109.343 6.53595 111.442 6.3802 113.44 5.73988C114.024 5.54951 114.365 4.7419 113.829 4.29195C113.21 3.77277 112.591 3.25359 111.972 2.73441C111.112 2.01333 109.856 3.23052 110.722 3.95737C111.341 4.47654 111.96 4.99572 112.579 5.5149L112.968 4.06697C111.117 4.66691 109.196 4.81689 107.262 4.9438C106.13 5.0188 106.119 6.61094 107.262 6.6744C118.02 7.29741 128.808 7.47624 139.584 7.21088C140.515 7.18781 140.715 6.086 140.032 5.59566C136.4 3.01131 131.832 2.12294 127.493 1.38455C122.872 0.600013 118.191 0.150058 113.499 0.0346853C104.185 -0.196061 94.83 0.876908 85.7874 3.05169C76.7447 5.22647 68.268 8.44537 60.139 12.6046C52.0101 16.7638 45.1544 21.3152 38.3871 26.6801C31.6022 32.0622 25.336 38.0616 19.6239 44.5283C18.9283 45.3186 18.2386 46.1146 17.5607 46.9165C16.8357 47.7645 18.0854 48.999 18.8104 48.1394Z" fill="#4F5E40"/>
<path d="M115.692 0.703775C115.197 0.698006 114.766 0.859528 114.454 1.24026C114.053 1.71906 114.147 2.51513 114.843 2.68819C115.538 2.86125 116.222 2.91894 116.93 2.84394C117.702 2.76318 118.256 1.64406 117.378 1.22872C115.721 0.449954 113.941 0.46726 112.143 0.542253C110.198 0.623014 108.252 0.698006 106.307 0.847991C102.246 1.15373 98.1959 1.6556 94.1815 2.35361C86.4357 3.70347 78.8255 5.79749 71.4983 8.60105C67.5723 10.1009 63.4165 11.6238 60.0623 14.1736C59.1663 14.8543 60.4219 16.0715 61.312 15.3965C64.1651 13.2275 67.7492 11.918 71.0738 10.6143C74.5695 9.24137 78.1358 8.03573 81.7494 6.9916C89.112 4.86874 96.675 3.43234 104.315 2.74011C106.496 2.54397 108.677 2.39976 110.864 2.319C112.679 2.24977 114.784 1.92673 116.482 2.7228L116.93 1.10758C116.37 1.16527 115.857 1.14796 115.309 1.01528L115.698 2.46321L115.686 2.43437C116.824 2.45167 116.824 0.721081 115.686 0.703775H115.692Z" fill="#4F5E40"/>
<path d="M131.343 4.13035C134.314 4.62069 137.226 5.41676 140.026 6.50703C140.468 6.68009 140.998 6.31667 141.116 5.90133C141.252 5.41099 140.945 5.01295 140.497 4.83413C137.697 3.74385 134.785 2.94778 131.814 2.45744C131.343 2.38245 130.859 2.57859 130.724 3.06315C130.606 3.47849 130.865 4.04959 131.343 4.13035Z" fill="#4F5E40"/>
<path d="M49.1864 111.981C63.8366 111.981 75.713 100.359 75.713 86.0221C75.713 71.6854 63.8366 60.0632 49.1864 60.0632C34.5361 60.0632 22.6597 71.6854 22.6597 86.0221C22.6597 100.359 34.5361 111.981 49.1864 111.981Z" fill="#3C4A30"/>
<path d="M48.5086 101.995C57.5234 101.995 64.8313 94.8439 64.8313 86.0221C64.8313 77.2002 57.5234 70.0487 48.5086 70.0487C39.4937 70.0487 32.1858 77.2002 32.1858 86.0221C32.1858 94.8439 39.4937 101.995 48.5086 101.995Z" fill="#BAB25E" stroke="#323F00" stroke-miterlimit="10"/>
<path d="M223.042 112.523C237.693 112.523 249.569 100.901 249.569 86.5643C249.569 72.2276 237.693 60.6054 223.042 60.6054C208.392 60.6054 196.516 72.2276 196.516 86.5643C196.516 100.901 208.392 112.523 223.042 112.523Z" fill="#3C4A30"/>
<path d="M222.365 102.538C231.379 102.538 238.687 95.3862 238.687 86.5643C238.687 77.7425 231.379 70.5909 222.365 70.5909C213.35 70.5909 206.042 77.7425 206.042 86.5643C206.042 95.3862 213.35 102.538 222.365 102.538Z" fill="#BAB25E" stroke="#323F00" stroke-miterlimit="10"/>
<path d="M222.199 91.7907C224.641 91.7907 226.621 89.8537 226.621 87.4642C226.621 85.0748 224.641 83.1377 222.199 83.1377C219.758 83.1377 217.778 85.0748 217.778 87.4642C217.778 89.8537 219.758 91.7907 222.199 91.7907Z" fill="#3C4A30" stroke="#323F00" stroke-miterlimit="10"/>
<path d="M48.3022 91.7907C50.7439 91.7907 52.7233 89.8537 52.7233 87.4642C52.7233 85.0748 50.7439 83.1377 48.3022 83.1377C45.8605 83.1377 43.8811 85.0748 43.8811 87.4642C43.8811 89.8537 45.8605 91.7907 48.3022 91.7907Z" fill="#3C4A30" stroke="#323F00" stroke-miterlimit="10"/>
<path d="M127.576 47.5625C127.075 47.5971 126.562 47.7875 126.273 48.1855C125.984 48.5835 126.02 49.2181 126.438 49.495C126.662 49.6392 126.939 49.6623 127.204 49.6854C129.757 49.87 132.351 50.0546 134.856 49.5354C135.434 49.42 136.088 49.1777 136.247 48.6239C136.294 48.4509 136.282 48.249 136.165 48.1047C136.005 47.9086 135.717 47.8855 135.457 47.874C132.816 47.7817 130.181 47.6894 127.54 47.5971" fill="#BAB25E"/>
</g>
<defs>
<clipPath id="clip0_101_3178">
<rect width="267" height="114" fill="white"/>
</clipPath>
</defs>
</svg>
