<svg width="123" height="207" viewBox="0 0 123 207" fill="none" xmlns="http://www.w3.org/2000/svg">
<g clip-path="url(#clip0_84_670)">
<path d="M16.4938 57.0181H118.834V191.73C118.834 200.158 111.994 207 103.567 207H31.7613C23.3341 207 16.4938 200.158 16.4938 191.73V57.0181Z" fill="#5D6B4A"/>
<path d="M40.0503 76.455C40.0503 74.227 38.2446 72.4209 36.017 72.4209C33.7895 72.4209 31.9838 74.227 31.9838 76.455V187.557C31.9838 189.785 33.7895 191.591 36.017 191.591C38.2446 191.591 40.0503 189.785 40.0503 187.557V76.455Z" fill="#F3EFEA"/>
<path d="M71.6974 76.455C71.6974 74.227 69.8917 72.4209 67.6641 72.4209C65.4366 72.4209 63.6309 74.227 63.6309 76.455V187.557C63.6309 189.785 65.4366 191.591 67.6641 191.591C69.8917 191.591 71.6974 189.785 71.6974 187.557V76.455Z" fill="#F3EFEA"/>
<path d="M103.068 76.455C103.068 74.227 101.262 72.4209 99.0347 72.4209C96.8072 72.4209 95.0015 74.227 95.0015 76.455V187.557C95.0015 189.785 96.8072 191.591 99.0347 191.591C101.262 191.591 103.068 189.785 103.068 187.557V76.455Z" fill="#F3EFEA"/>
<path d="M120.794 47.4749L29.8743 0.458236C27.8749 -0.575671 25.4168 0.206089 24.3838 2.20435C23.3509 4.2026 24.1343 6.66066 26.1337 7.69456L117.053 54.7113C119.053 55.7452 121.511 54.9634 122.544 52.9652C123.577 50.9669 122.793 48.5089 120.794 47.4749Z" fill="#5D6B4A"/>
<path d="M99.3597 23.7791L60.2324 3.54544C58.1977 2.49324 55.6954 3.29005 54.6434 5.32518L54.6406 5.33052C53.5886 7.36564 54.3853 9.86842 56.42 10.9206L95.5473 31.1543C97.582 32.2065 100.084 31.4097 101.136 29.3745L101.139 29.3692C102.191 27.3341 101.394 24.8313 99.3597 23.7791Z" fill="#5D6B4A"/>
<path d="M24.2418 17.2545H6.30538C2.82301 17.2545 0 20.0781 0 23.5611V41.501C0 44.9841 2.82301 47.8076 6.30538 47.8076H24.2418C27.7241 47.8076 30.5471 44.9841 30.5471 41.501V23.5611C30.5471 20.0781 27.7241 17.2545 24.2418 17.2545Z" fill="#891A04"/>
<path opacity="0.2" d="M10.211 22.0809L9.43688 22.6415C8.93409 23.0057 8.82165 23.7086 9.18575 24.2115L20.3685 39.6571C20.7326 40.16 21.4353 40.2725 21.9381 39.9083L22.7122 39.3477C23.215 38.9835 23.3274 38.2806 22.9633 37.7777L11.7806 22.332C11.4165 21.8292 10.7138 21.7167 10.211 22.0809Z" fill="#FBF1BD"/>
<path opacity="0.2" d="M7.10478 22.2325H6.14905C5.52827 22.2325 5.02502 22.7359 5.02502 23.3568V42.4269C5.02502 43.0478 5.52827 43.5512 6.14905 43.5512H7.10478C7.72556 43.5512 8.22881 43.0478 8.22881 42.4269V23.3568C8.22881 22.7359 7.72556 22.2325 7.10478 22.2325Z" fill="#FBF1BD"/>
<path opacity="0.2" d="M20.6292 21.5592H19.6735C19.0527 21.5592 18.5494 22.0625 18.5494 22.6835V41.7536C18.5494 42.3745 19.0527 42.8778 19.6735 42.8778H20.6292C21.25 42.8778 21.7532 42.3745 21.7532 41.7536V22.6835C21.7532 22.0625 21.25 21.5592 20.6292 21.5592Z" fill="#FBF1BD"/>
<path d="M34.4903 22.1062H16.5539C13.0716 22.1062 10.2485 24.9298 10.2485 28.4128V46.3527C10.2485 49.8357 13.0716 52.6593 16.5539 52.6593H34.4903C37.9727 52.6593 40.7957 49.8357 40.7957 46.3527V28.4128C40.7957 24.9298 37.9727 22.1062 34.4903 22.1062Z" fill="#B23D29"/>
<path opacity="0.5" d="M33.5285 38.5972L23.2319 38.7956C21.6751 38.7956 20.4128 37.3047 20.4128 35.465V31.978C20.4128 30.1383 21.6751 28.6473 23.2319 28.6473H34.5504C36.1072 28.6473 37.3694 30.1383 37.3694 31.978V40.2986C37.3694 40.8758 36.8405 41.2365 36.4137 40.9479C34.9892 39.98 34.6345 39.475 33.5285 38.5972Z" fill="#FBF1BD"/>
<path opacity="0.5" d="M27.145 43.5511H17.167C16.1812 44.2125 15.2736 45.2345 14.5222 45.8597C14.0233 46.2746 13.6687 46.2145 13.6687 45.481V36.8658C13.6687 35.0621 14.8709 33.5952 16.3556 33.5952H27.145C28.6297 33.5952 29.8319 35.0561 29.8319 36.8658V40.2866C29.8319 42.0902 28.6297 43.5571 27.145 43.5571V43.5511Z" fill="#FBF1BD"/>
</g>
<defs>
<clipPath id="clip0_84_670">
<rect width="123" height="207" fill="white"/>
</clipPath>
</defs>
</svg>
