<svg width="188" height="130" viewBox="0 0 188 130" fill="none" xmlns="http://www.w3.org/2000/svg">
<path d="M44.0938 54.9588L44.4417 54.781C44.8217 54.5854 45.0331 54.1233 44.9421 53.67C39.5635 26.7563 79.2397 -13.4927 111.075 30.6642C111.937 31.8611 113.342 32.4033 114.693 32.0863C122.02 30.365 145.057 27.103 144.918 54.1825C144.913 55.0773 145.6 55.7972 146.409 55.7261C186.138 52.2419 185.576 119.378 153.936 119.105C117.706 118.794 49.146 118.779 34.902 118.468C34.2383 118.453 33.6925 118.433 33.2456 118.409C32.0869 118.347 30.9362 118.128 29.8364 117.725C6.48077 109.159 -1.6541 57.2016 44.0938 54.9617V54.9588Z" fill="#5D6B4A" stroke="#5D6B4A" stroke-width="21" stroke-miterlimit="10"/>
<path d="M120.782 53.1476L92.1447 44.7822C89.5625 44.0279 86.917 45.734 86.2357 48.5929L76.5508 89.2347C75.8696 92.0937 77.4106 95.0228 79.9927 95.7771L108.63 104.143C111.212 104.897 113.858 103.191 114.539 100.332L124.224 59.6899C124.905 56.831 123.364 53.9019 120.782 53.1476Z" fill="#E6E6E6"/>
<path d="M116.764 56.0094L94.3644 49.4663C92.0495 48.79 89.6777 50.3196 89.0669 52.8827L83.8078 74.9525C83.197 77.5156 84.5785 80.1415 86.8935 80.8178L109.293 87.3609C111.608 88.0372 113.979 86.5076 114.59 83.9445L119.849 61.8747C120.46 59.3116 119.079 56.6856 116.764 56.0094Z" fill="#98B27F"/>
<path d="M85.7662 66.7238L93.7111 58.5703C95.3996 56.8371 98.1397 57.6222 98.8596 60.0428L103.411 75.3543L108.33 72.7915C110.093 71.8731 112.199 72.4656 113.352 74.2048L115.97 78.1511L113.925 86.7283C113.925 86.7283 113.481 88.5919 111.798 88.1001C109.949 87.5608 84.38 80.0888 84.38 80.0888C84.38 80.0888 82.6862 79.6414 83.1411 77.7334C83.596 75.8254 85.7662 66.7208 85.7662 66.7208V66.7238Z" fill="#5D6B4A"/>
<path d="M114.123 65.1033C116.118 65.1033 117.736 63.3126 117.736 61.1036C117.736 58.8946 116.118 57.1039 114.123 57.1039C112.128 57.1039 110.511 58.8946 110.511 61.1036C110.511 63.3126 112.128 65.1033 114.123 65.1033Z" fill="#D1C56D"/>
<path d="M96.3361 53.3678H66.7187C64.0482 53.3678 61.8833 55.7647 61.8833 58.7215V100.754C61.8833 103.711 64.0482 106.108 66.7187 106.108H96.3361C99.0066 106.108 101.172 103.711 101.172 100.754V58.7215C101.172 55.7647 99.0066 53.3678 96.3361 53.3678Z" fill="#E6E6E6"/>
<path d="M93.112 57.2698H69.9464C67.5522 57.2698 65.6113 59.4187 65.6113 62.0694V84.8945C65.6113 87.5453 67.5522 89.6941 69.9464 89.6941H93.112C95.5062 89.6941 97.447 87.5453 97.447 84.8945V62.0694C97.447 59.4187 95.5062 57.2698 93.112 57.2698Z" fill="#98B27F"/>
<path d="M65.6113 76.3795L71.4128 66.2499C72.6464 64.0989 75.4775 64.0811 76.7299 66.2173L84.6587 79.7363L88.8225 75.8699C90.3157 74.4834 92.4885 74.4597 94.0058 75.8166L97.4444 78.8949V87.7654C97.4444 87.7654 97.4444 89.6912 95.705 89.6912H67.3507C67.3507 89.6912 65.6113 89.7356 65.6113 87.7654V76.3766V76.3795Z" fill="#5D6B4A"/>
<path d="M91.7365 66.9312C93.7317 66.9312 95.3491 65.1405 95.3491 62.9315C95.3491 60.7225 93.7317 58.9318 91.7365 58.9318C89.7414 58.9318 88.124 60.7225 88.124 62.9315C88.124 65.1405 89.7414 66.9312 91.7365 66.9312Z" fill="#D1C56D"/>
</svg>
