<svg width="748" height="1021" viewBox="0 0 748 1021" fill="none" xmlns="http://www.w3.org/2000/svg">
<g clip-path="url(#clip0_94_2619)">
<path d="M44.1759 74.6911L102.736 22.4613C104.308 21.0587 106.72 21.1965 108.123 22.7691L168.521 90.4869C169.923 92.0594 169.785 94.4713 168.213 95.8739L109.653 148.104C108.081 149.506 105.669 149.369 104.266 147.796L43.8681 80.0782C42.4655 78.5056 42.6033 76.0937 44.1759 74.6911Z" fill="#E6E6E6" stroke="#D6D1BE"/>
<path d="M582.679 699.116C582.004 699.142 581.33 699.134 580.655 699.089C577.405 698.876 574.084 697.633 572.077 695.067C570.594 693.175 569.955 690.769 569.413 688.434C566.43 675.585 565.169 662.426 563.588 649.346C562.194 637.847 559.628 626.748 557.657 615.391C556.272 607.435 557.115 599.684 565.95 597.046C575.318 594.249 585.006 592.509 594.755 591.861C596.949 591.719 599.364 591.692 601.069 593.068C602.658 594.356 603.182 596.496 604.114 598.316C605.961 601.948 609.62 604.443 613.544 605.571C617.469 606.698 621.66 606.592 625.718 606.023C631.614 605.189 637.324 603.413 643.06 601.815C655.402 598.378 667.984 595.785 680.673 594.045C681.978 593.867 683.355 593.708 684.571 594.214C686.871 595.182 687.572 598.023 687.981 600.474C691.337 620.497 694.694 640.511 698.05 660.535C698.618 663.944 699.196 667.389 698.956 670.835C698.823 672.744 698.388 674.751 697.065 676.145C695.653 677.619 693.531 678.107 691.533 678.524C684.811 679.927 678.08 681.286 671.35 682.636C670.799 682.733 670.257 682.858 669.707 682.964C656.033 685.708 642.358 688.443 628.613 690.796C622.566 691.835 616.643 692.181 610.676 693.477C603.892 694.951 597.108 696.434 590.325 697.908C587.812 698.459 585.263 699.009 582.697 699.107L582.679 699.116Z" fill="#4F5E40"/>
<path d="M598.382 679.938L580.872 581.242L656.837 567.765L674.347 666.462L598.382 679.938Z" fill="#B3B3B3" stroke="#D6D1BE" stroke-width="0.1"/>
<path d="M596.164 677.618L578.655 578.921L654.62 565.445L672.129 664.141L596.164 677.618Z" fill="#CCCCCC" stroke="#D6D1BE" stroke-width="0.1"/>
<path d="M593.948 675.314L576.438 576.618L652.403 563.141L669.913 661.838L593.948 675.314Z" fill="#E6E6E6" stroke="#D6D1BE" stroke-width="0.1"/>
<path d="M590.857 673.152L573.347 574.456L649.313 560.979L666.822 659.676L590.857 673.152Z" fill="#F3EFEA" stroke="#D6D1BE" stroke-width="0.1"/>
<path d="M611.974 573.863L579.625 579.602L579.936 581.35L612.284 575.611L611.974 573.863Z" fill="#CCCCCC"/>
<path d="M632.144 575.693L580.561 584.845L580.871 586.593L632.454 577.442L632.144 575.693Z" fill="#CCCCCC"/>
<path d="M633.073 580.946L581.49 590.098L581.8 591.846L633.383 582.695L633.073 580.946Z" fill="#CCCCCC"/>
<path d="M653.553 599.853L601.969 609.004L602.28 610.752L653.863 601.601L653.553 599.853Z" fill="#CCCCCC"/>
<path d="M654.181 603.349L602.598 612.5L602.908 614.249L654.491 605.097L654.181 603.349Z" fill="#CCCCCC"/>
<path d="M608.646 590.691L582.417 595.344L582.728 597.092L608.957 592.439L608.646 590.691Z" fill="#CCCCCC"/>
<path d="M583.834 696.496C580.042 696.816 576.171 696.256 573.498 692.971C572.059 691.195 571.447 688.931 570.932 686.72C568.09 674.608 566.945 662.195 565.48 649.861C564.192 639.011 561.75 628.551 559.886 617.842C558.58 610.339 559.451 603.013 568.117 600.465C577.298 597.765 586.791 596.061 596.336 595.386C598.485 595.235 600.847 595.199 602.507 596.487C604.052 597.686 604.558 599.71 605.446 601.415C607.231 604.825 610.792 607.16 614.628 608.208C618.464 609.247 622.566 609.122 626.535 608.554C632.307 607.728 637.91 606.014 643.53 604.469C655.633 601.149 667.958 598.618 680.389 596.904C681.668 596.727 683.017 596.567 684.198 597.037C686.445 597.934 687.111 600.616 687.501 602.924C690.662 621.802 693.815 640.68 696.976 659.558C697.517 662.772 698.05 666.022 697.802 669.281C697.659 671.083 697.224 672.983 695.91 674.306C694.525 675.701 692.438 676.18 690.476 676.588C683.896 677.956 677.299 679.279 670.701 680.593C670.16 680.691 669.627 680.806 669.094 680.913C657.835 683.159 646.567 685.406 635.272 687.43C624.093 689.437 613.18 692.314 601.886 693.93C596.398 694.72 590.911 695.502 585.432 696.292C584.899 696.372 584.366 696.434 583.834 696.478V696.496Z" fill="#3C4A30"/>
<path d="M584.526 698.121C580.646 698.423 576.863 697.926 574.208 694.703C572.77 692.962 572.175 690.734 571.66 688.567C568.863 676.669 567.753 664.477 566.323 652.365C565.071 641.71 562.656 631.437 560.836 620.923C559.557 613.553 560.454 606.352 569.111 603.83C578.302 601.149 587.785 599.444 597.33 598.751C599.479 598.6 601.841 598.556 603.493 599.817C605.038 600.998 605.526 602.978 606.423 604.656C608.199 608.004 611.751 610.286 615.578 611.298C619.405 612.31 623.507 612.168 627.476 611.6C633.248 610.774 638.851 609.069 644.471 607.533C656.574 604.23 668.899 601.708 681.33 599.985C682.609 599.808 683.958 599.648 685.139 600.11C687.377 600.989 688.043 603.617 688.425 605.881C691.524 624.422 694.614 642.962 697.713 661.502C698.237 664.663 698.769 667.851 698.512 671.057C698.37 672.833 697.926 674.697 696.612 675.994C695.218 677.37 693.131 677.849 691.177 678.258C684.589 679.625 678 680.94 671.403 682.254C670.861 682.351 670.328 682.467 669.796 682.573C658.537 684.82 647.268 687.057 635.965 689.082C630.966 689.979 625.993 691.053 621.021 692.11C616.048 693.167 611.538 694.108 606.769 694.916C602.001 695.724 597.579 696.319 592.944 696.896C590.36 697.216 587.412 697.89 584.526 698.112V698.121Z" fill="#6E7F59"/>
<path d="M629.135 661.554L579.16 670.42C577.267 670.756 576.005 672.563 576.341 674.456L578.537 686.836C578.873 688.728 580.68 689.991 582.573 689.655L632.547 680.789C634.44 680.453 635.702 678.647 635.366 676.754L633.17 664.374C632.834 662.481 631.028 661.219 629.135 661.554Z" fill="#F3EFEA"/>
<path d="M611.162 667.448L578.814 673.187L579.042 674.472L611.391 668.733L611.162 667.448Z" fill="#CCCCCC"/>
<path d="M631.125 668.134L579.542 677.285L579.77 678.57L631.353 669.419L631.125 668.134Z" fill="#CCCCCC"/>
<path d="M631.807 671.995L580.224 681.146L580.452 682.432L632.035 673.28L631.807 671.995Z" fill="#CCCCCC"/>
<path d="M607.143 680.355L580.915 685.008L581.143 686.293L607.371 681.64L607.143 680.355Z" fill="#CCCCCC"/>
<path d="M104.529 27.3197L48.6001 77.2031L95.2506 129.507L151.18 79.6239L104.529 27.3197Z" fill="#BAB25E"/>
<path d="M54.5892 49.1287L120.443 6.46103C122.211 5.31522 124.574 5.81997 125.719 7.58841L176.595 86.1102C177.741 87.8786 177.236 90.2411 175.468 91.3869L109.614 134.055C107.846 135.2 105.483 134.696 104.338 132.927L53.4619 54.4055C52.316 52.637 52.8208 50.2745 54.5892 49.1287Z" fill="#E6E6E6" stroke="#D6D1BE"/>
<path d="M122.93 12.5162L58.6338 54.1748L95.9469 111.764L160.243 70.1053L122.93 12.5162Z" fill="#7E2512"/>
<path d="M84.6796 45.628L157.901 17.4182C159.867 16.6606 162.076 17.6405 162.833 19.6069L196.47 106.914C197.227 108.881 196.247 111.089 194.281 111.846L121.06 140.056C119.093 140.814 116.885 139.834 116.128 137.868L82.4909 50.56C81.7333 48.5937 82.7132 46.3856 84.6796 45.628Z" fill="#F3EFEA" stroke="#D6D1BE"/>
<path d="M159.596 24.6185L88.1058 52.1611L112.775 116.194L184.265 88.6511L159.596 24.6185Z" fill="#6E7F59"/>
<mask id="mask0_94_2619" style="mask-type:luminance" maskUnits="userSpaceOnUse" x="102" y="60" width="84" height="58">
<path d="M102.895 88.5016C106.465 81.1583 110.425 74.0192 114.758 67.1021C116.658 64.0742 119.038 60.8066 122.563 60.2383C124.597 59.9098 126.666 60.558 128.548 61.4193C131.603 62.8222 134.364 64.7757 137.099 66.7203C141.201 69.6328 145.295 72.5452 149.397 75.4577C150.01 75.8928 150.685 76.3456 151.439 76.3101C151.945 76.2835 152.407 76.026 152.833 75.7507C156.634 73.2556 158.427 68.5584 161.97 65.7169C162.69 65.1398 163.506 64.6425 164.412 64.536C165.229 64.4383 166.055 64.678 166.836 64.9355C173.327 67.1199 179.063 71.4797 182.908 77.1537C184.24 79.1249 185.368 81.3093 185.554 83.6801C185.803 86.8501 184.311 89.9401 182.304 92.4086C179.516 95.8361 175.742 98.3312 171.809 100.347C154.538 109.209 134.151 109.519 115.975 116.33C114.909 116.729 113.79 117.156 112.663 117.005C111.739 116.88 110.913 116.383 110.185 115.806C106.634 112.991 105.053 108.392 104.112 103.961C103.055 98.9972 102.576 93.9359 102.105 88.8834" fill="white"/>
</mask>
<g mask="url(#mask0_94_2619)">
<path d="M159.386 24.222L87.8959 51.7646L112.566 115.797L184.055 88.2547L159.386 24.222Z" fill="#3C4A30"/>
</g>
<path d="M151.643 50.1864C155.321 50.1864 158.303 47.2048 158.303 43.5268C158.303 39.8488 155.321 36.8672 151.643 36.8672C147.965 36.8672 144.984 39.8488 144.984 43.5268C144.984 47.2048 147.965 50.1864 151.643 50.1864Z" fill="#BAB25E"/>
<path d="M709.873 308.324L709.873 308.324C711.059 308.617 712.214 307.98 712.507 307.013L712.507 307.012L727.141 259.081L727.141 259.079C727.432 258.139 726.834 257.098 725.661 256.809L709.873 308.324ZM709.873 308.324L663.709 296.967C662.536 296.678 661.937 295.637 662.229 294.697L662.229 294.695L676.862 246.764L676.863 246.763C677.156 245.796 678.31 245.159 679.497 245.452L679.497 245.452L725.661 256.809L709.873 308.324Z" fill="#E6E6E6" stroke="#D6D1BE"/>
<path d="M712.497 295.882L668.411 285.04L679.714 248.013L723.801 258.863L712.497 295.882Z" fill="#BAB25E"/>
<path d="M714.592 310.344L670.906 292.781L739.704 260.179C740.791 260.618 741.215 261.714 740.765 262.619L717.44 309.395C717.44 309.395 717.44 309.395 717.439 309.395C716.974 310.325 715.711 310.791 714.592 310.344ZM696.018 242.616L739.703 260.179L670.906 292.781C669.818 292.343 669.395 291.246 669.844 290.341L693.17 243.565C693.635 242.635 694.898 242.169 696.017 242.616C696.017 242.616 696.017 242.616 696.018 242.616Z" fill="#E6E6E6" stroke="#D6D1BE"/>
<path d="M720.382 297.213L677.734 280.067L694.836 245.766L737.484 262.912L720.382 297.213Z" fill="#7E2512"/>
<path d="M671.658 299.841L671.658 299.841L710.389 325.093C710.389 325.093 710.389 325.093 710.39 325.093C711.369 325.726 712.723 325.52 713.404 324.675L713.405 324.674L746.942 283.208L671.658 299.841ZM671.658 299.841C670.718 299.228 670.534 298.082 671.188 297.27L704.726 255.804L704.726 255.803M671.658 299.841L704.726 255.803M704.726 255.803C705.407 254.958 706.761 254.752 707.741 255.385C707.741 255.385 707.741 255.385 707.741 255.385L746.472 280.637L746.472 280.638M704.726 255.803L746.472 280.638M746.472 280.638C747.412 281.25 747.597 282.396 746.942 283.207L746.472 280.638Z" fill="#F3EFEA" stroke="#D6D1BE"/>
<path d="M718.846 313.782L681.037 289.124L705.633 258.712L743.442 283.37L718.846 313.782Z" fill="#6E7F59"/>
<mask id="mask1_94_2619" style="mask-type:luminance" maskUnits="userSpaceOnUse" x="680" y="275" width="46" height="40">
<path d="M691.941 276.338C696.878 275.787 701.851 275.485 706.832 275.423C709.016 275.396 711.467 275.512 712.941 276.968C713.784 277.803 714.14 278.948 714.326 280.067C714.619 281.887 714.539 283.743 714.45 285.581C714.317 288.334 714.184 291.086 714.06 293.839C714.042 294.248 714.033 294.7 714.3 295.029C714.477 295.251 714.761 295.393 715.045 295.5C717.585 296.503 720.577 295.926 723.214 296.716C723.747 296.876 724.271 297.098 724.635 297.488C724.955 297.835 725.106 298.288 725.23 298.723C726.269 302.354 725.932 306.297 724.307 309.751C723.738 310.95 722.993 312.122 721.847 312.912C720.302 313.969 718.233 314.209 716.297 314.022C713.616 313.765 711.085 312.77 708.75 311.562C698.485 306.261 691.559 296.982 682.049 290.66C681.49 290.287 680.904 289.905 680.602 289.337C680.362 288.875 680.344 288.352 680.398 287.845C680.664 285.377 682.493 283.281 684.447 281.523C686.631 279.561 689.073 277.829 691.497 276.116" fill="white"/>
</mask>
<g mask="url(#mask1_94_2619)">
<path d="M718.988 313.569L681.179 288.911L705.775 258.499L743.584 283.157L718.988 313.569Z" fill="#3C4A30"/>
</g>
<path d="M731.135 289C733.376 289 735.193 287.366 735.193 285.351C735.193 283.335 733.376 281.701 731.135 281.701C728.894 281.701 727.077 283.335 727.077 285.351C727.077 287.366 728.894 289 731.135 289Z" fill="#BAB25E"/>
<path d="M74.4276 500.056L11.3746 510.312C9.39444 510.632 7.49424 509.424 7.14794 507.604L0.0532439 471.02C-0.301935 469.2 1.02111 467.469 3.01011 467.149L66.0632 456.893C68.0433 456.573 69.9435 457.781 70.2898 459.601L77.3756 496.185C77.7308 498.005 76.4078 499.736 74.4188 500.056H74.4276Z" fill="#3C4A30"/>
<path d="M16.5063 484.849L16.5066 484.849L59.9001 477.79C62.9743 477.287 64.9519 474.618 64.4269 471.896L16.5063 484.849ZM16.5063 484.849C13.4167 485.353 10.5373 483.456 10.0007 480.718C10.0006 480.718 10.0006 480.718 10.0006 480.718L4.72644 453.495C4.72642 453.495 4.72639 453.494 4.72637 453.494C4.20134 450.773 6.1788 448.104 9.25277 447.601C9.2529 447.601 9.25304 447.601 9.25318 447.601L52.6467 440.542L52.6469 440.542C55.7367 440.038 58.6163 441.935 59.1527 444.673L64.4268 471.896L16.5063 484.849Z" fill="#F3EFEA" stroke="#D6D1BE"/>
<path d="M40.2239 471.766C37.9774 472.77 35.5444 473.8 33.0404 473.791C30.5364 473.782 28.5918 472.414 27.0734 470.585C24.2764 467.238 23.9212 462.496 26.514 458.926C29.1068 455.357 34.5233 453.847 38.7854 454.531C40.9432 454.877 42.8878 455.943 43.9799 457.879C44.9656 459.61 45.1254 461.741 44.4328 463.606C43.8201 465.258 41.7423 467.895 39.6556 467.442C38.5102 467.193 38.5723 465.373 38.5723 464.441C38.5723 462.958 38.8831 461.493 39.4958 460.143C39.7799 459.521 39.7089 458.678 39.0163 458.323C34.0438 455.783 28.6007 460.587 27.6595 465.444C27.1977 467.841 28.5119 470.079 31.0603 470.301C33.955 470.55 35.7309 468.348 37.9952 466.998C39.4692 466.119 38.1284 463.819 36.6544 464.698C35.1804 465.577 33.955 467.104 32.2857 467.54C31.6996 467.69 30.8383 467.797 30.4121 467.255C30.0481 466.785 30.2256 466.066 30.3766 465.559C31.2024 462.78 34.4434 458.971 37.6755 460.622L37.196 458.802C35.9618 461.537 35.1981 465.293 36.5745 468.126C37.9508 470.958 41.4848 470.337 43.607 468.836C48.3042 465.524 48.837 458.296 44.566 454.38C40.0996 450.287 32.0371 451.263 27.3487 454.487C22.4295 457.87 20.7424 464.192 23.2819 469.573C24.6937 472.574 27.4996 475.398 30.7939 476.179C34.5144 477.067 38.2172 475.549 41.5558 474.057C43.1186 473.364 41.7689 471.065 40.215 471.757L40.2239 471.766Z" fill="black"/>
<path d="M2.49519 482.377C2.21993 481.107 1.90915 479.846 1.68716 478.567C1.37638 476.756 1.0656 474.945 0.577226 473.16C0.390757 472.476 0.17765 471.783 0.142132 471.073C0.115494 470.594 0.17765 470.123 0.319722 469.661C0.35524 469.555 0.390757 469.448 0.461793 469.368C0.745936 469.066 1.28758 469.279 1.64276 469.501C3.53409 470.682 5.61188 471.49 7.55649 472.538C9.65204 473.666 11.7387 474.811 13.8076 475.983C18.4161 478.585 22.9535 481.284 27.4198 484.09C27.7484 484.295 28.0858 484.508 28.3344 484.792C28.6985 485.209 28.8583 485.751 28.9116 486.284C29.1158 488.415 27.7573 490.386 26.4342 492.153C24.7915 494.346 23.1222 496.513 21.4173 498.662C19.8812 500.597 18.5049 502.773 16.5691 504.38C16.0808 504.78 15.6013 505.188 15.1129 505.588C13.8875 506.609 12.6444 507.648 11.1882 508.376C10.247 508.846 9.05711 509.184 8.12477 508.686C7.0326 508.109 6.88165 506.76 6.74845 505.605C6.37552 502.284 5.46093 498.955 4.80385 495.669C4.0491 491.851 3.47193 488.006 2.85037 484.17C2.75269 483.567 2.62838 482.954 2.49519 482.35V482.377Z" fill="#4F5E40"/>
<path d="M72.4209 470.328C71.7727 466.412 71.2577 462.478 70.0589 458.687C69.9435 458.305 69.8014 457.914 69.4729 457.648C68.9845 457.257 68.2209 457.31 67.6615 457.603C67.1021 457.896 66.7114 458.394 66.3295 458.873C63.9232 461.919 61.437 464.893 58.9685 467.904C55.8163 471.748 52.7617 475.655 49.8049 479.642C49.5829 479.935 49.3698 480.237 49.2455 480.583C49.0767 481.081 49.1389 481.64 49.2899 482.155C49.9203 484.215 51.8827 485.654 53.7385 486.914C57.3347 489.347 60.9841 491.709 64.6868 493.983C66.3118 494.986 67.9634 495.98 69.7126 496.771C70.938 497.33 72.2433 497.676 73.6018 497.801C74.5519 497.889 76.2302 498.049 76.9671 497.312C77.2335 497.046 77.2602 496.655 77.2513 496.3C77.2158 495.084 76.8695 493.885 76.5676 492.695C76.3012 491.638 76.3012 490.564 76.1147 489.498C75.9194 488.371 75.724 487.243 75.5287 486.115C75.2356 484.446 74.8538 482.786 74.5608 481.125C74.2323 479.296 73.371 477.671 73.3532 475.789C73.3354 474.013 72.6961 472.112 72.4031 470.337L72.4209 470.328Z" fill="#4F5E40"/>
<path d="M339.589 15.4769L311.163 8.85673C305.016 7.42516 298.873 11.2477 297.441 17.3947L290.821 45.8207C289.389 51.9677 293.212 58.1113 299.359 59.5429L327.785 66.163C333.932 67.5946 340.075 63.772 341.507 57.6251L348.127 29.199C349.559 23.0521 345.736 16.9085 339.589 15.4769Z" fill="#3C4A30"/>
<path opacity="0.5" d="M338.275 20.026L310.333 13.5186C304.053 12.0559 297.775 15.9616 296.313 22.2423L290.879 45.5747C289.416 51.8553 293.322 58.1326 299.602 59.5953L327.544 66.1027C333.825 67.5654 340.102 63.6597 341.565 57.379L346.999 34.0466C348.462 27.766 344.556 21.4887 338.275 20.026Z" fill="#4F5E40"/>
<path d="M304.113 44.0424C303.411 44.7971 302.719 45.543 302.141 46.3954C301.662 47.1058 301.271 48.0648 301.724 48.8018C301.902 49.0948 302.204 49.299 302.523 49.4233C303.615 49.8318 304.814 49.2368 305.738 48.5265C306.661 47.8161 307.478 46.9815 308.286 46.1468C308.339 46.0935 308.393 46.0314 308.419 45.9603C308.446 45.8715 308.419 45.7739 308.375 45.6851C308.206 45.3565 307.895 45.1434 307.585 44.9481C307.149 44.6728 306.697 44.4242 306.235 44.1933C305.613 43.8914 304.867 43.625 304.255 43.9447" fill="#BAB25E"/>
<path d="M324.447 31.2649L328.744 42.6306C328.798 42.7638 328.851 42.9059 328.958 43.0036C329.091 43.1279 329.286 43.1634 329.473 43.19C330.804 43.412 332.11 43.7406 333.388 44.1757C334.445 44.5308 335.626 45.1346 335.83 46.2268C336.043 47.3811 334.969 48.4556 333.815 48.6864C332.66 48.9173 331.479 48.5266 330.369 48.1448C330.618 49.379 330.875 50.6133 331.124 51.8475C331.266 52.5401 331.408 53.2416 331.311 53.9431C331.213 54.6445 330.831 55.346 330.183 55.6302C329.304 56.012 328.247 55.497 327.697 54.7156C327.146 53.9342 326.969 52.9575 326.782 52.0162C326.072 48.3756 325.006 44.7972 323.568 41.3786C323.053 40.1533 322.484 38.9457 322.165 37.6581C321.845 36.3706 321.774 34.9765 322.245 33.7423C322.626 32.7567 323.328 31.9131 324.145 31.2383" fill="#BAB25E"/>
<path d="M313.942 39.8596C315.132 40.3213 316.402 40.4989 317.645 40.7653C318.888 41.0317 320.149 41.4046 321.161 42.1771C322.174 42.9496 322.902 44.2016 322.733 45.4625C322.715 45.6223 322.671 45.7911 322.573 45.9065C322.316 46.1995 321.854 46.0752 321.49 45.942C315.407 43.6777 308.837 43.0739 302.586 41.2892C301.635 41.0228 300.499 40.4367 300.588 39.46C300.623 39.0959 300.836 38.7674 301.103 38.5188C302.328 37.3644 304.273 37.6397 305.915 37.986C306.519 38.1192 307.132 38.2435 307.736 38.3767C308.02 38.4389 308.313 38.501 308.597 38.4389C308.961 38.3589 309.254 38.0926 309.52 37.8351C312.593 34.9048 315.434 31.726 318.009 28.3518C318.178 28.1298 318.355 27.8989 318.418 27.6237C318.48 27.375 318.444 27.1175 318.4 26.8689C318.169 25.5636 317.61 24.3028 317.672 22.9797C317.734 21.6567 318.764 20.2271 320.078 20.4047C320.788 20.5023 321.366 21.0529 321.694 21.6922C322.023 22.3315 322.129 23.0507 322.236 23.7611C323.079 22.9531 324.012 22.145 325.157 21.9142C326.303 21.6833 327.688 22.2694 327.945 23.4148C328.221 24.6313 327.164 25.7057 326.232 26.5315C321.845 30.3941 317.787 34.6385 314.138 39.2025" fill="#BAB25E"/>
<path d="M8.88832 269.367C8.66633 269.261 8.45323 269.154 8.24012 269.021C7.23674 268.417 6.37543 267.467 6.15345 266.331C5.99362 265.487 6.18008 264.626 6.39319 263.8C7.5564 259.263 9.33229 254.912 10.9839 250.534C12.4401 246.68 13.4524 242.765 14.6955 238.858C15.5657 236.123 17.1196 233.823 20.3872 234.462C23.8502 235.137 27.2511 236.194 30.4832 237.614C31.2113 237.934 31.9927 238.325 32.3035 239.044C32.6054 239.71 32.4189 240.474 32.41 241.202C32.41 242.649 33.1648 244.043 34.2392 245.055C35.3136 246.068 36.6722 246.725 38.0662 247.222C40.0908 247.941 42.2218 248.323 44.3263 248.776C48.8548 249.744 53.3123 251.014 57.6721 252.576C58.1161 252.736 58.5867 252.914 58.8975 253.278C59.4746 253.962 59.2349 254.974 58.9596 255.817C56.722 262.672 54.4932 269.536 52.2556 276.391C51.8738 277.563 51.492 278.735 50.8438 279.783C50.4886 280.36 50.018 280.92 49.3609 281.142C48.6683 281.372 47.9047 281.168 47.1943 280.973C44.8058 280.298 42.4261 279.605 40.0464 278.913C39.851 278.851 39.6557 278.797 39.4692 278.744C34.6299 277.341 29.7906 275.921 24.9957 274.384C22.8824 273.71 20.9289 272.83 18.7978 272.253C16.3826 271.587 13.9585 270.93 11.5433 270.264C10.6465 270.016 9.74075 269.767 8.8972 269.376L8.88832 269.367Z" fill="#4F5E40"/>
<path d="M17.1535 265.91L27.8321 232L54.3646 240.356L43.686 274.265L17.1535 265.91Z" fill="#B3B3B3" stroke="#D6D1BE" stroke-width="0.1"/>
<path d="M16.8246 264.805L27.5031 230.896L54.0356 239.251L43.3571 273.161L16.8246 264.805Z" fill="#CCCCCC" stroke="#D6D1BE" stroke-width="0.1"/>
<path d="M16.4929 263.718L27.1715 229.809L53.704 238.164L43.0254 272.074L16.4929 263.718Z" fill="#E6E6E6" stroke="#D6D1BE" stroke-width="0.1"/>
<path d="M15.8584 262.527L26.5369 228.617L53.0694 236.973L42.3909 270.882L15.8584 262.527Z" fill="#F3EFEA" stroke="#D6D1BE" stroke-width="0.1"/>
<path d="M38.9998 234.806L27.6761 231.24L27.4868 231.842L38.8104 235.408L38.9998 234.806Z" fill="#CCCCCC"/>
<path d="M45.1657 238.722L27.1089 233.036L26.9195 233.637L44.9763 239.324L45.1657 238.722Z" fill="#CCCCCC"/>
<path d="M44.5945 240.537L26.5377 234.851L26.3484 235.452L44.4052 241.138L44.5945 240.537Z" fill="#CCCCCC"/>
<path d="M48.0379 249.887L29.9811 244.2L29.7917 244.802L47.8485 250.488L48.0379 249.887Z" fill="#CCCCCC"/>
<path d="M47.6658 251.095L29.609 245.408L29.4196 246.01L47.4765 251.696L47.6658 251.095Z" fill="#CCCCCC"/>
<path d="M35.1506 239.544L25.9697 236.652L25.7804 237.254L34.9612 240.145L35.1506 239.544Z" fill="#CCCCCC"/>
<path d="M9.69632 268.728C8.42656 268.204 7.28111 267.378 6.96145 265.904C6.79274 265.105 6.97033 264.288 7.17456 263.507C8.26673 259.227 9.95383 255.124 11.5166 250.995C12.8929 247.364 13.843 243.67 15.0151 239.994C15.8409 237.419 17.3238 235.252 20.5293 235.891C23.9212 236.566 27.2421 237.605 30.421 238.981C31.1313 239.292 31.895 239.674 32.2146 240.349C32.5165 240.988 32.339 241.707 32.339 242.391C32.339 243.759 33.1026 245.091 34.1593 246.05C35.2159 247.008 36.5567 247.657 37.9241 248.136C39.9131 248.838 41.9909 249.228 44.051 249.672C48.4818 250.64 52.8505 251.883 57.1215 253.411C57.5566 253.57 58.0184 253.739 58.3203 254.085C58.8886 254.742 58.6666 255.693 58.4091 256.483C56.3046 262.947 54.1913 269.411 52.0869 275.885C51.7317 276.986 51.3677 278.095 50.7461 279.081C50.3998 279.623 49.9469 280.147 49.3076 280.351C48.6328 280.564 47.8869 280.369 47.1854 280.164C44.8501 279.498 42.5148 278.824 40.1795 278.14C39.9931 278.078 39.7977 278.033 39.6112 277.971C35.6244 276.808 31.6464 275.645 27.6861 274.402C23.7259 273.159 19.7923 272.271 15.9031 270.903C14.0117 270.237 12.1204 269.58 10.238 268.914C10.0604 268.852 9.87391 268.781 9.69632 268.71V268.728Z" fill="#3C4A30"/>
<path d="M9.64306 269.358C8.34666 268.808 7.21897 268.026 6.89931 266.57C6.7306 265.78 6.89931 264.981 7.09465 264.217C8.16019 260.008 9.82065 255.986 11.3657 251.937C12.7242 248.376 13.6477 244.744 14.802 241.13C15.6101 238.6 17.0841 236.477 20.2807 237.126C23.6726 237.809 26.9935 238.848 30.1724 240.216C30.8827 240.526 31.6552 240.899 31.9749 241.574C32.2768 242.205 32.1081 242.906 32.117 243.581C32.1347 244.931 32.8895 246.236 33.955 247.195C35.0206 248.154 36.3525 248.784 37.7199 249.264C39.7089 249.965 41.7867 250.356 43.8468 250.809C48.2776 251.777 52.6463 253.038 56.9173 254.556C57.3524 254.716 57.8141 254.885 58.1161 255.231C58.6932 255.879 58.4712 256.82 58.2137 257.593C56.1448 263.942 54.067 270.29 51.9981 276.639C51.6429 277.723 51.2877 278.815 50.6751 279.774C50.3376 280.306 49.8848 280.822 49.2455 281.017C48.5706 281.221 47.8248 281.017 47.1322 280.822C44.7969 280.156 42.4616 279.481 40.1263 278.797C39.9398 278.735 39.7444 278.69 39.558 278.628C35.5711 277.465 31.5931 276.302 27.6329 275.059C25.8836 274.508 24.1077 274.02 22.3407 273.531C20.5737 273.043 18.9665 272.581 17.306 272.049C15.6456 271.516 14.1272 270.965 12.5466 270.379C11.6676 270.051 10.6109 269.775 9.64306 269.367V269.358Z" fill="#6E7F59"/>
<path d="M27.9031 264.583L14.6315 260.403C12.8026 259.827 10.853 260.843 10.2771 262.672C9.70114 264.501 10.7169 266.45 12.5458 267.026L25.8174 271.206C27.6463 271.782 29.5958 270.766 30.1718 268.937C30.7477 267.108 29.732 265.159 27.9031 264.583Z" fill="#F3EFEA"/>
<path d="M23.273 264.119L11.9493 260.553L11.8106 260.993L23.1343 264.559L23.273 264.119Z" fill="#CCCCCC"/>
<path d="M29.5678 267.649L11.511 261.963L11.3723 262.403L29.4291 268.09L29.5678 267.649Z" fill="#CCCCCC"/>
<path d="M29.1426 268.98L11.0858 263.294L10.9471 263.734L29.0039 269.421L29.1426 268.98Z" fill="#CCCCCC"/>
<path d="M19.8508 267.521L10.6699 264.63L10.5312 265.07L19.7121 267.961L19.8508 267.521Z" fill="#CCCCCC"/>
<path d="M734.773 422.682L706.347 416.062C700.2 414.63 694.057 418.453 692.625 424.6L686.005 453.026C684.573 459.173 688.396 465.316 694.543 466.748L722.969 473.368C729.116 474.8 735.26 470.977 736.691 464.83L743.311 436.404C744.743 430.257 740.92 424.114 734.773 422.682Z" fill="#3C4A30"/>
<path opacity="0.5" d="M733.459 427.24L705.517 420.732C699.237 419.27 692.959 423.175 691.497 429.456L686.063 452.789C684.6 459.069 688.506 465.346 694.786 466.809L722.728 473.317C729.009 474.779 735.286 470.874 736.749 464.593L742.183 441.261C743.645 434.98 739.74 428.703 733.459 427.24Z" fill="#4F5E40"/>
<path d="M699.32 451.237C698.618 451.991 697.926 452.737 697.349 453.59C696.869 454.3 696.478 455.259 696.931 455.996C697.109 456.289 697.411 456.493 697.731 456.618C698.823 457.026 700.021 456.431 700.945 455.721C701.868 455.01 702.685 454.176 703.493 453.341C703.547 453.288 703.6 453.226 703.626 453.155C703.653 453.066 703.626 452.968 703.582 452.879C703.413 452.551 703.103 452.338 702.792 452.142C702.357 451.867 701.904 451.619 701.442 451.388C700.821 451.086 700.075 450.819 699.462 451.139" fill="#BAB25E"/>
<path d="M719.654 438.459C721.084 442.251 722.522 446.042 723.952 449.825C724.005 449.958 724.058 450.1 724.165 450.198C724.298 450.322 724.493 450.358 724.68 450.384C726.012 450.606 727.317 450.935 728.596 451.37C729.652 451.725 730.833 452.329 731.037 453.421C731.251 454.575 730.176 455.65 729.022 455.881C727.867 456.112 726.687 455.721 725.577 455.339C725.825 456.573 726.083 457.808 726.331 459.042C726.473 459.734 726.615 460.436 726.518 461.137C726.42 461.839 726.038 462.54 725.39 462.824C724.511 463.206 723.454 462.691 722.904 461.91C722.353 461.129 722.176 460.152 721.989 459.211C721.279 455.57 720.213 451.992 718.775 448.573C718.26 447.348 717.692 446.14 717.372 444.852C717.052 443.565 716.981 442.171 717.452 440.937C717.834 439.951 718.535 439.107 719.352 438.433" fill="#BAB25E"/>
<path d="M709.158 447.054C710.348 447.516 711.618 447.693 712.861 447.96C714.104 448.226 715.365 448.599 716.377 449.371C717.39 450.144 718.118 451.396 717.949 452.657C717.931 452.817 717.887 452.985 717.789 453.101C717.532 453.394 717.07 453.27 716.706 453.136C710.624 450.872 704.053 450.268 697.802 448.483C696.852 448.217 695.715 447.631 695.804 446.654C695.839 446.29 696.052 445.962 696.319 445.713C697.544 444.559 699.489 444.834 701.131 445.18C701.735 445.314 702.348 445.438 702.952 445.571C703.236 445.633 703.529 445.695 703.813 445.633C704.177 445.553 704.47 445.287 704.736 445.029C707.809 442.099 710.65 438.92 713.225 435.546C713.394 435.324 713.572 435.093 713.634 434.818C713.696 434.569 713.66 434.312 713.616 434.063C713.385 432.758 712.826 431.497 712.888 430.174C712.95 428.851 713.98 427.421 715.294 427.599C716.005 427.697 716.582 428.247 716.91 428.887C717.239 429.526 717.345 430.245 717.452 430.955C718.295 430.147 719.228 429.339 720.373 429.109C721.519 428.878 722.904 429.464 723.161 430.609C723.437 431.826 722.38 432.9 721.448 433.726C717.061 437.588 713.003 441.833 709.354 446.397" fill="#BAB25E"/>
<path d="M421.879 704.414L398.859 726.475C398.858 726.476 398.858 726.476 398.858 726.476C398.368 726.94 397.637 726.902 397.19 726.367C397.19 726.367 397.189 726.367 397.189 726.366L373.439 697.768C373.439 697.768 373.439 697.768 373.438 697.768C372.982 697.212 373.03 696.363 373.534 695.871C373.534 695.87 373.535 695.87 373.535 695.869L396.555 673.808C396.555 673.808 396.555 673.808 396.556 673.807C397.045 673.344 397.776 673.381 398.224 673.916C398.224 673.917 398.224 673.917 398.224 673.917L421.975 702.515C421.975 702.515 421.975 702.516 421.975 702.516C422.432 703.071 422.383 703.921 421.88 704.413C421.879 704.413 421.879 704.414 421.879 704.414Z" fill="#E6E6E6" stroke="#D6D1BE"/>
<path d="M415.399 697.757L393.414 718.828L375.069 696.736L397.054 675.665L415.399 697.757Z" fill="#BAB25E"/>
<path d="M398.873 720.522L398.873 720.522C398.334 720.897 397.609 720.744 397.243 720.134L397.242 720.133L377.238 686.969C377.238 686.969 377.237 686.969 377.237 686.969C376.86 686.339 377.037 685.507 377.593 685.114C377.593 685.114 377.594 685.113 377.594 685.113L403.484 667.089L403.484 667.089C404.023 666.714 404.748 666.868 405.114 667.478L405.115 667.479L425.12 700.643C425.12 700.643 425.12 700.643 425.12 700.644C425.497 701.273 425.32 702.105 424.764 702.498C424.764 702.498 424.763 702.498 424.763 702.499L398.873 720.522Z" fill="#E6E6E6" stroke="#D6D1BE"/>
<path d="M418.96 693.735L393.68 711.334L379.011 687.004L404.291 669.414L418.96 693.735Z" fill="#7E2512"/>
<path d="M403.434 723.019L403.432 723.019C402.853 723.262 402.153 722.964 401.902 722.264L401.432 722.433L401.902 722.264L388.681 685.388C388.681 685.388 388.681 685.388 388.681 685.388C388.426 684.677 388.765 683.919 389.378 683.665C389.378 683.665 389.378 683.665 389.378 683.665L418.165 671.749L418.167 671.748C418.746 671.506 419.446 671.804 419.697 672.504L419.697 672.504L432.918 709.38C433.173 710.091 432.834 710.849 432.221 711.103L403.434 723.019Z" fill="#F3EFEA" stroke="#D6D1BE"/>
<path d="M428.408 701.566L400.295 713.198L390.599 686.16L418.702 674.528L428.408 701.566Z" fill="#6E7F59"/>
<path d="M415.577 685.326C417.023 685.326 418.196 684.066 418.196 682.511C418.196 680.957 417.023 679.696 415.577 679.696C414.13 679.696 412.957 680.957 412.957 682.511C412.957 684.066 414.13 685.326 415.577 685.326Z" fill="#BAB25E"/>
<g clip-path="url(#clip1_94_2619)">
<path d="M580.88 207.35C632.503 207.35 674.352 165.531 674.352 113.945C674.352 62.3581 632.503 20.5391 580.88 20.5391C529.257 20.5391 487.408 62.3581 487.408 113.945C487.408 165.531 529.257 207.35 580.88 207.35Z" fill="#D79773"/>
<path d="M604.196 125.513C606.158 126.755 608.221 128.113 609.173 130.232C609.892 131.828 609.876 133.641 609.818 135.39C608.792 166.765 598.596 197.786 580.811 223.659C579.997 224.848 579.114 226.064 577.839 226.735C576.538 227.416 575.004 227.438 573.54 227.395C563.174 227.115 552.873 224.663 543.496 220.235C552.64 213.666 560.832 205.797 567.828 196.988C571.287 192.628 574.095 189.119 576.432 184.03C577.802 181.049 579.172 178.069 580.541 175.088C581.551 172.885 582.45 169.206 584.063 167.426C569.108 184.083 553.655 199.741 535.363 212.746C534.125 213.624 532.824 214.522 531.322 214.749C529.371 215.04 527.451 214.147 525.706 213.222C516.388 208.286 507.218 201.633 500.38 193.537C502.363 192.047 505.473 191.28 507.741 190.165C510.449 188.834 513.104 187.401 515.722 185.901C520.888 182.936 525.902 179.712 530.915 176.494C532.666 175.368 534.427 174.232 535.934 172.8C537.663 171.151 539.033 169.117 539.81 166.855C534.543 170.813 529.196 174.813 523.088 177.297C520.851 178.206 518.535 178.898 516.224 179.585C511.882 180.88 507.535 182.159 503.119 183.174C500.872 183.692 498.608 184.141 496.329 184.479C495.234 184.643 494.14 184.791 493.04 184.896C491.702 185.023 491.585 184.997 490.866 183.903C486.286 176.985 481.881 169.65 479.422 161.676C478.867 159.879 478.423 158.051 478.148 156.19C481.913 154.89 487.603 155.81 491.723 155.382C496.419 154.89 501.083 154.082 505.674 152.962C514.849 150.726 523.728 147.259 531.973 142.646C517.779 147.022 502.649 146.958 487.794 146.858C482.791 146.826 477.783 146.789 472.796 146.414C470.511 140.765 468.904 134.846 468.015 128.821C476.588 128.821 485.075 130.946 493.643 130.634C499.402 130.423 504.415 128.346 510.074 127.833C516.642 127.241 523.173 126.248 529.619 124.863C542.322 122.142 554.708 117.909 566.406 112.265C572.815 109.173 576.892 108.222 582.948 112.053C590.034 116.54 597.115 121.032 604.202 125.519L604.196 125.513Z" fill="#C94A35"/>
<path d="M594.889 105.558C589.003 103.545 582.683 102.044 577.009 105.505C576.406 105.849 575.798 106.229 575.401 106.8C575.004 107.371 574.872 108.174 575.258 108.75C575.496 109.099 575.877 109.315 576.247 109.516C580.092 111.614 583.968 113.644 587.633 116.016C592.43 119.166 597.2 122.342 602.118 125.27C603.694 126.316 605.111 127.6 606.761 128.514C614.324 132.7 616.301 123.806 612.763 118.685C608.855 113.374 606.074 110.383 609.929 104.094C619.924 85.8782 632.933 68.5711 639.38 48.6745C646.228 27.5255 650.591 5.69477 654.933 -16.0725C655.673 -19.7876 656.303 -24.0312 653.986 -27.0275C652.347 -29.1467 649.624 -30.0715 647.011 -30.6528C631.188 -34.1353 631.585 -21.2039 632.246 -9.7997C632.653 10.8895 630.347 31.7849 623.002 51.2428C621.124 56.3636 620.03 61.6059 617.946 66.5999C615.688 72.0061 612.896 77.1638 610.109 82.311C605.899 90.0847 601.653 97.9112 596.031 104.728" fill="#7E2512"/>
<path d="M535.347 173.93C547.801 165.956 558.171 155.196 568.415 144.537C559.319 150.921 550.228 157.305 541.132 163.683C540.265 164.291 539.35 164.957 538.959 165.94C538.298 167.578 539.234 169.729 538.081 171.071" fill="#891A04"/>
<path d="M531.492 214.506C534.601 213.909 537.282 212.017 539.784 210.072C551.921 200.639 562.222 188.849 569.949 175.564C558.272 188.157 546.4 200.914 531.751 209.877C537.182 202.029 544.718 195.894 550.879 188.606C557.696 180.547 562.751 171.177 567.754 161.882C563.301 167.077 558.843 172.277 554.39 177.471C552.27 179.945 550.144 182.428 547.653 184.526C545.527 186.318 543.163 187.808 540.804 189.272C533.66 193.706 526.425 197.986 519.111 202.124C517.123 203.25 515.045 204.386 512.771 204.555C516.235 208.783 520.888 212.022 526.055 213.808C528.9 214.791 532.306 215.251 534.702 213.438" fill="#891A04"/>
<path d="M511.174 161.718C517.43 159.847 523.342 156.909 529.651 155.218C520.418 159.012 511.184 162.812 501.956 166.606C498.296 168.112 494.568 169.634 490.623 169.951C492.923 173.032 497.334 173.407 501.179 173.355C508.529 173.254 515.875 172.583 523.125 171.352C525.495 170.95 527.853 170.485 530.196 169.962C532.539 169.439 534.739 168.651 537.06 168.577C531.73 172.768 525.912 176.325 519.54 178.671C513.268 180.986 506.689 182.36 500.105 183.469C498.037 183.818 495.959 184.14 493.886 184.458C492.897 184.605 491.786 184.727 490.988 184.13C490.321 183.628 490.195 182.914 489.851 182.227C489.359 181.239 488.582 180.314 487.968 179.39L484.108 173.571C483.642 172.868 483.172 172.166 482.759 171.426C481.056 168.408 480.295 164.968 479.554 161.586C480.67 162.199 481.49 162.537 482.706 162.791C484.018 163.06 485.335 163.314 486.662 163.504C489.317 163.885 491.998 164.08 494.674 164.091C500.036 164.106 505.399 163.372 510.555 161.898C510.761 161.839 510.967 161.776 511.174 161.718Z" fill="#891A04"/>
<path d="M600.378 179.537C593.53 196.321 582.805 211.504 569.272 223.574C568.288 222.945 568.098 221.508 567.141 220.847C565.475 219.7 563.354 221.719 561.334 221.677C560.99 221.672 560.625 221.592 560.387 221.344C560.144 221.096 560.065 220.731 559.874 220.435C558.832 218.839 555.496 220.493 554.75 218.739C554.422 217.967 554.946 217.111 555.448 216.44C563.899 205.157 573.677 194.937 582.715 184.119C584.656 181.799 586.57 179.432 588.024 176.779C589.13 174.755 589.955 172.593 590.7 170.411C591.546 167.922 592.297 165.396 592.937 162.849C588.611 167.795 585.983 173.952 582.503 179.527C578.96 185.208 574.534 190.276 570.123 195.317C568.219 197.495 566.316 199.677 564.412 201.854C562.339 204.227 560.26 206.605 557.997 208.798C554.094 212.582 549.673 215.79 545.596 219.383C545.284 219.658 544.95 219.996 544.982 220.414C545.014 220.768 545.315 221.037 545.601 221.249C549.171 223.933 553.771 224.721 558.182 225.434C560.467 225.804 562.936 226.491 565.253 226.528C567.569 226.565 569.653 226.713 571.948 227.405C573.227 227.791 574.555 228.235 575.866 227.971C577.86 227.575 579.156 225.704 580.24 223.992C580.822 223.072 581.403 222.158 581.98 221.238C585.063 216.361 588.167 211.451 590.457 206.135C591.028 204.814 591.441 203.419 592.017 202.103C592.393 201.252 592.995 200.623 593.503 199.862C595.037 197.532 595.856 194.451 596.777 191.835C598.194 187.803 599.4 183.691 600.383 179.532L600.378 179.537Z" fill="#891A04"/>
<path d="M472.436 146.144C487.069 148.3 501.961 146.984 516.689 145.663C505.637 144.511 494.584 143.359 483.531 142.207C482.474 142.096 481.352 142.001 480.406 142.482C478.83 143.285 478.126 145.521 476.376 145.78" fill="#891A04"/>
</g>
</g>
<path d="M680.56 824.816L606.579 837.941C604.251 838.354 602.699 840.575 603.112 842.903L611.421 889.737C611.834 892.065 614.055 893.617 616.383 893.204L690.364 880.079C692.691 879.666 694.243 877.445 693.83 875.117L685.522 828.283C685.109 825.955 682.887 824.403 680.56 824.816Z" fill="#3C4A30"/>
<path d="M614.114 813.08L665.034 804.047C668.653 803.405 672.107 805.818 672.749 809.437L678.934 844.299C679.576 847.918 677.162 851.372 673.544 852.014L622.624 861.048C619.005 861.69 615.551 859.276 614.909 855.658L608.724 820.795C608.082 817.176 610.496 813.722 614.114 813.08Z" fill="#F3EFEA" stroke="#D6D1BE"/>
<path d="M650.65 844.521C647.782 845.911 644.632 847.39 641.357 847.17C638.289 846.963 635.773 844.721 634.125 842.279C630.906 837.491 630.782 831.155 634.325 826.491C636.131 824.111 638.772 822.611 641.612 821.806C644.452 821.002 647.362 820.747 650.119 821.586C655.476 823.224 657.682 829.621 655.497 834.546C654.904 835.881 654.001 837.133 652.815 838.007C651.843 838.715 649.94 839.733 648.844 838.729C647.748 837.725 647.879 835.393 647.913 834.086C647.961 832.263 648.354 830.44 649.065 828.754C649.278 828.245 649.23 827.654 648.692 827.344C646.693 826.188 644.301 826.34 642.267 827.33C640.233 828.321 638.696 830.295 637.607 832.27C636.614 834.072 635.704 836.191 636.124 838.289C636.545 840.387 638.606 841.632 640.723 841.377C643.57 841.033 645.211 838.708 647.486 837.271C648.603 836.562 647.569 834.774 646.445 835.489C644.563 836.686 642.998 838.915 640.702 839.314C639.806 839.465 638.806 839.286 638.344 838.426C637.91 837.615 638.096 836.576 638.337 835.737C639.358 832.201 643.37 826.656 647.651 829.126L647.279 827.716C646.534 829.477 646.052 831.279 645.893 833.184C645.748 834.925 645.79 836.934 646.397 838.591C647.768 842.327 652.022 841.336 654.463 839.321C659.509 835.166 659.661 826.718 655.076 822.171C652.636 819.756 649.133 818.883 645.783 819.034C642.198 819.192 638.441 820.286 635.538 822.439C629.844 826.663 628.155 834.423 630.961 840.8C632.484 844.28 635.421 847.734 639.178 848.855C643.467 850.135 647.899 848.133 651.691 846.296C652.891 845.718 651.843 843.936 650.65 844.514V844.521Z" fill="black"/>
<path d="M606.126 857.235C605.803 855.609 605.438 853.983 605.177 852.343C604.813 850.018 604.448 847.686 603.877 845.396C603.657 844.51 603.403 843.632 603.362 842.718C603.334 842.109 603.403 841.493 603.568 840.905C603.602 840.774 603.651 840.635 603.74 840.532C604.07 840.137 604.703 840.414 605.129 840.705C607.343 842.227 609.77 843.258 612.053 844.607C614.507 846.06 616.941 847.534 619.368 849.036C624.759 852.378 630.074 855.851 635.299 859.45C635.684 859.713 636.076 859.989 636.372 860.356C636.798 860.889 636.984 861.588 637.045 862.273C637.279 865.02 635.691 867.552 634.144 869.822C632.226 872.638 630.266 875.427 628.265 878.188C626.464 880.672 624.855 883.474 622.593 885.543C622.029 886.062 621.458 886.581 620.895 887.1C619.458 888.415 618.007 889.743 616.302 890.684C615.195 891.293 613.806 891.722 612.713 891.086C611.434 890.345 611.255 888.602 611.104 887.128C610.664 882.852 609.591 878.582 608.835 874.354C607.948 869.441 607.274 864.501 606.552 859.574C606.435 858.792 606.298 858.01 606.14 857.235H606.126Z" fill="#4F5E40"/>
<path d="M687.95 841.956C687.198 836.974 686.596 831.965 685.201 827.134C685.065 826.654 684.901 826.147 684.525 825.818C683.957 825.318 683.061 825.387 682.412 825.763C681.762 826.14 681.304 826.771 680.86 827.381C678.056 831.259 675.171 835.042 672.292 838.872C668.621 843.765 665.065 848.747 661.633 853.817C661.38 854.194 661.12 854.571 660.983 855.01C660.785 855.647 660.86 856.353 661.038 857.011C661.77 859.635 664.053 861.465 666.214 863.061C670.398 866.159 674.651 869.16 678.959 872.065C680.853 873.34 682.767 874.608 684.805 875.615C686.227 876.321 687.752 876.766 689.338 876.924C690.446 877.033 692.394 877.239 693.256 876.3C693.564 875.964 693.598 875.464 693.584 875.012C693.543 873.456 693.133 871.942 692.791 870.428C692.483 869.078 692.476 867.714 692.264 866.357C692.039 864.925 691.813 863.486 691.581 862.054C691.246 859.923 690.801 857.819 690.453 855.695C690.07 853.365 689.065 851.296 689.044 848.897C689.03 846.636 688.278 844.21 687.936 841.956H687.95Z" fill="#4F5E40"/>
<path d="M95.1724 822.565L43.3423 837.417C31.7264 840.746 25.0082 852.861 28.3368 864.477L43.1891 916.307C46.5177 927.923 58.6326 934.641 70.2486 931.312L122.079 916.46C133.695 913.132 140.413 901.017 137.084 889.401L122.232 837.571C118.903 825.955 106.788 819.236 95.1724 822.565Z" fill="#3C4A30"/>
<path opacity="0.5" d="M97.6222 831.099L45.7921 845.952C34.1762 849.28 27.458 861.395 30.7866 873.011L43.1929 916.305C46.5215 927.921 58.6364 934.639 70.2524 931.311L122.082 916.458C133.698 913.13 140.417 901.015 137.088 889.399L124.682 846.105C121.353 834.489 109.238 827.771 97.6222 831.099Z" fill="#4F5E40"/>
<path d="M63.5412 901.681C63.0794 903.546 62.6177 905.428 62.4579 907.346C62.3158 908.953 62.5555 910.88 63.9674 911.67C64.5268 911.981 65.2016 912.061 65.8409 911.963C67.9987 911.635 69.4283 909.566 70.2896 907.568C71.1598 905.561 71.728 903.439 72.3052 901.335C72.3407 901.192 72.3762 901.05 72.3496 900.908C72.3052 900.74 72.172 900.606 72.0211 900.509C71.4528 900.127 70.7424 900.056 70.0587 900.02C69.0908 899.967 68.123 899.967 67.1551 900.02C65.8587 900.083 64.3936 900.34 63.6744 901.415" fill="#BAB25E"/>
<path d="M85.2159 862.158C91.0231 867.069 96.8392 871.97 102.646 876.88C102.851 877.058 103.073 877.236 103.339 877.298C103.676 877.378 104.032 877.262 104.36 877.138C106.74 876.285 109.19 875.637 111.677 875.176C113.737 874.803 116.214 874.705 117.555 876.312C118.967 878.008 118.185 880.761 116.498 882.181C114.811 883.602 112.529 884.046 110.354 884.446C111.899 886.239 113.435 888.042 114.98 889.835C115.841 890.839 116.72 891.869 117.2 893.103C117.679 894.337 117.688 895.838 116.889 896.895C115.806 898.324 113.595 898.449 111.979 897.667C110.363 896.886 109.182 895.447 108.018 894.071C103.534 888.752 98.5262 883.86 93.0476 879.562C91.0852 878.026 89.0519 876.552 87.347 874.74C85.6421 872.929 84.2569 870.7 83.9106 868.232C83.6265 866.261 84.0261 864.245 84.7542 862.389" fill="#BAB25E"/>
<path d="M75.8481 885.841C78.21 885.513 80.4654 884.643 82.7475 883.941C85.0295 883.24 87.4358 882.698 89.7978 883.044C92.1597 883.391 94.495 884.785 95.3829 886.996C95.4984 887.28 95.5872 887.582 95.525 887.875C95.3741 888.585 94.5039 888.816 93.7846 888.922C81.7352 890.769 70.4139 895.769 58.542 898.557C56.7484 898.974 54.342 899.072 53.5962 897.376C53.3209 896.745 53.3831 896.008 53.5873 895.351C54.5374 892.341 57.9738 891.009 60.9928 890.086C62.1116 889.748 63.2215 889.402 64.3403 889.065C64.8553 888.905 65.397 888.736 65.8054 888.381C66.3293 887.919 66.5691 887.218 66.7733 886.543C69.1352 878.924 70.8934 871.128 72.0299 863.234C72.101 862.71 72.172 862.178 72.0299 861.671C71.9056 861.21 71.6126 860.819 71.3107 860.455C69.739 858.528 67.6701 856.965 66.5691 854.745C65.468 852.526 65.8498 849.231 68.1585 848.326C69.4105 847.837 70.8667 848.21 71.9767 848.956C73.0866 849.702 73.9301 850.785 74.7471 851.851C75.3864 849.755 76.1855 847.58 77.8549 846.159C79.5242 844.738 82.339 844.427 83.7952 846.07C85.3491 847.819 84.6121 850.537 83.8308 852.748C80.1635 863.083 77.3843 873.747 75.564 884.563" fill="#BAB25E"/>
<g clip-path="url(#clip2_94_2619)">
<path d="M365.147 980.704C365.147 980.704 357.289 1005.22 367.591 1015.91C369.088 1017.46 371.18 1018.27 373.337 1018.27C414.734 1018.29 460.886 1018.82 473.696 1018.27C487.295 1017.67 490.424 1000.67 474.886 992.32C457.678 983.058 422.84 964.586 422.84 964.586" stroke="#7E2512" stroke-width="10" stroke-miterlimit="10"/>
<path d="M309.134 978.835C309.134 978.835 311.291 1014.2 305.173 1016.51C299.824 1018.51 220.817 1018.2 199.093 1018.24C194.869 1018.24 190.818 1016.25 188.528 1012.7C185.29 1007.71 183.248 998.453 197 990.426C220.659 976.638 243.439 964.566 243.439 964.566" stroke="#7E2512" stroke-width="10" stroke-miterlimit="10"/>
<path d="M271.778 946.753C273.131 950.992 271.877 955.741 269.368 959.41C266.86 963.079 263.216 965.82 259.458 968.2C243.519 978.299 224.466 983.098 209.499 994.59C206.777 996.677 203.956 1000.12 205.548 1003.16C206.812 1005.58 210.034 1005.98 212.761 1006.09C235.814 1007 258.868 1007.91 281.921 1008.82C286.958 1009.02 292.878 1008.81 295.793 1004.7C297.385 1002.46 297.642 999.563 297.806 996.816C298.798 980.168 298.242 963.431 296.15 946.887C288.56 947.169 280.965 947.447 273.374 947.73" fill="#6E7F59"/>
<path d="M374.968 946.356C376.897 960.778 377.621 975.364 377.135 989.905C377.036 992.865 376.902 995.914 377.908 998.695C379.326 1002.61 382.876 1005.46 386.753 1006.99C390.63 1008.52 394.849 1008.89 399.008 1009.19C417.292 1010.48 435.666 1010.46 453.95 1009.15C456.225 1008.98 458.59 1008.77 460.568 1007.63C462.546 1006.5 464.029 1004.15 463.439 1001.95C463.037 1000.47 461.823 999.355 460.633 998.373C447.088 987.183 430.262 980.857 415.27 971.69C411.09 969.137 406.772 965.999 405.349 961.314C403.901 956.555 405.81 951.304 404.581 946.485C395.553 947.13 386.485 947.209 377.447 946.723" fill="#6E7F59"/>
<path d="M231.898 802.15C232.632 803.895 233.36 805.646 234.079 807.401C236.439 813.147 238.725 818.927 240.926 824.738C243.127 830.548 245.254 836.388 247.297 842.253C249.339 848.118 251.302 854.018 253.186 859.938C255.07 865.857 256.87 871.806 258.59 877.776C260.311 883.745 261.947 889.739 263.503 895.757C265.06 901.776 266.533 907.81 267.921 913.863C269.309 919.916 270.618 925.995 271.842 932.083C272.452 935.127 273.047 938.181 273.617 941.235C273.905 942.762 274.182 944.289 274.455 945.82C274.524 946.192 274.529 946.663 274.668 947.015C274.807 947.367 274.921 947.392 275.318 947.521C275.992 947.739 276.701 947.828 277.405 947.858C278.243 947.888 279.086 947.828 279.913 947.957C280.632 948.071 281.317 948.324 282.006 948.547C286.309 949.945 290.959 950.243 295.406 949.415C295.629 949.375 295.858 949.326 296.031 949.182C296.403 948.879 296.363 948.309 296.294 947.833C295.917 945.29 295.555 942.682 295.753 940.109C295.952 937.536 296.353 935.181 296.626 932.722C297.32 926.411 297.87 920.085 298.272 913.749C298.674 907.413 298.926 901.067 299.035 894.721C299.145 888.375 299.105 882.024 298.916 875.678C298.728 869.333 298.396 862.992 297.915 856.661C297.434 850.33 296.809 844.008 296.036 837.707C295.263 831.406 294.345 825.124 293.28 818.863C292.219 812.636 291.014 806.434 289.665 800.261C287.162 788.799 284.147 777.015 286.314 765.483C288.451 754.115 295.367 744.348 301.167 734.343C310.79 717.745 317.652 699.719 324.464 681.787C328.901 670.111 330.775 658.212 335.505 646.755C340.908 633.662 346.273 620.549 351.429 607.351C352.782 603.891 354.141 600.331 354.146 596.618C354.151 592.964 352.852 589.454 351.568 586.033C345.831 570.748 339.847 555.062 328.826 543.02C328.187 542.321 327.493 541.612 326.591 541.329C325.772 541.071 324.89 541.2 324.042 541.349C315.877 542.752 307.935 545.474 299.68 546.148C292.377 546.748 284.871 545.746 277.801 547.675C273.949 548.726 270.31 550.625 266.349 551.076C262.383 551.522 258.318 550.436 254.381 551.086C249.052 551.963 249.746 554.259 249.414 559.013C248.68 569.454 247.787 579.895 246.771 590.311C244.421 614.416 241.362 638.451 237.624 662.382C233.038 691.667 227.411 720.794 223.618 750.193C222.607 758.036 221.725 765.984 222.701 773.827C223.931 783.717 228.041 792.979 231.908 802.16L231.898 802.15Z" fill="#6E7F59"/>
<path d="M329.739 547.933C360.943 550.006 392.305 549.698 423.465 547.006C431.323 564.938 436.037 584.244 437.321 603.782C438.918 628.07 435.264 652.358 431.878 676.467C419.841 762.162 411.06 848.317 405.572 934.681C405.354 938.102 405.091 941.686 403.257 944.582C399.236 950.927 390.154 950.942 382.677 950.228C380.317 950 377.744 949.678 376.093 947.973C374.571 946.401 374.239 944.051 374.081 941.865C373.263 930.437 375.132 918.99 375.097 907.532C375.057 894.875 372.692 882.357 370.447 869.898C364.463 836.706 359.277 803.37 354.889 769.931C350.675 737.795 345.921 705.574 345.995 673.096C346.01 667.568 346.099 661.857 343.992 656.746C342.431 652.953 339.848 650.95 336.635 648.699C332.346 645.695 332.262 647.252 331.588 641.039C330.522 631.164 329.803 621.243 329.208 611.328C328.018 591.492 327.627 571.606 328.038 551.736C328.073 550.065 328.202 548.191 329.456 547.086C330.591 546.084 332.262 546.064 333.779 546.094C361.285 546.714 388.785 547.338 416.291 547.958" fill="#6E7F59"/>
<path d="M253.429 548.36C308.837 540.611 365.172 548.35 421.09 546.55C422.681 546.501 424.58 546.248 425.269 544.815C425.74 543.833 425.433 542.673 425.116 541.627C421.021 528.192 416.841 514.786 412.582 501.405C408.071 487.231 406.088 475.828 405.295 460.896C404.729 450.231 424.025 442.284 432.101 436.568C440.47 430.643 448.799 424.655 457.078 418.606C460.801 415.884 464.287 413.158 467.504 410.044C470.246 407.392 473.885 406.266 476.81 403.877C478.962 402.122 480.454 399.707 481.857 397.308C482.972 395.399 484.088 393.366 484.123 391.16C484.162 388.865 483.037 386.728 481.946 384.71C478.585 378.508 475.352 372.271 470.905 366.763C455.799 348.058 439.394 330.403 421.848 313.958C418.913 311.207 415.909 308.465 412.374 306.537C403.604 301.752 391.507 301.926 381.8 302.883C367.77 304.266 384.943 312.312 388.79 316.536C391.12 319.094 392.048 322.58 393.416 325.753C398.468 337.468 409.643 345.137 419.994 352.589C430.346 360.04 441.035 368.825 444.198 381.19C433.226 388.666 420.559 393.639 407.431 395.622C404.05 396.133 400.496 396.43 397.303 395.206C394.968 394.313 393.009 392.677 390.863 391.393C380.992 385.493 373.635 389.861 364.041 392.36C353.511 395.101 341.841 393.327 332.902 387.139C330.324 385.355 327.919 383.233 325.009 382.063C322.381 381.002 319.491 380.784 316.66 380.878C303.096 381.344 290.697 388.711 277.281 390.763C260.901 393.272 246.85 388.339 236.405 375.806C233.941 372.851 231.338 369.47 231.63 365.638C231.928 361.766 235.071 358.806 237.996 356.258C252.572 343.571 267.142 330.884 281.718 318.192C286.106 314.375 290.702 310.443 296.319 308.941C305.639 306.452 316.953 310.815 324.434 304.722C330.715 299.606 330.135 288.937 324.523 283.091C318.906 277.251 309.888 275.764 301.941 277.355C293.994 278.942 286.849 283.151 279.938 287.385C248.67 306.532 218.577 327.592 189.797 350.308C185.216 353.918 180.238 358.474 180.471 364.304C180.685 369.653 185.231 373.679 189.41 377.021C209.355 392.96 229.3 408.904 249.245 424.843C256.275 430.46 263.513 436.191 272.085 438.923C273.865 439.488 275.903 440.093 276.706 441.779C277.326 443.077 276.989 444.609 276.637 446.002C267.792 480.766 253.662 514.434 250.137 550.13C260.41 544.974 272.214 543.868 283.706 543.65C330.978 542.753 378.999 555.296 425.036 544.527" fill="#6E7F59"/>
<path d="M362.351 381.745C396.577 381.745 424.322 353.999 424.322 319.773C424.322 285.547 396.577 257.802 362.351 257.802C328.125 257.802 300.379 285.547 300.379 319.773C300.379 353.999 328.125 381.745 362.351 381.745Z" fill="#8DA576"/>
<path d="M293.513 945.731H267.212C258.209 944.586 250.663 937.486 248.02 927.63L207.724 785.021C205.939 778.75 205.017 772.265 204.928 765.756C204.73 750.803 208.448 734.879 208.953 731.032L235.319 547.734H445.432C445.432 547.734 445.893 733.823 439.667 755.091C433.44 776.36 427.163 933.357 421.358 940.456C415.547 947.56 354.805 947.541 352.143 940.456C349.48 933.376 334.999 592.532 334.999 592.532" stroke="#BAB25E" stroke-width="16" stroke-miterlimit="10"/>
<path d="M450.023 380.119C450.98 380.119 450.98 378.632 450.023 378.632C449.066 378.632 449.066 380.119 450.023 380.119Z" fill="#4F5E40"/>
<path d="M427.847 391.209C428.705 390.317 429.954 389.95 431.05 389.375C432.408 388.666 433.554 387.615 434.803 386.728C435.219 386.43 435.651 386.148 436.087 385.88C438.551 384.363 441.139 383.094 443.553 381.492C444.456 380.892 444.788 380.248 444.475 379.172C444.079 377.814 443.325 376.52 442.706 375.26C440.336 370.446 437.569 365.548 433.117 362.355C438.358 365.98 441.293 372.068 445.819 376.559C448.164 378.889 450.921 380.764 453.722 382.524C447.247 383.351 441.099 385.786 435.036 388.195C433.271 388.899 431.501 389.598 429.736 390.302" fill="#3C4A30"/>
<path d="M428.373 391.735C429.344 390.773 430.748 390.436 431.903 389.752C433.192 388.983 434.302 387.962 435.542 387.119C438.105 385.374 440.936 384.07 443.538 382.39C444.565 381.725 445.442 380.947 445.313 379.618C445.175 378.166 444.297 376.758 443.648 375.483C442.418 373.074 441.223 370.66 439.726 368.404C438.021 365.841 435.993 363.525 433.489 361.711L432.741 362.995C435.705 365.072 437.941 367.977 440.108 370.833C442.398 373.857 444.709 376.812 447.678 379.207C449.478 380.654 451.396 381.938 453.345 383.168L453.722 381.78C445.269 382.885 437.386 386.465 429.533 389.583C428.655 389.93 429.037 391.373 429.93 391.016C437.634 387.957 445.427 384.348 453.722 383.262C454.421 383.173 454.773 382.3 454.098 381.874C450.702 379.737 447.47 377.422 444.813 374.388C442.403 371.631 440.4 368.553 437.986 365.801C436.642 364.269 435.165 362.876 433.494 361.706C432.706 361.156 431.977 362.435 432.746 362.99C436.91 366.009 439.548 370.575 441.798 375.092C442.413 376.321 443.122 377.536 443.588 378.83C443.752 379.281 444 379.861 443.737 380.317C443.449 380.813 442.765 381.12 442.299 381.413C439.84 382.95 437.198 384.194 434.798 385.825C433.529 386.688 432.394 387.744 431.065 388.512C429.806 389.246 428.388 389.628 427.327 390.674C426.643 391.348 427.694 392.399 428.378 391.725L428.373 391.735Z" fill="#3C4A30"/>
<path d="M252.894 343.229C241.337 348.732 232.017 358.38 220.108 363.07C214.095 365.44 207.615 366.451 201.16 366.788C206.931 367.656 212.647 368.9 218.254 370.516C221.229 371.374 224.189 372.341 226.975 373.684C230.505 375.39 233.712 377.685 236.9 379.966C239.726 381.989 242.552 384.011 245.378 386.034C240.737 381.671 236.043 377.234 232.711 371.805C231.779 370.283 230.946 368.642 230.777 366.867C230.594 364.934 231.263 363.263 232.404 361.697C233.326 360.427 234.466 359.342 235.606 358.261C236.801 357.131 237.996 356 239.196 354.875C240.871 353.298 242.547 351.722 244.307 350.239C245.313 349.391 246.35 348.578 247.297 347.666C249.126 345.906 250.712 343.72 253.082 342.808" fill="#3C4A30"/>
<path d="M252.517 342.589C245.998 345.708 240.227 350.09 234.302 354.176C228.378 358.261 221.873 362.162 214.65 364.071C210.242 365.236 205.706 365.806 201.155 366.049C200.372 366.094 200.084 367.378 200.957 367.512C207.298 368.469 213.589 369.857 219.722 371.731C222.696 372.643 225.602 373.729 228.333 375.231C231.065 376.733 233.613 378.533 236.147 380.347C239.101 382.459 242.051 384.571 245.001 386.683C245.69 387.179 246.508 386.088 245.903 385.513C243.206 382.975 240.504 380.432 238.045 377.66C236.826 376.287 235.671 374.864 234.615 373.357C233.559 371.85 232.498 370.273 231.908 368.538C231.348 366.902 231.348 365.197 232.106 363.625C232.914 361.949 234.238 360.606 235.562 359.332C238.477 356.535 241.392 353.7 244.466 351.077C246.032 349.738 247.604 348.459 249.027 346.962C250.276 345.648 251.555 344.22 253.276 343.531C254.153 343.179 253.771 341.742 252.879 342.098C251.268 342.748 249.974 343.844 248.774 345.078C247.475 346.412 246.196 347.716 244.758 348.905C241.456 351.642 238.368 354.627 235.254 357.572C232.592 360.095 229.578 363.08 230.054 367.085C230.277 368.969 231.139 370.685 232.126 372.281C233.113 373.878 234.322 375.533 235.567 377.05C238.383 380.481 241.62 383.53 244.852 386.569L245.755 385.399C243.058 383.471 240.366 381.542 237.669 379.614C235.16 377.819 232.656 376.009 229.989 374.458C224.521 371.28 218.299 369.609 212.186 368.161C208.606 367.318 204.992 366.624 201.353 366.074L201.155 367.537C209.142 367.105 217.03 365.613 224.238 362.043C230.792 358.796 236.598 354.29 242.621 350.189C246.037 347.864 249.537 345.658 253.271 343.873C254.133 343.462 253.38 342.178 252.522 342.589H252.517Z" fill="#3C4A30"/>
<path d="M310.299 384.055C315.961 383.351 321.702 383.679 327.24 385.047C328.167 385.275 328.564 383.842 327.637 383.614C321.975 382.211 316.09 381.849 310.299 382.568C309.362 382.687 309.353 384.174 310.299 384.055Z" fill="#6E7F59"/>
<path d="M498.039 355.291C498.996 355.291 498.996 353.804 498.039 353.804C497.082 353.804 497.082 355.291 498.039 355.291Z" fill="#6E7F59"/>
<path d="M318.296 396.986C315.059 395.082 311.291 394.383 307.672 393.575C305.332 393.054 291.614 390.347 297.756 386.064C302.977 382.425 310.751 381.23 316.943 380.908C319.119 380.794 321.34 380.814 323.432 381.419C325.639 382.058 327.607 383.317 329.535 384.562C332.614 386.55 335.693 388.533 338.777 390.521C340.398 391.567 342.059 392.633 343.933 393.099C345.232 393.421 346.59 393.446 347.929 393.471C354.384 393.58 361.473 394.636 367.71 392.767C373.139 391.141 378.642 388.518 384.209 389.569C390.357 390.729 394.863 396.079 400.719 398.285C398.136 400.352 394.774 401.086 391.601 402.033C380.084 405.464 369.668 412.504 362.197 421.913C356.892 428.591 352.99 436.464 346.635 442.151C345.906 442.805 345.068 443.455 344.086 443.494C343.447 443.519 342.827 443.271 342.252 442.994C334.191 439.077 331.499 429.107 329.858 420.292C328.217 411.477 326.02 401.527 318.296 396.986Z" fill="#3C4A30"/>
<path d="M318.668 396.341C312.768 392.925 305.624 393.247 299.506 390.407C298.649 390.01 297.538 389.435 297.112 388.741C296.968 388.508 296.988 388.572 296.933 388.314C296.914 388.215 296.923 388.374 296.933 388.196C296.943 387.987 296.904 388.21 296.963 388.002C297.067 387.67 297.419 387.263 297.801 386.951C299.417 385.617 301.509 384.725 303.468 384.036C305.689 383.253 307.989 382.717 310.309 382.335C312.63 381.954 314.875 381.745 317.171 381.636C319.903 381.508 322.605 381.666 325.118 382.846C327.632 384.026 329.912 385.692 332.232 387.184C334.553 388.676 336.982 390.288 339.391 391.79C340.447 392.449 341.538 393.054 342.708 393.49C343.997 393.966 345.37 394.125 346.739 394.179C349.441 394.279 352.138 394.383 354.84 394.502C357.542 394.621 360.179 394.68 362.837 394.422C365.494 394.165 367.988 393.485 370.516 392.638C375.429 390.992 380.655 389.043 385.826 390.754C390.149 392.182 393.579 395.404 397.511 397.59C398.483 398.131 399.484 398.602 400.52 398.998L400.193 397.754C398.359 399.192 396.113 399.94 393.902 400.585C391.691 401.229 389.623 401.824 387.536 402.608C383.406 404.164 379.445 406.162 375.751 408.582C372.058 411.001 368.677 413.767 365.618 416.901C362.559 420.034 359.763 423.782 357.214 427.53C354.622 431.343 352.113 435.244 349.024 438.685C348.266 439.533 347.473 440.351 346.64 441.129C345.906 441.818 344.974 442.82 343.868 442.745C342.892 442.676 341.87 441.992 341.067 441.476C340.304 440.99 339.59 440.43 338.925 439.81C333.244 434.511 331.732 426.162 330.344 418.874C328.955 411.586 327.052 403.054 321.003 397.997C320.269 397.382 319.491 396.832 318.668 396.341C317.845 395.85 317.097 397.134 317.919 397.625C324.92 401.79 327.146 410.411 328.638 417.868C330.13 425.324 331.414 433.628 336.67 439.617C337.894 441.015 339.352 442.23 340.968 443.152C341.905 443.687 342.971 444.267 344.086 444.233C345.202 444.198 346.184 443.524 347.011 442.805C350.502 439.776 353.263 435.963 355.866 432.176C358.503 428.328 361.012 424.377 364.051 420.822C367.09 417.268 370.268 414.338 373.882 411.685C377.497 409.033 381.349 406.822 385.429 405.057C387.501 404.159 389.633 403.391 391.795 402.746C393.956 402.102 396.267 401.532 398.374 400.565C399.4 400.094 400.347 399.509 401.239 398.81C401.725 398.428 401.368 397.744 400.912 397.566C396.524 395.885 393.054 392.548 388.889 390.446C386.723 389.356 384.418 388.657 381.983 388.587C379.212 388.508 376.47 389.167 373.843 389.98C371.215 390.793 368.553 391.889 365.811 392.479C363.07 393.069 360.472 393.148 357.79 393.109C355.107 393.069 352.242 392.861 349.466 392.762C348.087 392.712 346.699 392.752 345.331 392.593C343.962 392.434 342.599 391.914 341.355 391.225C338.866 389.841 336.516 388.171 334.121 386.629C331.727 385.087 329.372 383.416 326.868 382.063C324.365 380.709 321.682 380.104 318.817 380.104C316.402 380.104 313.973 380.333 311.584 380.655C306.893 381.284 302.035 382.435 297.999 385.008C296.914 385.702 295.58 386.624 295.461 388.032C295.372 389.073 296.046 389.926 296.819 390.531C298.936 392.186 301.827 392.92 304.39 393.57C307.712 394.413 311.122 394.918 314.375 396.024C315.609 396.44 316.794 396.966 317.924 397.615C318.752 398.096 319.506 396.812 318.673 396.331L318.668 396.341Z" fill="#3C4A30"/>
<path d="M304.886 727.205C299.596 734.998 291.559 740.625 286.319 748.454C282.189 754.616 279.958 762.033 279.998 769.455C280.037 777.322 282.551 784.947 285.035 792.414C286.487 796.787 287.94 801.154 289.427 805.517C292.372 814.178 295.476 823.092 294.891 832.224C294.95 819.022 295.01 805.775 293.418 792.667C292.372 784.07 290.622 775.453 291.346 766.827C292.595 751.998 300.949 738.865 306.254 724.964C303.859 728.548 301.47 732.133 299.075 735.717" fill="#3C4A30"/>
<path d="M304.246 726.828C300.3 732.613 294.891 737.155 290.231 742.321C287.89 744.914 285.739 747.685 284.048 750.749C282.358 753.813 281.014 757.288 280.216 760.788C279.418 764.288 279.1 768.031 279.328 771.685C279.576 775.632 280.375 779.528 281.416 783.336C282.457 787.144 283.756 790.941 285.015 794.714C286.274 798.487 287.613 802.493 288.932 806.38C291.45 813.791 294.068 821.392 294.207 829.304C294.221 830.276 294.202 831.252 294.142 832.224H295.629C295.664 824.644 295.699 817.058 295.416 809.478C295.134 801.898 294.455 794.58 293.418 787.168C292.392 779.801 291.341 772.335 292.283 764.898C293.116 758.324 295.347 752.003 297.91 745.93C300.85 738.974 304.261 732.222 306.963 725.167C307.28 724.344 306.046 723.932 305.604 724.592C303.21 728.176 300.82 731.761 298.426 735.345C297.895 736.143 299.179 736.887 299.71 736.094C302.104 732.509 304.494 728.925 306.889 725.34L305.53 724.765C300.746 737.264 293.503 749.019 291.177 762.355C289.908 769.628 290.538 776.916 291.52 784.179C292.02 787.897 292.576 791.605 292.967 795.334C293.359 799.062 293.636 802.964 293.815 806.786C294.217 815.259 294.177 823.741 294.137 832.219C294.137 833.181 295.565 833.166 295.625 832.219C296.1 824.371 293.939 816.701 291.49 809.329C289.041 801.957 286.279 794.213 283.914 786.578C281.634 779.226 279.953 771.551 281.138 763.837C282.224 756.753 285.357 750.303 289.978 744.859C294.995 738.944 301.128 734.021 305.525 727.581C306.066 726.788 304.777 726.044 304.241 726.833L304.246 726.828Z" fill="#3C4A30"/>
</g>
<defs>
<clipPath id="clip0_94_2619">
<rect width="747.837" height="727.299" fill="white"/>
</clipPath>
<clipPath id="clip1_94_2619">
<rect width="206.342" height="259.289" fill="white" transform="translate(468.01 -31.2339)"/>
</clipPath>
<clipPath id="clip2_94_2619">
<rect width="318.291" height="763.198" fill="white" transform="translate(180.461 257.802)"/>
</clipPath>
</defs>
</svg>
