<svg width="1531" height="1470" viewBox="0 0 1531 1470" fill="none" xmlns="http://www.w3.org/2000/svg">
<path d="M110.767 153.277L228.885 47.9266C232.266 44.9106 237.452 45.2069 240.468 48.5885L362.294 185.179C365.31 188.56 365.014 193.747 361.632 196.763L243.514 302.113C240.133 305.129 234.947 304.833 231.931 301.451L110.105 164.861C107.089 161.479 107.385 156.293 110.767 153.277Z" fill="#E6E6E6" stroke="#D6D1BE"/>
<path d="M353.669 1230.36L249.125 1260.32C225.695 1267.03 212.144 1291.47 218.858 1314.9L248.816 1419.44C255.53 1442.87 279.966 1456.42 303.396 1449.71L407.94 1419.75C431.37 1413.04 444.921 1388.6 438.207 1365.17L408.249 1260.63C401.535 1237.2 377.099 1223.65 353.669 1230.36Z" fill="#3C4A30"/>
<path d="M753.118 1162.66C1002.39 1162.66 1204.46 966.2 1204.46 723.855C1204.46 481.511 1002.39 285.052 753.118 285.052C503.849 285.052 301.777 481.511 301.777 723.855C301.777 966.2 503.849 1162.66 753.118 1162.66Z" fill="#3C4A30"/>
<path d="M753.118 1161.76C986.065 1161.76 1174.91 972.922 1174.91 739.975C1174.91 507.027 986.065 318.186 753.118 318.186C520.171 318.186 331.33 507.027 331.33 739.975C331.33 972.922 520.171 1161.76 753.118 1161.76Z" fill="#4F5E40"/>
<path opacity="0.6" d="M940.688 978.63C1138.34 832.696 1212.22 597.451 1105.71 453.196C999.204 308.941 752.633 310.302 554.983 456.235C357.332 602.169 283.447 837.414 389.957 981.669C496.467 1125.92 743.037 1124.56 940.688 978.63Z" fill="#6E7F59"/>
<path d="M925.955 318.916C902.314 353.93 861.675 372.736 823.078 389.876C797.144 401.393 771.228 412.909 745.294 424.443C740.279 426.664 735.174 428.957 731.198 432.736C725.736 437.912 723.013 445.309 720.918 452.527C717.658 463.756 715.473 475.291 714.381 486.915C713.736 493.882 713.109 501.655 707.861 506.276C702.094 511.362 692.942 510.288 686.261 506.473C679.581 502.658 674.44 496.694 668.405 491.947C652.303 479.285 629.271 476.079 610.321 483.87C591.372 491.661 577.259 510.144 574.716 530.472C574.143 535.004 574.161 539.786 576.095 543.905C581.808 556.102 598.787 555.601 612.22 556.819C634.16 558.807 654.954 571.004 667.42 589.183C679.885 607.362 683.736 631.146 677.682 652.334C676.661 655.881 675.049 659.731 671.646 661.128C666.202 663.349 660.847 658.03 657.229 653.391C636.954 627.475 611.217 604.568 579.963 594.251C553.689 585.583 524.065 585.887 500.71 571.075C473.379 553.756 461.236 518.795 463.206 486.503C465.176 454.21 478.967 423.888 493.833 395.142C503.379 376.73 514.286 357.924 530.226 344.259C547.779 329.214 572.495 324.611 593.593 316.229C671.879 285.155 759.085 276.987 841.777 292.999C870.72 298.605 899.215 307.148 925.705 320.08" fill="#BAB25E"/>
<path d="M690.02 709.026C689.232 739.133 689.697 770.601 703.596 797.324C717.942 824.923 744.539 843.568 768.091 863.914C774.521 869.466 780.861 875.305 785.392 882.505C795.583 898.696 795.136 919.597 790.031 938.027C784.927 956.457 775.685 973.436 768.933 991.346C755.697 1026.43 752.33 1065.19 759.297 1102.03C760.999 1111.01 764.957 1121.52 773.948 1123.11C784.945 1125.06 792.216 1112.49 797.088 1102.43C813.404 1068.79 840.789 1041.73 870.234 1018.71C899.678 995.698 931.666 976.033 960.967 952.821C1000.01 921.89 1034.11 884.708 1061.59 843.138C1074.14 824.117 1085.71 802.643 1084.05 779.915C1082.54 759.461 1070.22 740.996 1054.55 727.76C1038.88 714.524 1019.96 705.802 1001.21 697.491C942.609 671.539 882.789 648.095 821.159 630.507C791.912 622.16 758.813 614.513 729.96 628.537C717.047 634.805 704.832 645.444 697.954 658.214C690.092 672.811 690.45 692.942 690.038 709.061L690.02 709.026Z" fill="#BAB25E"/>
<path d="M1049.01 391.905C1046.42 389.63 1043.77 387.445 1041.04 385.332C1037.37 382.466 1033.59 379.726 1029.76 377.075C1026.29 374.675 1022.7 372.687 1019.52 369.965C1012.8 364.234 1005.47 359.183 997.72 354.956C996.161 354.114 992.633 352.252 990.967 353.756C989.839 354.777 989.033 357.535 988.46 358.932C986.937 362.657 986.006 366.616 985.63 370.628C984.412 384.132 989.642 398.442 1000.32 407.057C1008.57 413.702 1019 416.872 1028.85 420.777C1049.68 428.997 1069 441.015 1085.57 456.078C1091.52 461.469 1097.23 467.433 1100.35 474.83C1102.71 480.418 1103.46 486.543 1103.91 492.597C1107.6 541.098 1094.7 592.859 1115.71 636.739C1130.01 666.614 1159.18 690.399 1162.24 723.372C1163.09 732.399 1161.81 741.497 1162.14 750.56C1162.62 764.315 1170.3 784.303 1187.87 781.491C1204.01 778.912 1203.33 753.443 1204.51 740.763C1208.36 699.211 1201.13 657.48 1192.66 616.931C1189.18 600.292 1185.47 583.653 1179.65 567.677C1170.88 543.534 1157.48 521.361 1143.76 499.636C1130.74 478.985 1117.27 458.478 1101.13 440.084C1093.2 431.039 1084.84 423.571 1075.49 416.174C1066.08 408.723 1058.01 399.821 1049 391.923L1049.01 391.905Z" fill="#BAB25E"/>
<path d="M1376.68 59.4329L1184.44 93.5374C1178.4 94.6104 1174.36 100.383 1175.43 106.432L1197.03 228.13C1198.1 234.179 1203.87 238.212 1209.92 237.139L1402.16 203.034C1408.21 201.961 1412.24 196.189 1411.17 190.14L1389.58 68.4413C1388.5 62.3931 1382.73 58.3599 1376.68 59.4329Z" fill="#3C4A30"/>
<path d="M1203.34 27.3276L1335.66 3.85394C1345.49 2.10865 1354.88 8.66888 1356.63 18.5066L1372.7 109.097C1374.45 118.935 1367.89 128.325 1358.05 130.07L1225.73 153.544C1215.9 155.289 1206.51 148.729 1204.76 138.891L1188.69 48.3005C1186.94 38.4627 1193.5 29.0728 1203.34 27.3276Z" fill="#F3EFEA" stroke="#D6D1BE"/>
<path d="M1298.58 110.337C1291.13 113.955 1282.94 117.805 1274.43 117.232C1266.46 116.695 1259.93 110.856 1255.65 104.498C1247.28 92.0323 1246.96 75.5369 1256.17 63.3936C1260.86 57.1967 1267.72 53.2922 1275.1 51.1967C1282.48 49.1012 1290.03 48.4385 1297.2 50.6236C1311.11 54.8862 1316.85 71.5428 1311.17 84.3667C1309.63 87.8413 1307.28 91.1009 1304.2 93.3755C1301.68 95.2203 1296.73 97.871 1293.88 95.2561C1291.04 92.6412 1291.38 86.5696 1291.47 83.1667C1291.59 78.4204 1292.61 73.6742 1294.46 69.2861C1295.01 67.9608 1294.89 66.4205 1293.49 65.6145C1288.3 62.6056 1282.08 62.9996 1276.8 65.5787C1271.51 68.1578 1267.52 73.2981 1264.69 78.4383C1262.11 83.1308 1259.75 88.6472 1260.84 94.1099C1261.93 99.5725 1267.29 102.814 1272.79 102.152C1280.18 101.256 1284.45 95.2024 1290.36 91.4591C1293.26 89.6144 1290.57 84.9577 1287.65 86.8204C1282.76 89.9368 1278.7 95.7397 1272.73 96.7785C1270.4 97.1725 1267.81 96.7069 1266.61 94.4681C1265.48 92.3547 1265.96 89.6502 1266.59 87.4651C1269.24 78.2592 1279.66 63.8235 1290.79 70.2533L1289.82 66.5817C1287.88 71.1667 1286.63 75.8592 1286.22 80.8204C1285.84 85.3517 1285.95 90.5815 1287.53 94.8979C1291.09 104.623 1302.14 102.044 1308.48 96.7964C1321.59 85.9786 1321.99 63.9847 1310.08 52.146C1303.74 45.8594 1294.64 43.5848 1285.93 43.9788C1276.62 44.3908 1266.86 47.2385 1259.32 52.8445C1244.52 63.8414 1240.14 84.0443 1247.43 100.647C1251.38 109.71 1259.01 118.701 1268.77 121.62C1279.91 124.951 1291.43 119.74 1301.28 114.958C1304.4 113.453 1301.68 108.814 1298.58 110.319V110.337Z" fill="black"/>
<path d="M1182.86 144.116C1182.02 139.907 1181.07 135.698 1180.39 131.453C1179.44 125.435 1178.49 119.399 1177 113.471C1176.43 111.178 1175.77 108.904 1175.66 106.54C1175.59 104.964 1175.77 103.37 1176.2 101.847C1176.29 101.507 1176.41 101.149 1176.64 100.88C1177.5 99.8591 1179.15 100.576 1180.26 101.328C1186.03 105.268 1192.35 107.937 1198.3 111.429C1204.69 115.19 1211.03 119.005 1217.35 122.892C1231.4 131.543 1245.24 140.533 1258.85 149.847C1259.86 150.527 1260.88 151.244 1261.65 152.193C1262.76 153.572 1263.24 155.381 1263.4 157.154C1264.01 164.265 1259.87 170.82 1255.84 176.694C1250.85 183.984 1245.74 191.202 1240.53 198.348C1235.84 204.778 1231.65 212.032 1225.75 217.387C1224.29 218.73 1222.8 220.073 1221.33 221.417C1217.59 224.82 1213.81 228.258 1209.37 230.694C1206.48 232.27 1202.86 233.381 1200.02 231.733C1196.69 229.817 1196.22 225.303 1195.83 221.488C1194.68 210.42 1191.89 199.369 1189.92 188.426C1187.6 175.709 1185.85 162.921 1183.97 150.169C1183.66 148.145 1183.31 146.122 1182.89 144.116H1182.86Z" fill="#4F5E40"/>
<path d="M1396.05 104.05C1394.08 91.0293 1392.5 77.9368 1388.85 65.3101C1388.49 64.0563 1388.06 62.731 1387.07 61.8713C1385.59 60.5638 1383.24 60.7429 1381.54 61.728C1379.84 62.7131 1378.64 64.3608 1377.47 65.9548C1370.13 76.0921 1362.57 85.9786 1355.03 95.9905C1345.41 108.778 1336.1 121.799 1327.11 135.053C1326.45 136.038 1325.77 137.023 1325.41 138.169C1324.89 139.835 1325.08 141.68 1325.55 143.399C1327.47 150.259 1333.45 155.041 1339.11 159.214C1350.07 167.309 1361.21 175.154 1372.49 182.748C1377.45 186.079 1382.47 189.393 1387.81 192.026C1391.53 193.87 1395.53 195.035 1399.68 195.447C1402.58 195.733 1407.69 196.27 1409.94 193.817C1410.75 192.939 1410.84 191.632 1410.8 190.45C1410.7 186.384 1409.62 182.426 1408.73 178.468C1407.92 174.939 1407.9 171.375 1407.35 167.829C1406.76 164.086 1406.16 160.324 1405.56 156.581C1404.68 151.011 1403.51 145.513 1402.6 139.96C1401.6 133.871 1398.96 128.462 1398.91 122.193C1398.88 116.283 1396.9 109.943 1396.01 104.05H1396.05Z" fill="#4F5E40"/>
<path d="M1203.34 27.3276L1335.66 3.85394C1345.49 2.10865 1354.88 8.66888 1356.63 18.5066L1372.7 109.097C1374.45 118.935 1367.89 128.325 1358.05 130.07L1225.73 153.544C1215.9 155.289 1206.51 148.729 1204.76 138.891L1188.69 48.3005C1186.94 38.4627 1193.5 29.0728 1203.34 27.3276Z" fill="#F3EFEA" stroke="#D6D1BE"/>
<path d="M1298.58 110.337C1291.13 113.955 1282.94 117.805 1274.43 117.232C1266.46 116.695 1259.93 110.856 1255.65 104.498C1247.28 92.0323 1246.96 75.5369 1256.17 63.3937C1260.86 57.1967 1267.72 53.2922 1275.1 51.1967C1282.48 49.1012 1290.03 48.4385 1297.2 50.6236C1311.11 54.8863 1316.85 71.5429 1311.17 84.3667C1309.63 87.8413 1307.28 91.101 1304.2 93.3756C1301.68 95.2203 1296.73 97.8711 1293.88 95.2562C1291.04 92.6413 1291.38 86.5696 1291.47 83.1667C1291.59 78.4204 1292.61 73.6742 1294.46 69.2862C1295.01 67.9608 1294.89 66.4205 1293.49 65.6146C1288.3 62.6056 1282.08 62.9996 1276.8 65.5787C1271.51 68.1578 1267.52 73.2981 1264.69 78.4384C1262.11 83.1309 1259.75 88.6472 1260.84 94.1099C1261.93 99.5726 1267.29 102.814 1272.79 102.152C1280.18 101.256 1284.45 95.2024 1290.36 91.4592C1293.26 89.6144 1290.57 84.9577 1287.65 86.8204C1282.76 89.9368 1278.7 95.7397 1272.73 96.7785C1270.4 97.1726 1267.81 96.7069 1266.61 94.4681C1265.48 92.3547 1265.96 89.6502 1266.59 87.4652C1269.24 78.2593 1279.66 63.8235 1290.79 70.2533L1289.82 66.5817C1287.88 71.1668 1286.63 75.8593 1286.22 80.8204C1285.84 85.3518 1285.95 90.5816 1287.53 94.898C1291.09 104.623 1302.14 102.044 1308.48 96.7965C1321.59 85.9786 1321.99 63.9847 1310.08 52.146C1303.74 45.8595 1294.64 43.5848 1285.93 43.9789C1276.62 44.3908 1266.86 47.2386 1259.32 52.8445C1244.52 63.8414 1240.14 84.0443 1247.43 100.647C1251.38 109.71 1259.01 118.701 1268.77 121.62C1279.91 124.952 1291.43 119.74 1301.28 114.958C1304.4 113.453 1301.68 108.814 1298.58 110.319V110.337Z" fill="black"/>
<path d="M1182.86 144.116C1182.02 139.907 1181.07 135.698 1180.39 131.453C1179.44 125.435 1178.49 119.399 1177 113.471C1176.43 111.178 1175.77 108.904 1175.66 106.54C1175.59 104.964 1175.77 103.37 1176.2 101.847C1176.29 101.507 1176.41 101.149 1176.64 100.88C1177.5 99.8591 1179.15 100.576 1180.26 101.328C1186.03 105.268 1192.35 107.937 1198.3 111.429C1204.69 115.19 1211.03 119.005 1217.35 122.892C1231.4 131.543 1245.24 140.533 1258.85 149.847C1259.86 150.527 1260.88 151.244 1261.65 152.193C1262.76 153.572 1263.24 155.381 1263.4 157.154C1264.01 164.265 1259.87 170.82 1255.84 176.694C1250.85 183.984 1245.74 191.202 1240.53 198.348C1235.84 204.778 1231.65 212.032 1225.75 217.387C1224.29 218.73 1222.8 220.073 1221.33 221.417C1217.59 224.82 1213.81 228.258 1209.37 230.694C1206.48 232.27 1202.86 233.381 1200.02 231.733C1196.69 229.817 1196.22 225.303 1195.83 221.488C1194.68 210.42 1191.89 199.369 1189.92 188.426C1187.6 175.709 1185.85 162.921 1183.97 150.169C1183.66 148.145 1183.31 146.122 1182.89 144.116H1182.86Z" fill="#4F5E40"/>
<path d="M1396.05 104.05C1394.08 91.0293 1392.5 77.9368 1388.85 65.3101C1388.49 64.0563 1388.06 62.731 1387.07 61.8713C1385.59 60.5638 1383.24 60.7429 1381.54 61.728C1379.84 62.7131 1378.64 64.3608 1377.47 65.9548C1370.13 76.0921 1362.57 85.9786 1355.03 95.9905C1345.41 108.778 1336.1 121.799 1327.11 135.053C1326.45 136.038 1325.77 137.023 1325.41 138.169C1324.89 139.835 1325.08 141.68 1325.55 143.399C1327.47 150.259 1333.45 155.041 1339.11 159.214C1350.07 167.309 1361.21 175.154 1372.49 182.748C1377.45 186.079 1382.47 189.393 1387.81 192.026C1391.53 193.87 1395.53 195.035 1399.68 195.447C1402.58 195.733 1407.69 196.27 1409.94 193.817C1410.75 192.939 1410.84 191.632 1410.8 190.45C1410.7 186.384 1409.62 182.426 1408.73 178.468C1407.92 174.939 1407.9 171.375 1407.35 167.829C1406.76 164.086 1406.16 160.324 1405.56 156.581C1404.68 151.011 1403.51 145.513 1402.6 139.96C1401.6 133.871 1398.96 128.462 1398.91 122.193C1398.88 116.283 1396.9 109.943 1396.01 104.05H1396.05Z" fill="#4F5E40"/>
<path d="M138.569 1063.45L7.46845 1086.71C3.34375 1087.44 0.5932 1091.38 1.32495 1095.5L16.0487 1178.5C16.7805 1182.62 20.7174 1185.37 24.8421 1184.64L155.942 1161.38C160.067 1160.65 162.818 1156.72 162.086 1152.59L147.362 1069.6C146.63 1065.47 142.693 1062.72 138.569 1063.45Z" fill="#3C4A30"/>
<path d="M20.3845 1041.72L110.619 1025.71C117.241 1024.53 123.562 1028.95 124.737 1035.57L135.697 1097.35C136.872 1103.97 132.456 1110.29 125.834 1111.47L35.5993 1127.48C28.9768 1128.65 22.6557 1124.24 21.4809 1117.61L10.5207 1055.83C9.3458 1049.21 13.762 1042.89 20.3845 1041.72Z" fill="#F3EFEA" stroke="#D6D1BE"/>
<path d="M85.0718 1098.54C79.9852 1101.02 74.3973 1103.66 68.5893 1103.27C63.1481 1102.9 58.685 1098.9 55.7627 1094.53C50.0525 1085.99 49.8324 1074.67 56.1173 1066.34C59.3209 1062.09 64.004 1059.42 69.0417 1057.98C74.0793 1056.54 79.2393 1056.09 84.1302 1057.59C93.6309 1060.51 97.5437 1071.93 93.6676 1080.73C92.616 1083.11 91.0143 1085.35 88.9112 1086.91C87.1871 1088.17 83.8123 1089.99 81.8682 1088.2C79.924 1086.4 80.1563 1082.24 80.2174 1079.91C80.303 1076.65 81 1073.4 82.2595 1070.39C82.6385 1069.48 82.5529 1068.42 81.5991 1067.87C78.0532 1065.8 73.8103 1066.07 70.2032 1067.84C66.5961 1069.61 63.8695 1073.14 61.9375 1076.66C60.1768 1079.88 58.5628 1083.66 59.3086 1087.41C60.0545 1091.16 63.7105 1093.38 67.4643 1092.93C72.5142 1092.31 75.4243 1088.16 79.4593 1085.59C81.4402 1084.33 79.6061 1081.13 77.613 1082.41C74.2749 1084.55 71.4994 1088.53 67.4276 1089.24C65.8381 1089.51 64.065 1089.19 63.2458 1087.66C62.4755 1086.21 62.8057 1084.35 63.2336 1082.85C65.0433 1076.54 72.1596 1066.64 79.7528 1071.05L79.0925 1068.53C77.772 1071.68 76.9161 1074.89 76.6348 1078.3C76.378 1081.4 76.4515 1084.99 77.5275 1087.95C79.9607 1094.62 87.505 1092.85 91.8335 1089.25C100.784 1081.83 101.053 1066.75 92.9217 1058.63C88.5932 1054.32 82.3817 1052.76 76.4392 1053.03C70.081 1053.31 63.4171 1055.27 58.2693 1059.11C48.1695 1066.65 45.1738 1080.51 50.1503 1091.89C52.8526 1098.11 58.0614 1104.28 64.7254 1106.28C72.3308 1108.56 80.193 1104.99 86.9181 1101.71C89.0457 1100.68 87.1871 1097.49 85.0718 1098.53V1098.54Z" fill="black"/>
<path d="M6.72308 1121.12C6.14795 1118.22 5.49939 1115.32 5.03438 1112.4C4.38583 1108.25 3.73725 1104.1 2.72159 1100.02C2.33001 1098.44 1.87725 1096.87 1.80382 1095.25C1.75488 1094.16 1.87723 1093.06 2.17092 1092.01C2.2321 1091.78 2.31776 1091.53 2.47684 1091.35C3.06421 1090.65 4.19003 1091.14 4.94872 1091.66C8.889 1094.37 13.2086 1096.21 17.2713 1098.61C21.6399 1101.2 25.9717 1103.83 30.2913 1106.5C39.885 1112.46 49.3442 1118.65 58.6442 1125.06C59.3295 1125.53 60.027 1126.02 60.5532 1126.68C61.3119 1127.63 61.6422 1128.87 61.7524 1130.09C62.1684 1134.99 59.3417 1139.5 56.5884 1143.55C53.1743 1148.56 49.6868 1153.53 46.1258 1158.45C42.9198 1162.88 40.0563 1167.87 36.0304 1171.56C35.027 1172.49 34.0113 1173.41 33.0079 1174.34C30.4504 1176.68 27.8684 1179.05 24.8337 1180.72C22.8635 1181.81 20.3916 1182.57 18.446 1181.44C16.1699 1180.12 15.8518 1177.01 15.5826 1174.39C14.7994 1166.77 12.8905 1159.16 11.5444 1151.62C9.96586 1142.87 8.76664 1134.06 7.48176 1125.28C7.27374 1123.89 7.02895 1122.5 6.7475 1121.12H6.72308Z" fill="#4F5E40"/>
<path d="M151.802 1093.43C150.469 1084.54 149.403 1075.6 146.93 1066.98C146.688 1066.13 146.397 1065.22 145.73 1064.64C144.724 1063.74 143.137 1063.87 141.985 1064.54C140.834 1065.21 140.022 1066.34 139.234 1067.42C134.265 1074.34 129.151 1081.09 124.048 1087.93C117.54 1096.66 111.238 1105.55 105.153 1114.6C104.705 1115.27 104.244 1115.94 104.002 1116.72C103.651 1117.86 103.784 1119.12 104.099 1120.29C105.396 1124.98 109.444 1128.24 113.274 1131.09C120.691 1136.62 128.229 1141.97 135.865 1147.16C139.222 1149.43 142.616 1151.69 146.227 1153.49C148.748 1154.75 151.451 1155.54 154.263 1155.82C156.226 1156.02 159.68 1156.39 161.207 1154.71C161.753 1154.11 161.813 1153.22 161.789 1152.41C161.716 1149.64 160.989 1146.94 160.383 1144.23C159.838 1141.82 159.826 1139.39 159.45 1136.97C159.05 1134.41 158.65 1131.85 158.238 1129.29C157.644 1125.49 156.856 1121.74 156.238 1117.95C155.559 1113.79 153.778 1110.1 153.741 1105.82C153.717 1101.78 152.384 1097.45 151.778 1093.43H151.802Z" fill="#4F5E40"/>
<path d="M20.3845 1041.72L110.619 1025.71C117.241 1024.53 123.562 1028.95 124.737 1035.57L135.697 1097.35C136.872 1103.97 132.456 1110.29 125.834 1111.47L35.5993 1127.48C28.9768 1128.65 22.6557 1124.24 21.4809 1117.61L10.5207 1055.83C9.3458 1049.21 13.762 1042.89 20.3845 1041.72Z" fill="#F3EFEA" stroke="#D6D1BE"/>
<path d="M85.0718 1098.54C79.9852 1101.02 74.3973 1103.66 68.5893 1103.27C63.1481 1102.9 58.685 1098.9 55.7627 1094.53C50.0525 1085.99 49.8324 1074.67 56.1173 1066.34C59.3209 1062.09 64.004 1059.42 69.0417 1057.98C74.0793 1056.54 79.2393 1056.09 84.1302 1057.59C93.6309 1060.51 97.5437 1071.93 93.6676 1080.73C92.616 1083.11 91.0143 1085.35 88.9112 1086.91C87.1871 1088.17 83.8123 1089.99 81.8682 1088.2C79.924 1086.4 80.1563 1082.24 80.2174 1079.91C80.303 1076.65 81 1073.4 82.2595 1070.39C82.6385 1069.48 82.5529 1068.42 81.5991 1067.87C78.0532 1065.8 73.8103 1066.07 70.2032 1067.84C66.5961 1069.61 63.8695 1073.14 61.9375 1076.66C60.1768 1079.88 58.5628 1083.66 59.3086 1087.41C60.0545 1091.16 63.7105 1093.38 67.4643 1092.93C72.5142 1092.31 75.4243 1088.16 79.4593 1085.59C81.4402 1084.33 79.6061 1081.13 77.613 1082.41C74.2749 1084.55 71.4994 1088.53 67.4276 1089.24C65.8381 1089.51 64.065 1089.19 63.2458 1087.66C62.4755 1086.21 62.8057 1084.35 63.2336 1082.85C65.0433 1076.54 72.1596 1066.64 79.7528 1071.05L79.0925 1068.53C77.772 1071.68 76.9161 1074.89 76.6348 1078.3C76.378 1081.4 76.4515 1084.99 77.5275 1087.95C79.9607 1094.62 87.505 1092.85 91.8335 1089.25C100.784 1081.83 101.053 1066.75 92.9217 1058.63C88.5932 1054.32 82.3817 1052.76 76.4392 1053.03C70.081 1053.31 63.4171 1055.27 58.2693 1059.11C48.1695 1066.65 45.1738 1080.51 50.1503 1091.89C52.8526 1098.11 58.0614 1104.28 64.7254 1106.28C72.3308 1108.56 80.193 1104.99 86.9181 1101.71C89.0457 1100.68 87.1871 1097.49 85.0718 1098.53V1098.54Z" fill="black"/>
<path d="M6.72308 1121.12C6.14795 1118.22 5.49939 1115.32 5.03438 1112.4C4.38583 1108.25 3.73725 1104.1 2.72159 1100.02C2.33001 1098.44 1.87725 1096.87 1.80382 1095.25C1.75488 1094.16 1.87723 1093.06 2.17092 1092.01C2.2321 1091.78 2.31776 1091.53 2.47684 1091.35C3.06421 1090.65 4.19003 1091.14 4.94872 1091.66C8.889 1094.37 13.2086 1096.21 17.2713 1098.61C21.6399 1101.2 25.9717 1103.83 30.2913 1106.5C39.885 1112.46 49.3442 1118.65 58.6442 1125.06C59.3295 1125.53 60.027 1126.02 60.5532 1126.68C61.3119 1127.63 61.6422 1128.87 61.7524 1130.09C62.1684 1134.99 59.3417 1139.5 56.5884 1143.55C53.1743 1148.56 49.6868 1153.53 46.1258 1158.45C42.9198 1162.88 40.0563 1167.87 36.0304 1171.56C35.027 1172.49 34.0113 1173.41 33.0079 1174.34C30.4504 1176.68 27.8684 1179.05 24.8337 1180.72C22.8635 1181.81 20.3916 1182.57 18.446 1181.44C16.1699 1180.12 15.8518 1177.01 15.5826 1174.39C14.7994 1166.77 12.8905 1159.16 11.5444 1151.62C9.96586 1142.87 8.76664 1134.06 7.48176 1125.28C7.27374 1123.89 7.02895 1122.5 6.7475 1121.12H6.72308Z" fill="#4F5E40"/>
<path d="M151.802 1093.43C150.469 1084.54 149.403 1075.6 146.93 1066.98C146.688 1066.13 146.397 1065.22 145.73 1064.64C144.724 1063.74 143.137 1063.87 141.985 1064.54C140.834 1065.21 140.022 1066.34 139.234 1067.42C134.265 1074.34 129.151 1081.09 124.048 1087.93C117.54 1096.66 111.238 1105.55 105.153 1114.6C104.705 1115.27 104.244 1115.94 104.002 1116.72C103.651 1117.86 103.784 1119.12 104.099 1120.29C105.396 1124.98 109.444 1128.24 113.274 1131.09C120.691 1136.62 128.229 1141.97 135.865 1147.16C139.222 1149.43 142.616 1151.69 146.227 1153.49C148.748 1154.75 151.451 1155.54 154.263 1155.82C156.226 1156.02 159.68 1156.39 161.207 1154.71C161.753 1154.11 161.813 1153.22 161.789 1152.41C161.716 1149.64 160.989 1146.94 160.383 1144.23C159.838 1141.82 159.826 1139.39 159.45 1136.97C159.05 1134.41 158.65 1131.85 158.238 1129.29C157.644 1125.49 156.856 1121.74 156.238 1117.95C155.559 1113.79 153.778 1110.1 153.741 1105.82C153.717 1101.78 152.384 1097.45 151.778 1093.43H151.802Z" fill="#4F5E40"/>
<path d="M1197.29 1413.15C1195.93 1413.21 1194.57 1413.19 1193.21 1413.1C1186.66 1412.67 1179.96 1410.16 1175.91 1404.99C1172.92 1401.17 1171.63 1396.32 1170.54 1391.61C1164.52 1365.69 1161.98 1339.15 1158.79 1312.77C1155.98 1289.57 1150.8 1267.18 1146.82 1244.28C1144.03 1228.23 1145.73 1212.59 1163.55 1207.27C1182.45 1201.63 1201.99 1198.12 1221.65 1196.81C1226.08 1196.53 1230.95 1196.47 1234.39 1199.25C1237.59 1201.85 1238.65 1206.16 1240.53 1209.83C1244.26 1217.16 1251.63 1222.19 1259.55 1224.47C1267.47 1226.74 1275.92 1226.53 1284.11 1225.38C1296 1223.7 1307.51 1220.11 1319.08 1216.89C1343.98 1209.96 1369.36 1204.73 1394.95 1201.22C1397.59 1200.86 1400.36 1200.54 1402.82 1201.56C1407.45 1203.51 1408.87 1209.24 1409.69 1214.19C1416.46 1254.57 1423.23 1294.94 1430 1335.33C1431.15 1342.21 1432.31 1349.16 1431.83 1356.11C1431.56 1359.96 1430.68 1364.01 1428.02 1366.82C1425.17 1369.79 1420.89 1370.78 1416.86 1371.62C1403.3 1374.45 1389.72 1377.19 1376.15 1379.91C1375.04 1380.11 1373.94 1380.36 1372.83 1380.57C1345.25 1386.11 1317.67 1391.62 1289.94 1396.37C1277.75 1398.47 1265.8 1399.16 1253.77 1401.78C1240.08 1404.75 1226.4 1407.74 1212.72 1410.72C1207.65 1411.83 1202.51 1412.94 1197.33 1413.13L1197.29 1413.15Z" fill="#4F5E40"/>
<path d="M1193.59 1175.35L1346.92 1148.15L1382.25 1347.33L1228.93 1374.53L1193.59 1175.35Z" fill="#B3B3B3" stroke="#D6D1BE" stroke-width="0.1"/>
<path d="M1189.12 1170.67L1342.44 1143.47L1377.78 1342.65L1224.45 1369.85L1189.12 1170.67Z" fill="#CCCCCC" stroke="#D6D1BE" stroke-width="0.1"/>
<path d="M1184.65 1166.03L1337.97 1138.82L1373.31 1338L1219.98 1365.2L1184.65 1166.03Z" fill="#E6E6E6" stroke="#D6D1BE" stroke-width="0.1"/>
<path d="M1178.41 1161.67L1331.74 1134.46L1367.07 1333.64L1213.75 1360.84L1178.41 1161.67Z" fill="#F3EFEA" stroke="#D6D1BE" stroke-width="0.1"/>
<path d="M1256.38 1160.51L1191.13 1172.09L1191.76 1175.61L1257.01 1164.04L1256.38 1160.51Z" fill="#CCCCCC"/>
<path d="M1297.07 1164.2L1193.02 1182.66L1193.65 1186.19L1297.69 1167.73L1297.07 1164.2Z" fill="#CCCCCC"/>
<path d="M1298.94 1174.8L1194.89 1193.26L1195.52 1196.78L1299.57 1178.33L1298.94 1174.8Z" fill="#CCCCCC"/>
<path d="M1340.25 1212.93L1236.2 1231.39L1236.83 1234.92L1340.88 1216.46L1340.25 1212.93Z" fill="#CCCCCC"/>
<path d="M1341.52 1219.99L1237.47 1238.44L1238.1 1241.97L1342.14 1223.51L1341.52 1219.99Z" fill="#CCCCCC"/>
<path d="M1249.67 1194.45L1196.77 1203.84L1197.39 1207.37L1250.3 1197.98L1249.67 1194.45Z" fill="#CCCCCC"/>
<path d="M1199.62 1407.87C1191.97 1408.51 1184.17 1407.39 1178.77 1400.76C1175.87 1397.18 1174.64 1392.61 1173.6 1388.15C1167.87 1363.72 1165.56 1338.68 1162.6 1313.8C1160.01 1291.92 1155.08 1270.82 1151.32 1249.22C1148.69 1234.08 1150.44 1219.31 1167.92 1214.17C1186.44 1208.72 1205.59 1205.29 1224.84 1203.92C1229.17 1203.62 1233.94 1203.55 1237.29 1206.14C1240.4 1208.56 1241.43 1212.65 1243.22 1216.09C1246.82 1222.96 1254 1227.67 1261.74 1229.79C1269.47 1231.88 1277.75 1231.63 1285.75 1230.48C1297.4 1228.82 1308.7 1225.36 1320.03 1222.25C1344.45 1215.55 1369.31 1210.44 1394.38 1206.99C1396.96 1206.63 1399.68 1206.31 1402.06 1207.26C1406.59 1209.06 1407.94 1214.47 1408.73 1219.13C1415.1 1257.21 1421.46 1295.28 1427.84 1333.36C1428.93 1339.85 1430 1346.4 1429.5 1352.97C1429.22 1356.61 1428.34 1360.44 1425.69 1363.11C1422.89 1365.92 1418.68 1366.89 1414.73 1367.71C1401.45 1370.47 1388.15 1373.14 1374.84 1375.79C1373.75 1375.99 1372.67 1376.22 1371.6 1376.44C1348.89 1380.97 1326.16 1385.5 1303.38 1389.58C1280.83 1393.63 1258.82 1399.43 1236.03 1402.69C1224.97 1404.29 1213.9 1405.86 1202.85 1407.46C1201.77 1407.62 1200.7 1407.74 1199.62 1407.83V1407.87Z" fill="#3C4A30"/>
<path d="M1201.02 1411.15C1193.19 1411.76 1185.56 1410.75 1180.21 1404.25C1177.31 1400.74 1176.11 1396.25 1175.07 1391.88C1169.43 1367.88 1167.19 1343.28 1164.3 1318.85C1161.78 1297.36 1156.91 1276.64 1153.23 1255.43C1150.66 1240.57 1152.46 1226.04 1169.93 1220.96C1188.46 1215.55 1207.59 1212.11 1226.85 1210.71C1231.18 1210.41 1235.94 1210.32 1239.28 1212.86C1242.39 1215.24 1243.38 1219.24 1245.19 1222.62C1248.77 1229.37 1255.93 1233.98 1263.65 1236.02C1271.37 1238.06 1279.65 1237.77 1287.65 1236.63C1299.29 1234.96 1310.6 1231.52 1321.93 1228.43C1346.34 1221.76 1371.2 1216.68 1396.28 1213.2C1398.86 1212.84 1401.58 1212.52 1403.96 1213.45C1408.48 1215.23 1409.82 1220.53 1410.59 1225.09C1416.84 1262.49 1423.07 1299.89 1429.32 1337.28C1430.38 1343.66 1431.45 1350.09 1430.93 1356.56C1430.65 1360.14 1429.75 1363.9 1427.1 1366.51C1424.29 1369.29 1420.08 1370.26 1416.14 1371.08C1402.85 1373.84 1389.56 1376.49 1376.25 1379.14C1375.16 1379.34 1374.09 1379.57 1373.01 1379.79C1350.3 1384.32 1327.57 1388.83 1304.77 1392.91C1294.69 1394.72 1284.66 1396.89 1274.63 1399.02C1264.6 1401.15 1255.5 1403.05 1245.89 1404.68C1236.27 1406.31 1227.35 1407.51 1218 1408.67C1212.79 1409.32 1206.84 1410.68 1201.02 1411.13V1411.15Z" fill="#6E7F59"/>
<path d="M1291 1337.39L1190.2 1355.27C1186.38 1355.95 1183.83 1359.59 1184.51 1363.41L1188.94 1388.38C1189.62 1392.2 1193.26 1394.75 1197.08 1394.07L1297.88 1376.19C1301.7 1375.51 1304.24 1371.87 1303.57 1368.05L1299.14 1343.08C1298.46 1339.26 1294.82 1336.71 1291 1337.39Z" fill="#F3EFEA"/>
<path d="M1254.75 1349.28L1189.5 1360.85L1189.96 1363.44L1255.21 1351.87L1254.75 1349.28Z" fill="#CCCCCC"/>
<path d="M1295.01 1350.66L1190.97 1369.12L1191.43 1371.71L1295.47 1353.25L1295.01 1350.66Z" fill="#CCCCCC"/>
<path d="M1296.39 1358.45L1192.34 1376.91L1192.8 1379.5L1296.85 1361.04L1296.39 1358.45Z" fill="#CCCCCC"/>
<path d="M1246.64 1375.31L1193.73 1384.7L1194.19 1387.29L1247.1 1377.9L1246.64 1375.31Z" fill="#CCCCCC"/>
<path opacity="0.5" d="M358.61 1247.57L254.066 1277.53C230.636 1284.24 217.085 1308.68 223.799 1332.11L248.823 1419.44C255.537 1442.87 279.974 1456.42 303.404 1449.7L407.948 1419.75C431.378 1413.03 444.929 1388.6 438.215 1365.17L413.191 1277.84C406.477 1254.41 382.04 1240.86 358.61 1247.57Z" fill="#4F5E40"/>
<path d="M289.867 1389.94C288.936 1393.7 288.004 1397.5 287.682 1401.37C287.395 1404.61 287.879 1408.5 290.727 1410.09C291.855 1410.72 293.216 1410.88 294.506 1410.68C298.858 1410.02 301.742 1405.85 303.479 1401.82C305.234 1397.77 306.38 1393.49 307.545 1389.24C307.616 1388.96 307.688 1388.67 307.634 1388.38C307.545 1388.04 307.276 1387.77 306.971 1387.58C305.825 1386.81 304.392 1386.66 303.013 1386.59C301.061 1386.48 299.109 1386.48 297.157 1386.59C294.542 1386.72 291.586 1387.24 290.136 1389.4" fill="#BAB25E"/>
<path d="M333.586 1310.22C345.3 1320.13 357.031 1330.01 368.744 1339.92C369.156 1340.28 369.604 1340.63 370.141 1340.76C370.822 1340.92 371.538 1340.69 372.201 1340.44C377.001 1338.72 381.944 1337.41 386.959 1336.48C391.114 1335.73 396.111 1335.53 398.816 1338.77C401.663 1342.19 400.087 1347.74 396.684 1350.61C393.281 1353.48 388.678 1354.37 384.29 1355.18C387.407 1358.79 390.505 1362.43 393.622 1366.05C395.359 1368.07 397.132 1370.15 398.099 1372.64C399.066 1375.13 399.084 1378.16 397.472 1380.29C395.287 1383.17 390.828 1383.42 387.568 1381.85C384.308 1380.27 381.926 1377.37 379.58 1374.59C370.535 1363.86 360.434 1353.99 349.383 1345.33C345.425 1342.23 341.323 1339.25 337.885 1335.6C334.446 1331.95 331.652 1327.45 330.953 1322.47C330.38 1318.5 331.186 1314.43 332.655 1310.69" fill="#BAB25E"/>
<path d="M314.691 1357.99C319.455 1357.33 324.004 1355.57 328.607 1354.16C333.21 1352.74 338.064 1351.65 342.828 1352.35C347.592 1353.05 352.303 1355.86 354.094 1360.32C354.326 1360.89 354.505 1361.5 354.38 1362.09C354.076 1363.52 352.32 1363.99 350.87 1364.2C326.565 1367.93 303.73 1378.01 279.784 1383.64C276.166 1384.48 271.312 1384.68 269.807 1381.25C269.252 1379.98 269.378 1378.5 269.79 1377.17C271.706 1371.1 278.637 1368.41 284.727 1366.55C286.984 1365.87 289.222 1365.17 291.479 1364.49C292.518 1364.17 293.61 1363.83 294.434 1363.11C295.491 1362.18 295.974 1360.76 296.386 1359.4C301.151 1344.04 304.697 1328.31 306.989 1312.39C307.133 1311.33 307.276 1310.26 306.989 1309.24C306.739 1308.31 306.148 1307.52 305.539 1306.78C302.368 1302.9 298.195 1299.74 295.975 1295.27C293.754 1290.79 294.524 1284.14 299.18 1282.32C301.706 1281.33 304.643 1282.08 306.882 1283.59C309.121 1285.09 310.822 1287.28 312.47 1289.43C313.759 1285.2 315.371 1280.81 318.739 1277.95C322.106 1275.08 327.783 1274.45 330.721 1277.77C333.855 1281.3 332.368 1286.78 330.792 1291.24C323.395 1312.08 317.789 1333.59 314.118 1355.41" fill="#BAB25E"/>
<path d="M232.841 58.1051L120.029 158.723L214.125 264.223L326.937 163.605L232.841 58.1051Z" fill="#BAB25E"/>
<path d="M131.833 101.668L264.663 15.6046C268.465 13.1407 273.545 14.2261 276.009 18.0288L378.628 176.411C381.092 180.214 380.007 185.294 376.204 187.758L243.375 273.821C239.572 276.285 234.492 275.199 232.028 271.397L129.409 113.014C126.945 109.211 128.03 104.131 131.833 101.668Z" fill="#E6E6E6" stroke="#D6D1BE"/>
<path d="M269.956 28.2455L140.267 112.273L215.53 228.433L345.218 144.406L269.956 28.2455Z" fill="#7E2512"/>
<path d="M192.62 94.5589L340.312 37.6582C344.54 36.0293 349.289 38.1364 350.918 42.3646L418.764 218.468C420.393 222.696 418.286 227.445 414.058 229.074L266.366 285.974C262.138 287.603 257.39 285.496 255.761 281.268L187.914 105.164C186.285 100.936 188.392 96.1879 192.62 94.5589Z" fill="#F3EFEA" stroke="#D6D1BE"/>
<path d="M343.913 52.6569L199.714 108.212L249.474 237.369L393.673 181.814L343.913 52.6569Z" fill="#6E7F59"/>
<mask id="mask0_193_3069" style="mask-type:luminance" maskUnits="userSpaceOnUse" x="227" y="124" width="170" height="116">
<path d="M229.545 181.512C236.745 166.7 244.733 152.301 253.473 138.348C257.306 132.241 262.106 125.65 269.216 124.504C273.318 123.841 277.491 125.148 281.288 126.886C287.449 129.716 293.019 133.656 298.536 137.578C306.81 143.453 315.067 149.327 323.342 155.202C324.577 156.08 325.939 156.993 327.461 156.921C328.482 156.868 329.413 156.348 330.273 155.793C337.938 150.76 341.556 141.286 348.703 135.554C350.153 134.39 351.801 133.387 353.628 133.172C355.276 132.975 356.941 133.459 358.517 133.978C371.61 138.384 383.18 147.178 390.935 158.623C393.622 162.599 395.896 167.005 396.272 171.787C396.774 178.181 393.765 184.414 389.717 189.393C384.093 196.306 376.482 201.339 368.547 205.405C333.712 223.279 292.589 223.906 255.927 237.643C253.778 238.449 251.521 239.309 249.246 239.005C247.384 238.754 245.718 237.751 244.249 236.587C237.085 230.909 233.897 221.631 231.999 212.694C229.867 202.682 228.9 192.473 227.951 182.282" fill="white"/>
</mask>
<g mask="url(#mask0_193_3069)">
<path d="M343.489 51.8558L199.291 107.411L249.051 236.568L393.249 181.013L343.489 51.8558Z" fill="#3C4A30"/>
</g>
<path d="M327.873 104.229C335.292 104.229 341.306 98.2152 341.306 90.7965C341.306 83.3778 335.292 77.3637 327.873 77.3637C320.454 77.3637 314.44 83.3778 314.44 90.7965C314.44 98.2152 320.454 104.229 327.873 104.229Z" fill="#BAB25E"/>
<path d="M1453.73 625.4L1453.73 625.4L1360.61 602.493C1358.01 601.851 1356.57 599.492 1357.26 597.27L1357.26 597.268L1386.78 500.588L1386.78 500.587C1387.46 498.337 1390.09 496.951 1392.7 497.596L1392.7 497.596L1485.82 520.503C1488.42 521.145 1489.86 523.504 1489.17 525.726L1489.17 525.728L1459.65 622.408L1459.65 622.409C1458.97 624.659 1456.34 626.045 1453.73 625.4Z" fill="#E6E6E6" stroke="#D6D1BE"/>
<path d="M1459.14 599.808L1370.22 577.94L1393.02 503.254L1481.94 525.14L1459.14 599.808Z" fill="#BAB25E"/>
<path d="M1375.06 594.025L1463.18 629.451L1375.06 594.025ZM1375.06 594.025C1372.63 593.045 1371.6 590.532 1372.65 588.408C1372.65 588.407 1372.65 588.407 1372.65 588.407L1419.7 494.056C1420.77 491.916 1423.62 490.908 1426.09 491.897C1426.09 491.897 1426.09 491.897 1426.09 491.897L1514.21 527.323C1514.21 527.323 1514.21 527.323 1514.21 527.323C1516.64 528.303 1517.67 530.817 1516.62 532.942L1469.57 627.292C1469.57 627.292 1469.57 627.292 1469.57 627.292C1468.5 629.433 1465.65 630.441 1463.18 629.452L1375.06 594.025Z" fill="#E6E6E6" stroke="#D6D1BE"/>
<path d="M1475.05 602.495L1389.02 567.91L1423.52 498.722L1509.54 533.307L1475.05 602.495Z" fill="#7E2512"/>
<path d="M1376.49 608.219L1376.49 608.219L1454.61 659.155L1376.49 608.219ZM1376.49 608.219C1374.36 606.83 1373.9 604.176 1375.43 602.289L1443.07 518.649L1443.07 518.648M1376.49 608.219L1443.07 518.648M1443.07 518.648C1444.62 516.729 1447.65 516.287 1449.83 517.697C1449.83 517.697 1449.83 517.697 1449.83 517.697L1527.95 568.633L1527.95 568.633M1443.07 518.648L1527.95 568.633M1527.95 568.633C1530.08 570.022 1530.54 572.677 1529.02 574.563L1461.37 658.204L1461.37 658.204M1527.95 568.633L1461.37 658.204M1461.37 658.204C1459.82 660.124 1456.8 660.565 1454.62 659.156L1461.37 658.204Z" fill="#F3EFEA" stroke="#D6D1BE"/>
<path d="M1471.95 635.915L1395.69 586.178L1445.3 524.836L1521.56 574.573L1471.95 635.915Z" fill="#6E7F59"/>
<mask id="mask1_193_3069" style="mask-type:luminance" maskUnits="userSpaceOnUse" x="1394" y="558" width="93" height="79">
<path d="M1417.68 560.388C1427.64 559.277 1437.67 558.668 1447.72 558.543C1452.12 558.489 1457.07 558.722 1460.04 561.659C1461.74 563.343 1462.46 565.653 1462.83 567.91C1463.42 571.582 1463.26 575.325 1463.08 579.032C1462.82 584.584 1462.55 590.137 1462.3 595.689C1462.26 596.513 1462.24 597.426 1462.78 598.089C1463.14 598.537 1463.71 598.823 1464.28 599.038C1469.41 601.062 1475.44 599.898 1480.76 601.492C1481.84 601.814 1482.89 602.262 1483.63 603.05C1484.27 603.749 1484.58 604.662 1484.83 605.54C1486.92 612.865 1486.24 620.817 1482.96 627.784C1481.82 630.202 1480.31 632.566 1478 634.16C1474.89 636.292 1470.71 636.775 1466.81 636.399C1461.4 635.88 1456.3 633.874 1451.59 631.438C1430.88 620.745 1416.91 602.029 1397.73 589.277C1396.6 588.525 1395.42 587.755 1394.81 586.608C1394.33 585.677 1394.29 584.62 1394.4 583.599C1394.93 578.62 1398.62 574.393 1402.56 570.847C1406.97 566.889 1411.9 563.397 1416.79 559.94" fill="white"/>
</mask>
<g mask="url(#mask1_193_3069)">
<path d="M1472.24 635.486L1395.97 585.749L1445.59 524.406L1521.85 574.143L1472.24 635.486Z" fill="#3C4A30"/>
</g>
<path d="M1496.74 585.928C1501.26 585.928 1504.92 582.632 1504.92 578.567C1504.92 574.501 1501.26 571.205 1496.74 571.205C1492.22 571.205 1488.55 574.501 1488.55 578.567C1488.55 582.632 1492.22 585.928 1496.74 585.928Z" fill="#BAB25E"/>
<path d="M706.969 34.2182L649.632 20.8649C637.234 17.9774 624.842 25.6877 621.954 38.0864L608.601 95.4232C605.714 107.822 613.424 120.214 625.822 123.101L683.159 136.455C695.558 139.342 707.95 131.632 710.838 119.233L724.191 61.8964C727.078 49.4977 719.368 37.1057 706.969 34.2182Z" fill="#3C4A30"/>
<path opacity="0.5" d="M704.318 43.3941L647.958 30.2684C635.29 27.318 622.628 35.1961 619.678 47.8645L608.718 94.9272C605.767 107.596 613.645 120.257 626.314 123.208L682.674 136.333C695.342 139.284 708.004 131.406 710.954 118.737L721.915 71.6745C724.865 59.0061 716.987 46.3445 704.318 43.3941Z" fill="#4F5E40"/>
<path d="M635.411 91.8353C633.996 93.3577 632.599 94.8621 631.435 96.5815C630.468 98.0144 629.68 99.9487 630.593 101.435C630.952 102.026 631.561 102.438 632.205 102.689C634.408 103.513 636.826 102.313 638.689 100.88C640.552 99.4472 642.199 97.7636 643.829 96.08C643.937 95.9726 644.044 95.8472 644.098 95.7039C644.151 95.5248 644.098 95.3278 644.008 95.1487C643.668 94.486 643.041 94.0562 642.414 93.6621C641.537 93.1069 640.623 92.6054 639.692 92.1398C638.438 91.5308 636.934 90.9935 635.698 91.6383" fill="#BAB25E"/>
<path d="M676.426 66.0623L685.095 88.9875C685.202 89.2562 685.309 89.5428 685.524 89.7398C685.793 89.9905 686.187 90.0622 686.563 90.1159C689.25 90.5636 691.883 91.2263 694.462 92.1039C696.593 92.8204 698.975 94.0383 699.387 96.2412C699.817 98.5696 697.65 100.737 695.321 101.202C692.993 101.668 690.611 100.88 688.372 100.11C688.874 102.599 689.393 105.089 689.894 107.578C690.181 108.975 690.468 110.39 690.271 111.805C690.074 113.22 689.303 114.635 687.996 115.208C686.223 115.978 684.092 114.94 682.981 113.364C681.871 111.787 681.512 109.817 681.136 107.919C679.703 100.576 677.554 93.3577 674.653 86.4622C673.614 83.9906 672.468 81.5547 671.823 78.9577C671.178 76.3607 671.035 73.5488 671.984 71.0593C672.754 69.0712 674.169 67.3698 675.817 66.0086" fill="#BAB25E"/>
<path d="M655.238 83.3995C657.638 84.3308 660.199 84.689 662.707 85.2264C665.214 85.7637 667.757 86.5159 669.799 88.0741C671.841 89.6323 673.309 92.1577 672.969 94.7009C672.933 95.0233 672.844 95.3636 672.647 95.5964C672.127 96.1875 671.196 95.9367 670.462 95.6681C658.193 91.101 644.939 89.883 632.331 86.2831C630.414 85.7458 628.122 84.5637 628.301 82.5935C628.372 81.8592 628.802 81.1965 629.34 80.695C631.811 78.3667 635.734 78.9219 639.047 79.6204C640.265 79.8891 641.501 80.1398 642.719 80.4085C643.292 80.5339 643.883 80.6592 644.456 80.5339C645.19 80.3727 645.781 79.8353 646.319 79.3159C652.516 73.4055 658.247 66.9936 663.441 60.1877C663.781 59.7399 664.139 59.2743 664.265 58.7191C664.39 58.2176 664.318 57.6982 664.229 57.1967C663.763 54.5639 662.635 52.0206 662.76 49.3519C662.886 46.6833 664.963 43.7997 667.614 44.158C669.047 44.355 670.211 45.4654 670.874 46.755C671.536 48.0445 671.751 49.4952 671.966 50.9281C673.668 49.2982 675.548 47.6684 677.859 47.2027C680.169 46.737 682.963 47.9191 683.483 50.2296C684.038 52.6833 681.906 54.8504 680.026 56.5161C671.178 64.3071 662.993 72.8682 655.632 82.0741" fill="#BAB25E"/>
<path d="M39.9283 546.328C39.4805 546.113 39.0507 545.898 38.6208 545.63C36.597 544.412 34.8597 542.495 34.4119 540.203C34.0895 538.501 34.4657 536.764 34.8955 535.098C37.2418 525.946 40.8238 517.17 44.1551 508.34C47.0924 500.567 49.1342 492.669 51.6417 484.788C53.3969 479.272 56.5312 474.633 63.1222 475.922C70.1072 477.284 76.9669 479.415 83.4862 482.281C84.9549 482.925 86.531 483.713 87.1579 485.164C87.7668 486.507 87.3907 488.048 87.3728 489.516C87.3728 492.436 88.8952 495.248 91.0623 497.29C93.2295 499.331 95.9697 500.657 98.7817 501.66C102.865 503.11 107.164 503.881 111.408 504.794C120.543 506.746 129.534 509.307 138.328 512.46C139.223 512.782 140.172 513.14 140.799 513.874C141.964 515.254 141.48 517.295 140.925 518.997C136.411 532.824 131.916 546.668 127.402 560.495C126.632 562.859 125.862 565.223 124.555 567.337C123.838 568.501 122.889 569.629 121.564 570.077C120.167 570.543 118.626 570.131 117.194 569.737C112.376 568.376 107.576 566.979 102.776 565.582C102.382 565.456 101.988 565.349 101.612 565.241C91.8504 562.412 82.0892 559.546 72.4177 556.447C68.155 555.086 64.2147 553.313 59.9162 552.149C55.0446 550.806 50.1551 549.48 45.2835 548.137C43.4746 547.635 41.6477 547.134 39.9462 546.346L39.9283 546.328Z" fill="#4F5E40"/>
<path d="M78.1055 470.893L131.72 487.777L110.15 556.271L56.5358 539.387L78.1055 470.893Z" fill="#B3B3B3" stroke="#D6D1BE" stroke-width="0.1"/>
<path d="M77.442 468.665L131.056 485.549L109.487 554.043L55.8723 537.159L77.442 468.665Z" fill="#CCCCCC" stroke="#D6D1BE" stroke-width="0.1"/>
<path d="M76.7732 466.472L130.388 483.356L108.818 551.85L55.2034 534.966L76.7732 466.472Z" fill="#E6E6E6" stroke="#D6D1BE" stroke-width="0.1"/>
<path d="M75.4931 464.07L129.108 480.954L107.538 549.448L53.9233 532.564L75.4931 464.07Z" fill="#F3EFEA" stroke="#D6D1BE" stroke-width="0.1"/>
<path d="M100.665 476.617L77.8243 469.424L77.4423 470.637L100.283 477.83L100.665 476.617Z" fill="#CCCCCC"/>
<path d="M113.102 484.516L76.6801 473.046L76.2981 474.259L112.72 485.728L113.102 484.516Z" fill="#CCCCCC"/>
<path d="M111.95 488.176L75.528 476.706L75.1461 477.919L111.568 489.389L111.95 488.176Z" fill="#CCCCCC"/>
<path d="M118.895 507.034L82.4735 495.564L82.0916 496.777L118.513 508.247L118.895 507.034Z" fill="#CCCCCC"/>
<path d="M118.144 509.471L81.7228 498.002L81.3409 499.215L117.762 510.684L118.144 509.471Z" fill="#CCCCCC"/>
<path d="M92.9006 486.171L74.3823 480.339L74.0004 481.552L92.5186 487.384L92.9006 486.171Z" fill="#CCCCCC"/>
<path d="M41.5581 545.039C38.9969 543.982 36.6865 542.316 36.0417 539.343C35.7014 537.731 36.0596 536.083 36.4716 534.507C38.6745 525.874 42.0775 517.6 45.2297 509.272C48.0058 501.946 49.9222 494.496 52.2864 487.081C53.9521 481.887 56.9431 477.517 63.4087 478.806C70.2505 480.167 76.9489 482.263 83.3608 485.039C84.7937 485.666 86.334 486.436 86.9787 487.797C87.5877 489.087 87.2295 490.537 87.2295 491.916C87.2295 494.675 88.7698 497.361 90.9011 499.296C93.0324 501.23 95.7369 502.537 98.4951 503.504C102.507 504.919 106.698 505.707 110.853 506.603C119.79 508.555 128.602 511.063 137.217 514.143C138.095 514.466 139.026 514.806 139.635 515.504C140.781 516.83 140.334 518.746 139.814 520.34C135.569 533.379 131.307 546.418 127.062 559.474C126.346 561.695 125.611 563.934 124.358 565.922C123.659 567.014 122.746 568.071 121.456 568.483C120.095 568.913 118.59 568.519 117.176 568.107C112.465 566.764 107.755 565.403 103.044 564.023C102.668 563.898 102.274 563.809 101.898 563.683C93.8563 561.337 85.8325 558.991 77.8445 556.483C69.8564 553.976 61.9222 552.185 54.0774 549.427C50.2625 548.083 46.4476 546.758 42.6506 545.415C42.2924 545.289 41.9163 545.146 41.5581 545.003V545.039Z" fill="#3C4A30"/>
<path d="M41.4507 546.31C38.8358 545.2 36.5611 543.624 35.9164 540.686C35.5761 539.092 35.9164 537.48 36.3104 535.94C38.4596 527.451 41.8089 519.337 44.9253 511.17C47.6656 503.988 49.5282 496.663 51.8566 489.373C53.4864 484.269 56.4595 479.988 62.9073 481.296C69.749 482.675 76.4475 484.77 82.8594 487.528C84.2922 488.155 85.8504 488.907 86.4952 490.269C87.1041 491.54 86.7638 492.955 86.7817 494.316C86.8175 497.039 88.3399 499.672 90.4892 501.606C92.6384 503.54 95.325 504.812 98.0832 505.779C102.095 507.194 106.286 507.982 110.441 508.895C119.379 510.848 128.19 513.391 136.805 516.454C137.683 516.776 138.614 517.116 139.223 517.815C140.387 519.122 139.94 521.021 139.42 522.579C135.247 535.385 131.056 548.191 126.883 560.997C126.167 563.182 125.45 565.385 124.214 567.319C123.534 568.394 122.62 569.432 121.331 569.826C119.97 570.238 118.465 569.826 117.068 569.432C112.358 568.089 107.647 566.728 102.937 565.349C102.561 565.223 102.167 565.134 101.791 565.009C93.7489 562.662 85.725 560.316 77.737 557.809C74.2087 556.698 70.6266 555.713 67.0624 554.728C63.4983 553.743 60.2565 552.812 56.9073 551.737C53.5581 550.662 50.4954 549.552 47.3073 548.37C45.5342 547.707 43.4029 547.152 41.4507 546.328V546.31Z" fill="#6E7F59"/>
<path d="M78.2821 536.677L51.5126 528.247C47.8235 527.085 43.8912 529.134 42.7295 532.823C41.5678 536.512 43.6166 540.444 47.3056 541.606L74.0751 550.036C77.7641 551.198 81.6964 549.149 82.8581 545.46C84.0198 541.771 81.9711 537.839 78.2821 536.677Z" fill="#F3EFEA"/>
<path d="M68.9429 535.742L46.1025 528.549L45.8228 529.438L68.6631 536.63L68.9429 535.742Z" fill="#CCCCCC"/>
<path d="M81.6399 542.862L45.2184 531.392L44.9386 532.281L81.3602 543.75L81.6399 542.862Z" fill="#CCCCCC"/>
<path d="M80.7823 545.548L44.3607 534.078L44.081 534.966L80.5025 546.436L80.7823 545.548Z" fill="#CCCCCC"/>
<path d="M62.0402 542.604L43.522 536.772L43.2422 537.66L61.7605 543.492L62.0402 542.604Z" fill="#CCCCCC"/>
<path d="M1504.08 855.571L1446.74 842.217C1434.34 839.33 1421.95 847.04 1419.06 859.439L1405.71 916.776C1402.82 929.174 1410.53 941.566 1422.93 944.454L1480.27 957.807C1492.66 960.695 1505.06 952.984 1507.94 940.586L1521.3 883.249C1524.18 870.85 1516.47 858.458 1504.08 855.571Z" fill="#3C4A30"/>
<path opacity="0.5" d="M1501.42 864.765L1445.06 851.639C1432.4 848.689 1419.73 856.567 1416.78 869.235L1405.82 916.298C1402.87 928.966 1410.75 941.628 1423.42 944.578L1479.78 957.704C1492.45 960.654 1505.11 952.776 1508.06 940.108L1519.02 893.045C1521.97 880.377 1514.09 867.715 1501.42 864.765Z" fill="#4F5E40"/>
<path d="M1432.56 913.168C1431.15 914.69 1429.75 916.194 1428.59 917.914C1427.62 919.347 1426.83 921.281 1427.75 922.767C1428.1 923.358 1428.71 923.77 1429.36 924.021C1431.56 924.845 1433.98 923.645 1435.84 922.212C1437.7 920.779 1439.35 919.096 1440.98 917.412C1441.09 917.305 1441.2 917.179 1441.25 917.036C1441.3 916.857 1441.25 916.66 1441.16 916.481C1440.82 915.818 1440.19 915.388 1439.57 914.994C1438.69 914.439 1437.78 913.938 1436.85 913.472C1435.59 912.863 1434.09 912.326 1432.85 912.971" fill="#BAB25E"/>
<path d="M1473.58 887.395C1476.46 895.042 1479.36 902.69 1482.25 910.32C1482.36 910.589 1482.46 910.875 1482.68 911.072C1482.95 911.323 1483.34 911.394 1483.72 911.448C1486.4 911.896 1489.04 912.559 1491.61 913.436C1493.75 914.153 1496.13 915.371 1496.54 917.574C1496.97 919.902 1494.8 922.069 1492.47 922.535C1490.15 923 1487.76 922.212 1485.53 921.442C1486.03 923.932 1486.55 926.421 1487.05 928.911C1487.33 930.308 1487.62 931.723 1487.42 933.138C1487.23 934.553 1486.46 935.967 1485.15 936.541C1483.38 937.311 1481.24 936.272 1480.13 934.696C1479.02 933.12 1478.67 931.15 1478.29 929.251C1476.86 921.908 1474.71 914.69 1471.81 907.794C1470.77 905.323 1469.62 902.887 1468.98 900.29C1468.33 897.693 1468.19 894.881 1469.14 892.392C1469.91 890.404 1471.32 888.702 1472.97 887.341" fill="#BAB25E"/>
<path d="M1452.41 904.732C1454.81 905.663 1457.37 906.021 1459.88 906.559C1462.39 907.096 1464.93 907.848 1466.97 909.406C1469.01 910.965 1470.48 913.49 1470.14 916.033C1470.1 916.356 1470.02 916.696 1469.82 916.929C1469.3 917.52 1468.37 917.269 1467.63 917C1455.36 912.433 1442.11 911.215 1429.5 907.615C1427.59 907.078 1425.29 905.896 1425.47 903.926C1425.54 903.191 1425.97 902.529 1426.51 902.027C1428.98 899.699 1432.9 900.254 1436.22 900.953C1437.44 901.221 1438.67 901.472 1439.89 901.741C1440.46 901.866 1441.05 901.991 1441.63 901.866C1442.36 901.705 1442.95 901.168 1443.49 900.648C1449.69 894.738 1455.42 888.326 1460.61 881.52C1460.95 881.072 1461.31 880.607 1461.44 880.051C1461.56 879.55 1461.49 879.03 1461.4 878.529C1460.93 875.896 1459.81 873.353 1459.93 870.684C1460.06 868.016 1462.13 865.132 1464.79 865.49C1466.22 865.687 1467.38 866.798 1468.04 868.087C1468.71 869.377 1468.92 870.828 1469.14 872.26C1470.84 870.63 1472.72 869.001 1475.03 868.535C1477.34 868.069 1480.13 869.251 1480.65 871.562C1481.21 874.016 1479.08 876.183 1477.2 877.848C1468.35 885.639 1460.16 894.201 1452.8 903.406" fill="#BAB25E"/>
<path d="M873.306 1424.2L826.869 1468.71C826.869 1468.71 826.868 1468.71 826.868 1468.71C825.665 1469.85 823.85 1469.75 822.761 1468.44C822.761 1468.44 822.761 1468.44 822.761 1468.44L774.853 1410.76C774.853 1410.76 774.853 1410.76 774.852 1410.76C773.764 1409.43 773.876 1407.42 775.083 1406.24C775.084 1406.24 775.084 1406.24 775.085 1406.24L821.522 1361.74C821.522 1361.74 821.522 1361.74 821.522 1361.74C822.725 1360.59 824.54 1360.7 825.629 1362C825.629 1362 825.629 1362 825.629 1362L873.537 1419.69C873.538 1419.69 873.538 1419.69 873.538 1419.69C874.626 1421.01 874.515 1423.02 873.307 1424.2C873.307 1424.2 873.306 1424.2 873.306 1424.2Z" fill="#E6E6E6" stroke="#D6D1BE"/>
<path d="M859.881 1410.41L815.535 1452.91L778.533 1408.35L822.879 1365.85L859.881 1410.41Z" fill="#BAB25E"/>
<path d="M826.838 1456.75L826.838 1456.75C825.495 1457.68 823.705 1457.28 822.824 1455.81L822.823 1455.81L782.472 1388.91C782.472 1388.91 782.472 1388.91 782.472 1388.91C781.58 1387.43 781.982 1385.45 783.333 1384.49C783.333 1384.49 783.334 1384.49 783.334 1384.49L835.558 1348.14L835.558 1348.14C836.901 1347.2 838.691 1347.61 839.572 1349.08L839.573 1349.08L879.924 1415.97C879.924 1415.97 879.924 1415.97 879.925 1415.97C880.817 1417.46 880.414 1419.44 879.063 1420.39C879.062 1420.39 879.062 1420.39 879.062 1420.39L826.838 1456.75Z" fill="#E6E6E6" stroke="#D6D1BE"/>
<path d="M867.064 1402.3L816.073 1437.8L786.485 1388.72L837.476 1353.24L867.064 1402.3Z" fill="#7E2512"/>
<path d="M835.941 1461.84L835.939 1461.84C834.475 1462.45 832.773 1461.67 832.179 1460.02L831.715 1460.18L832.179 1460.02L805.511 1385.63C805.511 1385.63 805.511 1385.63 805.511 1385.63C804.913 1383.97 805.695 1382.14 807.201 1381.52L865.267 1357.48L865.268 1357.48C866.733 1356.87 868.435 1357.65 869.029 1359.3L869.497 1359.14L869.029 1359.3L895.697 1433.69C896.295 1435.35 895.513 1437.18 894.006 1437.8L835.941 1461.84Z" fill="#F3EFEA" stroke="#D6D1BE"/>
<path d="M886.12 1418.1L829.416 1441.56L809.858 1387.02L866.544 1363.56L886.12 1418.1Z" fill="#6E7F59"/>
<mask id="mask2_193_3069" style="mask-type:luminance" maskUnits="userSpaceOnUse" x="820" y="1393" width="68" height="50">
<path d="M821.589 1417.97C824.419 1411.72 827.553 1405.63 830.992 1399.74C832.497 1397.16 834.377 1394.38 837.189 1393.88C838.801 1393.59 840.449 1394.15 841.935 1394.88C844.353 1396.08 846.538 1397.75 848.723 1399.4C851.983 1401.89 855.225 1404.36 858.485 1406.85C858.968 1407.22 859.505 1407.6 860.096 1407.56C860.49 1407.55 860.867 1407.33 861.207 1407.08C864.216 1404.95 865.649 1400.96 868.461 1398.54C869.034 1398.05 869.678 1397.62 870.395 1397.53C871.04 1397.45 871.702 1397.66 872.311 1397.87C877.452 1399.74 882.019 1403.45 885.046 1408.28C886.102 1409.96 886.998 1411.83 887.141 1413.83C887.338 1416.54 886.156 1419.17 884.562 1421.27C882.341 1424.19 879.35 1426.32 876.234 1428.04C862.532 1435.58 846.359 1435.84 831.959 1441.65C831.118 1441.99 830.222 1442.35 829.326 1442.22C828.592 1442.11 827.947 1441.68 827.356 1441.2C824.544 1438.8 823.291 1434.88 822.538 1431.12C821.697 1426.89 821.321 1422.57 820.944 1418.27" fill="white"/>
</mask>
<g mask="url(#mask2_193_3069)">
<path d="M885.959 1417.76L829.255 1441.22L809.697 1386.68L866.383 1363.22L885.959 1417.76Z" fill="#3C4A30"/>
</g>
<path d="M860.24 1385.34C863.158 1385.34 865.523 1382.8 865.523 1379.66C865.523 1376.52 863.158 1373.98 860.24 1373.98C857.322 1373.98 854.956 1376.52 854.956 1379.66C854.956 1382.8 857.322 1385.34 860.24 1385.34Z" fill="#BAB25E"/>
</svg>
