<svg width="149" height="151" viewBox="0 0 149 151" fill="none" xmlns="http://www.w3.org/2000/svg">
<path d="M11.6717 2.70117H118.884C123.776 2.70117 127.766 6.61609 127.853 11.5034L130.113 139.072C130.203 144.081 126.162 148.191 121.145 148.191H11.6717C6.71905 148.191 2.70361 144.179 2.70361 139.23V11.6619C2.70361 6.71334 6.71905 2.70117 11.6717 2.70117Z" fill="#95A87D" stroke="#95A87D" stroke-width="15" stroke-miterlimit="10"/>
<path d="M130.275 23.9973H143.831C145.68 23.9973 147.176 25.492 147.176 27.336V140.296C147.176 141.323 147.223 138.567 147.176 139.594C146.517 153.978 111.362 147.942 111.362 147.942C111.362 129.027 130.271 23.9973 130.271 23.9973H130.275Z" fill="#95A87D" stroke="#95A87D" stroke-width="10" stroke-miterlimit="10"/>
<path d="M8.15723 7.7002H12.6232L18.4517 16.2576V7.7002H22.961V23.169H18.4517L12.6557 14.6765V23.169H8.15723V7.7002Z" fill="#3C4A30"/>
<path d="M24.5759 7.7002H29.8889L33.0068 12.9189L36.132 7.7002H41.4162L35.3966 16.6897V23.169H30.6026V16.6897L24.5723 7.7002H24.5759Z" fill="#3C4A30"/>
<path d="M42.9839 7.7002H47.7671V13.1134H52.9936V7.7002H57.7985V23.169H52.9936V16.913H47.7671V23.169H42.9839V7.7002Z" fill="#3C4A30"/>
<path d="M60.9673 7.7002H73.7886V11.0028H65.7613V13.4627H73.2046V16.6177H65.7613V19.6683H74.0193V23.1726H60.9673V7.7002Z" fill="#3C4A30"/>
<path d="M76.6613 7.7002H83.7694C85.1716 7.7002 86.3034 7.89108 87.1649 8.26925C88.0264 8.64741 88.7401 9.19485 89.3024 9.90436C89.8647 10.6139 90.2756 11.4422 90.5279 12.3823C90.7802 13.3223 90.9064 14.3235 90.9064 15.3788C90.9064 17.0319 90.7189 18.3141 90.3405 19.2253C89.962 20.1365 89.4393 20.9 88.7725 21.5159C88.1057 22.1317 87.3848 22.5423 86.617 22.744C85.5681 23.0249 84.6165 23.1654 83.7658 23.1654H76.6577V7.7002H76.6613ZM81.4445 11.2045V19.6575H82.616C83.6144 19.6575 84.3281 19.5458 84.7499 19.3261C85.1716 19.1064 85.5032 18.7174 85.7411 18.1664C85.979 17.6154 86.1016 16.7186 86.1016 15.4796C86.1016 13.8409 85.8348 12.7172 85.2977 12.1121C84.7607 11.5071 83.874 11.2045 82.6376 11.2045H81.4445Z" fill="#3C4A30"/>
<path d="M93.4077 7.7002H106.229V11.0028H98.2017V13.4627H105.645V16.6177H98.2017V19.6683H106.46V23.1726H93.4077V7.7002Z" fill="#3C4A30"/>
<path d="M109.102 23.169V7.7002H117.075C118.553 7.7002 119.684 7.82625 120.463 8.07836C121.242 8.33047 121.876 8.80228 122.352 9.48658C122.828 10.1709 123.069 11.0064 123.069 11.9933C123.069 12.8505 122.885 13.5924 122.521 14.2155C122.157 14.8385 121.653 15.3428 121.011 15.7281C120.604 15.973 120.041 16.1783 119.331 16.3404C119.901 16.5313 120.315 16.7222 120.578 16.9094C120.755 17.0355 121.007 17.3056 121.343 17.7234C121.678 18.1376 121.901 18.4581 122.013 18.685L124.331 23.169H118.924L116.368 18.4437C116.044 17.8314 115.756 17.4353 115.503 17.2516C115.157 17.0139 114.768 16.8914 114.332 16.8914H113.91V23.169H109.105H109.102ZM113.906 13.9706H115.925C116.145 13.9706 116.567 13.8985 117.194 13.7581C117.511 13.6932 117.77 13.5348 117.969 13.2718C118.167 13.0089 118.268 12.7136 118.268 12.3751C118.268 11.8744 118.109 11.4927 117.792 11.2261C117.475 10.9596 116.88 10.8264 116.008 10.8264H113.906V13.9706Z" fill="#3C4A30"/>
<path d="M68.4502 39.6174H14.5266C11.7257 39.6174 9.45508 41.8862 9.45508 44.6849V75.7845C9.45508 78.5832 11.7257 80.852 14.5266 80.852H68.4502C71.2512 80.852 73.5218 78.5832 73.5218 75.7845V44.6849C73.5218 41.8862 71.2512 39.6174 68.4502 39.6174Z" stroke="#3C4A30" stroke-width="3" stroke-miterlimit="10"/>
<path d="M132.221 28.1211V133.993C132.441 141.413 141.096 140.923 141.301 134.775C141.546 127.42 141.377 7.73253 141.409 34.3951" stroke="#3C4A30" stroke-width="5" stroke-miterlimit="10"/>
<path d="M122.46 29.9796H10.0206C8.99336 29.9796 8.16064 30.8117 8.16064 31.838V31.8416C8.16064 32.868 8.99336 33.7001 10.0206 33.7001H122.46C123.487 33.7001 124.32 32.868 124.32 31.8416V31.838C124.32 30.8117 123.487 29.9796 122.46 29.9796Z" fill="#3C4A30"/>
<path d="M122.284 38.5189H81.066C80.0388 38.5189 79.2061 39.351 79.2061 40.3773V40.8744C79.2061 41.9007 80.0388 42.7328 81.066 42.7328H122.284C123.311 42.7328 124.144 41.9007 124.144 40.8744V40.3773C124.144 39.351 123.311 38.5189 122.284 38.5189Z" fill="#3C4A30"/>
<path d="M122.284 50.7247H81.066C80.0388 50.7247 79.2061 51.5568 79.2061 52.5832V53.0802C79.2061 54.1065 80.0388 54.9386 81.066 54.9386H122.284C123.311 54.9386 124.144 54.1065 124.144 53.0802V52.5832C124.144 51.5568 123.311 50.7247 122.284 50.7247Z" fill="#3C4A30"/>
<path d="M122.41 63.3987H81.192C80.1648 63.3987 79.332 64.2307 79.332 65.2571V65.7541C79.332 66.7805 80.1648 67.6125 81.192 67.6125H122.41C123.437 67.6125 124.27 66.7805 124.27 65.7541V65.2571C124.27 64.2307 123.437 63.3987 122.41 63.3987Z" fill="#3C4A30"/>
<path d="M122.284 76.6417H81.066C80.0388 76.6417 79.2061 77.4738 79.2061 78.5001V78.9972C79.2061 80.0235 80.0388 80.8556 81.066 80.8556H122.284C123.311 80.8556 124.144 80.0235 124.144 78.9972V78.5001C124.144 77.4738 123.311 76.6417 122.284 76.6417Z" fill="#3C4A30"/>
<path d="M105.367 89.4274H10.0206C8.99336 89.4274 8.16064 90.2594 8.16064 91.2858V91.2894C8.16064 92.3158 8.99336 93.1478 10.0206 93.1478H105.367C106.395 93.1478 107.227 92.3158 107.227 91.2894V91.2858C107.227 90.2594 106.395 89.4274 105.367 89.4274Z" fill="#3C4A30"/>
<path d="M122.46 99.1696H10.0206C8.99336 99.1696 8.16064 100.002 8.16064 101.028V101.032C8.16064 102.058 8.99336 102.89 10.0206 102.89H122.46C123.487 102.89 124.32 102.058 124.32 101.032V101.028C124.32 100.002 123.487 99.1696 122.46 99.1696Z" fill="#3C4A30"/>
<path d="M122.629 108.458H10.19C9.1628 108.458 8.33008 109.29 8.33008 110.317V110.32C8.33008 111.347 9.1628 112.179 10.19 112.179H122.629C123.657 112.179 124.489 111.347 124.489 110.32V110.317C124.489 109.29 123.657 108.458 122.629 108.458Z" fill="#3C4A30"/>
<path d="M62.0809 131.663H9.85505C8.82784 131.663 7.99512 132.495 7.99512 133.522V134.019C7.99512 135.045 8.82784 135.877 9.85505 135.877H62.0809C63.1081 135.877 63.9409 135.045 63.9409 134.019V133.522C63.9409 132.495 63.1081 131.663 62.0809 131.663Z" fill="#3C4A30"/>
<path d="M122.284 131.663H72.8692C71.842 131.663 71.0093 132.495 71.0093 133.522V134.019C71.0093 135.045 71.842 135.877 72.8692 135.877H122.284C123.311 135.877 124.143 135.045 124.143 134.019V133.522C124.143 132.495 123.311 131.663 122.284 131.663Z" fill="#3C4A30"/>
<path d="M122.46 117.747H10.0206C8.99336 117.747 8.16064 118.579 8.16064 119.605V119.609C8.16064 120.635 8.99336 121.467 10.0206 121.467H122.46C123.487 121.467 124.32 120.635 124.32 119.609V119.605C124.32 118.579 123.487 117.747 122.46 117.747Z" fill="#3C4A30"/>
</svg>
