<svg width="170" height="177" viewBox="0 0 170 177" fill="none" xmlns="http://www.w3.org/2000/svg">
<g clip-path="url(#clip0_101_3421)">
<path d="M164.212 0H58.5881C55.3886 0 52.7949 2.61432 52.7949 5.83925V137.402C52.7949 140.627 55.3886 143.241 58.5881 143.241H164.212C167.412 143.241 170.005 140.627 170.005 137.402V5.83925C170.005 2.61432 167.412 0 164.212 0Z" fill="white"/>
<path d="M153.697 10.5959H69.107C66.2386 10.5959 63.9133 12.9397 63.9133 15.8309V93.4247C63.9133 96.3159 66.2386 98.6597 69.107 98.6597H153.697C156.565 98.6597 158.89 96.3159 158.89 93.4247V15.8309C158.89 12.9397 156.565 10.5959 153.697 10.5959Z" fill="#8DA576"/>
<path d="M63.9133 62.4964L81.2224 34.987C84.8996 29.1413 93.3474 29.0961 97.0855 34.8998L120.742 71.6156L133.166 61.1134C137.622 57.3455 144.104 57.2841 148.628 60.9712L158.887 69.331V93.4247C158.887 93.4247 158.887 98.6597 153.693 98.6597H69.107C69.107 98.6597 63.9133 98.7793 63.9133 93.4247V62.4964Z" fill="#557043"/>
<path d="M141.85 36.8354C147.801 36.8354 152.626 31.9728 152.626 25.9745C152.626 19.9761 147.801 15.1135 141.85 15.1135C135.899 15.1135 131.075 19.9761 131.075 25.9745C131.075 31.9728 135.899 36.8354 141.85 36.8354Z" fill="#D1C56D"/>
<path d="M139.482 16.0507H33.8584C30.6589 16.0507 28.0652 18.665 28.0652 21.8899V153.452C28.0652 156.677 30.6589 159.292 33.8584 159.292H139.482C142.682 159.292 145.276 156.677 145.276 153.452V21.8899C145.276 18.665 142.682 16.0507 139.482 16.0507Z" fill="white"/>
<path d="M128.967 26.6466H44.377C41.5086 26.6466 39.1833 28.9904 39.1833 31.8816V109.475C39.1833 112.367 41.5086 114.71 44.377 114.71H128.967C131.835 114.71 134.16 112.367 134.16 109.475V31.8816C134.16 28.9904 131.835 26.6466 128.967 26.6466Z" fill="#8DA576"/>
<path d="M39.1833 78.5471L56.4924 51.0377C60.1697 45.192 68.6174 45.1467 72.3556 50.9504L96.0125 87.6663L108.436 77.164C112.892 73.3961 119.374 73.3347 123.898 77.0218L134.157 85.3816V109.475C134.157 109.475 134.157 114.71 128.963 114.71H44.377C44.377 114.71 39.1833 114.83 39.1833 109.475V78.5471Z" fill="#557043"/>
<path d="M117.118 52.8861C123.069 52.8861 127.893 48.0235 127.893 42.0251C127.893 36.0268 123.069 31.1642 117.118 31.1642C111.167 31.1642 106.342 36.0268 106.342 42.0251C106.342 48.0235 111.167 52.8861 117.118 52.8861Z" fill="#D1C56D"/>
<path d="M111.417 33.759H5.7932C2.5937 33.759 0 36.3734 0 39.5983V171.161C0 174.386 2.5937 177 5.7932 177H111.417C114.617 177 117.21 174.386 117.21 171.161V39.5983C117.21 36.3734 114.617 33.759 111.417 33.759Z" fill="white"/>
<path d="M100.902 44.355H16.3121C13.4437 44.355 11.1184 46.6988 11.1184 49.5899V127.184C11.1184 130.075 13.4437 132.419 16.3121 132.419H100.902C103.77 132.419 106.095 130.075 106.095 127.184V49.5899C106.095 46.6988 103.77 44.355 100.902 44.355Z" fill="#8DA576"/>
<path d="M11.1184 96.2555L28.4275 68.746C32.1048 62.9003 40.5525 62.8551 44.2907 68.6588L67.9475 105.375L80.3707 94.8724C84.827 91.1045 91.3095 91.0431 95.8331 94.7302L106.092 103.09V127.184C106.092 127.184 106.092 132.419 100.899 132.419H16.3089C16.3089 132.419 11.1152 132.538 11.1152 127.184V96.2555H11.1184Z" fill="#557043"/>
<path d="M89.0524 70.5944C95.0034 70.5944 99.8277 65.7318 99.8277 59.7335C99.8277 53.7352 95.0034 48.8726 89.0524 48.8726C83.1014 48.8726 78.2771 53.7352 78.2771 59.7335C78.2771 65.7318 83.1014 70.5944 89.0524 70.5944Z" fill="#D1C56D"/>
</g>
<defs>
<clipPath id="clip0_101_3421">
<rect width="170" height="177" fill="white"/>
</clipPath>
</defs>
</svg>
