<svg width="204" height="170" viewBox="0 0 204 170" fill="none" xmlns="http://www.w3.org/2000/svg">
<path d="M197.419 3H46.5456C44.3226 3 42.5205 5.15532 42.5205 7.81403V127.61C42.5205 130.269 44.3226 132.424 46.5456 132.424H197.419C199.642 132.424 201.444 130.269 201.444 127.61V7.81403C201.444 5.15532 199.642 3 197.419 3Z" fill="#6E7F59" stroke="#3C4A30" stroke-width="5" stroke-miterlimit="10"/>
<path d="M42.1558 132.713L2.65369 163.944C1.45293 164.894 2.01586 167.131 3.4534 167.131H174.931C175.344 167.131 175.74 166.92 176.016 166.55L199.287 135.319C200.121 134.201 199.456 132.427 198.202 132.427H42.9555C42.6704 132.427 42.3925 132.528 42.1558 132.716V132.713Z" fill="#6E7F59" stroke="#3C4A30" stroke-width="4" stroke-miterlimit="10"/>
<path d="M96.9465 32.5401L100.607 32.2656C100.687 32.9764 100.848 33.5197 101.09 33.8895C101.486 34.4934 102.052 34.794 102.788 34.794C103.337 34.794 103.762 34.6408 104.059 34.3316C104.356 34.0224 104.506 33.667 104.506 33.2596C104.506 32.8522 104.364 32.5285 104.081 32.2222C103.798 31.9159 103.141 31.6299 102.11 31.3583C100.423 30.9046 99.22 30.3007 98.5 29.5494C97.7752 28.7981 97.4128 27.8388 97.4128 26.6743C97.4128 25.9085 97.5989 25.1861 97.9685 24.5042C98.3382 23.8222 98.8963 23.2877 99.6428 22.9005C100.389 22.5133 101.409 22.3168 102.704 22.3168C104.296 22.3168 105.509 22.6693 106.342 23.3772C107.176 24.0852 107.674 25.2121 107.833 26.7552L104.207 27.0094C104.11 26.3391 103.907 25.8507 103.6 25.5473C103.293 25.2439 102.866 25.0908 102.322 25.0908C101.875 25.0908 101.537 25.2035 101.312 25.4317C101.088 25.66 100.972 25.9345 100.972 26.261C100.972 26.498 101.066 26.7118 101.252 26.8996C101.433 27.0961 101.863 27.2782 102.542 27.4487C104.224 27.8821 105.429 28.3213 106.156 28.7634C106.884 29.2055 107.413 29.7574 107.744 30.4134C108.075 31.0693 108.241 31.8061 108.241 32.6181C108.241 33.5717 108.022 34.453 107.579 35.2592C107.137 36.0654 106.521 36.6751 105.729 37.0941C104.936 37.5131 103.936 37.7182 102.731 37.7182C100.612 37.7182 99.1451 37.2299 98.3309 36.2561C97.5167 35.2823 97.0528 34.0427 96.9465 32.5372V32.5401Z" fill="#CCCCCC"/>
<path d="M120.343 23.7385L121.817 22.0654L123.1 23.7009L121.631 25.3653C121.931 25.9086 122.167 26.5905 122.336 27.4111C122.506 28.2347 122.593 29.0958 122.593 29.9973C122.593 31.7368 122.332 33.1701 121.807 34.2883C121.283 35.4095 120.563 36.2619 119.643 36.8427C118.722 37.4235 117.565 37.7154 116.166 37.7154C115.17 37.7154 114.279 37.5622 113.491 37.2588C112.982 37.0623 112.479 36.7445 111.979 36.2966L110.488 37.987L109.205 36.3717L110.706 34.6698C110.029 33.4157 109.691 31.8784 109.691 30.0551C109.691 27.6105 110.256 25.7063 111.387 24.3482C112.518 22.9901 114.088 22.311 116.098 22.311C117.884 22.311 119.299 22.7849 120.348 23.7298L120.343 23.7385ZM117.864 26.5529C117.439 26.0559 116.854 25.8045 116.113 25.8045C115.371 25.8045 114.711 26.1311 114.243 26.787C113.774 27.4429 113.537 28.5034 113.537 29.9742C113.537 30.4365 113.566 30.8989 113.622 31.367L117.864 26.55V26.5529ZM118.674 28.7172L114.419 33.5399C114.832 34.0341 115.407 34.2797 116.142 34.2797C116.963 34.2797 117.601 33.9618 118.058 33.3232C118.514 32.6846 118.741 31.5808 118.741 30.0089C118.741 29.5754 118.72 29.1449 118.674 28.7172Z" fill="#CCCCCC"/>
<path d="M130.93 32.072V28.9744H136.876V35.3228C135.738 36.2503 134.731 36.8832 133.856 37.2184C132.981 37.5535 131.943 37.7211 130.744 37.7211C129.266 37.7211 128.062 37.4206 127.13 36.8167C126.197 36.2128 125.477 35.317 124.965 34.1236C124.453 32.9302 124.197 31.5635 124.197 30.0204C124.197 28.3965 124.477 26.9806 125.038 25.7785C125.598 24.5765 126.42 23.6634 127.502 23.0421C128.345 22.5624 129.481 22.3197 130.908 22.3197C132.336 22.3197 133.315 22.47 133.996 22.7676C134.678 23.0652 135.245 23.5275 135.695 24.1546C136.144 24.7816 136.482 25.5763 136.709 26.5356L132.998 27.3273C132.846 26.7639 132.585 26.3362 132.22 26.0386C131.856 25.741 131.389 25.5907 130.824 25.5907C129.981 25.5907 129.307 25.9403 128.807 26.6425C128.306 27.3447 128.055 28.4514 128.055 29.9684C128.055 31.5808 128.309 32.7308 128.816 33.4214C129.324 34.1121 130.029 34.4588 130.935 34.4588C131.365 34.4588 131.776 34.3837 132.167 34.2363C132.559 34.0889 133.006 33.8347 133.508 33.4735V32.072H130.935H130.93Z" fill="#CCCCCC"/>
<path d="M174.1 47.7451H68.2198C65.2189 47.7451 62.7861 50.6546 62.7861 54.2437V114.188C62.7861 117.777 65.2189 120.687 68.2198 120.687H174.1C177.101 120.687 179.533 117.777 179.533 114.188V54.2437C179.533 50.6546 177.101 47.7451 174.1 47.7451Z" fill="#3C4A30" stroke="#3C4A30" stroke-width="3" stroke-miterlimit="10"/>
<path d="M75.2118 56.4629C75.2118 57.3442 74.9147 58.1417 74.4315 58.7168C73.9483 59.2918 73.2838 59.6501 72.547 59.6501C71.0756 59.6501 69.8821 58.2226 69.8821 56.4629C69.8821 54.7031 71.0756 53.2757 72.547 53.2757C74.0183 53.2757 75.2118 54.7031 75.2118 56.4629Z" stroke="#BAB25E" stroke-miterlimit="10"/>
<path d="M76.9876 61.4879L74.4314 58.7168" stroke="#BAB25E" stroke-miterlimit="10"/>
<path d="M72.547 76.9067C74.3136 76.9067 75.7458 75.1938 75.7458 73.0809C75.7458 70.9679 74.3136 69.2551 72.547 69.2551C70.7803 69.2551 69.3481 70.9679 69.3481 73.0809C69.3481 75.1938 70.7803 76.9067 72.547 76.9067Z" stroke="#BAB25E" stroke-miterlimit="10"/>
<path d="M74.4314 74.1876C74.9122 74.3321 72.5469 73.6039 72.5469 73.6039C72.5469 73.6039 72.5469 70.1017 72.5469 70.801" stroke="#BAB25E" stroke-miterlimit="10"/>
<path d="M72.547 89.7479C74.3136 89.7479 75.7458 88.035 75.7458 85.9221C75.7458 83.8092 74.3136 82.0963 72.547 82.0963C70.7803 82.0963 69.3481 83.8092 69.3481 85.9221C69.3481 88.035 70.7803 89.7479 72.547 89.7479Z" stroke="#BAB25E" stroke-miterlimit="10"/>
<path d="M74.4314 87.0288C74.9122 87.1733 72.5469 86.4451 72.5469 86.4451C72.5469 86.4451 72.5469 82.943 72.5469 83.6423" stroke="#BAB25E" stroke-miterlimit="10"/>
<path d="M72.547 102.592C74.3136 102.592 75.7458 100.879 75.7458 98.7663C75.7458 96.6534 74.3136 94.9405 72.547 94.9405C70.7803 94.9405 69.3481 96.6534 69.3481 98.7663C69.3481 100.879 70.7803 102.592 72.547 102.592Z" stroke="#BAB25E" stroke-miterlimit="10"/>
<path d="M74.4314 99.873C74.9122 100.017 72.5469 99.2893 72.5469 99.2893C72.5469 99.2893 72.5469 95.7872 72.5469 96.4864" stroke="#BAB25E" stroke-miterlimit="10"/>
<path d="M72.547 115.433C74.3136 115.433 75.7458 113.72 75.7458 111.608C75.7458 109.495 74.3136 107.782 72.547 107.782C70.7803 107.782 69.3481 109.495 69.3481 111.608C69.3481 113.72 70.7803 115.433 72.547 115.433Z" stroke="#BAB25E" stroke-miterlimit="10"/>
<path d="M74.4314 112.714C74.9122 112.859 72.5469 112.131 72.5469 112.131C72.5469 112.131 72.5469 108.628 72.5469 109.328" stroke="#BAB25E" stroke-miterlimit="10"/>
<path d="M171.336 52.3568H82.1724C81.3932 52.3568 80.7615 53.1123 80.7615 54.0443V58.8815C80.7615 59.8135 81.3932 60.569 82.1724 60.569H171.336C172.115 60.569 172.747 59.8135 172.747 58.8815V54.0443C172.747 53.1123 172.115 52.3568 171.336 52.3568Z" fill="#CCCCCC"/>
<path d="M176.634 68.8621C176.634 68.2269 176.204 67.712 175.673 67.712C175.142 67.712 174.711 68.2269 174.711 68.8621V112.659C174.711 113.295 175.142 113.809 175.673 113.809C176.204 113.809 176.634 113.295 176.634 112.659V68.8621Z" fill="#60724E" stroke="#3C4A30" stroke-width="3" stroke-miterlimit="10"/>
<path d="M83.0881 71.7806H83.8371V72.7948H84.6537V71.7806H85.4051V74.6759H84.6537V73.5057H83.8371V74.6759H83.0881V71.7806Z" fill="#CCCCCC"/>
<path d="M85.6587 72.5781H86.3569L86.6976 73.9073L87.0503 72.5781H87.7292L86.9826 74.6759H86.3859L85.6562 72.5781H85.6587Z" fill="#CCCCCC"/>
<path d="M88.5364 73.2571L87.8937 73.1762C87.9179 73.0433 87.9541 72.9364 87.9976 72.8583C88.0435 72.7803 88.1087 72.7139 88.1957 72.659C88.2561 72.6185 88.3431 72.5867 88.4494 72.5636C88.5557 72.5405 88.6741 72.5289 88.7997 72.5289C89.0002 72.5289 89.1621 72.5434 89.2853 72.5694C89.4086 72.5954 89.51 72.6532 89.5898 72.737C89.6477 72.7977 89.6912 72.8815 89.7251 72.9884C89.7589 73.0982 89.7758 73.2022 89.7758 73.3004V74.228C89.7758 74.3262 89.7806 74.4043 89.7927 74.4592C89.8024 74.5141 89.8265 74.5863 89.8603 74.673H89.2298C89.2056 74.6181 89.1887 74.5776 89.179 74.5487C89.1718 74.5198 89.1645 74.4765 89.1549 74.4158C89.0679 74.517 88.9785 74.5892 88.8915 74.6325C88.7731 74.6903 88.6354 74.7192 88.476 74.7192C88.2658 74.7192 88.1087 74.6614 88 74.5459C87.8913 74.4303 87.8381 74.2858 87.8381 74.1182C87.8381 73.9593 87.8768 73.8292 87.9565 73.7252C88.0362 73.6212 88.1788 73.5461 88.389 73.4969C88.6403 73.4363 88.8045 73.3929 88.8794 73.3698C88.9543 73.3467 89.0341 73.3149 89.1162 73.2744C89.1162 73.1762 89.0993 73.1068 89.0655 73.0664C89.0316 73.0259 88.9712 73.0057 88.8843 73.0057C88.7731 73.0057 88.691 73.0259 88.6354 73.0693C88.5919 73.1011 88.5581 73.1646 88.5315 73.2542L88.5364 73.2571ZM89.1186 73.679C89.0268 73.7194 88.9302 73.7541 88.8287 73.783C88.691 73.8263 88.6064 73.8697 88.5702 73.9101C88.5315 73.9535 88.5146 74.0026 88.5146 74.0575C88.5146 74.1211 88.534 74.1731 88.5702 74.2136C88.6064 74.254 88.662 74.2742 88.7321 74.2742C88.8021 74.2742 88.877 74.2511 88.9398 74.2078C89.0051 74.1644 89.051 74.1124 89.0776 74.0489C89.1041 73.9853 89.1186 73.9044 89.1186 73.8061V73.679Z" fill="#CCCCCC"/>
<path d="M92.0273 71.7806V74.6759H91.3992V74.3668C91.3122 74.4997 91.23 74.5864 91.1576 74.6326C91.0609 74.6933 90.9522 74.7222 90.8338 74.7222C90.5946 74.7222 90.4134 74.6124 90.2854 74.3956C90.1597 74.1789 90.0969 73.9131 90.0969 73.6039C90.0969 73.2572 90.167 72.9913 90.3071 72.8064C90.4472 72.6214 90.6236 72.529 90.8386 72.529C90.9425 72.529 91.0392 72.5492 91.1237 72.5925C91.2083 72.6359 91.2856 72.6966 91.3508 72.7833V71.7806H92.0297H92.0273ZM91.3533 73.6212C91.3533 73.4565 91.3243 73.3352 91.2663 73.2514C91.2083 73.1705 91.1334 73.13 91.044 73.13C90.9667 73.13 90.9015 73.1676 90.8483 73.2456C90.7952 73.3236 90.7686 73.4536 90.7686 73.6357C90.7686 73.8062 90.7952 73.9333 90.8507 74.0113C90.9039 74.0922 90.9715 74.1298 91.0537 74.1298C91.1406 74.1298 91.2107 74.0893 91.2687 74.0084C91.3267 73.9275 91.3557 73.7975 91.3557 73.6155L91.3533 73.6212Z" fill="#CCCCCC"/>
<path d="M95.5114 73.8263H94.1632C94.1753 73.9564 94.2043 74.0517 94.2502 74.1153C94.3154 74.2049 94.4 74.2511 94.5039 74.2511C94.5691 74.2511 94.6319 74.2309 94.6923 74.1904C94.7286 74.1644 94.7672 74.1211 94.8107 74.0575L95.4727 74.1298C95.3712 74.3407 95.2504 74.491 95.1055 74.5834C94.9629 74.6759 94.7576 74.7192 94.4894 74.7192C94.2575 74.7192 94.0738 74.6788 93.9409 74.6008C93.8081 74.5227 93.6969 74.3985 93.61 74.228C93.523 74.0575 93.4795 73.8581 93.4795 73.627C93.4795 73.3004 93.5665 73.0346 93.7428 72.8323C93.9192 72.6301 94.1608 72.5289 94.4701 72.5289C94.7213 72.5289 94.9194 72.5752 95.0644 72.6647C95.2094 72.7543 95.3205 72.8872 95.3954 73.0606C95.4703 73.234 95.509 73.4565 95.509 73.7339V73.8235L95.5114 73.8263ZM94.8276 73.442C94.8156 73.286 94.7793 73.1762 94.7237 73.1068C94.6658 73.0404 94.5933 73.0057 94.499 73.0057C94.3927 73.0057 94.3082 73.0577 94.243 73.1589C94.2019 73.2224 94.1753 73.3149 94.1656 73.442H94.8276Z" fill="#CCCCCC"/>
<path d="M95.8279 72.5781H96.456V72.922C96.5165 72.7746 96.5793 72.6706 96.6445 72.6157C96.7097 72.5608 96.7895 72.5319 96.8837 72.5319C96.9779 72.5319 97.0915 72.5694 97.2098 72.6417L97.0021 73.2138C96.9223 73.1733 96.8595 73.1531 96.8136 73.1531C96.7266 73.1531 96.6566 73.1965 96.6083 73.2831C96.5382 73.4045 96.5044 73.6357 96.5044 73.9709V74.673H95.8279V72.5752V72.5781Z" fill="#CCCCCC"/>
<path d="M98.3308 74.0922L98.9976 74.0171C99.0242 74.1125 99.0629 74.1789 99.1136 74.2194C99.1643 74.2598 99.2296 74.2801 99.3117 74.2801C99.4011 74.2801 99.4712 74.2569 99.5219 74.2107C99.5606 74.176 99.5799 74.1327 99.5799 74.0836C99.5799 74.0258 99.5557 73.9824 99.505 73.9506C99.4688 73.9275 99.3721 73.9015 99.2151 73.8668C98.9807 73.8177 98.8188 73.7744 98.7295 73.731C98.6376 73.6906 98.5628 73.6183 98.4999 73.5201C98.4371 73.4219 98.4057 73.3092 98.4057 73.182C98.4057 73.0433 98.4395 72.9248 98.5072 72.8237C98.5748 72.7226 98.6666 72.6503 98.785 72.5983C98.9034 72.5492 99.0605 72.5232 99.2586 72.5232C99.4688 72.5232 99.621 72.5434 99.7224 72.581C99.8215 72.6185 99.9061 72.6792 99.9713 72.7601C100.039 72.841 100.092 72.948 100.138 73.0867L99.5002 73.1618C99.4833 73.0953 99.4567 73.0462 99.418 73.0144C99.3649 72.9711 99.3021 72.9508 99.2272 72.9508C99.1523 72.9508 99.0967 72.9682 99.0604 73C99.0266 73.0318 99.0097 73.0722 99.0097 73.1184C99.0097 73.1705 99.0315 73.208 99.0749 73.234C99.1184 73.26 99.2151 73.2831 99.3625 73.3063C99.5847 73.3352 99.7514 73.3785 99.8602 73.4334C99.9689 73.4883 100.053 73.5634 100.111 73.6646C100.169 73.7657 100.198 73.8755 100.198 73.994C100.198 74.1125 100.167 74.2338 100.107 74.3465C100.046 74.4621 99.9495 74.5517 99.8167 74.621C99.6862 74.6875 99.505 74.7222 99.2803 74.7222C98.959 74.7222 98.7319 74.6673 98.5966 74.5575C98.4613 74.4477 98.3743 74.2916 98.3356 74.0922H98.3308Z" fill="#CCCCCC"/>
<path d="M100.515 71.7806H101.201V73.2745L101.704 72.5781H102.53L101.902 73.3121L102.566 74.6759H101.81L101.455 73.8351L101.201 74.1298V74.6759H100.515V71.7806Z" fill="#CCCCCC"/>
<path d="M102.779 72.5781H103.407V72.922C103.467 72.7746 103.53 72.6706 103.595 72.6157C103.661 72.5608 103.74 72.5319 103.835 72.5319C103.929 72.5319 104.042 72.5694 104.161 72.6417L103.953 73.2138C103.873 73.1733 103.81 73.1531 103.765 73.1531C103.678 73.1531 103.608 73.1965 103.559 73.2831C103.489 73.4045 103.455 73.6357 103.455 73.9709V74.673H102.779V72.5752V72.5781Z" fill="#CCCCCC"/>
<path d="M104.944 73.2571L104.301 73.1762C104.325 73.0433 104.361 72.9364 104.405 72.8583C104.451 72.7803 104.516 72.7139 104.603 72.659C104.663 72.6185 104.75 72.5867 104.857 72.5636C104.963 72.5405 105.081 72.5289 105.207 72.5289C105.407 72.5289 105.569 72.5434 105.693 72.5694C105.816 72.5954 105.917 72.6532 105.997 72.737C106.055 72.7977 106.098 72.8815 106.132 72.9884C106.166 73.0982 106.183 73.2022 106.183 73.3004V74.228C106.183 74.3262 106.188 74.4043 106.2 74.4592C106.21 74.5141 106.234 74.5863 106.268 74.673H105.637C105.613 74.6181 105.596 74.5776 105.586 74.5487C105.579 74.5198 105.572 74.4765 105.562 74.4158C105.475 74.517 105.386 74.5892 105.299 74.6325C105.18 74.6903 105.043 74.7192 104.883 74.7192C104.673 74.7192 104.516 74.6614 104.407 74.5459C104.299 74.4303 104.245 74.2858 104.245 74.1182C104.245 73.9593 104.284 73.8292 104.364 73.7252C104.443 73.6212 104.586 73.5461 104.796 73.4969C105.047 73.4363 105.212 73.3929 105.287 73.3698C105.362 73.3467 105.441 73.3149 105.523 73.2744C105.523 73.1762 105.507 73.1068 105.473 73.0664C105.439 73.0259 105.378 73.0057 105.291 73.0057C105.18 73.0057 105.098 73.0259 105.043 73.0693C104.999 73.1011 104.965 73.1646 104.939 73.2542L104.944 73.2571ZM105.526 73.679C105.434 73.7194 105.337 73.7541 105.236 73.783C105.098 73.8263 105.014 73.8697 104.977 73.9101C104.939 73.9535 104.922 74.0026 104.922 74.0575C104.922 74.1211 104.941 74.1731 104.977 74.2136C105.014 74.254 105.069 74.2742 105.139 74.2742C105.209 74.2742 105.284 74.2511 105.347 74.2078C105.412 74.1644 105.458 74.1124 105.485 74.0489C105.511 73.9853 105.526 73.9044 105.526 73.8061V73.679Z" fill="#CCCCCC"/>
<path d="M106.611 71.7806H107.285V74.6759H106.611V71.7806Z" fill="#CCCCCC"/>
<path d="M109.561 71.7806V74.6759H108.932V74.3668C108.845 74.4997 108.763 74.5864 108.691 74.6326C108.594 74.6933 108.485 74.7222 108.367 74.7222C108.128 74.7222 107.947 74.6124 107.819 74.3956C107.693 74.1789 107.63 73.9131 107.63 73.6039C107.63 73.2572 107.7 72.9913 107.84 72.8064C107.98 72.6214 108.157 72.529 108.372 72.529C108.476 72.529 108.572 72.5492 108.657 72.5925C108.742 72.6359 108.819 72.6966 108.884 72.7833V71.7806H109.563H109.561ZM108.886 73.6212C108.886 73.4565 108.857 73.3352 108.799 73.2514C108.741 73.1705 108.667 73.13 108.577 73.13C108.5 73.13 108.435 73.1676 108.382 73.2456C108.328 73.3236 108.302 73.4536 108.302 73.6357C108.302 73.8062 108.328 73.9333 108.384 74.0113C108.437 74.0922 108.505 74.1298 108.587 74.1298C108.674 74.1298 108.744 74.0893 108.802 74.0084C108.86 73.9275 108.889 73.7975 108.889 73.6155L108.886 73.6212Z" fill="#CCCCCC"/>
<path d="M111.063 73.7657H110.435V73.6906C110.435 73.5634 110.447 73.4594 110.471 73.3785C110.496 73.2976 110.532 73.2253 110.58 73.1589C110.628 73.0924 110.735 72.9768 110.904 72.8121C110.993 72.7254 111.037 72.6445 111.037 72.5723C111.037 72.5001 111.02 72.4423 110.984 72.4047C110.947 72.3642 110.894 72.344 110.822 72.344C110.744 72.344 110.679 72.3758 110.628 72.4365C110.578 72.4972 110.544 72.607 110.529 72.7601L109.889 72.6648C109.911 72.3816 109.998 72.1562 110.145 71.9828C110.295 71.8123 110.522 71.7256 110.831 71.7256C111.071 71.7256 111.266 71.7863 111.414 71.9048C111.614 72.0666 111.713 72.2833 111.713 72.5521C111.713 72.6648 111.687 72.7717 111.636 72.8757C111.585 72.9797 111.479 73.1069 111.319 73.2571C111.208 73.3611 111.138 73.4478 111.109 73.5114C111.08 73.575 111.066 73.6588 111.066 73.7628L111.063 73.7657ZM110.413 73.9651H111.085V74.673H110.413V73.9651Z" fill="#CCCCCC"/>
<path d="M83.3394 84.1508H84.0883V85.1651H84.9049V84.1508H85.6563V87.0462H84.9049V85.8759H84.0883V87.0462H83.3394V84.1508Z" fill="#CCCCCC"/>
<path d="M85.9101 84.9512H86.6084L86.949 86.2804L87.3018 84.9512H87.9807L87.2341 87.0491H86.6374L85.9077 84.9512H85.9101Z" fill="#CCCCCC"/>
<path d="M88.7876 85.6303L88.1449 85.5494C88.1691 85.4164 88.2053 85.3095 88.2488 85.2315C88.2947 85.1535 88.36 85.087 88.4469 85.0321C88.5073 84.9917 88.5943 84.9599 88.7006 84.9368C88.8069 84.9137 88.9253 84.9021 89.0509 84.9021C89.2515 84.9021 89.4133 84.9165 89.5366 84.9425C89.6598 84.9686 89.7612 85.0264 89.841 85.1101C89.899 85.1708 89.9425 85.2546 89.9763 85.3615C90.0101 85.4713 90.027 85.5754 90.027 85.6736V86.6012C90.027 86.6994 90.0318 86.7774 90.0439 86.8323C90.0536 86.8872 90.0778 86.9595 90.1116 87.0462H89.481C89.4568 86.9913 89.4399 86.9508 89.4303 86.9219C89.423 86.893 89.4158 86.8497 89.4061 86.789C89.3191 86.8901 89.2297 86.9624 89.1427 87.0057C89.0244 87.0635 88.8866 87.0924 88.7272 87.0924C88.517 87.0924 88.36 87.0346 88.2512 86.919C88.1425 86.8034 88.0894 86.659 88.0894 86.4914C88.0894 86.3324 88.128 86.2024 88.2077 86.0984C88.2875 85.9944 88.43 85.9192 88.6402 85.8701C88.8915 85.8094 89.0558 85.7661 89.1307 85.743C89.2056 85.7199 89.2853 85.6881 89.3674 85.6476C89.3674 85.5494 89.3505 85.48 89.3167 85.4396C89.2829 85.3991 89.2225 85.3789 89.1355 85.3789C89.0244 85.3789 88.9422 85.3991 88.8866 85.4424C88.8432 85.4742 88.8093 85.5378 88.7828 85.6274L88.7876 85.6303ZM89.3699 86.0522C89.278 86.0926 89.1814 86.1273 89.0799 86.1562C88.9422 86.1995 88.8577 86.2429 88.8214 86.2833C88.7828 86.3267 88.7658 86.3758 88.7658 86.4307C88.7658 86.4943 88.7852 86.5463 88.8214 86.5867C88.8577 86.6272 88.9132 86.6474 88.9833 86.6474C89.0534 86.6474 89.1283 86.6243 89.1911 86.5809C89.2563 86.5376 89.3022 86.4856 89.3288 86.422C89.3554 86.3584 89.3699 86.2775 89.3699 86.1793V86.0522Z" fill="#CCCCCC"/>
<path d="M92.2764 84.1508V87.0462H91.6482V86.737C91.5612 86.8699 91.4791 86.9566 91.4066 87.0028C91.3099 87.0635 91.2012 87.0924 91.0828 87.0924C90.8436 87.0924 90.6624 86.9826 90.5344 86.7659C90.4088 86.5492 90.3459 86.2833 90.3459 85.9741C90.3459 85.6274 90.416 85.3616 90.5561 85.1766C90.6963 84.9917 90.8726 84.8992 91.0877 84.8992C91.1916 84.8992 91.2882 84.9194 91.3728 84.9628C91.4573 85.0061 91.5346 85.0668 91.5999 85.1535V84.1508H92.2788H92.2764ZM91.6023 85.9944C91.6023 85.8297 91.5733 85.7083 91.5153 85.6245C91.4573 85.5436 91.3824 85.5031 91.293 85.5031C91.2157 85.5031 91.1505 85.5407 91.0973 85.6187C91.0442 85.6967 91.0176 85.8268 91.0176 86.0088C91.0176 86.1793 91.0442 86.3064 91.0997 86.3845C91.1529 86.4654 91.2205 86.5029 91.3027 86.5029C91.3897 86.5029 91.4597 86.4625 91.5177 86.3816C91.5757 86.3007 91.6047 86.1706 91.6047 85.9886L91.6023 85.9944Z" fill="#CCCCCC"/>
<path d="M95.7626 86.1995H94.4145C94.4265 86.3295 94.4555 86.4249 94.5014 86.4885C94.5667 86.5781 94.6512 86.6243 94.7551 86.6243C94.8203 86.6243 94.8832 86.6041 94.9436 86.5636C94.9798 86.5376 95.0185 86.4943 95.0619 86.4307L95.7239 86.5029C95.6225 86.7139 95.5017 86.8641 95.3567 86.9566C95.2142 87.049 95.0088 87.0924 94.7406 87.0924C94.5087 87.0924 94.3251 87.0519 94.1922 86.9739C94.0593 86.8959 93.9482 86.7717 93.8612 86.6012C93.7742 86.4307 93.7307 86.2313 93.7307 86.0001C93.7307 85.6736 93.8177 85.4078 93.9941 85.2055C94.1704 85.0032 94.412 84.9021 94.7213 84.9021C94.9726 84.9021 95.1707 84.9483 95.3156 85.0379C95.4606 85.1275 95.5717 85.2604 95.6466 85.4338C95.7215 85.6072 95.7602 85.8296 95.7602 86.107V86.1966L95.7626 86.1995ZM95.0789 85.8123C95.0668 85.6563 95.0305 85.5465 94.975 85.4771C94.917 85.4107 94.8445 85.376 94.7503 85.376C94.644 85.376 94.5594 85.428 94.4942 85.5291C94.4531 85.5927 94.4265 85.6852 94.4169 85.8123H95.0789Z" fill="#CCCCCC"/>
<path d="M96.0767 84.9513H96.7048V85.2951C96.7652 85.1477 96.828 85.0437 96.8933 84.9888C96.9585 84.9339 97.0382 84.905 97.1325 84.905C97.2267 84.905 97.3402 84.9426 97.4586 85.0148L97.2508 85.587C97.1711 85.5465 97.1083 85.5263 97.0624 85.5263C96.9754 85.5263 96.9054 85.5696 96.857 85.6563C96.787 85.7777 96.7531 86.0088 96.7531 86.344V87.0462H96.0767V84.9484V84.9513Z" fill="#CCCCCC"/>
<path d="M100.546 84.1508V87.0462H99.9182V86.737C99.8312 86.8699 99.7491 86.9566 99.6766 87.0028C99.58 87.0635 99.4712 87.0924 99.3529 87.0924C99.1137 87.0924 98.9325 86.9826 98.8044 86.7659C98.6788 86.5492 98.616 86.2833 98.616 85.9741C98.616 85.6274 98.686 85.3616 98.8262 85.1766C98.9663 84.9917 99.1427 84.8992 99.3577 84.8992C99.4616 84.8992 99.5582 84.9194 99.6428 84.9628C99.7273 85.0061 99.8047 85.0668 99.8699 85.1535V84.1508H100.549H100.546ZM99.8723 85.9944C99.8723 85.8297 99.8433 85.7083 99.7853 85.6245C99.7273 85.5436 99.6524 85.5031 99.5631 85.5031C99.4857 85.5031 99.4205 85.5407 99.3674 85.6187C99.3142 85.6967 99.2876 85.8268 99.2876 86.0088C99.2876 86.1793 99.3142 86.3064 99.3698 86.3845C99.4229 86.4654 99.4906 86.5029 99.5727 86.5029C99.6597 86.5029 99.7298 86.4625 99.7877 86.3816C99.8457 86.3007 99.8747 86.1706 99.8747 85.9886L99.8723 85.9944Z" fill="#CCCCCC"/>
<path d="M100.981 84.1508H101.653V84.697H100.981V84.1508ZM100.981 84.9512H101.653V87.0491H100.981V84.9512Z" fill="#CCCCCC"/>
<path d="M103.303 84.9512H103.931V87.026C103.931 87.1589 103.909 87.2831 103.863 87.4016C103.818 87.5201 103.755 87.6183 103.677 87.6906C103.6 87.7628 103.501 87.8177 103.383 87.8495C103.264 87.8813 103.127 87.8986 102.972 87.8986C102.619 87.8986 102.378 87.835 102.247 87.7079C102.117 87.5808 102.049 87.4132 102.049 87.1993C102.049 87.1733 102.049 87.1387 102.051 87.0924L102.704 87.182C102.721 87.2542 102.745 87.3034 102.779 87.3323C102.829 87.3727 102.89 87.3929 102.965 87.3929C103.061 87.3929 103.134 87.3611 103.182 87.3005C103.23 87.2398 103.255 87.13 103.255 86.9768V86.659C103.189 86.7514 103.122 86.8208 103.057 86.8613C102.953 86.9277 102.841 86.9595 102.721 86.9595C102.486 86.9595 102.298 86.8381 102.153 86.5925C102.051 86.4192 101.998 86.188 101.998 85.9019C101.998 85.5754 102.064 85.3269 102.196 85.1564C102.329 84.9859 102.501 84.8992 102.716 84.8992C102.854 84.8992 102.965 84.9281 103.054 84.983C103.143 85.0379 103.226 85.1304 103.303 85.2575V84.9484V84.9512ZM102.67 85.9684C102.67 86.1186 102.697 86.2313 102.75 86.3065C102.803 86.3787 102.875 86.4163 102.962 86.4163C103.049 86.4163 103.117 86.3787 103.172 86.3036C103.228 86.2284 103.257 86.1129 103.257 85.9597C103.257 85.8066 103.228 85.691 103.168 85.6101C103.107 85.5292 103.035 85.4887 102.95 85.4887C102.866 85.4887 102.796 85.5263 102.745 85.6014C102.694 85.6765 102.668 85.8008 102.668 85.9713L102.67 85.9684Z" fill="#CCCCCC"/>
<path d="M104.364 84.1508H105.035V84.697H104.364V84.1508ZM104.364 84.9512H105.035V87.0491H104.364V84.9512Z" fill="#CCCCCC"/>
<path d="M106.275 84.1508V84.9484H106.644V85.5378H106.275V86.2805C106.275 86.37 106.282 86.4278 106.296 86.4567C106.318 86.503 106.357 86.5232 106.412 86.5232C106.463 86.5232 106.531 86.5058 106.62 86.4712L106.671 87.026C106.504 87.0693 106.35 87.0924 106.205 87.0924C106.038 87.0924 105.915 87.0664 105.835 87.0144C105.755 86.9624 105.697 86.8844 105.659 86.7804C105.62 86.6763 105.601 86.5058 105.601 86.2718V85.535H105.352V84.9455H105.601V84.5612L106.275 84.1479V84.1508Z" fill="#CCCCCC"/>
<path d="M107.579 85.6303L106.937 85.5494C106.961 85.4164 106.997 85.3095 107.041 85.2315C107.086 85.1535 107.152 85.087 107.239 85.0321C107.299 84.9917 107.386 84.9599 107.492 84.9368C107.599 84.9137 107.717 84.9021 107.843 84.9021C108.043 84.9021 108.205 84.9165 108.328 84.9425C108.452 84.9686 108.553 85.0264 108.633 85.1101C108.691 85.1708 108.734 85.2546 108.768 85.3615C108.802 85.4713 108.819 85.5754 108.819 85.6736V86.6012C108.819 86.6994 108.824 86.7774 108.836 86.8323C108.845 86.8872 108.87 86.9595 108.903 87.0462H108.273C108.249 86.9913 108.232 86.9508 108.222 86.9219C108.215 86.893 108.208 86.8497 108.198 86.789C108.111 86.8901 108.021 86.9624 107.934 87.0057C107.816 87.0635 107.678 87.0924 107.519 87.0924C107.309 87.0924 107.152 87.0346 107.043 86.919C106.934 86.8034 106.881 86.659 106.881 86.4914C106.881 86.3324 106.92 86.2024 106.999 86.0984C107.079 85.9944 107.222 85.9192 107.432 85.8701C107.683 85.8094 107.848 85.7661 107.922 85.743C107.997 85.7199 108.077 85.6881 108.159 85.6476C108.159 85.5494 108.142 85.48 108.108 85.4396C108.075 85.3991 108.014 85.3789 107.927 85.3789C107.816 85.3789 107.734 85.3991 107.678 85.4424C107.635 85.4742 107.601 85.5378 107.575 85.6274L107.579 85.6303ZM108.162 86.0522C108.07 86.0926 107.973 86.1273 107.872 86.1562C107.734 86.1995 107.649 86.2429 107.613 86.2833C107.575 86.3267 107.558 86.3758 107.558 86.4307C107.558 86.4943 107.577 86.5463 107.613 86.5867C107.649 86.6272 107.705 86.6474 107.775 86.6474C107.845 86.6474 107.92 86.6243 107.983 86.5809C108.048 86.5376 108.094 86.4856 108.121 86.422C108.147 86.3584 108.162 86.2775 108.162 86.1793V86.0522Z" fill="#CCCCCC"/>
<path d="M109.246 84.1508H109.92V87.0462H109.246V84.1508Z" fill="#CCCCCC"/>
<path d="M111.16 84.1508V84.9484H111.53V85.5378H111.16V86.2805C111.16 86.37 111.167 86.4278 111.182 86.4567C111.203 86.503 111.242 86.5232 111.298 86.5232C111.348 86.5232 111.416 86.5058 111.505 86.4712L111.556 87.026C111.39 87.0693 111.235 87.0924 111.09 87.0924C110.923 87.0924 110.8 87.0664 110.72 87.0144C110.641 86.9624 110.583 86.8844 110.544 86.7804C110.505 86.6763 110.486 86.5058 110.486 86.2718V85.535H110.237V84.9455H110.486V84.5612L111.16 84.1479V84.1508Z" fill="#CCCCCC"/>
<path d="M112.858 86.4654L113.525 86.3903C113.552 86.4856 113.59 86.5521 113.641 86.5925C113.692 86.633 113.757 86.6532 113.839 86.6532C113.929 86.6532 113.999 86.6301 114.049 86.5839C114.088 86.5492 114.107 86.5059 114.107 86.4567C114.107 86.3989 114.083 86.3556 114.033 86.3238C113.996 86.3007 113.9 86.2747 113.743 86.24C113.508 86.1909 113.346 86.1475 113.257 86.1042C113.165 86.0637 113.09 85.9915 113.028 85.8933C112.965 85.795 112.933 85.6823 112.933 85.5552C112.933 85.4165 112.967 85.298 113.035 85.1969C113.102 85.0957 113.194 85.0235 113.313 84.9715C113.431 84.9224 113.588 84.8964 113.786 84.8964C113.996 84.8964 114.149 84.9166 114.25 84.9541C114.349 84.9917 114.434 85.0524 114.499 85.1333C114.567 85.2142 114.62 85.3211 114.666 85.4598L114.028 85.535C114.011 85.4685 113.984 85.4194 113.946 85.3876C113.892 85.3442 113.83 85.324 113.755 85.324C113.68 85.324 113.624 85.3414 113.588 85.3731C113.554 85.4049 113.537 85.4454 113.537 85.4916C113.537 85.5436 113.559 85.5812 113.603 85.6072C113.646 85.6332 113.743 85.6563 113.89 85.6794C114.112 85.7083 114.279 85.7517 114.388 85.8066C114.496 85.8615 114.581 85.9366 114.639 86.0377C114.697 86.1389 114.726 86.2487 114.726 86.3672C114.726 86.4856 114.695 86.607 114.634 86.7197C114.574 86.8353 114.477 86.9248 114.344 86.9942C114.214 87.0606 114.033 87.0953 113.808 87.0953C113.487 87.0953 113.259 87.0404 113.124 86.9306C112.989 86.8208 112.902 86.6648 112.863 86.4654H112.858Z" fill="#CCCCCC"/>
<path d="M115.045 84.1508H115.731V85.6447L116.234 84.9483H117.06L116.432 85.6823L117.096 87.0462H116.34L115.985 86.2053L115.731 86.5V87.0462H115.045V84.1508Z" fill="#CCCCCC"/>
<path d="M117.306 84.9513H117.935V85.2951C117.995 85.1477 118.058 85.0437 118.123 84.9888C118.188 84.9339 118.268 84.905 118.362 84.905C118.456 84.905 118.57 84.9426 118.688 85.0148L118.481 85.587C118.401 85.5465 118.338 85.5263 118.292 85.5263C118.205 85.5263 118.135 85.5696 118.087 85.6563C118.017 85.7777 117.983 86.0088 117.983 86.344V87.0462H117.306V84.9484V84.9513Z" fill="#CCCCCC"/>
<path d="M119.471 85.6303L118.829 85.5494C118.853 85.4164 118.889 85.3095 118.932 85.2315C118.978 85.1535 119.044 85.087 119.131 85.0321C119.191 84.9917 119.278 84.9599 119.384 84.9368C119.491 84.9137 119.609 84.9021 119.735 84.9021C119.935 84.9021 120.097 84.9165 120.22 84.9425C120.343 84.9686 120.445 85.0264 120.525 85.1101C120.583 85.1708 120.626 85.2546 120.66 85.3615C120.694 85.4713 120.711 85.5754 120.711 85.6736V86.6012C120.711 86.6994 120.715 86.7774 120.728 86.8323C120.737 86.8872 120.761 86.9595 120.795 87.0462H120.165C120.14 86.9913 120.124 86.9508 120.114 86.9219C120.107 86.893 120.099 86.8497 120.09 86.789C120.003 86.8901 119.913 86.9624 119.826 87.0057C119.708 87.0635 119.57 87.0924 119.411 87.0924C119.201 87.0924 119.044 87.0346 118.935 86.919C118.826 86.8034 118.773 86.659 118.773 86.4914C118.773 86.3324 118.812 86.2024 118.891 86.0984C118.971 85.9944 119.114 85.9192 119.324 85.8701C119.575 85.8094 119.739 85.7661 119.814 85.743C119.889 85.7199 119.969 85.6881 120.051 85.6476C120.051 85.5494 120.034 85.48 120 85.4396C119.966 85.3991 119.906 85.3789 119.819 85.3789C119.708 85.3789 119.626 85.3991 119.57 85.4424C119.527 85.4742 119.493 85.5378 119.466 85.6274L119.471 85.6303ZM120.056 86.0522C119.964 86.0926 119.867 86.1273 119.766 86.1562C119.628 86.1995 119.544 86.2429 119.507 86.2833C119.469 86.3267 119.452 86.3758 119.452 86.4307C119.452 86.4943 119.471 86.5463 119.507 86.5867C119.544 86.6272 119.599 86.6474 119.669 86.6474C119.739 86.6474 119.814 86.6243 119.877 86.5809C119.942 86.5376 119.988 86.4856 120.015 86.422C120.041 86.3584 120.056 86.2775 120.056 86.1793V86.0522Z" fill="#CCCCCC"/>
<path d="M121.138 84.1508H121.812V87.0462H121.138V84.1508Z" fill="#CCCCCC"/>
<path d="M124.088 84.1508V87.0462H123.46V86.737C123.373 86.8699 123.291 86.9566 123.218 87.0028C123.122 87.0635 123.013 87.0924 122.895 87.0924C122.655 87.0924 122.474 86.9826 122.346 86.7659C122.221 86.5492 122.158 86.2833 122.158 85.9741C122.158 85.6274 122.228 85.3616 122.368 85.1766C122.508 84.9917 122.684 84.8992 122.899 84.8992C123.003 84.8992 123.1 84.9194 123.185 84.9628C123.269 85.0061 123.346 85.0668 123.412 85.1535V84.1508H124.091H124.088ZM123.414 85.9944C123.414 85.8297 123.385 85.7083 123.327 85.6245C123.269 85.5436 123.194 85.5031 123.105 85.5031C123.027 85.5031 122.962 85.5407 122.909 85.6187C122.856 85.6967 122.829 85.8268 122.829 86.0088C122.829 86.1793 122.856 86.3064 122.912 86.3845C122.965 86.4654 123.032 86.5029 123.114 86.5029C123.201 86.5029 123.272 86.4625 123.329 86.3816C123.387 86.3007 123.416 86.1706 123.416 85.9886L123.414 85.9944Z" fill="#CCCCCC"/>
<path d="M125.591 86.1389H124.963V86.0637C124.963 85.9366 124.975 85.8326 124.999 85.7517C125.023 85.6707 125.059 85.5985 125.108 85.532C125.156 85.4656 125.262 85.35 125.431 85.1853C125.521 85.0986 125.564 85.0177 125.564 84.9455C125.564 84.8732 125.547 84.8154 125.511 84.7779C125.475 84.7374 125.422 84.7172 125.349 84.7172C125.272 84.7172 125.207 84.749 125.156 84.8096C125.105 84.8703 125.071 84.9801 125.057 85.1333L124.417 85.0379C124.438 84.7547 124.525 84.5294 124.673 84.356C124.823 84.1855 125.05 84.0988 125.359 84.0988C125.598 84.0988 125.794 84.1595 125.941 84.278C126.142 84.4398 126.241 84.6565 126.241 84.9252C126.241 85.0379 126.214 85.1448 126.164 85.2489C126.113 85.3529 126.006 85.48 125.847 85.6303C125.736 85.7343 125.666 85.821 125.637 85.8846C125.608 85.9481 125.593 86.0319 125.593 86.136L125.591 86.1389ZM124.941 86.3382H125.613V87.0462H124.941V86.3382Z" fill="#CCCCCC"/>
<path d="M83.3394 96.995H84.0883V98.0092H84.9049V96.995H85.6563V99.8903H84.9049V98.7201H84.0883V99.8903H83.3394V96.995Z" fill="#CCCCCC"/>
<path d="M85.9101 97.7925H86.6084L86.949 99.1217L87.3018 97.7925H87.9807L87.2341 99.8904H86.6374L85.9077 97.7925H85.9101Z" fill="#CCCCCC"/>
<path d="M88.0046 98.8472C88.0046 98.5265 88.094 98.2635 88.2752 98.0555C88.4564 97.8474 88.7005 97.7434 89.0073 97.7434C89.3576 97.7434 89.6234 97.8648 89.8022 98.1075C89.9471 98.304 90.0196 98.5467 90.0196 98.8328C90.0196 99.1564 89.9302 99.4194 89.7514 99.6245C89.5726 99.8297 89.3238 99.9337 89.0097 99.9337C88.727 99.9337 88.4999 99.847 88.326 99.6765C88.1134 99.4656 88.0046 99.1853 88.0046 98.8443V98.8472ZM88.6787 98.8443C88.6787 99.0322 88.7101 99.1709 88.7729 99.2604C88.8358 99.35 88.9155 99.3934 89.0121 99.3934C89.1088 99.3934 89.1885 99.35 89.2513 99.2604C89.3141 99.1709 89.3455 99.0322 89.3455 98.8357C89.3455 98.6536 89.3141 98.5178 89.2513 98.4282C89.1885 98.3387 89.1112 98.2953 89.0194 98.2953C88.9203 98.2953 88.8406 98.3416 88.7778 98.4311C88.7149 98.5207 88.6811 98.6594 88.6811 98.8414L88.6787 98.8443Z" fill="#CCCCCC"/>
<path d="M90.3481 97.7925H90.9763V98.1364C91.0367 97.989 91.0995 97.885 91.1648 97.8301C91.23 97.7752 91.3097 97.7463 91.4039 97.7463C91.4982 97.7463 91.6117 97.7838 91.7301 97.8561L91.5223 98.4282C91.4426 98.3878 91.3798 98.3675 91.3339 98.3675C91.2469 98.3675 91.1768 98.4109 91.1285 98.4976C91.0585 98.6189 91.0246 98.8501 91.0246 99.1853V99.8874H90.3481V97.7896V97.7925Z" fill="#CCCCCC"/>
<path d="M93.7742 96.995V99.8903H93.146V99.5812C93.059 99.7141 92.9769 99.8008 92.9044 99.847C92.8077 99.9077 92.699 99.9366 92.5806 99.9366C92.3415 99.9366 92.1602 99.8268 92.0322 99.6101C91.9066 99.3933 91.8438 99.1275 91.8438 98.8183C91.8438 98.4716 91.9138 98.2057 92.0539 98.0208C92.1941 97.8359 92.3704 97.7434 92.5855 97.7434C92.6894 97.7434 92.786 97.7636 92.8706 97.807C92.9551 97.8503 93.0324 97.911 93.0977 97.9977V96.995H93.7766H93.7742ZM93.1001 98.8357C93.1001 98.6709 93.0711 98.5496 93.0131 98.4658C92.9551 98.3849 92.8802 98.3444 92.7908 98.3444C92.7135 98.3444 92.6483 98.382 92.5951 98.46C92.542 98.538 92.5154 98.6681 92.5154 98.8501C92.5154 99.0206 92.542 99.1477 92.5975 99.2257C92.6507 99.3067 92.7184 99.3442 92.8005 99.3442C92.8875 99.3442 92.9575 99.3038 93.0155 99.2229C93.0735 99.1419 93.1025 99.0119 93.1025 98.8299L93.1001 98.8357Z" fill="#CCCCCC"/>
<path d="M94.7961 98.4716L94.1535 98.3907C94.1776 98.2577 94.2139 98.1508 94.2574 98.0728C94.3033 97.9948 94.3685 97.9283 94.4555 97.8734C94.5159 97.833 94.6029 97.8012 94.7092 97.7781C94.8155 97.755 94.9338 97.7434 95.0595 97.7434C95.26 97.7434 95.4219 97.7579 95.5451 97.7839C95.6683 97.8099 95.7698 97.8677 95.8495 97.9515C95.9075 98.0121 95.951 98.0959 95.9848 98.2028C96.0186 98.3127 96.0356 98.4167 96.0356 98.5149V99.4425C96.0356 99.5407 96.0404 99.6187 96.0525 99.6736C96.0621 99.7285 96.0863 99.8008 96.1201 99.8875H95.4895C95.4654 99.8326 95.4485 99.7921 95.4388 99.7632C95.4315 99.7343 95.4243 99.691 95.4146 99.6303C95.3277 99.7314 95.2383 99.8037 95.1513 99.847C95.0329 99.9048 94.8952 99.9337 94.7357 99.9337C94.5255 99.9337 94.3685 99.8759 94.2598 99.7603C94.151 99.6447 94.0979 99.5003 94.0979 99.3327C94.0979 99.1737 94.1366 99.0437 94.2163 98.9397C94.296 98.8357 94.4386 98.7605 94.6488 98.7114C94.9 98.6507 95.0643 98.6074 95.1392 98.5843C95.2141 98.5612 95.2938 98.5294 95.376 98.4889C95.376 98.3907 95.3591 98.3213 95.3252 98.2809C95.2914 98.2404 95.231 98.2202 95.144 98.2202C95.0329 98.2202 94.9508 98.2404 94.8952 98.2838C94.8517 98.3155 94.8179 98.3791 94.7913 98.4687L94.7961 98.4716ZM95.3808 98.8963C95.289 98.9368 95.1924 98.9715 95.0909 99.0004C94.9532 99.0437 94.8686 99.0871 94.8324 99.1275C94.7937 99.1709 94.7768 99.22 94.7768 99.2749C94.7768 99.3385 94.7961 99.3905 94.8324 99.4309C94.8686 99.4714 94.9242 99.4916 94.9942 99.4916C95.0643 99.4916 95.1392 99.4685 95.202 99.4251C95.2673 99.3818 95.3132 99.3298 95.3397 99.2662C95.3663 99.2026 95.3808 99.1217 95.3808 99.0235V98.8963Z" fill="#CCCCCC"/>
<path d="M96.4414 97.7925H97.0672V98.1335C97.1614 97.9948 97.2556 97.8937 97.3523 97.833C97.4489 97.7723 97.5649 97.7434 97.7026 97.7434C97.8886 97.7434 98.0336 97.8099 98.1399 97.9428C98.2438 98.0757 98.2969 98.2809 98.2969 98.5554V99.8875H97.6204V98.7345C97.6204 98.6016 97.6011 98.5091 97.56 98.4542C97.519 98.3993 97.461 98.3733 97.3885 98.3733C97.3063 98.3733 97.2411 98.4109 97.1904 98.4831C97.1396 98.5554 97.1155 98.6883 97.1155 98.879V99.8875H96.4438V97.7896L96.4414 97.7925Z" fill="#CCCCCC"/>
<path d="M99.7056 99.3067L100.372 99.2315C100.399 99.3269 100.438 99.3933 100.488 99.4338C100.539 99.4743 100.604 99.4945 100.686 99.4945C100.776 99.4945 100.846 99.4714 100.897 99.4251C100.935 99.3905 100.955 99.3471 100.955 99.298C100.955 99.2402 100.93 99.1968 100.88 99.1651C100.844 99.1419 100.747 99.1159 100.59 99.0813C100.355 99.0321 100.194 98.9888 100.104 98.9455C100.012 98.905 99.9375 98.8328 99.8747 98.7345C99.8119 98.6363 99.7805 98.5236 99.7805 98.3964C99.7805 98.2577 99.8143 98.1393 99.8819 98.0381C99.9496 97.937 100.041 97.8648 100.16 97.8127C100.278 97.7636 100.435 97.7376 100.633 97.7376C100.844 97.7376 100.996 97.7578 101.097 97.7954C101.196 97.833 101.281 97.8936 101.346 97.9746C101.414 98.0555 101.467 98.1624 101.513 98.3011L100.875 98.3762C100.858 98.3098 100.831 98.2606 100.793 98.2288C100.74 98.1855 100.677 98.1653 100.602 98.1653C100.527 98.1653 100.471 98.1826 100.435 98.2144C100.401 98.2462 100.384 98.2866 100.384 98.3329C100.384 98.3849 100.406 98.4224 100.45 98.4485C100.493 98.4745 100.59 98.4976 100.737 98.5207C100.959 98.5496 101.126 98.5929 101.235 98.6478C101.344 98.7027 101.428 98.7779 101.486 98.879C101.544 98.9801 101.573 99.0899 101.573 99.2084C101.573 99.3269 101.542 99.4482 101.481 99.5609C101.421 99.6765 101.324 99.7661 101.191 99.8354C101.061 99.9019 100.88 99.9366 100.655 99.9366C100.334 99.9366 100.107 99.8817 99.9713 99.7719C99.836 99.6621 99.7491 99.506 99.7104 99.3067H99.7056Z" fill="#CCCCCC"/>
<path d="M101.807 98.8472C101.807 98.5265 101.897 98.2635 102.078 98.0555C102.259 97.8474 102.503 97.7434 102.81 97.7434C103.16 97.7434 103.426 97.8648 103.605 98.1075C103.75 98.304 103.822 98.5467 103.822 98.8328C103.822 99.1564 103.733 99.4194 103.554 99.6245C103.375 99.8297 103.127 99.9337 102.812 99.9337C102.53 99.9337 102.303 99.847 102.129 99.6765C101.916 99.4656 101.807 99.1853 101.807 98.8443V98.8472ZM102.481 98.8443C102.481 99.0322 102.513 99.1709 102.576 99.2604C102.638 99.35 102.718 99.3934 102.815 99.3934C102.912 99.3934 102.991 99.35 103.054 99.2604C103.117 99.1709 103.148 99.0322 103.148 98.8357C103.148 98.6536 103.117 98.5178 103.054 98.4282C102.991 98.3387 102.914 98.2953 102.822 98.2953C102.723 98.2953 102.643 98.3416 102.581 98.4311C102.518 98.5207 102.484 98.6594 102.484 98.8414L102.481 98.8443Z" fill="#CCCCCC"/>
<path d="M104.154 97.7925H104.782V98.1364C104.842 97.989 104.905 97.885 104.97 97.8301C105.035 97.7752 105.115 97.7463 105.209 97.7463C105.304 97.7463 105.417 97.7838 105.536 97.8561L105.328 98.4282C105.248 98.3878 105.185 98.3675 105.139 98.3675C105.052 98.3675 104.982 98.4109 104.934 98.4976C104.864 98.6189 104.83 98.8501 104.83 99.1853V99.8874H104.154V97.7896V97.7925Z" fill="#CCCCCC"/>
<path d="M106.628 96.995V97.7925H106.997V98.382H106.628V99.1246C106.628 99.2142 106.635 99.272 106.649 99.3009C106.671 99.3471 106.71 99.3674 106.765 99.3674C106.816 99.3674 106.884 99.35 106.973 99.3153L107.024 99.8701C106.857 99.9135 106.702 99.9366 106.557 99.9366C106.391 99.9366 106.268 99.9106 106.188 99.8586C106.108 99.8066 106.05 99.7286 106.011 99.6245C105.973 99.5205 105.953 99.35 105.953 99.116V98.3791H105.705V97.7897H105.953V97.4053L106.628 96.9921V96.995Z" fill="#CCCCCC"/>
<path d="M109.266 99.0408H107.918C107.93 99.1709 107.959 99.2662 108.005 99.3298C108.07 99.4194 108.154 99.4656 108.258 99.4656C108.324 99.4656 108.386 99.4454 108.447 99.4049C108.483 99.3789 108.522 99.3356 108.565 99.272L109.227 99.3442C109.126 99.5552 109.005 99.7054 108.86 99.7979C108.717 99.8904 108.512 99.9337 108.244 99.9337C108.012 99.9337 107.828 99.8932 107.695 99.8152C107.562 99.7372 107.451 99.613 107.364 99.4425C107.277 99.272 107.234 99.0726 107.234 98.8414C107.234 98.5149 107.321 98.2491 107.497 98.0468C107.674 97.8445 107.915 97.7434 108.224 97.7434C108.476 97.7434 108.674 97.7896 108.819 97.8792C108.964 97.9688 109.075 98.1017 109.15 98.2751C109.225 98.4485 109.263 98.671 109.263 98.9484V99.0379L109.266 99.0408ZM108.582 98.6565C108.57 98.5005 108.534 98.3907 108.478 98.3213C108.42 98.2549 108.348 98.2202 108.253 98.2202C108.147 98.2202 108.063 98.2722 107.997 98.3733C107.956 98.4369 107.93 98.5294 107.92 98.6565H108.582Z" fill="#CCCCCC"/>
<path d="M109.58 97.7925H110.208V98.1364C110.268 97.989 110.331 97.885 110.396 97.8301C110.462 97.7752 110.541 97.7463 110.636 97.7463C110.73 97.7463 110.843 97.7838 110.962 97.8561L110.754 98.4282C110.674 98.3878 110.611 98.3675 110.566 98.3675C110.479 98.3675 110.409 98.4109 110.36 98.4976C110.29 98.6189 110.256 98.8501 110.256 99.1853V99.8874H109.58V97.7896V97.7925Z" fill="#CCCCCC"/>
<path d="M113.076 99.0408H111.728C111.74 99.1709 111.769 99.2662 111.815 99.3298C111.88 99.4194 111.964 99.4656 112.068 99.4656C112.134 99.4656 112.196 99.4454 112.257 99.4049C112.293 99.3789 112.332 99.3356 112.375 99.272L113.037 99.3442C112.936 99.5552 112.815 99.7054 112.67 99.7979C112.527 99.8904 112.322 99.9337 112.054 99.9337C111.822 99.9337 111.638 99.8932 111.505 99.8152C111.373 99.7372 111.261 99.613 111.174 99.4425C111.087 99.272 111.044 99.0726 111.044 98.8414C111.044 98.5149 111.131 98.2491 111.307 98.0468C111.484 97.8445 111.725 97.7434 112.035 97.7434C112.286 97.7434 112.484 97.7896 112.629 97.8792C112.774 97.9688 112.885 98.1017 112.96 98.2751C113.035 98.4485 113.073 98.671 113.073 98.9484V99.0379L113.076 99.0408ZM112.392 98.6565C112.38 98.5005 112.344 98.3907 112.288 98.3213C112.23 98.2549 112.158 98.2202 112.064 98.2202C111.957 98.2202 111.873 98.2722 111.807 98.3733C111.766 98.4369 111.74 98.5294 111.73 98.6565H112.392Z" fill="#CCCCCC"/>
<path d="M114.54 97.7925H115.214V99.8268C115.214 100.087 115.197 100.269 115.168 100.379C115.137 100.486 115.079 100.575 114.994 100.642C114.91 100.708 114.789 100.743 114.632 100.743C114.501 100.743 114.34 100.72 114.149 100.673L114.25 100.09C114.303 100.104 114.344 100.11 114.369 100.11C114.427 100.11 114.47 100.087 114.499 100.041C114.528 99.9944 114.542 99.9019 114.542 99.7603V97.7954L114.54 97.7925ZM114.54 96.995H115.214V97.5469H114.54V96.995Z" fill="#CCCCCC"/>
<path d="M117.587 99.0408H116.238C116.251 99.1709 116.279 99.2662 116.325 99.3298C116.391 99.4194 116.475 99.4656 116.579 99.4656C116.644 99.4656 116.707 99.4454 116.768 99.4049C116.804 99.3789 116.842 99.3356 116.886 99.272L117.548 99.3442C117.446 99.5552 117.326 99.7054 117.181 99.7979C117.038 99.8904 116.833 99.9337 116.565 99.9337C116.333 99.9337 116.149 99.8932 116.016 99.8152C115.883 99.7372 115.772 99.613 115.685 99.4425C115.598 99.272 115.555 99.0726 115.555 98.8414C115.555 98.5149 115.642 98.2491 115.818 98.0468C115.994 97.8445 116.236 97.7434 116.545 97.7434C116.797 97.7434 116.995 97.7896 117.14 97.8792C117.285 97.9688 117.396 98.1017 117.471 98.2751C117.545 98.4485 117.584 98.671 117.584 98.9484V99.0379L117.587 99.0408ZM116.903 98.6565C116.891 98.5005 116.855 98.3907 116.799 98.3213C116.741 98.2549 116.668 98.2202 116.574 98.2202C116.468 98.2202 116.383 98.2722 116.318 98.3733C116.277 98.4369 116.251 98.5294 116.241 98.6565H116.903Z" fill="#CCCCCC"/>
<path d="M119.2 97.7925H119.829V99.8672C119.829 100 119.807 100.124 119.761 100.243C119.715 100.361 119.652 100.46 119.575 100.532C119.498 100.604 119.399 100.659 119.28 100.691C119.162 100.723 119.024 100.74 118.869 100.74C118.517 100.74 118.275 100.676 118.145 100.549C118.014 100.422 117.946 100.254 117.946 100.041C117.946 100.015 117.946 99.9799 117.949 99.9337L118.601 100.023C118.618 100.095 118.642 100.145 118.676 100.174C118.727 100.214 118.787 100.234 118.862 100.234C118.959 100.234 119.031 100.202 119.08 100.142C119.128 100.081 119.152 99.9712 119.152 99.8181V99.5002C119.087 99.5927 119.019 99.662 118.954 99.7025C118.85 99.769 118.739 99.8007 118.618 99.8007C118.384 99.8007 118.195 99.6794 118.05 99.4338C117.949 99.2604 117.896 99.0292 117.896 98.7432C117.896 98.4166 117.961 98.1681 118.094 97.9977C118.227 97.8272 118.398 97.7405 118.613 97.7405C118.751 97.7405 118.862 97.7694 118.952 97.8243C119.041 97.8792 119.123 97.9716 119.2 98.0988V97.7896V97.7925ZM118.567 98.8096C118.567 98.9599 118.594 99.0726 118.647 99.1477C118.7 99.2199 118.773 99.2575 118.86 99.2575C118.947 99.2575 119.014 99.2199 119.07 99.1448C119.126 99.0697 119.155 98.9541 119.155 98.801C119.155 98.6478 119.126 98.5322 119.065 98.4513C119.005 98.3704 118.932 98.33 118.848 98.33C118.763 98.33 118.693 98.3675 118.642 98.4426C118.592 98.5178 118.565 98.642 118.565 98.8125L118.567 98.8096Z" fill="#CCCCCC"/>
<path d="M121.329 98.983H120.701V98.9079C120.701 98.7808 120.713 98.6767 120.737 98.5958C120.761 98.5149 120.797 98.4427 120.846 98.3762C120.894 98.3098 121 98.1942 121.17 98.0295C121.259 97.9428 121.302 97.8619 121.302 97.7896C121.302 97.7174 121.285 97.6596 121.249 97.622C121.213 97.5816 121.16 97.5614 121.087 97.5614C121.01 97.5614 120.945 97.5932 120.894 97.6538C120.843 97.7145 120.81 97.8243 120.795 97.9775L120.155 97.8821C120.177 97.5989 120.264 97.3735 120.411 97.2002C120.561 97.0297 120.788 96.943 121.097 96.943C121.336 96.943 121.532 97.0037 121.679 97.1222C121.88 97.284 121.979 97.5007 121.979 97.7694C121.979 97.8821 121.952 97.989 121.902 98.093C121.851 98.1971 121.745 98.3242 121.585 98.4745C121.474 98.5785 121.404 98.6652 121.375 98.7288C121.346 98.7923 121.331 98.8761 121.331 98.9801L121.329 98.983ZM120.681 99.1824H121.353V99.8904H120.681V99.1824Z" fill="#CCCCCC"/>
<path d="M83.5881 109.836H84.3371V110.85H85.1537V109.836H85.9051V112.732H85.1537V111.561H84.3371V112.732H83.5881V109.836Z" fill="#CCCCCC"/>
<path d="M86.1614 110.637H86.8596L87.2002 111.966L87.553 110.637H88.2319L87.4853 112.734H86.8886L86.1589 110.637H86.1614Z" fill="#CCCCCC"/>
<path d="M89.0364 111.316L88.3937 111.235C88.4179 111.102 88.4541 110.995 88.4976 110.917C88.5435 110.839 88.6087 110.772 88.6957 110.718C88.7561 110.677 88.8431 110.645 88.9494 110.622C89.0557 110.599 89.1741 110.588 89.2997 110.588C89.5002 110.588 89.6621 110.602 89.7853 110.628C89.9086 110.654 90.01 110.712 90.0898 110.796C90.1477 110.856 90.1912 110.94 90.2251 111.047C90.2589 111.157 90.2758 111.261 90.2758 111.359V112.287C90.2758 112.385 90.2806 112.463 90.2927 112.518C90.3024 112.573 90.3265 112.645 90.3604 112.732H89.7298C89.7056 112.677 89.6887 112.636 89.679 112.607C89.6718 112.578 89.6645 112.535 89.6549 112.474C89.5679 112.576 89.4785 112.648 89.3915 112.691C89.2731 112.749 89.1354 112.778 88.976 112.778C88.7658 112.778 88.6087 112.72 88.5 112.604C88.3913 112.489 88.3381 112.344 88.3381 112.177C88.3381 112.018 88.3768 111.888 88.4565 111.784C88.5363 111.68 88.6788 111.605 88.889 111.556C89.1403 111.495 89.3046 111.452 89.3794 111.428C89.4543 111.405 89.5341 111.373 89.6162 111.333C89.6162 111.235 89.5993 111.165 89.5655 111.125C89.5317 111.085 89.4713 111.064 89.3843 111.064C89.2731 111.064 89.191 111.085 89.1354 111.128C89.0919 111.16 89.0581 111.223 89.0315 111.313L89.0364 111.316ZM89.6211 111.738C89.5292 111.778 89.4326 111.813 89.3311 111.842C89.1934 111.885 89.1088 111.928 89.0726 111.969C89.034 112.012 89.017 112.061 89.017 112.116C89.017 112.18 89.0364 112.232 89.0726 112.272C89.1088 112.313 89.1644 112.333 89.2345 112.333C89.3046 112.333 89.3794 112.31 89.4423 112.266C89.5075 112.223 89.5534 112.171 89.58 112.107C89.6066 112.044 89.6211 111.963 89.6211 111.865V111.738Z" fill="#CCCCCC"/>
<path d="M92.5276 109.836V112.732H91.8994V112.422C91.8124 112.555 91.7303 112.642 91.6578 112.688C91.5612 112.749 91.4524 112.778 91.3341 112.778C91.0949 112.778 90.9137 112.668 90.7856 112.451C90.66 112.235 90.5972 111.969 90.5972 111.66C90.5972 111.313 90.6672 111.047 90.8074 110.862C90.9475 110.677 91.1239 110.585 91.3389 110.585C91.4428 110.585 91.5394 110.605 91.624 110.648C91.7085 110.692 91.7859 110.752 91.8511 110.839V109.836H92.53H92.5276ZM91.8535 111.68C91.8535 111.515 91.8245 111.394 91.7665 111.31C91.7085 111.229 91.6336 111.189 91.5443 111.189C91.4669 111.189 91.4017 111.226 91.3486 111.304C91.2954 111.382 91.2688 111.512 91.2688 111.694C91.2688 111.865 91.2954 111.992 91.351 112.07C91.4041 112.151 91.4718 112.188 91.5539 112.188C91.6409 112.188 91.711 112.148 91.7689 112.067C91.8269 111.986 91.8559 111.856 91.8559 111.674L91.8535 111.68Z" fill="#CCCCCC"/>
<path d="M93.9458 112.151L94.6126 112.076C94.6392 112.171 94.6779 112.238 94.7286 112.278C94.7793 112.318 94.8446 112.339 94.9267 112.339C95.0161 112.339 95.0862 112.316 95.1369 112.269C95.1756 112.235 95.1949 112.191 95.1949 112.142C95.1949 112.084 95.1707 112.041 95.12 112.009C95.0837 111.986 94.9871 111.96 94.8301 111.925C94.5957 111.876 94.4338 111.833 94.3444 111.79C94.2526 111.749 94.1777 111.677 94.1149 111.579C94.0521 111.48 94.0207 111.368 94.0207 111.241C94.0207 111.102 94.0545 110.983 94.1222 110.882C94.1898 110.781 94.2816 110.709 94.4 110.657C94.5184 110.608 94.6754 110.582 94.8736 110.582C95.0837 110.582 95.236 110.602 95.3374 110.64C95.4365 110.677 95.521 110.738 95.5863 110.819C95.6539 110.9 95.7071 111.007 95.753 111.145L95.1152 111.22C95.0982 111.154 95.0717 111.105 95.033 111.073C94.9799 111.03 94.917 111.009 94.8421 111.009C94.7672 111.009 94.7117 111.027 94.6754 111.059C94.6416 111.09 94.6247 111.131 94.6247 111.177C94.6247 111.229 94.6464 111.267 94.6899 111.293C94.7334 111.319 94.8301 111.342 94.9774 111.365C95.1997 111.394 95.3664 111.437 95.4751 111.492C95.5839 111.547 95.6684 111.622 95.7264 111.723C95.7844 111.824 95.8134 111.934 95.8134 112.053C95.8134 112.171 95.782 112.292 95.7216 112.405C95.6612 112.521 95.5645 112.61 95.4317 112.68C95.3012 112.746 95.12 112.781 94.8953 112.781C94.574 112.781 94.3469 112.726 94.2116 112.616C94.0763 112.506 93.9893 112.35 93.9506 112.151H93.9458Z" fill="#CCCCCC"/>
<path d="M96.1323 109.836H96.8185V111.33L97.321 110.634H98.1473L97.5191 111.368L98.1835 112.732H97.4273L97.0722 111.891L96.8185 112.185V112.732H96.1323V109.836Z" fill="#CCCCCC"/>
<path d="M99 111.316L98.3573 111.235C98.3815 111.102 98.4177 110.995 98.4612 110.917C98.5071 110.839 98.5723 110.772 98.6593 110.718C98.7197 110.677 98.8067 110.645 98.913 110.622C99.0193 110.599 99.1377 110.588 99.2633 110.588C99.4639 110.588 99.6257 110.602 99.749 110.628C99.8722 110.654 99.9736 110.712 100.053 110.796C100.111 110.856 100.155 110.94 100.189 111.047C100.222 111.157 100.239 111.261 100.239 111.359V112.287C100.239 112.385 100.244 112.463 100.256 112.518C100.266 112.573 100.29 112.645 100.324 112.732H99.6934C99.6692 112.677 99.6523 112.636 99.6427 112.607C99.6354 112.578 99.6282 112.535 99.6185 112.474C99.5315 112.576 99.4421 112.648 99.3551 112.691C99.2368 112.749 99.099 112.778 98.9396 112.778C98.7294 112.778 98.5723 112.72 98.4636 112.604C98.3549 112.489 98.3018 112.344 98.3018 112.177C98.3018 112.018 98.3404 111.888 98.4201 111.784C98.4999 111.68 98.6424 111.605 98.8526 111.556C99.1039 111.495 99.2682 111.452 99.3431 111.428C99.418 111.405 99.4977 111.373 99.5798 111.333C99.5798 111.235 99.5629 111.165 99.5291 111.125C99.4953 111.085 99.4349 111.064 99.3479 111.064C99.2368 111.064 99.1546 111.085 99.099 111.128C99.0556 111.16 99.0217 111.223 98.9952 111.313L99 111.316ZM99.5822 111.738C99.4904 111.778 99.3938 111.813 99.2923 111.842C99.1546 111.885 99.0701 111.928 99.0338 111.969C98.9952 112.012 98.9782 112.061 98.9782 112.116C98.9782 112.18 98.9976 112.232 99.0338 112.272C99.0701 112.313 99.1256 112.333 99.1957 112.333C99.2657 112.333 99.3406 112.31 99.4035 112.266C99.4687 112.223 99.5146 112.171 99.5412 112.107C99.5678 112.044 99.5822 111.963 99.5822 111.865V111.738Z" fill="#CCCCCC"/>
<path d="M100.667 109.836H101.341V112.732H100.667V109.836Z" fill="#CCCCCC"/>
<path d="M102.779 112.151L103.446 112.076C103.472 112.171 103.511 112.238 103.562 112.278C103.612 112.318 103.678 112.339 103.76 112.339C103.849 112.339 103.919 112.316 103.97 112.269C104.009 112.235 104.028 112.191 104.028 112.142C104.028 112.084 104.004 112.041 103.953 112.009C103.917 111.986 103.82 111.96 103.663 111.925C103.429 111.876 103.267 111.833 103.177 111.79C103.086 111.749 103.011 111.677 102.948 111.579C102.885 111.48 102.854 111.368 102.854 111.241C102.854 111.102 102.888 110.983 102.955 110.882C103.023 110.781 103.115 110.709 103.233 110.657C103.351 110.608 103.508 110.582 103.707 110.582C103.917 110.582 104.069 110.602 104.17 110.64C104.27 110.677 104.354 110.738 104.419 110.819C104.487 110.9 104.54 111.007 104.586 111.145L103.948 111.22C103.931 111.154 103.905 111.105 103.866 111.073C103.813 111.03 103.75 111.009 103.675 111.009C103.6 111.009 103.545 111.027 103.508 111.059C103.475 111.09 103.458 111.131 103.458 111.177C103.458 111.229 103.479 111.267 103.523 111.293C103.566 111.319 103.663 111.342 103.81 111.365C104.033 111.394 104.199 111.437 104.308 111.492C104.417 111.547 104.501 111.622 104.559 111.723C104.617 111.824 104.646 111.934 104.646 112.053C104.646 112.171 104.615 112.292 104.555 112.405C104.494 112.521 104.398 112.61 104.265 112.68C104.134 112.746 103.953 112.781 103.728 112.781C103.407 112.781 103.18 112.726 103.045 112.616C102.909 112.506 102.822 112.35 102.784 112.151H102.779Z" fill="#CCCCCC"/>
<path d="M104.968 110.637H105.596V110.943C105.685 110.816 105.777 110.723 105.869 110.671C105.961 110.619 106.072 110.59 106.202 110.59C106.342 110.59 106.454 110.619 106.536 110.68C106.618 110.741 106.683 110.827 106.736 110.946C106.843 110.81 106.937 110.715 107.024 110.666C107.111 110.616 107.217 110.59 107.345 110.59C107.534 110.59 107.681 110.657 107.785 110.79C107.891 110.923 107.944 111.134 107.944 111.417V112.735H107.27V111.538C107.27 111.443 107.256 111.374 107.224 111.327C107.178 111.255 107.123 111.217 107.055 111.217C106.975 111.217 106.913 111.252 106.864 111.322C106.816 111.391 106.792 111.501 106.792 111.651V112.735H106.118V111.579C106.118 111.486 106.113 111.423 106.106 111.391C106.091 111.339 106.067 111.296 106.031 111.264C105.995 111.232 105.954 111.215 105.908 111.215C105.83 111.215 105.767 111.249 105.717 111.319C105.666 111.388 105.642 111.504 105.642 111.662V112.735H104.968V110.637Z" fill="#CCCCCC"/>
<path d="M108.372 109.836H109.043V110.382H108.372V109.836ZM108.372 110.637H109.043V112.734H108.372V110.637Z" fill="#CCCCCC"/>
<path d="M111.319 109.836V112.732H110.691V112.422C110.604 112.555 110.522 112.642 110.45 112.688C110.353 112.749 110.244 112.778 110.126 112.778C109.887 112.778 109.705 112.668 109.577 112.451C109.452 112.235 109.389 111.969 109.389 111.66C109.389 111.313 109.459 111.047 109.599 110.862C109.739 110.677 109.916 110.585 110.131 110.585C110.235 110.585 110.331 110.605 110.416 110.648C110.5 110.692 110.578 110.752 110.643 110.839V109.836H111.322H111.319ZM110.645 111.68C110.645 111.515 110.616 111.394 110.558 111.31C110.5 111.229 110.425 111.189 110.336 111.189C110.259 111.189 110.193 111.226 110.14 111.304C110.087 111.382 110.061 111.512 110.061 111.694C110.061 111.865 110.087 111.992 110.143 112.07C110.196 112.151 110.264 112.188 110.346 112.188C110.433 112.188 110.503 112.148 110.561 112.067C110.619 111.986 110.648 111.856 110.648 111.674L110.645 111.68Z" fill="#CCCCCC"/>
<path d="M113.675 111.885H112.327C112.339 112.015 112.368 112.11 112.414 112.174C112.479 112.263 112.564 112.31 112.667 112.31C112.733 112.31 112.796 112.289 112.856 112.249C112.892 112.223 112.931 112.18 112.974 112.116L113.636 112.188C113.535 112.399 113.414 112.55 113.269 112.642C113.127 112.734 112.921 112.778 112.653 112.778C112.421 112.778 112.237 112.737 112.105 112.659C111.972 112.581 111.861 112.457 111.774 112.287C111.687 112.116 111.643 111.917 111.643 111.686C111.643 111.359 111.73 111.093 111.906 110.891C112.083 110.689 112.324 110.588 112.634 110.588C112.885 110.588 113.083 110.634 113.228 110.723C113.373 110.813 113.484 110.946 113.559 111.119C113.634 111.293 113.673 111.515 113.673 111.792V111.882L113.675 111.885ZM112.991 111.498C112.979 111.342 112.943 111.232 112.887 111.163C112.829 111.096 112.757 111.061 112.663 111.061C112.556 111.061 112.472 111.113 112.407 111.215C112.365 111.278 112.339 111.371 112.329 111.498H112.991Z" fill="#CCCCCC"/>
<path d="M113.866 112.151L114.533 112.076C114.559 112.171 114.598 112.238 114.649 112.278C114.7 112.318 114.765 112.339 114.847 112.339C114.936 112.339 115.006 112.316 115.057 112.269C115.096 112.235 115.115 112.191 115.115 112.142C115.115 112.084 115.091 112.041 115.04 112.009C115.004 111.986 114.907 111.96 114.75 111.925C114.516 111.876 114.354 111.833 114.265 111.79C114.173 111.749 114.098 111.677 114.035 111.579C113.972 111.48 113.941 111.368 113.941 111.241C113.941 111.102 113.975 110.983 114.042 110.882C114.11 110.781 114.202 110.709 114.32 110.657C114.439 110.608 114.596 110.582 114.794 110.582C115.004 110.582 115.156 110.602 115.258 110.64C115.357 110.677 115.441 110.738 115.506 110.819C115.574 110.9 115.627 111.007 115.673 111.145L115.035 111.22C115.018 111.154 114.992 111.105 114.953 111.073C114.9 111.03 114.837 111.009 114.762 111.009C114.687 111.009 114.632 111.027 114.596 111.059C114.562 111.09 114.545 111.131 114.545 111.177C114.545 111.229 114.567 111.267 114.61 111.293C114.654 111.319 114.75 111.342 114.898 111.365C115.12 111.394 115.287 111.437 115.395 111.492C115.504 111.547 115.589 111.622 115.647 111.723C115.705 111.824 115.734 111.934 115.734 112.053C115.734 112.171 115.702 112.292 115.642 112.405C115.581 112.521 115.485 112.61 115.352 112.68C115.221 112.746 115.04 112.781 114.815 112.781C114.494 112.781 114.267 112.726 114.132 112.616C113.996 112.506 113.909 112.35 113.871 112.151H113.866Z" fill="#CCCCCC"/>
<path d="M119.026 112.735H118.398V112.394C118.304 112.532 118.21 112.633 118.116 112.691C118.021 112.752 117.903 112.781 117.765 112.781C117.579 112.781 117.434 112.714 117.33 112.581C117.224 112.448 117.173 112.246 117.173 111.969V110.634H117.85V111.787C117.85 111.92 117.869 112.012 117.91 112.067C117.951 112.122 118.009 112.151 118.082 112.151C118.161 112.151 118.227 112.113 118.28 112.041C118.331 111.969 118.357 111.836 118.357 111.645V110.637H119.029V112.735H119.026Z" fill="#CCCCCC"/>
<path d="M121.281 109.836V112.732H120.653V112.422C120.566 112.555 120.483 112.642 120.411 112.688C120.314 112.749 120.206 112.778 120.087 112.778C119.848 112.778 119.667 112.668 119.539 112.451C119.413 112.235 119.35 111.969 119.35 111.66C119.35 111.313 119.42 111.047 119.561 110.862C119.701 110.677 119.877 110.585 120.092 110.585C120.196 110.585 120.293 110.605 120.377 110.648C120.462 110.692 120.539 110.752 120.604 110.839V109.836H121.283H121.281ZM120.607 111.68C120.607 111.515 120.578 111.394 120.52 111.31C120.462 111.229 120.387 111.189 120.297 111.189C120.22 111.189 120.155 111.226 120.102 111.304C120.049 111.382 120.022 111.512 120.022 111.694C120.022 111.865 120.049 111.992 120.104 112.07C120.157 112.151 120.225 112.188 120.307 112.188C120.394 112.188 120.464 112.148 120.522 112.067C120.58 111.986 120.609 111.856 120.609 111.674L120.607 111.68Z" fill="#CCCCCC"/>
<path d="M122.784 111.824H122.155V111.749C122.155 111.622 122.167 111.518 122.192 111.437C122.216 111.356 122.252 111.284 122.3 111.217C122.349 111.151 122.455 111.035 122.624 110.871C122.713 110.784 122.757 110.703 122.757 110.631C122.757 110.559 122.74 110.501 122.704 110.463C122.668 110.423 122.614 110.403 122.542 110.403C122.465 110.403 122.399 110.434 122.349 110.495C122.298 110.556 122.264 110.666 122.25 110.819L121.609 110.723C121.631 110.44 121.718 110.215 121.865 110.041C122.015 109.871 122.242 109.784 122.552 109.784C122.791 109.784 122.987 109.845 123.134 109.963C123.334 110.125 123.433 110.342 123.433 110.611C123.433 110.723 123.407 110.83 123.356 110.934C123.305 111.038 123.199 111.165 123.04 111.316C122.929 111.42 122.858 111.506 122.829 111.57C122.8 111.634 122.786 111.717 122.786 111.821L122.784 111.824ZM122.136 112.024H122.808V112.732H122.136V112.024Z" fill="#CCCCCC"/>
<path d="M83.7935 53.8507V59.0722V53.8507Z" stroke="#3C4A30" stroke-width="0.5" stroke-miterlimit="10"/>
<path d="M167.226 70.0526H170.676V75.4099C170.676 75.7884 170.418 76.0976 170.101 76.0976H167.801C167.485 76.0976 167.226 75.7884 167.226 75.4099V70.0526Z" fill="#BAB25E"/>
<path d="M167.888 70.6738H167.886C167.811 70.6738 167.75 70.7463 167.75 70.8356V75.3145C167.75 75.4039 167.811 75.4763 167.886 75.4763H167.888C167.963 75.4763 168.024 75.4039 168.024 75.3145V70.8356C168.024 70.7463 167.963 70.6738 167.888 70.6738Z" fill="#3C4A30"/>
<path d="M168.954 70.6738H168.951C168.877 70.6738 168.816 70.7463 168.816 70.8356V75.3145C168.816 75.4039 168.877 75.4763 168.951 75.4763H168.954C169.029 75.4763 169.089 75.4039 169.089 75.3145V70.8356C169.089 70.7463 169.029 70.6738 168.954 70.6738Z" fill="#3C4A30"/>
<path d="M170.012 70.6738H170.01C169.935 70.6738 169.874 70.7463 169.874 70.8356V75.3145C169.874 75.4039 169.935 75.4763 170.01 75.4763H170.012C170.087 75.4763 170.147 75.4039 170.147 75.3145V70.8356C170.147 70.7463 170.087 70.6738 170.012 70.6738Z" fill="#3C4A30"/>
<path d="M170.676 69.5065H167.226C167.15 69.5065 167.089 69.5804 167.089 69.6715C167.089 69.7627 167.15 69.8366 167.226 69.8366H170.676C170.752 69.8366 170.814 69.7627 170.814 69.6715C170.814 69.5804 170.752 69.5065 170.676 69.5065Z" fill="#BAB25E"/>
<path d="M169.667 69.0557H168.183C168.106 69.0557 168.043 69.1309 168.043 69.2236C168.043 69.3164 168.106 69.3915 168.183 69.3915H169.667C169.744 69.3915 169.807 69.3164 169.807 69.2236C169.807 69.1309 169.744 69.0557 169.667 69.0557Z" fill="#BAB25E"/>
<path d="M167.226 81.949H170.676V87.3062C170.676 87.6848 170.418 87.994 170.101 87.994H167.801C167.485 87.994 167.226 87.6848 167.226 87.3062V81.949Z" fill="#BAB25E"/>
<path d="M167.888 82.5702H167.886C167.811 82.5702 167.75 82.6426 167.75 82.732V87.2108C167.75 87.3002 167.811 87.3727 167.886 87.3727H167.888C167.963 87.3727 168.024 87.3002 168.024 87.2108V82.732C168.024 82.6426 167.963 82.5702 167.888 82.5702Z" fill="#3C4A30"/>
<path d="M168.954 82.5702H168.951C168.877 82.5702 168.816 82.6426 168.816 82.732V87.2108C168.816 87.3002 168.877 87.3727 168.951 87.3727H168.954C169.029 87.3727 169.089 87.3002 169.089 87.2108V82.732C169.089 82.6426 169.029 82.5702 168.954 82.5702Z" fill="#3C4A30"/>
<path d="M170.012 82.5702H170.01C169.935 82.5702 169.874 82.6426 169.874 82.732V87.2108C169.874 87.3002 169.935 87.3727 170.01 87.3727H170.012C170.087 87.3727 170.147 87.3002 170.147 87.2108V82.732C170.147 82.6426 170.087 82.5702 170.012 82.5702Z" fill="#3C4A30"/>
<path d="M170.676 81.4028H167.226C167.15 81.4028 167.089 81.4767 167.089 81.5679C167.089 81.659 167.15 81.7329 167.226 81.7329H170.676C170.752 81.7329 170.814 81.659 170.814 81.5679C170.814 81.4767 170.752 81.4028 170.676 81.4028Z" fill="#BAB25E"/>
<path d="M169.667 80.952H168.183C168.106 80.952 168.043 81.0272 168.043 81.12C168.043 81.2127 168.106 81.2879 168.183 81.2879H169.667C169.744 81.2879 169.807 81.2127 169.807 81.12C169.807 81.0272 169.744 80.952 169.667 80.952Z" fill="#BAB25E"/>
<path d="M167.226 93.8453H170.676V99.2026C170.676 99.5811 170.418 99.8903 170.101 99.8903H167.801C167.485 99.8903 167.226 99.5811 167.226 99.2026V93.8453Z" fill="#BAB25E"/>
<path d="M167.888 94.4666H167.886C167.811 94.4666 167.75 94.5391 167.75 94.6284V99.1073C167.75 99.1966 167.811 99.2691 167.886 99.2691H167.888C167.963 99.2691 168.024 99.1966 168.024 99.1073V94.6284C168.024 94.5391 167.963 94.4666 167.888 94.4666Z" fill="#3C4A30"/>
<path d="M168.954 94.4666H168.951C168.877 94.4666 168.816 94.5391 168.816 94.6284V99.1073C168.816 99.1966 168.877 99.2691 168.951 99.2691H168.954C169.029 99.2691 169.089 99.1966 169.089 99.1073V94.6284C169.089 94.5391 169.029 94.4666 168.954 94.4666Z" fill="#3C4A30"/>
<path d="M170.012 94.4666H170.01C169.935 94.4666 169.874 94.5391 169.874 94.6284V99.1073C169.874 99.1966 169.935 99.2691 170.01 99.2691H170.012C170.087 99.2691 170.147 99.1966 170.147 99.1073V94.6284C170.147 94.5391 170.087 94.4666 170.012 94.4666Z" fill="#3C4A30"/>
<path d="M170.676 93.2992H167.226C167.15 93.2992 167.089 93.3731 167.089 93.4642C167.089 93.5554 167.15 93.6293 167.226 93.6293H170.676C170.752 93.6293 170.814 93.5554 170.814 93.4642C170.814 93.3731 170.752 93.2992 170.676 93.2992Z" fill="#BAB25E"/>
<path d="M169.667 92.8484H168.183C168.106 92.8484 168.043 92.9236 168.043 93.0164C168.043 93.1091 168.106 93.1843 168.183 93.1843H169.667C169.744 93.1843 169.807 93.1091 169.807 93.0164C169.807 92.9236 169.744 92.8484 169.667 92.8484Z" fill="#BAB25E"/>
<path d="M167.202 105.742H170.652V111.099C170.652 111.478 170.394 111.787 170.077 111.787H167.777C167.461 111.787 167.202 111.478 167.202 111.099V105.742Z" fill="#BAB25E"/>
<path d="M167.862 106.363H167.859C167.785 106.363 167.724 106.435 167.724 106.525V111.004C167.724 111.093 167.785 111.165 167.859 111.165H167.862C167.937 111.165 167.997 111.093 167.997 111.004V106.525C167.997 106.435 167.937 106.363 167.862 106.363Z" fill="#3C4A30"/>
<path d="M168.927 106.363H168.925C168.85 106.363 168.79 106.435 168.79 106.525V111.004C168.79 111.093 168.85 111.165 168.925 111.165H168.927C169.002 111.165 169.063 111.093 169.063 111.004V106.525C169.063 106.435 169.002 106.363 168.927 106.363Z" fill="#3C4A30"/>
<path d="M169.985 106.363H169.983C169.908 106.363 169.848 106.435 169.848 106.525V111.004C169.848 111.093 169.908 111.165 169.983 111.165H169.985C170.06 111.165 170.121 111.093 170.121 111.004V106.525C170.121 106.435 170.06 106.363 169.985 106.363Z" fill="#3C4A30"/>
<path d="M170.652 105.196H167.202C167.126 105.196 167.064 105.27 167.064 105.361C167.064 105.452 167.126 105.526 167.202 105.526H170.652C170.728 105.526 170.79 105.452 170.79 105.361C170.79 105.27 170.728 105.196 170.652 105.196Z" fill="#BAB25E"/>
<path d="M169.642 104.745H168.159C168.082 104.745 168.019 104.82 168.019 104.913C168.019 105.006 168.082 105.081 168.159 105.081H169.642C169.72 105.081 169.783 105.006 169.783 104.913C169.783 104.82 169.72 104.745 169.642 104.745Z" fill="#BAB25E"/>
<path d="M55.3593 143.653L37.2656 143.555L44.3784 137.4H61.0877L55.3593 143.653Z" fill="#617A51"/>
<path d="M77.3598 143.653L59.2661 143.555L64.7239 137.4H83.0882L77.3598 143.653Z" fill="#617A51"/>
<path d="M98.9445 143.653L80.8508 143.555L86.6106 137.4H104.67L98.9445 143.653Z" fill="#617A51"/>
<path d="M122.407 144.202L102.445 143.555L107.707 137.4H126.265L122.407 144.202Z" fill="#617A51"/>
<path d="M143.513 144.202L125.48 144.685L129.945 137.4H148.058L143.513 144.202Z" fill="#617A51"/>
<path d="M164.96 144.202H147.714L152.88 137.4H169.782L164.96 144.202Z" fill="#617A51"/>
<path d="M186.584 144.685H168.79L174.711 137.4H191.445L186.584 144.685Z" fill="#617A51"/>
<path d="M69.2226 153.241L51.1313 153.142L56.5892 146.988H74.951L69.2226 153.241Z" fill="#617A51"/>
<path d="M90.8073 153.241L72.7161 153.142L78.4735 146.988H96.5357L90.8073 153.241Z" fill="#617A51"/>
<path d="M114.272 153.79L94.3081 153.142L99.5726 146.988H118.13L114.272 153.79Z" fill="#617A51"/>
<path d="M135.376 153.79L117.343 154.272L121.807 146.988H139.923L135.376 153.79Z" fill="#617A51"/>
<path d="M156.825 153.79H139.58L144.743 146.988H161.645L156.825 153.79Z" fill="#617A51"/>
<path d="M178.869 154.238H161.075L166.997 146.953L184.586 146.988L178.869 154.238Z" fill="#617A51"/>
<path d="M46.6351 153.345L25.4465 152.041L33.5161 146.482L52.3635 147.092L46.6351 153.345Z" fill="#617A51"/>
<path d="M62.5495 162.455L44.4583 162.357L49.9161 156.202H68.2779L62.5495 162.455Z" fill="#617A51"/>
<path d="M130.995 162.455L66.4851 162.357L72.2449 156.202H134.668L130.995 162.455Z" fill="#617A51"/>
<path d="M152.17 161.973H135.243L138.401 156.676L155.625 157.006L152.17 161.973Z" fill="#617A51"/>
<path d="M173.31 162.415L155.625 162.473L159.857 156.662L177.465 156.185L173.31 162.415Z" fill="#617A51"/>
<path d="M38.9061 162.002L14.1636 161.733L22.2331 156.173L44.2045 156.884L38.9061 162.002Z" fill="#617A51"/>
</svg>
