<svg width="125" height="172" viewBox="0 0 125 172" fill="none" xmlns="http://www.w3.org/2000/svg">
<g clip-path="url(#clip0_101_3278)">
<path d="M101.208 37.3863L23.1735 148.348C23.1805 151.915 23.4851 157.554 22.0018 160.821C20.3216 163.651 17.3361 166.408 14.2686 167.058C9.44596 167.928 7.34863 166.985 3.48909 163.939C-1.41561 157.994 -0.942247 150.372 3.60625 144.32C6.05274 142.586 9.12726 141.256 12.0424 141.201C15.3302 142.121 89.8731 30.0348 91.954 28.9408C95.6964 22.5066 90.7167 12.4707 95.2324 6.59259C99.263 3.25855 109.85 -2.43763 114.448 1.13547L102.731 12.0497L104.84 18.8061L111.402 24.5231L123.353 13.6089C124.349 14.2689 124.014 15.641 124.056 16.6727C123.06 25.6899 116.358 35.8037 107.418 34.6577C105.248 34.6759 102.717 35.6036 101.208 37.3863Z" fill="#7E2512"/>
<path d="M22.8947 41.4143L100.929 152.376C100.922 155.943 100.618 161.582 102.101 164.849C103.781 167.679 106.767 170.436 109.834 171.086C114.657 171.956 116.754 171.013 120.614 167.967C125.518 162.022 125.045 154.4 120.497 148.348C118.05 146.614 114.976 145.284 112.06 145.229C108.773 146.149 34.2297 34.0628 32.1487 32.9688C28.4064 26.5346 33.386 16.4987 28.8703 10.6206C24.8397 7.28917 14.2523 1.59038 9.65463 5.16349L21.3715 16.0777L19.2625 22.8341L12.701 28.5511L0.749787 17.6369C-0.246149 18.2969 0.0889541 19.669 0.0467733 20.7007C1.04271 29.7179 7.74478 39.8317 16.6848 38.6857C18.8547 38.7039 21.3856 39.6316 22.8947 41.4143Z" fill="#A32D21"/>
<path d="M114.852 166.138C115.751 163.942 116.778 167.492 117.333 164.332C119.484 163.825 118.868 164.423 118.892 162.154C119.156 161.546 120.138 161.889 120.464 161.333C119.142 159.262 120.886 160.257 120.94 158.716C120.298 157.513 120.37 156.895 121.315 155.892C120.429 155.073 119.332 155.094 120.436 153.308C116.522 152.672 120.054 150.286 116.658 151.105C116.354 147.158 115.653 151.167 114.006 148.943C111.517 150.998 110.987 146.544 110.322 150.393C109.691 150.663 109.031 149.158 108.463 149.759C108.229 150.193 108.62 150.975 108.126 151.258C106.125 151.162 106.078 150.879 106.291 153.277C105.827 153.186 105.333 153.293 104.932 153.571C105.431 154.14 105.862 154.782 106.211 155.476C104.484 156.209 103.526 156.086 105.283 157.747C105.089 159.602 103.238 158.932 105.658 160.304C106.029 160.961 105.244 161.559 105.164 162.185C106.54 163.456 107.018 161.242 106.823 165.187C110.657 162.851 107.177 168.284 110.999 165.979C111.133 166.455 111.376 166.894 111.7 167.242C113.103 163.986 113.909 168.1 114.849 166.138H114.852Z" fill="#F3EFEA"/>
<path d="M9.25406 162.11C8.3542 159.914 7.3278 163.464 6.77242 160.304C4.6212 159.797 5.2375 160.395 5.21407 158.126C4.94927 157.518 3.96739 157.861 3.64166 157.305C4.96333 155.234 3.21985 156.229 3.16596 154.688C3.80804 153.485 3.7354 152.867 2.79102 151.864C3.67681 151.045 4.77352 151.066 3.66978 149.281C7.58323 148.644 4.05175 146.258 7.44731 147.077C7.75195 143.13 8.45262 147.139 10.1 144.915C12.5887 146.97 13.1183 142.516 13.7838 146.365C14.4142 146.635 15.075 145.131 15.6421 145.731C15.8765 146.165 15.4851 146.947 15.9796 147.23C17.9808 147.134 18.0277 146.851 17.8144 149.249C18.2784 149.158 18.7729 149.265 19.1736 149.543C18.6744 150.112 18.2433 150.754 17.8941 151.448C19.6212 152.181 20.5796 152.058 18.8221 153.719C19.0166 155.574 20.8679 154.904 18.4471 156.276C18.0769 156.933 18.8619 157.531 18.9416 158.157C17.566 159.428 17.088 157.214 17.2825 161.159C13.4487 158.823 16.9286 164.256 13.1066 161.951C12.973 162.427 12.7293 162.866 12.4059 163.214C11.0022 159.958 10.1961 164.072 9.2564 162.11H9.25406Z" fill="#F3EFEA"/>
</g>
<defs>
<clipPath id="clip0_101_3278">
<rect width="124.103" height="171.395" fill="white"/>
</clipPath>
</defs>
</svg>
