<svg width="302" height="661" viewBox="0 0 302 661" fill="none" xmlns="http://www.w3.org/2000/svg">
<path d="M150.447 108.663C178.851 108.663 201.877 84.3379 201.877 54.3314C201.877 24.325 178.851 0 150.447 0C122.043 0 99.0176 24.325 99.0176 54.3314C99.0176 84.3379 122.043 108.663 150.447 108.663Z" fill="#C94A35"/>
<path d="M109.941 100.263L146.024 118.254C150.017 120.24 154.673 120.165 158.613 118.046L192.242 99.9229C197.256 97.2176 203.399 99.6013 205.565 105.106L230.331 168.026L251.856 97.2176C253.091 93.1693 256.064 89.9533 259.878 88.5723L274.562 83.2186C277.893 82.0079 281.582 82.6321 284.375 84.9023L298.88 96.7069C303.392 100.377 302.587 107.812 297.394 110.309L281.814 117.781C279.092 119.086 276.997 121.527 276.03 124.535L246.215 217.799C244.12 224.363 236.079 226.085 231.71 220.901L205.476 189.706L231.226 278.657C234.127 288.702 235.273 299.201 234.611 309.682L221.61 441.178L205.44 601.41C204.795 606.405 207.195 611.285 211.439 613.612L251.73 635.595C259.395 637.978 257.675 649.915 249.689 649.821L194.069 649.083C187.031 648.988 181.623 642.462 182.465 635.084L184.005 604.948L168.265 445.037L155.157 351.83C154.118 347.46 148.155 347.744 147.492 352.208L126.559 438.359L119.665 612.175L120.775 637.411C121.205 642.254 117.605 646.434 113.003 646.434H48.5014C41.8578 646.434 40.264 636.654 46.5137 634.289L88.703 612.874C94.4692 609.942 97.8536 603.472 97.1194 596.757L56.291 436.657L73.464 312.746C72.694 297.915 73.9475 283.064 77.1708 268.611L96.9582 180.058L71.5837 209.153C67.5725 213.75 60.3917 212.331 58.225 206.505L24.7922 116.041C23.682 113.033 21.3899 110.668 18.5068 109.571L4.05568 104.066C-0.725542 102.25 -1.45974 95.4205 2.82008 92.5071L14.7821 84.3536C18.5605 81.7808 23.288 81.3079 27.4604 83.0672L40.8371 88.7425C43.3262 89.8019 45.3318 91.8261 46.442 94.4178L71.4226 152.703L96.5643 104.841C99.1966 99.8283 105.052 97.8419 109.959 100.282L109.941 100.263Z" fill="#C94A35"/>
<path d="M126.559 438.341L140.527 380.85L114.346 429.033L121.867 556.652L126.559 438.341Z" fill="#891A04"/>
<path d="M220.715 143.585L233.107 196.649C233.394 197.897 235.131 197.689 235.149 196.403L235.614 150.622L230.331 168.027L220.715 143.585Z" fill="#891A04"/>
<path d="M71.4047 152.703L63.4897 134.259L66.713 180.72C66.8384 182.65 69.4349 182.877 69.8826 181.004L81.0925 134.259L71.4047 152.703Z" fill="#891A04"/>
<path d="M96.9581 180.096L85.2647 193.489L81.0923 198.257L104.587 154.973C105.428 153.441 107.649 154.387 107.255 156.108L86.3928 227.352L96.9581 180.077V180.096Z" fill="#891A04"/>
<path d="M205.476 189.687L218.369 205.01L193.066 157.849C192.493 156.789 190.971 157.47 191.293 158.643L218.315 234.03L205.476 189.687Z" fill="#891A04"/>
<path d="M116.692 589.644H95.293C87.9689 588.66 81.8268 582.55 79.6779 574.075L46.8898 451.394C45.4393 446.002 44.6872 440.421 44.6156 434.822C44.4544 421.958 47.4807 408.262 47.8926 404.951L69.3454 247.272H240.305C240.305 247.272 240.682 407.353 235.614 425.647C230.546 443.94 225.443 578.993 220.715 585.104C215.988 591.214 166.564 591.195 164.397 585.104C162.23 579.012 150.447 285.808 150.447 285.808" stroke="#BAB25E" stroke-width="16" stroke-miterlimit="10"/>
<path d="M174.55 622.92C174.55 622.92 168.157 644.013 176.538 653.207C177.755 654.531 179.457 655.231 181.211 655.231C214.895 655.25 252.446 655.704 262.868 655.231C273.935 654.72 276.478 640.097 263.835 632.908C249.832 624.944 221.485 609.053 221.485 609.053" stroke="#006837" stroke-width="10" stroke-miterlimit="10"/>
<path d="M128.977 621.312C128.977 621.312 130.731 651.731 125.753 653.718C121.402 655.439 57.1149 655.174 39.4405 655.212C36.0024 655.212 32.7074 653.491 30.8451 650.445C28.2127 646.151 26.5473 638.186 37.7393 631.281C56.9896 619.42 75.5235 609.034 75.5235 609.034" stroke="#006837" stroke-width="10" stroke-miterlimit="10"/>
<path d="M124.052 107.301L146.024 118.254C149.193 119.578 152.739 119.522 155.873 118.065L177.039 108.114L158.881 151.53C155.658 159.211 145.326 159.173 142.174 151.473L124.07 107.301H124.052Z" fill="#891A04"/>
</svg>
